{
  "accessors": [
    {
      "name": "Group_MatrixTransform_i94b010_Geometry_0-Mesh_positions",
      "componentType": 5126,
      "count": 18,
      "min": [
        -24.218000411987305,
        -8.644530296325684,
        0.011100799776613712
      ],
      "max": [
        19.31599998474121,
        -7.139649868011475,
        4.578000068664551
      ],
      "type": "VEC3",
      "bufferView": 0,
      "byteOffset": 0
    },
    {
      "name": "Group_MatrixTransform_i94b010_Geometry_0-Mesh_normals",
      "componentType": 5126,
      "count": 18,
      "min": [
        0.03453511744737625,
        -0.9994034767150879,
        -0.00010897505126195028
      ],
      "max": [
        0.034545306116342545,
        -0.9994031190872192,
        -0.000011989101949438918
      ],
      "type": "VEC3",
      "bufferView": 0,
      "byteOffset": 1116
    },
    {
      "name": "Group_MatrixTransform_i94b010_Geometry_0-Mesh_texcoords",
      "componentType": 5126,
      "count": 18,
      "min": [
        -0.9985039830207825,
        0.0004980000085197389
      ],
      "max": [
        0.9995020031929016,
        0.9995007514953613
      ],
      "type": "VEC2",
      "bufferView": 1,
      "byteOffset": 0
    },
    {
      "name": "Group_MatrixTransform_i94b010_Geometry_0-Mesh_0_indices",
      "componentType": 5123,
      "count": 18,
      "min": [
        0
      ],
      "max": [
        17
      ],
      "type": "SCALAR",
      "bufferView": 2,
      "byteOffset": 0
    },
    {
      "name": "Group_MatrixTransform_i94b010_Geometry_1-Mesh_positions",
      "componentType": 5126,
      "count": 18,
      "min": [
        -13.335000038146973,
        -8.268070220947266,
        0
      ],
      "max": [
        24.756999969482422,
        -6.95166015625,
        4.578000068664551
      ],
      "type": "VEC3",
      "bufferView": 0,
      "byteOffset": 216
    },
    {
      "name": "Group_MatrixTransform_i94b010_Geometry_1-Mesh_normals",
      "componentType": 5126,
      "count": 18,
      "min": [
        0.03453488275408745,
        -0.9994034767150879,
        -0.00008429266017628834
      ],
      "max": [
        0.034545205533504486,
        -0.9994031190872192,
        0
      ],
      "type": "VEC3",
      "bufferView": 0,
      "byteOffset": 1332
    },
    {
      "name": "Group_MatrixTransform_i94b010_Geometry_1-Mesh_texcoords",
      "componentType": 5126,
      "count": 18,
      "min": [
        0.0004997249925509095,
        0.0005000000237487257
      ],
      "max": [
        0.9995020031929016,
        0.9995012283325195
      ],
      "type": "VEC2",
      "bufferView": 1,
      "byteOffset": 144
    },
    {
      "name": "Group_MatrixTransform_i94b010_Geometry_1-Mesh_0_indices",
      "componentType": 5123,
      "count": 18,
      "min": [
        0
      ],
      "max": [
        17
      ],
      "type": "SCALAR",
      "bufferView": 2,
      "byteOffset": 36
    },
    {
      "name": "Group_MatrixTransform_i94b010_Geometry_2-Mesh_positions",
      "componentType": 5126,
      "count": 24,
      "min": [
        -24.756999969482422,
        -8.644530296325684,
        0
      ],
      "max": [
        24.756999969482422,
        8.64501953125,
        6.710999965667725
      ],
      "type": "VEC3",
      "bufferView": 0,
      "byteOffset": 432
    },
    {
      "name": "Group_MatrixTransform_i94b010_Geometry_2-Mesh_normals",
      "componentType": 5126,
      "count": 24,
      "min": [
        -0.9994039535522461,
        -0.03452739119529724,
        -0.0000037644097119482467
      ],
      "max": [
        0.9994038343429565,
        0.034543007612228394,
        0
      ],
      "type": "VEC3",
      "bufferView": 0,
      "byteOffset": 1548
    },
    {
      "name": "Group_MatrixTransform_i94b010_Geometry_2-Mesh_texcoords",
      "componentType": 5126,
      "count": 24,
      "min": [
        -0.7487509846687317,
        0.0004990000161342323
      ],
      "max": [
        1.7487499713897705,
        0.9995007514953613
      ],
      "type": "VEC2",
      "bufferView": 1,
      "byteOffset": 288
    },
    {
      "name": "Group_MatrixTransform_i94b010_Geometry_2-Mesh_0_indices",
      "componentType": 5123,
      "count": 24,
      "min": [
        0
      ],
      "max": [
        23
      ],
      "type": "SCALAR",
      "bufferView": 2,
      "byteOffset": 72
    },
    {
      "name": "Group_MatrixTransform_i94b010_Geometry_3-Mesh_positions",
      "componentType": 5126,
      "count": 6,
      "min": [
        -24.756999969482422,
        6.953129768371582,
        0
      ],
      "max": [
        24.218000411987305,
        8.64501953125,
        4.578000068664551
      ],
      "type": "VEC3",
      "bufferView": 0,
      "byteOffset": 720
    },
    {
      "name": "Group_MatrixTransform_i94b010_Geometry_3-Mesh_normals",
      "componentType": 5126,
      "count": 6,
      "min": [
        -0.034525394439697266,
        0.9994038343429565,
        0
      ],
      "max": [
        -0.034525394439697266,
        0.9994038343429565,
        0
      ],
      "type": "VEC3",
      "bufferView": 0,
      "byteOffset": 1836
    },
    {
      "name": "Group_MatrixTransform_i94b010_Geometry_3-Mesh_texcoords",
      "componentType": 5126,
      "count": 6,
      "min": [
        0.1172339990735054,
        0.0005009999731555581
      ],
      "max": [
        8.998350143432617,
        0.9995012283325195
      ],
      "type": "VEC2",
      "bufferView": 1,
      "byteOffset": 480
    },
    {
      "name": "Group_MatrixTransform_i94b010_Geometry_3-Mesh_0_indices",
      "componentType": 5123,
      "count": 6,
      "min": [
        0
      ],
      "max": [
        5
      ],
      "type": "SCALAR",
      "bufferView": 2,
      "byteOffset": 120
    },
    {
      "name": "Group_MatrixTransform_i94b010_Geometry_4-Mesh_positions",
      "componentType": 5126,
      "count": 27,
      "min": [
        -24.756999969482422,
        -8.644530296325684,
        4.578000068664551
      ],
      "max": [
        24.756999969482422,
        8.64501953125,
        6.710999965667725
      ],
      "type": "VEC3",
      "bufferView": 0,
      "byteOffset": 792
    },
    {
      "name": "Group_MatrixTransform_i94b010_Geometry_4-Mesh_normals",
      "componentType": 5126,
      "count": 27,
      "min": [
        -0.009096323512494564,
        -0.2637399435043335,
        0.9645507335662842
      ],
      "max": [
        0.009116417728364468,
        0.26331010460853577,
        0.964668333530426
      ],
      "type": "VEC3",
      "bufferView": 0,
      "byteOffset": 1908
    },
    {
      "name": "Group_MatrixTransform_i94b010_Geometry_4-Mesh_texcoords",
      "componentType": 5126,
      "count": 27,
      "min": [
        0,
        0.00016999999934341758
      ],
      "max": [
        0.9992380142211914,
        1
      ],
      "type": "VEC2",
      "bufferView": 1,
      "byteOffset": 528
    },
    {
      "name": "Group_MatrixTransform_i94b010_Geometry_4-Mesh_0_indices",
      "componentType": 5123,
      "count": 27,
      "min": [
        0
      ],
      "max": [
        26
      ],
      "type": "SCALAR",
      "bufferView": 2,
      "byteOffset": 132
    }
  ],
  "asset": {
    "generator": "obj2gltf",
    "version": "2.0"
  },
  "buffers": [
    {
      "name": "i94b010",
      "byteLength": 145764,
      "uri": "data:application/octet-stream;base64,"
    }
  ],
  "bufferViews": [
    {
      "name": "bufferView_0",
      "buffer": 0,
      "byteLength": 2232,
      "byteOffset": 0,
      "byteStride": 12,
      "target": 34962
    },
    {
      "name": "bufferView_1",
      "buffer": 0,
      "byteLength": 744,
      "byteOffset": 2232,
      "byteStride": 8,
      "target": 34962
    },
    {
      "name": "bufferView_2",
      "buffer": 0,
      "byteLength": 188,
      "byteOffset": 2976,
      "target": 34963
    },
    {
      "buffer": 0,
      "byteOffset": 3164,
      "byteLength": 20707
    },
    {
      "buffer": 0,
      "byteOffset": 23871,
      "byteLength": 28296
    },
    {
      "buffer": 0,
      "byteOffset": 52167,
      "byteLength": 16147
    },
    {
      "buffer": 0,
      "byteOffset": 68314,
      "byteLength": 21047
    },
    {
      "buffer": 0,
      "byteOffset": 89361,
      "byteLength": 56400
    }
  ],
  "images": [
    {
      "name": "i9400038_j",
      "mimeType": "image/png",
      "bufferView": 3
    },
    {
      "name": "i9400037_j",
      "mimeType": "image/png",
      "bufferView": 4
    },
    {
      "name": "i9400039_j",
      "mimeType": "image/png",
      "bufferView": 5
    },
    {
      "name": "i9400040_j",
      "mimeType": "image/png",
      "bufferView": 6
    },
    {
      "name": "i94b_h63_b",
      "mimeType": "image/png",
      "bufferView": 7
    }
  ],
  "materials": [
    {
      "name": "material_16",
      "pbrMetallicRoughness": {
        "baseColorTexture": {
          "index": 0
        },
        "baseColorFactor": [
          1,
          1,
          1,
          1
        ],
        "metallicFactor": 0,
        "roughnessFactor": 1
      },
      "emissiveFactor": [
        0,
        0,
        0
      ],
      "alphaMode": "OPAQUE",
      "doubleSided": false
    },
    {
      "name": "material_17",
      "pbrMetallicRoughness": {
        "baseColorTexture": {
          "index": 1
        },
        "baseColorFactor": [
          1,
          1,
          1,
          1
        ],
        "metallicFactor": 0,
        "roughnessFactor": 1
      },
      "emissiveFactor": [
        0,
        0,
        0
      ],
      "alphaMode": "OPAQUE",
      "doubleSided": false
    },
    {
      "name": "material_18",
      "pbrMetallicRoughness": {
        "baseColorTexture": {
          "index": 2
        },
        "baseColorFactor": [
          1,
          1,
          1,
          1
        ],
        "metallicFactor": 0,
        "roughnessFactor": 1
      },
      "emissiveFactor": [
        0,
        0,
        0
      ],
      "alphaMode": "OPAQUE",
      "doubleSided": false
    },
    {
      "name": "material_19",
      "pbrMetallicRoughness": {
        "baseColorTexture": {
          "index": 3
        },
        "baseColorFactor": [
          1,
          1,
          1,
          1
        ],
        "metallicFactor": 0,
        "roughnessFactor": 1
      },
      "emissiveFactor": [
        0,
        0,
        0
      ],
      "alphaMode": "OPAQUE",
      "doubleSided": false
    },
    {
      "name": "material_20",
      "pbrMetallicRoughness": {
        "baseColorTexture": {
          "index": 4
        },
        "baseColorFactor": [
          1,
          1,
          1,
          1
        ],
        "metallicFactor": 0,
        "roughnessFactor": 1
      },
      "emissiveFactor": [
        0,
        0,
        0
      ],
      "alphaMode": "OPAQUE",
      "doubleSided": false
    }
  ],
  "meshes": [
    {
      "name": "Group_MatrixTransform_i94b010_Geometry_0-Mesh",
      "primitives": [
        {
          "attributes": {
            "POSITION": 0,
            "NORMAL": 1,
            "TEXCOORD_0": 2
          },
          "indices": 3,
          "material": 0,
          "mode": 4
        }
      ]
    },
    {
      "name": "Group_MatrixTransform_i94b010_Geometry_1-Mesh",
      "primitives": [
        {
          "attributes": {
            "POSITION": 4,
            "NORMAL": 5,
            "TEXCOORD_0": 6
          },
          "indices": 7,
          "material": 1,
          "mode": 4
        }
      ]
    },
    {
      "name": "Group_MatrixTransform_i94b010_Geometry_2-Mesh",
      "primitives": [
        {
          "attributes": {
            "POSITION": 8,
            "NORMAL": 9,
            "TEXCOORD_0": 10
          },
          "indices": 11,
          "material": 2,
          "mode": 4
        }
      ]
    },
    {
      "name": "Group_MatrixTransform_i94b010_Geometry_3-Mesh",
      "primitives": [
        {
          "attributes": {
            "POSITION": 12,
            "NORMAL": 13,
            "TEXCOORD_0": 14
          },
          "indices": 15,
          "material": 3,
          "mode": 4
        }
      ]
    },
    {
      "name": "Group_MatrixTransform_i94b010_Geometry_4-Mesh",
      "primitives": [
        {
          "attributes": {
            "POSITION": 16,
            "NORMAL": 17,
            "TEXCOORD_0": 18
          },
          "indices": 19,
          "material": 4,
          "mode": 4
        }
      ]
    }
  ],
  "nodes": [
    {
      "name": "Group_MatrixTransform_i94b010_Geometry_0",
      "mesh": 0
    },
    {
      "name": "Group_MatrixTransform_i94b010_Geometry_1",
      "mesh": 1
    },
    {
      "name": "Group_MatrixTransform_i94b010_Geometry_2",
      "mesh": 2
    },
    {
      "name": "Group_MatrixTransform_i94b010_Geometry_3",
      "mesh": 3
    },
    {
      "name": "Group_MatrixTransform_i94b010_Geometry_4",
      "mesh": 4
    }
  ],
  "samplers": [
    {
      "magFilter": 9729,
      "minFilter": 9986,
      "wrapS": 10497,
      "wrapT": 10497
    }
  ],
  "scene": 0,
  "scenes": [
    {
      "nodes": [
        0,
        1,
        2,
        3,
        4
      ]
    }
  ],
  "textures": [
    {
      "name": "i9400038_j",
      "sampler": 0,
      "source": 0
    },
    {
      "name": "i9400037_j",
      "sampler": 0,
      "source": 1
    },
    {
      "name": "i9400039_j",
      "sampler": 0,
      "source": 2
    },
    {
      "name": "i9400040_j",
      "sampler": 0,
      "source": 3
    },
    {
      "name": "i94b_h63_b",
      "sampler": 0,
      "source": 4
    }
  ]
}
