{
  "accessors": [
    {
      "name": "Group_MatrixTransform_i94b011_Geometry_0-Mesh_positions",
      "componentType": 5126,
      "count": 6,
      "min": [
        -27.01289939880371,
        -9.205080032348633,
        0.01869959942996502
      ],
      "max": [
        27.565099716186523,
        -7.391109943389893,
        8.081999778747559
      ],
      "type": "VEC3",
      "bufferView": 0,
      "byteOffset": 0
    },
    {
      "name": "Group_MatrixTransform_i94b011_Geometry_0-Mesh_normals",
      "componentType": 5126,
      "count": 6,
      "min": [
        0.03321780636906624,
        -0.9994481205940247,
        -5.028880423196824e-7
      ],
      "max": [
        0.03321780636906624,
        -0.9994481205940247,
        0
      ],
      "type": "VEC3",
      "bufferView": 0,
      "byteOffset": 576
    },
    {
      "name": "Group_MatrixTransform_i94b011_Geometry_0-Mesh_texcoords",
      "componentType": 5126,
      "count": 6,
      "min": [
        0.004994870163500309,
        0.0004990000161342323
      ],
      "max": [
        9.994999885559082,
        0.9995002746582031
      ],
      "type": "VEC2",
      "bufferView": 1,
      "byteOffset": 0
    },
    {
      "name": "Group_MatrixTransform_i94b011_Geometry_0-Mesh_0_indices",
      "componentType": 5123,
      "count": 6,
      "min": [
        0
      ],
      "max": [
        5
      ],
      "type": "SCALAR",
      "bufferView": 2,
      "byteOffset": 0
    },
    {
      "name": "Group_MatrixTransform_i94b011_Geometry_1-Mesh_positions",
      "componentType": 5126,
      "count": 6,
      "min": [
        -27.564899444580078,
        7.391109943389893,
        0
      ],
      "max": [
        27.013999938964844,
        9.205080032348633,
        8.081999778747559
      ],
      "type": "VEC3",
      "bufferView": 0,
      "byteOffset": 72
    },
    {
      "name": "Group_MatrixTransform_i94b011_Geometry_1-Mesh_normals",
      "componentType": 5126,
      "count": 6,
      "min": [
        -0.033217303454875946,
        0.9994481801986694,
        0
      ],
      "max": [
        -0.033217303454875946,
        0.9994481801986694,
        0
      ],
      "type": "VEC3",
      "bufferView": 0,
      "byteOffset": 648
    },
    {
      "name": "Group_MatrixTransform_i94b011_Geometry_1-Mesh_texcoords",
      "componentType": 5126,
      "count": 6,
      "min": [
        0.004997250158339739,
        0.0005000000237487257
      ],
      "max": [
        9.994999885559082,
        0.9995002746582031
      ],
      "type": "VEC2",
      "bufferView": 1,
      "byteOffset": 48
    },
    {
      "name": "Group_MatrixTransform_i94b011_Geometry_1-Mesh_0_indices",
      "componentType": 5123,
      "count": 6,
      "min": [
        0
      ],
      "max": [
        5
      ],
      "type": "SCALAR",
      "bufferView": 2,
      "byteOffset": 12
    },
    {
      "name": "Group_MatrixTransform_i94b011_Geometry_2-Mesh_positions",
      "componentType": 5126,
      "count": 24,
      "min": [
        -27.564899444580078,
        -9.205080032348633,
        0
      ],
      "max": [
        27.565099716186523,
        9.205080032348633,
        10.322999954223633
      ],
      "type": "VEC3",
      "bufferView": 0,
      "byteOffset": 144
    },
    {
      "name": "Group_MatrixTransform_i94b011_Geometry_2-Mesh_normals",
      "componentType": 5126,
      "count": 24,
      "min": [
        -0.9998037219047546,
        -0.046750880777835846,
        -0.000015130596693779808
      ],
      "max": [
        0.999459981918335,
        0.033527594059705734,
        0
      ],
      "type": "VEC3",
      "bufferView": 0,
      "byteOffset": 720
    },
    {
      "name": "Group_MatrixTransform_i94b011_Geometry_2-Mesh_texcoords",
      "componentType": 5126,
      "count": 24,
      "min": [
        0.0004993680049665272,
        0.0004990000161342323
      ],
      "max": [
        0.9995009899139404,
        0.9995005130767822
      ],
      "type": "VEC2",
      "bufferView": 1,
      "byteOffset": 96
    },
    {
      "name": "Group_MatrixTransform_i94b011_Geometry_2-Mesh_0_indices",
      "componentType": 5123,
      "count": 24,
      "min": [
        0
      ],
      "max": [
        23
      ],
      "type": "SCALAR",
      "bufferView": 2,
      "byteOffset": 24
    },
    {
      "name": "Group_MatrixTransform_i94b011_Geometry_3-Mesh_positions",
      "componentType": 5126,
      "count": 12,
      "min": [
        -27.564899444580078,
        -9.205080032348633,
        8.081999778747559
      ],
      "max": [
        27.565099716186523,
        9.205080032348633,
        10.322999954223633
      ],
      "type": "VEC3",
      "bufferView": 0,
      "byteOffset": 432
    },
    {
      "name": "Group_MatrixTransform_i94b011_Geometry_3-Mesh_normals",
      "componentType": 5126,
      "count": 12,
      "min": [
        -0.008681662380695343,
        -0.2605679929256439,
        0.9652413129806519
      ],
      "max": [
        0.008630622178316116,
        0.26121607422828674,
        0.9656572341918945
      ],
      "type": "VEC3",
      "bufferView": 0,
      "byteOffset": 1008
    },
    {
      "name": "Group_MatrixTransform_i94b011_Geometry_3-Mesh_texcoords",
      "componentType": 5126,
      "count": 12,
      "min": [
        0,
        0.0016469999682158232
      ],
      "max": [
        0.9990130066871643,
        1
      ],
      "type": "VEC2",
      "bufferView": 1,
      "byteOffset": 288
    },
    {
      "name": "Group_MatrixTransform_i94b011_Geometry_3-Mesh_0_indices",
      "componentType": 5123,
      "count": 12,
      "min": [
        0
      ],
      "max": [
        11
      ],
      "type": "SCALAR",
      "bufferView": 2,
      "byteOffset": 72
    }
  ],
  "asset": {
    "generator": "obj2gltf",
    "version": "2.0"
  },
  "buffers": [
    {
      "name": "i94b011",
      "byteLength": 117020,
      "uri": "data:application/octet-stream;base64,"
    }
  ],
  "bufferViews": [
    {
      "name": "bufferView_0",
      "buffer": 0,
      "byteLength": 1152,
      "byteOffset": 0,
      "byteStride": 12,
      "target": 34962
    },
    {
      "name": "bufferView_1",
      "buffer": 0,
      "byteLength": 384,
      "byteOffset": 1152,
      "byteStride": 8,
      "target": 34962
    },
    {
      "name": "bufferView_2",
      "buffer": 0,
      "byteLength": 96,
      "byteOffset": 1536,
      "target": 34963
    },
    {
      "buffer": 0,
      "byteOffset": 1632,
      "byteLength": 19337
    },
    {
      "buffer": 0,
      "byteOffset": 20969,
      "byteLength": 20281
    },
    {
      "buffer": 0,
      "byteOffset": 41250,
      "byteLength": 21940
    },
    {
      "buffer": 0,
      "byteOffset": 63190,
      "byteLength": 53828
    }
  ],
  "images": [
    {
      "name": "i9400043_j",
      "mimeType": "image/png",
      "bufferView": 3
    },
    {
      "name": "i9400042_j",
      "mimeType": "image/png",
      "bufferView": 4
    },
    {
      "name": "i9400041_j",
      "mimeType": "image/png",
      "bufferView": 5
    },
    {
      "name": "i94b_h62_b",
      "mimeType": "image/png",
      "bufferView": 6
    }
  ],
  "materials": [
    {
      "name": "material_21",
      "pbrMetallicRoughness": {
        "baseColorTexture": {
          "index": 0
        },
        "baseColorFactor": [
          1,
          1,
          1,
          1
        ],
        "metallicFactor": 0,
        "roughnessFactor": 1
      },
      "emissiveFactor": [
        0,
        0,
        0
      ],
      "alphaMode": "OPAQUE",
      "doubleSided": false
    },
    {
      "name": "material_22",
      "pbrMetallicRoughness": {
        "baseColorTexture": {
          "index": 1
        },
        "baseColorFactor": [
          1,
          1,
          1,
          1
        ],
        "metallicFactor": 0,
        "roughnessFactor": 1
      },
      "emissiveFactor": [
        0,
        0,
        0
      ],
      "alphaMode": "OPAQUE",
      "doubleSided": false
    },
    {
      "name": "material_23",
      "pbrMetallicRoughness": {
        "baseColorTexture": {
          "index": 2
        },
        "baseColorFactor": [
          1,
          1,
          1,
          1
        ],
        "metallicFactor": 0,
        "roughnessFactor": 1
      },
      "emissiveFactor": [
        0,
        0,
        0
      ],
      "alphaMode": "OPAQUE",
      "doubleSided": false
    },
    {
      "name": "material_24",
      "pbrMetallicRoughness": {
        "baseColorTexture": {
          "index": 3
        },
        "baseColorFactor": [
          1,
          1,
          1,
          1
        ],
        "metallicFactor": 0,
        "roughnessFactor": 1
      },
      "emissiveFactor": [
        0,
        0,
        0
      ],
      "alphaMode": "OPAQUE",
      "doubleSided": false
    }
  ],
  "meshes": [
    {
      "name": "Group_MatrixTransform_i94b011_Geometry_0-Mesh",
      "primitives": [
        {
          "attributes": {
            "POSITION": 0,
            "NORMAL": 1,
            "TEXCOORD_0": 2
          },
          "indices": 3,
          "material": 0,
          "mode": 4
        }
      ]
    },
    {
      "name": "Group_MatrixTransform_i94b011_Geometry_1-Mesh",
      "primitives": [
        {
          "attributes": {
            "POSITION": 4,
            "NORMAL": 5,
            "TEXCOORD_0": 6
          },
          "indices": 7,
          "material": 1,
          "mode": 4
        }
      ]
    },
    {
      "name": "Group_MatrixTransform_i94b011_Geometry_2-Mesh",
      "primitives": [
        {
          "attributes": {
            "POSITION": 8,
            "NORMAL": 9,
            "TEXCOORD_0": 10
          },
          "indices": 11,
          "material": 2,
          "mode": 4
        }
      ]
    },
    {
      "name": "Group_MatrixTransform_i94b011_Geometry_3-Mesh",
      "primitives": [
        {
          "attributes": {
            "POSITION": 12,
            "NORMAL": 13,
            "TEXCOORD_0": 14
          },
          "indices": 15,
          "material": 3,
          "mode": 4
        }
      ]
    }
  ],
  "nodes": [
    {
      "name": "Group_MatrixTransform_i94b011_Geometry_0",
      "mesh": 0
    },
    {
      "name": "Group_MatrixTransform_i94b011_Geometry_1",
      "mesh": 1
    },
    {
      "name": "Group_MatrixTransform_i94b011_Geometry_2",
      "mesh": 2
    },
    {
      "name": "Group_MatrixTransform_i94b011_Geometry_3",
      "mesh": 3
    }
  ],
  "samplers": [
    {
      "magFilter": 9729,
      "minFilter": 9986,
      "wrapS": 10497,
      "wrapT": 10497
    }
  ],
  "scene": 0,
  "scenes": [
    {
      "nodes": [
        0,
        1,
        2,
        3
      ]
    }
  ],
  "textures": [
    {
      "name": "i9400043_j",
      "sampler": 0,
      "source": 0
    },
    {
      "name": "i9400042_j",
      "sampler": 0,
      "source": 1
    },
    {
      "name": "i9400041_j",
      "sampler": 0,
      "source": 2
    },
    {
      "name": "i94b_h62_b",
      "sampler": 0,
      "source": 3
    }
  ]
}
