{
  "accessors": [
    {
      "name": "Group_MatrixTransform_i94b051_Geometry_0-Mesh_positions",
      "componentType": 5126,
      "count": 24,
      "min": [
        -3.3719499111175537,
        -40.37739944458008,
        0.12219999730587006
      ],
      "max": [
        25.22010040283203,
        23.35449981689453,
        6.692999839782715
      ],
      "type": "VEC3",
      "bufferView": 0,
      "byteOffset": 0
    },
    {
      "name": "Group_MatrixTransform_i94b051_Geometry_0-Mesh_normals",
      "componentType": 5126,
      "count": 24,
      "min": [
        0.034644391387701035,
        -0.999399721622467,
        -0.0000751559782656841
      ],
      "max": [
        0.9993972778320312,
        0.03471490740776062,
        0
      ],
      "type": "VEC3",
      "bufferView": 0,
      "byteOffset": 4680
    },
    {
      "name": "Group_MatrixTransform_i94b051_Geometry_0-Mesh_texcoords",
      "componentType": 5126,
      "count": 24,
      "min": [
        -0.10180699825286865,
        0.0005000000237487257
      ],
      "max": [
        6.997499942779541,
        0.9995007514953613
      ],
      "type": "VEC2",
      "bufferView": 1,
      "byteOffset": 0
    },
    {
      "name": "Group_MatrixTransform_i94b051_Geometry_0-Mesh_0_indices",
      "componentType": 5123,
      "count": 24,
      "min": [
        0
      ],
      "max": [
        23
      ],
      "type": "SCALAR",
      "bufferView": 2,
      "byteOffset": 0
    },
    {
      "name": "Group_MatrixTransform_i94b051_Geometry_1-Mesh_positions",
      "componentType": 5126,
      "count": 66,
      "min": [
        -26.019899368286133,
        -41.06639862060547,
        0
      ],
      "max": [
        25.841999053955078,
        41.273399353027344,
        6.692999839782715
      ],
      "type": "VEC3",
      "bufferView": 0,
      "byteOffset": 288
    },
    {
      "name": "Group_MatrixTransform_i94b051_Geometry_1-Mesh_normals",
      "componentType": 5126,
      "count": 66,
      "min": [
        -0.0347340852022171,
        -0.999399721622467,
        -0.000050562808610266075
      ],
      "max": [
        0.9993972182273865,
        0.9993981719017029,
        5.541859309232677e-7
      ],
      "type": "VEC3",
      "bufferView": 0,
      "byteOffset": 4968
    },
    {
      "name": "Group_MatrixTransform_i94b051_Geometry_1-Mesh_texcoords",
      "componentType": 5126,
      "count": 66,
      "min": [
        -0.21184800565242767,
        0.0004990000161342323
      ],
      "max": [
        8.995499610900879,
        0.9995007514953613
      ],
      "type": "VEC2",
      "bufferView": 1,
      "byteOffset": 192
    },
    {
      "name": "Group_MatrixTransform_i94b051_Geometry_1-Mesh_0_indices",
      "componentType": 5123,
      "count": 66,
      "min": [
        0
      ],
      "max": [
        65
      ],
      "type": "SCALAR",
      "bufferView": 2,
      "byteOffset": 48
    },
    {
      "name": "Group_MatrixTransform_i94b051_Geometry_2-Mesh_positions",
      "componentType": 5126,
      "count": 6,
      "min": [
        23.71109962463379,
        16.375,
        4.295000076293945
      ],
      "max": [
        24.807100296020508,
        22.315900802612305,
        4.295000076293945
      ],
      "type": "VEC3",
      "bufferView": 0,
      "byteOffset": 1080
    },
    {
      "name": "Group_MatrixTransform_i94b051_Geometry_2-Mesh_normals",
      "componentType": 5126,
      "count": 6,
      "min": [
        0,
        0,
        1
      ],
      "max": [
        0,
        0,
        1
      ],
      "type": "VEC3",
      "bufferView": 0,
      "byteOffset": 5760
    },
    {
      "name": "Group_MatrixTransform_i94b051_Geometry_2-Mesh_texcoords",
      "componentType": 5126,
      "count": 6,
      "min": [
        0,
        0.008282000198960304
      ],
      "max": [
        0.984145998954773,
        1
      ],
      "type": "VEC2",
      "bufferView": 1,
      "byteOffset": 720
    },
    {
      "name": "Group_MatrixTransform_i94b051_Geometry_2-Mesh_0_indices",
      "componentType": 5123,
      "count": 6,
      "min": [
        0
      ],
      "max": [
        5
      ],
      "type": "SCALAR",
      "bufferView": 2,
      "byteOffset": 180
    },
    {
      "name": "Group_MatrixTransform_i94b051_Geometry_3-Mesh_positions",
      "componentType": 5126,
      "count": 6,
      "min": [
        25.048099517822266,
        -20.53660011291504,
        4.309599876403809
      ],
      "max": [
        26.020000457763672,
        -14.567899703979492,
        4.309599876403809
      ],
      "type": "VEC3",
      "bufferView": 0,
      "byteOffset": 1152
    },
    {
      "name": "Group_MatrixTransform_i94b051_Geometry_3-Mesh_normals",
      "componentType": 5126,
      "count": 6,
      "min": [
        0,
        0,
        1
      ],
      "max": [
        0,
        0,
        1
      ],
      "type": "VEC3",
      "bufferView": 0,
      "byteOffset": 5832
    },
    {
      "name": "Group_MatrixTransform_i94b051_Geometry_3-Mesh_texcoords",
      "componentType": 5126,
      "count": 6,
      "min": [
        0,
        0.0010300000431016088
      ],
      "max": [
        0.9815589785575867,
        1
      ],
      "type": "VEC2",
      "bufferView": 1,
      "byteOffset": 768
    },
    {
      "name": "Group_MatrixTransform_i94b051_Geometry_3-Mesh_0_indices",
      "componentType": 5123,
      "count": 6,
      "min": [
        0
      ],
      "max": [
        5
      ],
      "type": "SCALAR",
      "bufferView": 2,
      "byteOffset": 192
    },
    {
      "name": "Group_MatrixTransform_i94b051_Geometry_4-Mesh_positions",
      "componentType": 5126,
      "count": 6,
      "min": [
        -3.386960029602051,
        -41.273399353027344,
        4.306399822235107
      ],
      "max": [
        5.384029865264893,
        -40.104000091552734,
        4.306399822235107
      ],
      "type": "VEC3",
      "bufferView": 0,
      "byteOffset": 1224
    },
    {
      "name": "Group_MatrixTransform_i94b051_Geometry_4-Mesh_normals",
      "componentType": 5126,
      "count": 6,
      "min": [
        0,
        0,
        1
      ],
      "max": [
        0,
        0,
        1
      ],
      "type": "VEC3",
      "bufferView": 0,
      "byteOffset": 5904
    },
    {
      "name": "Group_MatrixTransform_i94b051_Geometry_4-Mesh_texcoords",
      "componentType": 5126,
      "count": 6,
      "min": [
        0,
        0.009061000309884548
      ],
      "max": [
        0.999692976474762,
        1
      ],
      "type": "VEC2",
      "bufferView": 1,
      "byteOffset": 816
    },
    {
      "name": "Group_MatrixTransform_i94b051_Geometry_4-Mesh_0_indices",
      "componentType": 5123,
      "count": 6,
      "min": [
        0
      ],
      "max": [
        5
      ],
      "type": "SCALAR",
      "bufferView": 2,
      "byteOffset": 204
    },
    {
      "name": "Group_MatrixTransform_i94b051_Geometry_5-Mesh_positions",
      "componentType": 5126,
      "count": 6,
      "min": [
        -26.019899368286133,
        -41.06639862060547,
        0
      ],
      "max": [
        -23.218900680541992,
        39.56930160522461,
        6.692999839782715
      ],
      "type": "VEC3",
      "bufferView": 0,
      "byteOffset": 1296
    },
    {
      "name": "Group_MatrixTransform_i94b051_Geometry_5-Mesh_normals",
      "componentType": 5126,
      "count": 6,
      "min": [
        -0.9993972182273865,
        -0.03471560776233673,
        0
      ],
      "max": [
        -0.9993972182273865,
        -0.03471560776233673,
        0
      ],
      "type": "VEC3",
      "bufferView": 0,
      "byteOffset": 5976
    },
    {
      "name": "Group_MatrixTransform_i94b051_Geometry_5-Mesh_texcoords",
      "componentType": 5126,
      "count": 6,
      "min": [
        -2.859839916229248,
        0.0554720014333725
      ],
      "max": [
        3.859839916229248,
        0.9995277523994446
      ],
      "type": "VEC2",
      "bufferView": 1,
      "byteOffset": 864
    },
    {
      "name": "Group_MatrixTransform_i94b051_Geometry_5-Mesh_0_indices",
      "componentType": 5123,
      "count": 6,
      "min": [
        0
      ],
      "max": [
        5
      ],
      "type": "SCALAR",
      "bufferView": 2,
      "byteOffset": 216
    },
    {
      "name": "Group_MatrixTransform_i94b051_Geometry_6-Mesh_positions",
      "componentType": 5126,
      "count": 216,
      "min": [
        -26.019899368286133,
        -41.273399353027344,
        4.088699817657471
      ],
      "max": [
        26.020000457763672,
        41.273399353027344,
        7.697999954223633
      ],
      "type": "VEC3",
      "bufferView": 0,
      "byteOffset": 1368
    },
    {
      "name": "Group_MatrixTransform_i94b051_Geometry_6-Mesh_normals",
      "componentType": 5126,
      "count": 216,
      "min": [
        -0.9997943639755249,
        -0.9998096823692322,
        -1
      ],
      "max": [
        0.9997947812080383,
        0.999809741973877,
        0.005723477806895971
      ],
      "type": "VEC3",
      "bufferView": 0,
      "byteOffset": 6048
    },
    {
      "name": "Group_MatrixTransform_i94b051_Geometry_6-Mesh_texcoords",
      "componentType": 5126,
      "count": 216,
      "min": [
        -19.92169952392578,
        -10.21310043334961
      ],
      "max": [
        21.085100173950195,
        11.212900161743164
      ],
      "type": "VEC2",
      "bufferView": 1,
      "byteOffset": 912
    },
    {
      "name": "Group_MatrixTransform_i94b051_Geometry_6-Mesh_0_indices",
      "componentType": 5123,
      "count": 216,
      "min": [
        0
      ],
      "max": [
        215
      ],
      "type": "SCALAR",
      "bufferView": 2,
      "byteOffset": 228
    },
    {
      "name": "Group_MatrixTransform_i94b051_Geometry_7-Mesh_positions",
      "componentType": 5126,
      "count": 24,
      "min": [
        -26.019899368286133,
        -41.06639862060547,
        6.692699909210205
      ],
      "max": [
        25.841999053955078,
        41.273399353027344,
        7.611999988555908
      ],
      "type": "VEC3",
      "bufferView": 0,
      "byteOffset": 3960
    },
    {
      "name": "Group_MatrixTransform_i94b051_Geometry_7-Mesh_normals",
      "componentType": 5126,
      "count": 24,
      "min": [
        -0.07612886279821396,
        -0.0026444289833307266,
        0.9970706105232239
      ],
      "max": [
        0.07644037157297134,
        0.002655239077284932,
        0.9974020719528198
      ],
      "type": "VEC3",
      "bufferView": 0,
      "byteOffset": 8640
    },
    {
      "name": "Group_MatrixTransform_i94b051_Geometry_7-Mesh_texcoords",
      "componentType": 5126,
      "count": 24,
      "min": [
        0,
        0.00014000000373926014
      ],
      "max": [
        0.999409019947052,
        1
      ],
      "type": "VEC2",
      "bufferView": 1,
      "byteOffset": 2640
    },
    {
      "name": "Group_MatrixTransform_i94b051_Geometry_7-Mesh_0_indices",
      "componentType": 5123,
      "count": 24,
      "min": [
        0
      ],
      "max": [
        23
      ],
      "type": "SCALAR",
      "bufferView": 2,
      "byteOffset": 660
    },
    {
      "name": "Group_MatrixTransform_i94b051_Geometry_8-Mesh_positions",
      "componentType": 5126,
      "count": 36,
      "min": [
        -26.019899368286133,
        -41.06639862060547,
        7.697999954223633
      ],
      "max": [
        25.841999053955078,
        41.273399353027344,
        7.697999954223633
      ],
      "type": "VEC3",
      "bufferView": 0,
      "byteOffset": 4248
    },
    {
      "name": "Group_MatrixTransform_i94b051_Geometry_8-Mesh_normals",
      "componentType": 5126,
      "count": 36,
      "min": [
        0,
        0,
        1
      ],
      "max": [
        0,
        0,
        1
      ],
      "type": "VEC3",
      "bufferView": 0,
      "byteOffset": 8928
    },
    {
      "name": "Group_MatrixTransform_i94b051_Geometry_8-Mesh_texcoords",
      "componentType": 5126,
      "count": 36,
      "min": [
        0,
        0.0005259999888949096
      ],
      "max": [
        0.9992370009422302,
        1
      ],
      "type": "VEC2",
      "bufferView": 1,
      "byteOffset": 2832
    },
    {
      "name": "Group_MatrixTransform_i94b051_Geometry_8-Mesh_0_indices",
      "componentType": 5123,
      "count": 36,
      "min": [
        0
      ],
      "max": [
        35
      ],
      "type": "SCALAR",
      "bufferView": 2,
      "byteOffset": 708
    }
  ],
  "asset": {
    "generator": "obj2gltf",
    "version": "2.0"
  },
  "buffers": [
    {
      "name": "i94b051",
      "byteLength": 513460,
      "uri": "data:application/octet-stream;base64,"
    }
  ],
  "bufferViews": [
    {
      "name": "bufferView_0",
      "buffer": 0,
      "byteLength": 9360,
      "byteOffset": 0,
      "byteStride": 12,
      "target": 34962
    },
    {
      "name": "bufferView_1",
      "buffer": 0,
      "byteLength": 3120,
      "byteOffset": 9360,
      "byteStride": 8,
      "target": 34962
    },
    {
      "name": "bufferView_2",
      "buffer": 0,
      "byteLength": 780,
      "byteOffset": 12480,
      "target": 34963
    },
    {
      "buffer": 0,
      "byteOffset": 13260,
      "byteLength": 18198
    },
    {
      "buffer": 0,
      "byteOffset": 31458,
      "byteLength": 17981
    },
    {
      "buffer": 0,
      "byteOffset": 49439,
      "byteLength": 14146
    },
    {
      "buffer": 0,
      "byteOffset": 63585,
      "byteLength": 14014
    },
    {
      "buffer": 0,
      "byteOffset": 77599,
      "byteLength": 13107
    },
    {
      "buffer": 0,
      "byteOffset": 90706,
      "byteLength": 13396
    },
    {
      "buffer": 0,
      "byteOffset": 104102,
      "byteLength": 198009
    },
    {
      "buffer": 0,
      "byteOffset": 302111,
      "byteLength": 105668
    },
    {
      "buffer": 0,
      "byteOffset": 407779,
      "byteLength": 105678
    }
  ],
  "images": [
    {
      "name": "i9400049_j",
      "mimeType": "image/png",
      "bufferView": 3
    },
    {
      "name": "i9400046_j",
      "mimeType": "image/png",
      "bufferView": 4
    },
    {
      "name": "i94b_h97_b",
      "mimeType": "image/png",
      "bufferView": 5
    },
    {
      "name": "i94b_h96_b",
      "mimeType": "image/png",
      "bufferView": 6
    },
    {
      "name": "i94b_h95_b",
      "mimeType": "image/png",
      "bufferView": 7
    },
    {
      "name": "i9400047_j",
      "mimeType": "image/png",
      "bufferView": 8
    },
    {
      "name": "i0300006_j",
      "mimeType": "image/png",
      "bufferView": 9
    },
    {
      "name": "i94b_h71_b",
      "mimeType": "image/png",
      "bufferView": 10
    },
    {
      "name": "i94b_h70_b",
      "mimeType": "image/png",
      "bufferView": 11
    }
  ],
  "materials": [
    {
      "name": "material_35",
      "pbrMetallicRoughness": {
        "baseColorTexture": {
          "index": 0
        },
        "baseColorFactor": [
          1,
          1,
          1,
          1
        ],
        "metallicFactor": 0,
        "roughnessFactor": 1
      },
      "emissiveFactor": [
        0,
        0,
        0
      ],
      "alphaMode": "OPAQUE",
      "doubleSided": false
    },
    {
      "name": "material_36",
      "pbrMetallicRoughness": {
        "baseColorTexture": {
          "index": 1
        },
        "baseColorFactor": [
          1,
          1,
          1,
          1
        ],
        "metallicFactor": 0,
        "roughnessFactor": 1
      },
      "emissiveFactor": [
        0,
        0,
        0
      ],
      "alphaMode": "OPAQUE",
      "doubleSided": false
    },
    {
      "name": "material_37",
      "pbrMetallicRoughness": {
        "baseColorTexture": {
          "index": 2
        },
        "baseColorFactor": [
          1,
          1,
          1,
          1
        ],
        "metallicFactor": 0,
        "roughnessFactor": 1
      },
      "emissiveFactor": [
        0,
        0,
        0
      ],
      "alphaMode": "OPAQUE",
      "doubleSided": false
    },
    {
      "name": "material_38",
      "pbrMetallicRoughness": {
        "baseColorTexture": {
          "index": 3
        },
        "baseColorFactor": [
          1,
          1,
          1,
          1
        ],
        "metallicFactor": 0,
        "roughnessFactor": 1
      },
      "emissiveFactor": [
        0,
        0,
        0
      ],
      "alphaMode": "OPAQUE",
      "doubleSided": false
    },
    {
      "name": "material_39",
      "pbrMetallicRoughness": {
        "baseColorTexture": {
          "index": 4
        },
        "baseColorFactor": [
          1,
          1,
          1,
          1
        ],
        "metallicFactor": 0,
        "roughnessFactor": 1
      },
      "emissiveFactor": [
        0,
        0,
        0
      ],
      "alphaMode": "OPAQUE",
      "doubleSided": false
    },
    {
      "name": "material_40",
      "pbrMetallicRoughness": {
        "baseColorTexture": {
          "index": 5
        },
        "baseColorFactor": [
          1,
          1,
          1,
          1
        ],
        "metallicFactor": 0,
        "roughnessFactor": 1
      },
      "emissiveFactor": [
        0,
        0,
        0
      ],
      "alphaMode": "OPAQUE",
      "doubleSided": false
    },
    {
      "name": "material_41",
      "pbrMetallicRoughness": {
        "baseColorTexture": {
          "index": 6
        },
        "baseColorFactor": [
          1,
          1,
          1,
          1
        ],
        "metallicFactor": 0,
        "roughnessFactor": 1
      },
      "emissiveFactor": [
        0,
        0,
        0
      ],
      "alphaMode": "OPAQUE",
      "doubleSided": false
    },
    {
      "name": "material_42",
      "pbrMetallicRoughness": {
        "baseColorTexture": {
          "index": 7
        },
        "baseColorFactor": [
          1,
          1,
          1,
          1
        ],
        "metallicFactor": 0,
        "roughnessFactor": 1
      },
      "emissiveFactor": [
        0,
        0,
        0
      ],
      "alphaMode": "OPAQUE",
      "doubleSided": false
    },
    {
      "name": "material_43",
      "pbrMetallicRoughness": {
        "baseColorTexture": {
          "index": 8
        },
        "baseColorFactor": [
          1,
          1,
          1,
          1
        ],
        "metallicFactor": 0,
        "roughnessFactor": 1
      },
      "emissiveFactor": [
        0,
        0,
        0
      ],
      "alphaMode": "OPAQUE",
      "doubleSided": false
    }
  ],
  "meshes": [
    {
      "name": "Group_MatrixTransform_i94b051_Geometry_0-Mesh",
      "primitives": [
        {
          "attributes": {
            "POSITION": 0,
            "NORMAL": 1,
            "TEXCOORD_0": 2
          },
          "indices": 3,
          "material": 0,
          "mode": 4
        }
      ]
    },
    {
      "name": "Group_MatrixTransform_i94b051_Geometry_1-Mesh",
      "primitives": [
        {
          "attributes": {
            "POSITION": 4,
            "NORMAL": 5,
            "TEXCOORD_0": 6
          },
          "indices": 7,
          "material": 1,
          "mode": 4
        }
      ]
    },
    {
      "name": "Group_MatrixTransform_i94b051_Geometry_2-Mesh",
      "primitives": [
        {
          "attributes": {
            "POSITION": 8,
            "NORMAL": 9,
            "TEXCOORD_0": 10
          },
          "indices": 11,
          "material": 2,
          "mode": 4
        }
      ]
    },
    {
      "name": "Group_MatrixTransform_i94b051_Geometry_3-Mesh",
      "primitives": [
        {
          "attributes": {
            "POSITION": 12,
            "NORMAL": 13,
            "TEXCOORD_0": 14
          },
          "indices": 15,
          "material": 3,
          "mode": 4
        }
      ]
    },
    {
      "name": "Group_MatrixTransform_i94b051_Geometry_4-Mesh",
      "primitives": [
        {
          "attributes": {
            "POSITION": 16,
            "NORMAL": 17,
            "TEXCOORD_0": 18
          },
          "indices": 19,
          "material": 4,
          "mode": 4
        }
      ]
    },
    {
      "name": "Group_MatrixTransform_i94b051_Geometry_5-Mesh",
      "primitives": [
        {
          "attributes": {
            "POSITION": 20,
            "NORMAL": 21,
            "TEXCOORD_0": 22
          },
          "indices": 23,
          "material": 5,
          "mode": 4
        }
      ]
    },
    {
      "name": "Group_MatrixTransform_i94b051_Geometry_6-Mesh",
      "primitives": [
        {
          "attributes": {
            "POSITION": 24,
            "NORMAL": 25,
            "TEXCOORD_0": 26
          },
          "indices": 27,
          "material": 6,
          "mode": 4
        }
      ]
    },
    {
      "name": "Group_MatrixTransform_i94b051_Geometry_7-Mesh",
      "primitives": [
        {
          "attributes": {
            "POSITION": 28,
            "NORMAL": 29,
            "TEXCOORD_0": 30
          },
          "indices": 31,
          "material": 7,
          "mode": 4
        }
      ]
    },
    {
      "name": "Group_MatrixTransform_i94b051_Geometry_8-Mesh",
      "primitives": [
        {
          "attributes": {
            "POSITION": 32,
            "NORMAL": 33,
            "TEXCOORD_0": 34
          },
          "indices": 35,
          "material": 8,
          "mode": 4
        }
      ]
    }
  ],
  "nodes": [
    {
      "name": "Group_MatrixTransform_i94b051_Geometry_0",
      "mesh": 0
    },
    {
      "name": "Group_MatrixTransform_i94b051_Geometry_1",
      "mesh": 1
    },
    {
      "name": "Group_MatrixTransform_i94b051_Geometry_2",
      "mesh": 2
    },
    {
      "name": "Group_MatrixTransform_i94b051_Geometry_3",
      "mesh": 3
    },
    {
      "name": "Group_MatrixTransform_i94b051_Geometry_4",
      "mesh": 4
    },
    {
      "name": "Group_MatrixTransform_i94b051_Geometry_5",
      "mesh": 5
    },
    {
      "name": "Group_MatrixTransform_i94b051_Geometry_6",
      "mesh": 6
    },
    {
      "name": "Group_MatrixTransform_i94b051_Geometry_7",
      "mesh": 7
    },
    {
      "name": "Group_MatrixTransform_i94b051_Geometry_8",
      "mesh": 8
    }
  ],
  "samplers": [
    {
      "magFilter": 9729,
      "minFilter": 9986,
      "wrapS": 10497,
      "wrapT": 10497
    }
  ],
  "scene": 0,
  "scenes": [
    {
      "nodes": [
        0,
        1,
        2,
        3,
        4,
        5,
        6,
        7,
        8
      ]
    }
  ],
  "textures": [
    {
      "name": "i9400049_j",
      "sampler": 0,
      "source": 0
    },
    {
      "name": "i9400046_j",
      "sampler": 0,
      "source": 1
    },
    {
      "name": "i94b_h97_b",
      "sampler": 0,
      "source": 2
    },
    {
      "name": "i94b_h96_b",
      "sampler": 0,
      "source": 3
    },
    {
      "name": "i94b_h95_b",
      "sampler": 0,
      "source": 4
    },
    {
      "name": "i9400047_j",
      "sampler": 0,
      "source": 5
    },
    {
      "name": "i0300006_j",
      "sampler": 0,
      "source": 6
    },
    {
      "name": "i94b_h71_b",
      "sampler": 0,
      "source": 7
    },
    {
      "name": "i94b_h70_b",
      "sampler": 0,
      "source": 8
    }
  ]
}
