{
  "accessors": [
    {
      "name": "Group_MatrixTransform_i95016_Geometry_0-Mesh_positions",
      "componentType": 5126,
      "count": 240,
      "min": [
        -15.155799865722656,
        -10.370599746704102,
        5.47681999206543
      ],
      "max": [
        15.155799865722656,
        10.371100425720215,
        9.236780166625977
      ],
      "type": "VEC3",
      "bufferView": 0,
      "byteOffset": 0
    },
    {
      "name": "Group_MatrixTransform_i95016_Geometry_0-Mesh_normals",
      "componentType": 5126,
      "count": 240,
      "min": [
        -0.9969122409820557,
        -0.07865072041749954,
        -0.00011362204531906173
      ],
      "max": [
        0.9969122409820557,
        0.07865072041749954,
        0.00011362204531906173
      ],
      "type": "VEC3",
      "bufferView": 0,
      "byteOffset": 12168
    },
    {
      "name": "Group_MatrixTransform_i95016_Geometry_0-Mesh_texcoords",
      "componentType": 5126,
      "count": 240,
      "min": [
        0.00253838999196887,
        0.11214400082826614
      ],
      "max": [
        5.079460144042969,
        0.999556303024292
      ],
      "type": "VEC2",
      "bufferView": 1,
      "byteOffset": 0
    },
    {
      "name": "Group_MatrixTransform_i95016_Geometry_0-Mesh_0_indices",
      "componentType": 5123,
      "count": 240,
      "min": [
        0
      ],
      "max": [
        239
      ],
      "type": "SCALAR",
      "bufferView": 2,
      "byteOffset": 0
    },
    {
      "name": "Group_MatrixTransform_i95016_Geometry_1-Mesh_positions",
      "componentType": 5126,
      "count": 48,
      "min": [
        -15.155799865722656,
        -10.370599746704102,
        5.574480056762695
      ],
      "max": [
        15.155799865722656,
        10.371100425720215,
        9.285550117492676
      ],
      "type": "VEC3",
      "bufferView": 0,
      "byteOffset": 2880
    },
    {
      "name": "Group_MatrixTransform_i95016_Geometry_1-Mesh_normals",
      "componentType": 5126,
      "count": 48,
      "min": [
        -0.04510888829827309,
        -0.5711478590965271,
        0.819057822227478
      ],
      "max": [
        0.045036789029836655,
        0.5719348788261414,
        0.9946454763412476
      ],
      "type": "VEC3",
      "bufferView": 0,
      "byteOffset": 15048
    },
    {
      "name": "Group_MatrixTransform_i95016_Geometry_1-Mesh_texcoords",
      "componentType": 5126,
      "count": 48,
      "min": [
        0,
        0.0011210000375285745
      ],
      "max": [
        0.9982510209083557,
        1
      ],
      "type": "VEC2",
      "bufferView": 1,
      "byteOffset": 1920
    },
    {
      "name": "Group_MatrixTransform_i95016_Geometry_1-Mesh_0_indices",
      "componentType": 5123,
      "count": 48,
      "min": [
        0
      ],
      "max": [
        47
      ],
      "type": "SCALAR",
      "bufferView": 2,
      "byteOffset": 480
    },
    {
      "name": "Group_MatrixTransform_i95016_Geometry_2-Mesh_positions",
      "componentType": 5126,
      "count": 600,
      "min": [
        -14.477399826049805,
        -9.586910247802734,
        0
      ],
      "max": [
        14.535300254821777,
        9.641599655151367,
        5.948430061340332
      ],
      "type": "VEC3",
      "bufferView": 0,
      "byteOffset": 3456
    },
    {
      "name": "Group_MatrixTransform_i95016_Geometry_2-Mesh_normals",
      "componentType": 5126,
      "count": 600,
      "min": [
        -0.869231104850769,
        -1,
        -1
      ],
      "max": [
        0.8684252500534058,
        1,
        1
      ],
      "type": "VEC3",
      "bufferView": 0,
      "byteOffset": 15624
    },
    {
      "name": "Group_MatrixTransform_i95016_Geometry_2-Mesh_texcoords",
      "componentType": 5126,
      "count": 600,
      "min": [
        0.0004959109937772155,
        -2.4445900917053223
      ],
      "max": [
        0.999504029750824,
        0.9982909560203552
      ],
      "type": "VEC2",
      "bufferView": 1,
      "byteOffset": 2304
    },
    {
      "name": "Group_MatrixTransform_i95016_Geometry_2-Mesh_0_indices",
      "componentType": 5123,
      "count": 600,
      "min": [
        0
      ],
      "max": [
        599
      ],
      "type": "SCALAR",
      "bufferView": 2,
      "byteOffset": 576
    },
    {
      "name": "Group_MatrixTransform_i95016_Geometry_3-Mesh_positions",
      "componentType": 5126,
      "count": 126,
      "min": [
        -15.155799865722656,
        -10.370599746704102,
        5.47681999206543
      ],
      "max": [
        15.155799865722656,
        10.371100425720215,
        9.285550117492676
      ],
      "type": "VEC3",
      "bufferView": 0,
      "byteOffset": 10656
    },
    {
      "name": "Group_MatrixTransform_i95016_Geometry_3-Mesh_normals",
      "componentType": 5126,
      "count": 126,
      "min": [
        -0.9969077706336975,
        -0.9969069361686707,
        -1
      ],
      "max": [
        0.9969122409820557,
        0.9969041347503662,
        0.0001413420250173658
      ],
      "type": "VEC3",
      "bufferView": 0,
      "byteOffset": 22824
    },
    {
      "name": "Group_MatrixTransform_i95016_Geometry_3-Mesh_texcoords",
      "componentType": 5126,
      "count": 126,
      "min": [
        -34.214698791503906,
        -1.5825400352478027
      ],
      "max": [
        38.90409851074219,
        2.5825400352478027
      ],
      "type": "VEC2",
      "bufferView": 1,
      "byteOffset": 7104
    },
    {
      "name": "Group_MatrixTransform_i95016_Geometry_3-Mesh_0_indices",
      "componentType": 5123,
      "count": 126,
      "min": [
        0
      ],
      "max": [
        125
      ],
      "type": "SCALAR",
      "bufferView": 2,
      "byteOffset": 1776
    }
  ],
  "asset": {
    "generator": "obj2gltf",
    "version": "2.0"
  },
  "buffers": [
    {
      "name": "i95016",
      "byteLength": 158116,
      "uri": "data:application/octet-stream;base64,"
    }
  ],
  "bufferViews": [
    {
      "name": "bufferView_0",
      "buffer": 0,
      "byteLength": 24336,
      "byteOffset": 0,
      "byteStride": 12,
      "target": 34962
    },
    {
      "name": "bufferView_1",
      "buffer": 0,
      "byteLength": 8112,
      "byteOffset": 24336,
      "byteStride": 8,
      "target": 34962
    },
    {
      "name": "bufferView_2",
      "buffer": 0,
      "byteLength": 2028,
      "byteOffset": 32448,
      "target": 34963
    },
    {
      "buffer": 0,
      "byteOffset": 34476,
      "byteLength": 58689
    },
    {
      "buffer": 0,
      "byteOffset": 93165,
      "byteLength": 29054
    },
    {
      "buffer": 0,
      "byteOffset": 122219,
      "byteLength": 16127
    },
    {
      "buffer": 0,
      "byteOffset": 138346,
      "byteLength": 19768
    }
  ],
  "images": [
    {
      "name": "i9500096_j",
      "mimeType": "image/png",
      "bufferView": 3
    },
    {
      "name": "i95_h172_b",
      "mimeType": "image/png",
      "bufferView": 4
    },
    {
      "name": "i9500002_j",
      "mimeType": "image/png",
      "bufferView": 5
    },
    {
      "name": "i9500008_j",
      "mimeType": "image/png",
      "bufferView": 6
    }
  ],
  "materials": [
    {
      "name": "material_81",
      "pbrMetallicRoughness": {
        "baseColorTexture": {
          "index": 0
        },
        "baseColorFactor": [
          1,
          1,
          1,
          1
        ],
        "metallicFactor": 0,
        "roughnessFactor": 1
      },
      "emissiveFactor": [
        0,
        0,
        0
      ],
      "alphaMode": "OPAQUE",
      "doubleSided": false
    },
    {
      "name": "material_82",
      "pbrMetallicRoughness": {
        "baseColorTexture": {
          "index": 1
        },
        "baseColorFactor": [
          1,
          1,
          1,
          1
        ],
        "metallicFactor": 0,
        "roughnessFactor": 1
      },
      "emissiveFactor": [
        0,
        0,
        0
      ],
      "alphaMode": "OPAQUE",
      "doubleSided": false
    },
    {
      "name": "material_83",
      "pbrMetallicRoughness": {
        "baseColorTexture": {
          "index": 2
        },
        "baseColorFactor": [
          1,
          1,
          1,
          1
        ],
        "metallicFactor": 0,
        "roughnessFactor": 1
      },
      "emissiveFactor": [
        0,
        0,
        0
      ],
      "alphaMode": "OPAQUE",
      "doubleSided": false
    },
    {
      "name": "material_84",
      "pbrMetallicRoughness": {
        "baseColorTexture": {
          "index": 3
        },
        "baseColorFactor": [
          1,
          1,
          1,
          1
        ],
        "metallicFactor": 0,
        "roughnessFactor": 1
      },
      "emissiveFactor": [
        0,
        0,
        0
      ],
      "alphaMode": "OPAQUE",
      "doubleSided": false
    }
  ],
  "meshes": [
    {
      "name": "Group_MatrixTransform_i95016_Geometry_0-Mesh",
      "primitives": [
        {
          "attributes": {
            "POSITION": 0,
            "NORMAL": 1,
            "TEXCOORD_0": 2
          },
          "indices": 3,
          "material": 0,
          "mode": 4
        }
      ]
    },
    {
      "name": "Group_MatrixTransform_i95016_Geometry_1-Mesh",
      "primitives": [
        {
          "attributes": {
            "POSITION": 4,
            "NORMAL": 5,
            "TEXCOORD_0": 6
          },
          "indices": 7,
          "material": 1,
          "mode": 4
        }
      ]
    },
    {
      "name": "Group_MatrixTransform_i95016_Geometry_2-Mesh",
      "primitives": [
        {
          "attributes": {
            "POSITION": 8,
            "NORMAL": 9,
            "TEXCOORD_0": 10
          },
          "indices": 11,
          "material": 2,
          "mode": 4
        }
      ]
    },
    {
      "name": "Group_MatrixTransform_i95016_Geometry_3-Mesh",
      "primitives": [
        {
          "attributes": {
            "POSITION": 12,
            "NORMAL": 13,
            "TEXCOORD_0": 14
          },
          "indices": 15,
          "material": 3,
          "mode": 4
        }
      ]
    }
  ],
  "nodes": [
    {
      "name": "Group_MatrixTransform_i95016_Geometry_0",
      "mesh": 0
    },
    {
      "name": "Group_MatrixTransform_i95016_Geometry_1",
      "mesh": 1
    },
    {
      "name": "Group_MatrixTransform_i95016_Geometry_2",
      "mesh": 2
    },
    {
      "name": "Group_MatrixTransform_i95016_Geometry_3",
      "mesh": 3
    }
  ],
  "samplers": [
    {
      "magFilter": 9729,
      "minFilter": 9986,
      "wrapS": 10497,
      "wrapT": 10497
    }
  ],
  "scene": 0,
  "scenes": [
    {
      "nodes": [
        0,
        1,
        2,
        3
      ]
    }
  ],
  "textures": [
    {
      "name": "i9500096_j",
      "sampler": 0,
      "source": 0
    },
    {
      "name": "i95_h172_b",
      "sampler": 0,
      "source": 1
    },
    {
      "name": "i9500002_j",
      "sampler": 0,
      "source": 2
    },
    {
      "name": "i9500008_j",
      "sampler": 0,
      "source": 3
    }
  ]
}
