{
  "accessors": [
    {
      "name": "Group_MatrixTransform_i96026_Geometry_0-Mesh_positions",
      "componentType": 5126,
      "count": 12,
      "min": [
        15.095000267028809,
        -3.679689884185791,
        0.3392980098724365
      ],
      "max": [
        15.274999618530273,
        5.010250091552734,
        7.138000011444092
      ],
      "type": "VEC3",
      "bufferView": 0,
      "byteOffset": 0
    },
    {
      "name": "Group_MatrixTransform_i96026_Geometry_0-Mesh_normals",
      "componentType": 5126,
      "count": 12,
      "min": [
        0.9997876882553101,
        0.020598595961928368,
        0
      ],
      "max": [
        0.9997878074645996,
        0.020605092868208885,
        0
      ],
      "type": "VEC3",
      "bufferView": 0,
      "byteOffset": 3276
    },
    {
      "name": "Group_MatrixTransform_i96026_Geometry_0-Mesh_texcoords",
      "componentType": 5126,
      "count": 12,
      "min": [
        0.0004997249925509095,
        0.017285000532865524
      ],
      "max": [
        0.9994999766349792,
        1
      ],
      "type": "VEC2",
      "bufferView": 1,
      "byteOffset": 0
    },
    {
      "name": "Group_MatrixTransform_i96026_Geometry_0-Mesh_0_indices",
      "componentType": 5123,
      "count": 12,
      "min": [
        0
      ],
      "max": [
        11
      ],
      "type": "SCALAR",
      "bufferView": 2,
      "byteOffset": 0
    },
    {
      "name": "Group_MatrixTransform_i96026_Geometry_1-Mesh_positions",
      "componentType": 5126,
      "count": 12,
      "min": [
        -15.274999618530273,
        -4.299799919128418,
        0
      ],
      "max": [
        -15.095000267028809,
        4.390140056610107,
        7.138000011444092
      ],
      "type": "VEC3",
      "bufferView": 0,
      "byteOffset": 144
    },
    {
      "name": "Group_MatrixTransform_i96026_Geometry_1-Mesh_normals",
      "componentType": 5126,
      "count": 12,
      "min": [
        -0.9997878670692444,
        -0.020605092868208885,
        0
      ],
      "max": [
        -0.9997876882553101,
        -0.020596297457814217,
        0
      ],
      "type": "VEC3",
      "bufferView": 0,
      "byteOffset": 3420
    },
    {
      "name": "Group_MatrixTransform_i96026_Geometry_1-Mesh_texcoords",
      "componentType": 5126,
      "count": 12,
      "min": [
        0.024284400045871735,
        0.0005000000237487257
      ],
      "max": [
        0.9757140278816223,
        0.9995007514953613
      ],
      "type": "VEC2",
      "bufferView": 1,
      "byteOffset": 96
    },
    {
      "name": "Group_MatrixTransform_i96026_Geometry_1-Mesh_0_indices",
      "componentType": 5123,
      "count": 12,
      "min": [
        0
      ],
      "max": [
        11
      ],
      "type": "SCALAR",
      "bufferView": 2,
      "byteOffset": 24
    },
    {
      "name": "Group_MatrixTransform_i96026_Geometry_2-Mesh_positions",
      "componentType": 5126,
      "count": 6,
      "min": [
        -15.274999618530273,
        4.390140056610107,
        0.02669909968972206
      ],
      "max": [
        15.095000267028809,
        5.010250091552734,
        4.519999980926514
      ],
      "type": "VEC3",
      "bufferView": 0,
      "byteOffset": 288
    },
    {
      "name": "Group_MatrixTransform_i96026_Geometry_2-Mesh_normals",
      "componentType": 5126,
      "count": 6,
      "min": [
        -0.02059369906783104,
        0.9997879266738892,
        0
      ],
      "max": [
        -0.02059369906783104,
        0.9997879266738892,
        0
      ],
      "type": "VEC3",
      "bufferView": 0,
      "byteOffset": 3564
    },
    {
      "name": "Group_MatrixTransform_i96026_Geometry_2-Mesh_texcoords",
      "componentType": 5126,
      "count": 6,
      "min": [
        0.0044846502132713795,
        0.0004990000161342323
      ],
      "max": [
        8.995499610900879,
        0.9994997978210449
      ],
      "type": "VEC2",
      "bufferView": 1,
      "byteOffset": 192
    },
    {
      "name": "Group_MatrixTransform_i96026_Geometry_2-Mesh_0_indices",
      "componentType": 5123,
      "count": 6,
      "min": [
        0
      ],
      "max": [
        5
      ],
      "type": "SCALAR",
      "bufferView": 2,
      "byteOffset": 48
    },
    {
      "name": "Group_MatrixTransform_i96026_Geometry_3-Mesh_positions",
      "componentType": 5126,
      "count": 6,
      "min": [
        -11.054900169372559,
        -5.009769916534424,
        4.199999809265137
      ],
      "max": [
        14.675000190734863,
        -3.6899399757385254,
        4.375
      ],
      "type": "VEC3",
      "bufferView": 0,
      "byteOffset": 360
    },
    {
      "name": "Group_MatrixTransform_i96026_Geometry_3-Mesh_normals",
      "componentType": 5126,
      "count": 6,
      "min": [
        0.004435618408024311,
        -0.21927595138549805,
        0.9756518006324768
      ],
      "max": [
        0.004646829329431057,
        -0.21529193222522736,
        0.976539671421051
      ],
      "type": "VEC3",
      "bufferView": 0,
      "byteOffset": 3636
    },
    {
      "name": "Group_MatrixTransform_i96026_Geometry_3-Mesh_texcoords",
      "componentType": 5126,
      "count": 6,
      "min": [
        0,
        0.0050479997880756855
      ],
      "max": [
        0.9989969730377197,
        1
      ],
      "type": "VEC2",
      "bufferView": 1,
      "byteOffset": 240
    },
    {
      "name": "Group_MatrixTransform_i96026_Geometry_3-Mesh_0_indices",
      "componentType": 5123,
      "count": 6,
      "min": [
        0
      ],
      "max": [
        5
      ],
      "type": "SCALAR",
      "bufferView": 2,
      "byteOffset": 60
    },
    {
      "name": "Group_MatrixTransform_i96026_Geometry_4-Mesh_positions",
      "componentType": 5126,
      "count": 33,
      "min": [
        -15.274999618530273,
        -4.299799919128418,
        4.519999980926514
      ],
      "max": [
        15.274999618530273,
        5.010250091552734,
        7.138000011444092
      ],
      "type": "VEC3",
      "bufferView": 0,
      "byteOffset": 432
    },
    {
      "name": "Group_MatrixTransform_i96026_Geometry_4-Mesh_normals",
      "componentType": 5126,
      "count": 33,
      "min": [
        -0.010584596544504166,
        -0.5184421539306641,
        0.8550452589988708
      ],
      "max": [
        0.010737303644418716,
        0.5135078430175781,
        0.8580447435379028
      ],
      "type": "VEC3",
      "bufferView": 0,
      "byteOffset": 3708
    },
    {
      "name": "Group_MatrixTransform_i96026_Geometry_4-Mesh_texcoords",
      "componentType": 5126,
      "count": 33,
      "min": [
        0,
        0.0028780000284314156
      ],
      "max": [
        0.9995610117912292,
        1
      ],
      "type": "VEC2",
      "bufferView": 1,
      "byteOffset": 288
    },
    {
      "name": "Group_MatrixTransform_i96026_Geometry_4-Mesh_0_indices",
      "componentType": 5123,
      "count": 33,
      "min": [
        0
      ],
      "max": [
        32
      ],
      "type": "SCALAR",
      "bufferView": 2,
      "byteOffset": 72
    },
    {
      "name": "Group_MatrixTransform_i96026_Geometry_5-Mesh_positions",
      "componentType": 5126,
      "count": 18,
      "min": [
        -15.095000267028809,
        -4.299799919128418,
        0
      ],
      "max": [
        11.475000381469727,
        -3.759769916534424,
        4.519999980926514
      ],
      "type": "VEC3",
      "bufferView": 0,
      "byteOffset": 828
    },
    {
      "name": "Group_MatrixTransform_i96026_Geometry_5-Mesh_normals",
      "componentType": 5126,
      "count": 18,
      "min": [
        0.020577704533934593,
        -0.9997882843017578,
        0
      ],
      "max": [
        0.020577704533934593,
        -0.9997882843017578,
        0
      ],
      "type": "VEC3",
      "bufferView": 0,
      "byteOffset": 4104
    },
    {
      "name": "Group_MatrixTransform_i96026_Geometry_5-Mesh_texcoords",
      "componentType": 5126,
      "count": 18,
      "min": [
        0.0004997249925509095,
        0.0005000000237487257
      ],
      "max": [
        0.9994999766349792,
        1
      ],
      "type": "VEC2",
      "bufferView": 1,
      "byteOffset": 552
    },
    {
      "name": "Group_MatrixTransform_i96026_Geometry_5-Mesh_0_indices",
      "componentType": 5123,
      "count": 18,
      "min": [
        0
      ],
      "max": [
        17
      ],
      "type": "SCALAR",
      "bufferView": 2,
      "byteOffset": 140
    },
    {
      "name": "Group_MatrixTransform_i96026_Geometry_6-Mesh_positions",
      "componentType": 5126,
      "count": 30,
      "min": [
        -11.294899940490723,
        -4.229979991912842,
        0.0625
      ],
      "max": [
        15.274999618530273,
        -3.679689884185791,
        4.519999980926514
      ],
      "type": "VEC3",
      "bufferView": 0,
      "byteOffset": 1044
    },
    {
      "name": "Group_MatrixTransform_i96026_Geometry_6-Mesh_normals",
      "componentType": 5126,
      "count": 30,
      "min": [
        0.02057710476219654,
        -0.9997882843017578,
        0
      ],
      "max": [
        0.020706292241811752,
        -0.9997856020927429,
        0
      ],
      "type": "VEC3",
      "bufferView": 0,
      "byteOffset": 4320
    },
    {
      "name": "Group_MatrixTransform_i96026_Geometry_6-Mesh_texcoords",
      "componentType": 5126,
      "count": 30,
      "min": [
        0.0004959109937772155,
        0.0005000000237487257
      ],
      "max": [
        1.9989999532699585,
        1
      ],
      "type": "VEC2",
      "bufferView": 1,
      "byteOffset": 696
    },
    {
      "name": "Group_MatrixTransform_i96026_Geometry_6-Mesh_0_indices",
      "componentType": 5123,
      "count": 30,
      "min": [
        0
      ],
      "max": [
        29
      ],
      "type": "SCALAR",
      "bufferView": 2,
      "byteOffset": 176
    },
    {
      "name": "Group_MatrixTransform_i96026_Geometry_7-Mesh_positions",
      "componentType": 5126,
      "count": 132,
      "min": [
        -10.625,
        -4.819819927215576,
        0.05469889938831329
      ],
      "max": [
        14.635000228881836,
        -4.350100040435791,
        4.1828999519348145
      ],
      "type": "VEC3",
      "bufferView": 0,
      "byteOffset": 1404
    },
    {
      "name": "Group_MatrixTransform_i96026_Geometry_7-Mesh_normals",
      "componentType": 5126,
      "count": 132,
      "min": [
        -0.9249404072761536,
        -0.9240167737007141,
        0
      ],
      "max": [
        0.9249404072761536,
        0.9240167737007141,
        1
      ],
      "type": "VEC3",
      "bufferView": 0,
      "byteOffset": 4680
    },
    {
      "name": "Group_MatrixTransform_i96026_Geometry_7-Mesh_texcoords",
      "componentType": 5126,
      "count": 132,
      "min": [
        0,
        0
      ],
      "max": [
        1,
        1
      ],
      "type": "VEC2",
      "bufferView": 1,
      "byteOffset": 936
    },
    {
      "name": "Group_MatrixTransform_i96026_Geometry_7-Mesh_0_indices",
      "componentType": 5123,
      "count": 132,
      "min": [
        0
      ],
      "max": [
        131
      ],
      "type": "SCALAR",
      "bufferView": 2,
      "byteOffset": 236
    },
    {
      "name": "Group_MatrixTransform_i96026_Geometry_8-Mesh_positions",
      "componentType": 5126,
      "count": 24,
      "min": [
        -11.054900169372559,
        -5.009769916534424,
        4.072400093078613
      ],
      "max": [
        14.675000190734863,
        -3.6899399757385254,
        4.375
      ],
      "type": "VEC3",
      "bufferView": 0,
      "byteOffset": 2988
    },
    {
      "name": "Group_MatrixTransform_i96026_Geometry_8-Mesh_normals",
      "componentType": 5126,
      "count": 24,
      "min": [
        -0.9997875690460205,
        -0.9997755289077759,
        -0.9765405654907227
      ],
      "max": [
        0.9997857809066772,
        0.2192719429731369,
        0.000956360949203372
      ],
      "type": "VEC3",
      "bufferView": 0,
      "byteOffset": 6264
    },
    {
      "name": "Group_MatrixTransform_i96026_Geometry_8-Mesh_texcoords",
      "componentType": 5126,
      "count": 24,
      "min": [
        -3.7883899211883545,
        0.2794719934463501
      ],
      "max": [
        4.788390159606934,
        0.7205430269241333
      ],
      "type": "VEC2",
      "bufferView": 1,
      "byteOffset": 1992
    },
    {
      "name": "Group_MatrixTransform_i96026_Geometry_8-Mesh_0_indices",
      "componentType": 5123,
      "count": 24,
      "min": [
        0
      ],
      "max": [
        23
      ],
      "type": "SCALAR",
      "bufferView": 2,
      "byteOffset": 500
    }
  ],
  "asset": {
    "generator": "obj2gltf",
    "version": "2.0"
  },
  "buffers": [
    {
      "name": "i96026",
      "byteLength": 357420,
      "uri": "data:application/octet-stream;base64,"
    }
  ],
  "bufferViews": [
    {
      "name": "bufferView_0",
      "buffer": 0,
      "byteLength": 6552,
      "byteOffset": 0,
      "byteStride": 12,
      "target": 34962
    },
    {
      "name": "bufferView_1",
      "buffer": 0,
      "byteLength": 2184,
      "byteOffset": 6552,
      "byteStride": 8,
      "target": 34962
    },
    {
      "name": "bufferView_2",
      "buffer": 0,
      "byteLength": 548,
      "byteOffset": 8736,
      "target": 34963
    },
    {
      "buffer": 0,
      "byteOffset": 9284,
      "byteLength": 17773
    },
    {
      "buffer": 0,
      "byteOffset": 27057,
      "byteLength": 20389
    },
    {
      "buffer": 0,
      "byteOffset": 47446,
      "byteLength": 17177
    },
    {
      "buffer": 0,
      "byteOffset": 64623,
      "byteLength": 96346
    },
    {
      "buffer": 0,
      "byteOffset": 160969,
      "byteLength": 55509
    },
    {
      "buffer": 0,
      "byteOffset": 216478,
      "byteLength": 27251
    },
    {
      "buffer": 0,
      "byteOffset": 243729,
      "byteLength": 22573
    },
    {
      "buffer": 0,
      "byteOffset": 266302,
      "byteLength": 17082
    },
    {
      "buffer": 0,
      "byteOffset": 283384,
      "byteLength": 74033
    }
  ],
  "images": [
    {
      "name": "i9600161_j",
      "mimeType": "image/png",
      "bufferView": 3
    },
    {
      "name": "i9600153_j",
      "mimeType": "image/png",
      "bufferView": 4
    },
    {
      "name": "i9600168_j",
      "mimeType": "image/png",
      "bufferView": 5
    },
    {
      "name": "i96_h120_b",
      "mimeType": "image/png",
      "bufferView": 6
    },
    {
      "name": "i96_h117_b",
      "mimeType": "image/png",
      "bufferView": 7
    },
    {
      "name": "i9600176_j",
      "mimeType": "image/png",
      "bufferView": 8
    },
    {
      "name": "i9600175_j",
      "mimeType": "image/png",
      "bufferView": 9
    },
    {
      "name": "i9600149_j",
      "mimeType": "image/png",
      "bufferView": 10
    },
    {
      "name": "hkbm0145_j",
      "mimeType": "image/png",
      "bufferView": 11
    }
  ],
  "materials": [
    {
      "name": "material_178",
      "pbrMetallicRoughness": {
        "baseColorTexture": {
          "index": 0
        },
        "baseColorFactor": [
          1,
          1,
          1,
          1
        ],
        "metallicFactor": 0,
        "roughnessFactor": 1
      },
      "emissiveFactor": [
        0,
        0,
        0
      ],
      "alphaMode": "OPAQUE",
      "doubleSided": false
    },
    {
      "name": "material_179",
      "pbrMetallicRoughness": {
        "baseColorTexture": {
          "index": 1
        },
        "baseColorFactor": [
          1,
          1,
          1,
          1
        ],
        "metallicFactor": 0,
        "roughnessFactor": 1
      },
      "emissiveFactor": [
        0,
        0,
        0
      ],
      "alphaMode": "OPAQUE",
      "doubleSided": false
    },
    {
      "name": "material_180",
      "pbrMetallicRoughness": {
        "baseColorTexture": {
          "index": 2
        },
        "baseColorFactor": [
          1,
          1,
          1,
          1
        ],
        "metallicFactor": 0,
        "roughnessFactor": 1
      },
      "emissiveFactor": [
        0,
        0,
        0
      ],
      "alphaMode": "OPAQUE",
      "doubleSided": false
    },
    {
      "name": "material_181",
      "pbrMetallicRoughness": {
        "baseColorTexture": {
          "index": 3
        },
        "baseColorFactor": [
          1,
          1,
          1,
          1
        ],
        "metallicFactor": 0,
        "roughnessFactor": 1
      },
      "emissiveFactor": [
        0,
        0,
        0
      ],
      "alphaMode": "OPAQUE",
      "doubleSided": false
    },
    {
      "name": "material_182",
      "pbrMetallicRoughness": {
        "baseColorTexture": {
          "index": 4
        },
        "baseColorFactor": [
          1,
          1,
          1,
          1
        ],
        "metallicFactor": 0,
        "roughnessFactor": 1
      },
      "emissiveFactor": [
        0,
        0,
        0
      ],
      "alphaMode": "OPAQUE",
      "doubleSided": false
    },
    {
      "name": "material_183",
      "pbrMetallicRoughness": {
        "baseColorTexture": {
          "index": 5
        },
        "baseColorFactor": [
          1,
          1,
          1,
          1
        ],
        "metallicFactor": 0,
        "roughnessFactor": 1
      },
      "emissiveFactor": [
        0,
        0,
        0
      ],
      "alphaMode": "OPAQUE",
      "doubleSided": false
    },
    {
      "name": "material_184",
      "pbrMetallicRoughness": {
        "baseColorTexture": {
          "index": 6
        },
        "baseColorFactor": [
          1,
          1,
          1,
          1
        ],
        "metallicFactor": 0,
        "roughnessFactor": 1
      },
      "emissiveFactor": [
        0,
        0,
        0
      ],
      "alphaMode": "OPAQUE",
      "doubleSided": false
    },
    {
      "name": "material_185",
      "pbrMetallicRoughness": {
        "baseColorTexture": {
          "index": 7
        },
        "baseColorFactor": [
          1,
          1,
          1,
          1
        ],
        "metallicFactor": 0,
        "roughnessFactor": 1
      },
      "emissiveFactor": [
        0,
        0,
        0
      ],
      "alphaMode": "OPAQUE",
      "doubleSided": false
    },
    {
      "name": "material_186",
      "pbrMetallicRoughness": {
        "baseColorTexture": {
          "index": 8
        },
        "baseColorFactor": [
          1,
          1,
          1,
          1
        ],
        "metallicFactor": 0,
        "roughnessFactor": 1
      },
      "emissiveFactor": [
        0,
        0,
        0
      ],
      "alphaMode": "OPAQUE",
      "doubleSided": false
    }
  ],
  "meshes": [
    {
      "name": "Group_MatrixTransform_i96026_Geometry_0-Mesh",
      "primitives": [
        {
          "attributes": {
            "POSITION": 0,
            "NORMAL": 1,
            "TEXCOORD_0": 2
          },
          "indices": 3,
          "material": 0,
          "mode": 4
        }
      ]
    },
    {
      "name": "Group_MatrixTransform_i96026_Geometry_1-Mesh",
      "primitives": [
        {
          "attributes": {
            "POSITION": 4,
            "NORMAL": 5,
            "TEXCOORD_0": 6
          },
          "indices": 7,
          "material": 1,
          "mode": 4
        }
      ]
    },
    {
      "name": "Group_MatrixTransform_i96026_Geometry_2-Mesh",
      "primitives": [
        {
          "attributes": {
            "POSITION": 8,
            "NORMAL": 9,
            "TEXCOORD_0": 10
          },
          "indices": 11,
          "material": 2,
          "mode": 4
        }
      ]
    },
    {
      "name": "Group_MatrixTransform_i96026_Geometry_3-Mesh",
      "primitives": [
        {
          "attributes": {
            "POSITION": 12,
            "NORMAL": 13,
            "TEXCOORD_0": 14
          },
          "indices": 15,
          "material": 3,
          "mode": 4
        }
      ]
    },
    {
      "name": "Group_MatrixTransform_i96026_Geometry_4-Mesh",
      "primitives": [
        {
          "attributes": {
            "POSITION": 16,
            "NORMAL": 17,
            "TEXCOORD_0": 18
          },
          "indices": 19,
          "material": 4,
          "mode": 4
        }
      ]
    },
    {
      "name": "Group_MatrixTransform_i96026_Geometry_5-Mesh",
      "primitives": [
        {
          "attributes": {
            "POSITION": 20,
            "NORMAL": 21,
            "TEXCOORD_0": 22
          },
          "indices": 23,
          "material": 5,
          "mode": 4
        }
      ]
    },
    {
      "name": "Group_MatrixTransform_i96026_Geometry_6-Mesh",
      "primitives": [
        {
          "attributes": {
            "POSITION": 24,
            "NORMAL": 25,
            "TEXCOORD_0": 26
          },
          "indices": 27,
          "material": 6,
          "mode": 4
        }
      ]
    },
    {
      "name": "Group_MatrixTransform_i96026_Geometry_7-Mesh",
      "primitives": [
        {
          "attributes": {
            "POSITION": 28,
            "NORMAL": 29,
            "TEXCOORD_0": 30
          },
          "indices": 31,
          "material": 7,
          "mode": 4
        }
      ]
    },
    {
      "name": "Group_MatrixTransform_i96026_Geometry_8-Mesh",
      "primitives": [
        {
          "attributes": {
            "POSITION": 32,
            "NORMAL": 33,
            "TEXCOORD_0": 34
          },
          "indices": 35,
          "material": 8,
          "mode": 4
        }
      ]
    }
  ],
  "nodes": [
    {
      "name": "Group_MatrixTransform_i96026_Geometry_0",
      "mesh": 0
    },
    {
      "name": "Group_MatrixTransform_i96026_Geometry_1",
      "mesh": 1
    },
    {
      "name": "Group_MatrixTransform_i96026_Geometry_2",
      "mesh": 2
    },
    {
      "name": "Group_MatrixTransform_i96026_Geometry_3",
      "mesh": 3
    },
    {
      "name": "Group_MatrixTransform_i96026_Geometry_4",
      "mesh": 4
    },
    {
      "name": "Group_MatrixTransform_i96026_Geometry_5",
      "mesh": 5
    },
    {
      "name": "Group_MatrixTransform_i96026_Geometry_6",
      "mesh": 6
    },
    {
      "name": "Group_MatrixTransform_i96026_Geometry_7",
      "mesh": 7
    },
    {
      "name": "Group_MatrixTransform_i96026_Geometry_8",
      "mesh": 8
    }
  ],
  "samplers": [
    {
      "magFilter": 9729,
      "minFilter": 9986,
      "wrapS": 10497,
      "wrapT": 10497
    }
  ],
  "scene": 0,
  "scenes": [
    {
      "nodes": [
        0,
        1,
        2,
        3,
        4,
        5,
        6,
        7,
        8
      ]
    }
  ],
  "textures": [
    {
      "name": "i9600161_j",
      "sampler": 0,
      "source": 0
    },
    {
      "name": "i9600153_j",
      "sampler": 0,
      "source": 1
    },
    {
      "name": "i9600168_j",
      "sampler": 0,
      "source": 2
    },
    {
      "name": "i96_h120_b",
      "sampler": 0,
      "source": 3
    },
    {
      "name": "i96_h117_b",
      "sampler": 0,
      "source": 4
    },
    {
      "name": "i9600176_j",
      "sampler": 0,
      "source": 5
    },
    {
      "name": "i9600175_j",
      "sampler": 0,
      "source": 6
    },
    {
      "name": "i9600149_j",
      "sampler": 0,
      "source": 7
    },
    {
      "name": "hkbm0145_j",
      "sampler": 0,
      "source": 8
    }
  ]
}
