{
  "accessors": [
    {
      "name": "Group_MatrixTransform_i96048_Geometry_0-Mesh_positions",
      "componentType": 5126,
      "count": 12,
      "min": [
        -2.854979991912842,
        -3.875,
        0.057002998888492584
      ],
      "max": [
        9.744999885559082,
        2.0151400566101074,
        3.732100009918213
      ],
      "type": "VEC3",
      "bufferView": 0,
      "byteOffset": 0
    },
    {
      "name": "Group_MatrixTransform_i96048_Geometry_0-Mesh_normals",
      "componentType": 5126,
      "count": 12,
      "min": [
        0.009283838793635368,
        -0.9999569058418274,
        -0.00013285699242260307
      ],
      "max": [
        0.9999576807022095,
        0.00923067331314087,
        0
      ],
      "type": "VEC3",
      "bufferView": 0,
      "byteOffset": 1152
    },
    {
      "name": "Group_MatrixTransform_i96048_Geometry_0-Mesh_texcoords",
      "componentType": 5126,
      "count": 12,
      "min": [
        0.045898400247097015,
        0
      ],
      "max": [
        0.9541019797325134,
        1
      ],
      "type": "VEC2",
      "bufferView": 1,
      "byteOffset": 0
    },
    {
      "name": "Group_MatrixTransform_i96048_Geometry_0-Mesh_0_indices",
      "componentType": 5123,
      "count": 12,
      "min": [
        0
      ],
      "max": [
        11
      ],
      "type": "SCALAR",
      "bufferView": 2,
      "byteOffset": 0
    },
    {
      "name": "Group_MatrixTransform_i96048_Geometry_1-Mesh_positions",
      "componentType": 5126,
      "count": 18,
      "min": [
        -11.345000267028809,
        -3.955080032348633,
        0
      ],
      "max": [
        9.765009880065918,
        3.9350600242614746,
        3.732100009918213
      ],
      "type": "VEC3",
      "bufferView": 0,
      "byteOffset": 144
    },
    {
      "name": "Group_MatrixTransform_i96048_Geometry_1-Mesh_normals",
      "componentType": 5126,
      "count": 18,
      "min": [
        -0.009121453389525414,
        -0.9999569058418274,
        -0.00013285999011714011
      ],
      "max": [
        0.009341862984001637,
        0.9999583959579468,
        2.98347117677622e-7
      ],
      "type": "VEC3",
      "bufferView": 0,
      "byteOffset": 1296
    },
    {
      "name": "Group_MatrixTransform_i96048_Geometry_1-Mesh_texcoords",
      "componentType": 5126,
      "count": 18,
      "min": [
        0.0025176999624818563,
        0
      ],
      "max": [
        4.9975199699401855,
        1
      ],
      "type": "VEC2",
      "bufferView": 1,
      "byteOffset": 96
    },
    {
      "name": "Group_MatrixTransform_i96048_Geometry_1-Mesh_0_indices",
      "componentType": 5123,
      "count": 18,
      "min": [
        0
      ],
      "max": [
        17
      ],
      "type": "SCALAR",
      "bufferView": 2,
      "byteOffset": 24
    },
    {
      "name": "Group_MatrixTransform_i96048_Geometry_2-Mesh_positions",
      "componentType": 5126,
      "count": 18,
      "min": [
        -11.345000267028809,
        -3.955080032348633,
        0
      ],
      "max": [
        9.765009880065918,
        3.9350600242614746,
        3.732100009918213
      ],
      "type": "VEC3",
      "bufferView": 0,
      "byteOffset": 360
    },
    {
      "name": "Group_MatrixTransform_i96048_Geometry_2-Mesh_normals",
      "componentType": 5126,
      "count": 18,
      "min": [
        -0.9999576210975647,
        -0.009224815294146538,
        -0.000033906988392118365
      ],
      "max": [
        0.9999576807022095,
        0.00926121138036251,
        0.00003270708839409053
      ],
      "type": "VEC3",
      "bufferView": 0,
      "byteOffset": 1512
    },
    {
      "name": "Group_MatrixTransform_i96048_Geometry_2-Mesh_texcoords",
      "componentType": 5126,
      "count": 18,
      "min": [
        0.0009765629656612873,
        0
      ],
      "max": [
        1.999019980430603,
        1
      ],
      "type": "VEC2",
      "bufferView": 1,
      "byteOffset": 240
    },
    {
      "name": "Group_MatrixTransform_i96048_Geometry_2-Mesh_0_indices",
      "componentType": 5123,
      "count": 18,
      "min": [
        0
      ],
      "max": [
        17
      ],
      "type": "SCALAR",
      "bufferView": 2,
      "byteOffset": 60
    },
    {
      "name": "Group_MatrixTransform_i96048_Geometry_3-Mesh_positions",
      "componentType": 5126,
      "count": 30,
      "min": [
        9.704959869384766,
        -2.884769916534424,
        3.6140999794006348
      ],
      "max": [
        11.345000267028809,
        3.955080032348633,
        3.732100009918213
      ],
      "type": "VEC3",
      "bufferView": 0,
      "byteOffset": 576
    },
    {
      "name": "Group_MatrixTransform_i96048_Geometry_3-Mesh_normals",
      "componentType": 5126,
      "count": 30,
      "min": [
        -0.9999809861183167,
        -0.9999812841415405,
        -1
      ],
      "max": [
        0.999980092048645,
        0.9999793171882629,
        0.004138928838074207
      ],
      "type": "VEC3",
      "bufferView": 0,
      "byteOffset": 1728
    },
    {
      "name": "Group_MatrixTransform_i96048_Geometry_3-Mesh_texcoords",
      "componentType": 5126,
      "count": 30,
      "min": [
        -1.2053200006484985,
        -1.2102099657058716
      ],
      "max": [
        2.210210084915161,
        2.210210084915161
      ],
      "type": "VEC2",
      "bufferView": 1,
      "byteOffset": 384
    },
    {
      "name": "Group_MatrixTransform_i96048_Geometry_3-Mesh_0_indices",
      "componentType": 5123,
      "count": 30,
      "min": [
        0
      ],
      "max": [
        29
      ],
      "type": "SCALAR",
      "bufferView": 2,
      "byteOffset": 96
    },
    {
      "name": "Group_MatrixTransform_i96048_Geometry_4-Mesh_positions",
      "componentType": 5126,
      "count": 6,
      "min": [
        9.704959869384766,
        -2.884769916534424,
        3.732100009918213
      ],
      "max": [
        11.345000267028809,
        3.955080032348633,
        3.732100009918213
      ],
      "type": "VEC3",
      "bufferView": 0,
      "byteOffset": 936
    },
    {
      "name": "Group_MatrixTransform_i96048_Geometry_4-Mesh_normals",
      "componentType": 5126,
      "count": 6,
      "min": [
        0,
        0,
        1
      ],
      "max": [
        0,
        0,
        1
      ],
      "type": "VEC3",
      "bufferView": 0,
      "byteOffset": 2088
    },
    {
      "name": "Group_MatrixTransform_i96048_Geometry_4-Mesh_texcoords",
      "componentType": 5126,
      "count": 6,
      "min": [
        0,
        0.007984000258147717
      ],
      "max": [
        0.9960489869117737,
        1
      ],
      "type": "VEC2",
      "bufferView": 1,
      "byteOffset": 624
    },
    {
      "name": "Group_MatrixTransform_i96048_Geometry_4-Mesh_0_indices",
      "componentType": 5123,
      "count": 6,
      "min": [
        0
      ],
      "max": [
        5
      ],
      "type": "SCALAR",
      "bufferView": 2,
      "byteOffset": 156
    },
    {
      "name": "Group_MatrixTransform_i96048_Geometry_5-Mesh_positions",
      "componentType": 5126,
      "count": 12,
      "min": [
        -11.345000267028809,
        -3.955080032348633,
        3.732100009918213
      ],
      "max": [
        9.765009880065918,
        3.9350600242614746,
        3.732100009918213
      ],
      "type": "VEC3",
      "bufferView": 0,
      "byteOffset": 1008
    },
    {
      "name": "Group_MatrixTransform_i96048_Geometry_5-Mesh_normals",
      "componentType": 5126,
      "count": 12,
      "min": [
        0,
        0,
        1
      ],
      "max": [
        0,
        0,
        1
      ],
      "type": "VEC3",
      "bufferView": 0,
      "byteOffset": 2160
    },
    {
      "name": "Group_MatrixTransform_i96048_Geometry_5-Mesh_texcoords",
      "componentType": 5126,
      "count": 12,
      "min": [
        0,
        0.0037700000684708357
      ],
      "max": [
        0.9997169971466064,
        1
      ],
      "type": "VEC2",
      "bufferView": 1,
      "byteOffset": 672
    },
    {
      "name": "Group_MatrixTransform_i96048_Geometry_5-Mesh_0_indices",
      "componentType": 5123,
      "count": 12,
      "min": [
        0
      ],
      "max": [
        11
      ],
      "type": "SCALAR",
      "bufferView": 2,
      "byteOffset": 168
    }
  ],
  "asset": {
    "generator": "obj2gltf",
    "version": "2.0"
  },
  "buffers": [
    {
      "name": "i96048",
      "byteLength": 131328,
      "uri": "data:application/octet-stream;base64,"
    }
  ],
  "bufferViews": [
    {
      "name": "bufferView_0",
      "buffer": 0,
      "byteLength": 2304,
      "byteOffset": 0,
      "byteStride": 12,
      "target": 34962
    },
    {
      "name": "bufferView_1",
      "buffer": 0,
      "byteLength": 768,
      "byteOffset": 2304,
      "byteStride": 8,
      "target": 34962
    },
    {
      "name": "bufferView_2",
      "buffer": 0,
      "byteLength": 192,
      "byteOffset": 3072,
      "target": 34963
    },
    {
      "buffer": 0,
      "byteOffset": 3264,
      "byteLength": 26130
    },
    {
      "buffer": 0,
      "byteOffset": 29394,
      "byteLength": 23575
    },
    {
      "buffer": 0,
      "byteOffset": 52969,
      "byteLength": 24357
    },
    {
      "buffer": 0,
      "byteOffset": 77326,
      "byteLength": 11413
    },
    {
      "buffer": 0,
      "byteOffset": 88739,
      "byteLength": 13551
    },
    {
      "buffer": 0,
      "byteOffset": 102290,
      "byteLength": 29036
    }
  ],
  "images": [
    {
      "name": "i9600394_j",
      "mimeType": "image/png",
      "bufferView": 3
    },
    {
      "name": "i9600393_j",
      "mimeType": "image/png",
      "bufferView": 4
    },
    {
      "name": "i9600392_j",
      "mimeType": "image/png",
      "bufferView": 5
    },
    {
      "name": "i9600311_j",
      "mimeType": "image/png",
      "bufferView": 6
    },
    {
      "name": "i96_h95_b",
      "mimeType": "image/png",
      "bufferView": 7
    },
    {
      "name": "i96_h94_b",
      "mimeType": "image/png",
      "bufferView": 8
    }
  ],
  "materials": [
    {
      "name": "material_211",
      "pbrMetallicRoughness": {
        "baseColorTexture": {
          "index": 0
        },
        "baseColorFactor": [
          1,
          1,
          1,
          1
        ],
        "metallicFactor": 0,
        "roughnessFactor": 1
      },
      "emissiveFactor": [
        0,
        0,
        0
      ],
      "alphaMode": "OPAQUE",
      "doubleSided": false
    },
    {
      "name": "material_212",
      "pbrMetallicRoughness": {
        "baseColorTexture": {
          "index": 1
        },
        "baseColorFactor": [
          1,
          1,
          1,
          1
        ],
        "metallicFactor": 0,
        "roughnessFactor": 1
      },
      "emissiveFactor": [
        0,
        0,
        0
      ],
      "alphaMode": "OPAQUE",
      "doubleSided": false
    },
    {
      "name": "material_213",
      "pbrMetallicRoughness": {
        "baseColorTexture": {
          "index": 2
        },
        "baseColorFactor": [
          1,
          1,
          1,
          1
        ],
        "metallicFactor": 0,
        "roughnessFactor": 1
      },
      "emissiveFactor": [
        0,
        0,
        0
      ],
      "alphaMode": "OPAQUE",
      "doubleSided": false
    },
    {
      "name": "material_214",
      "pbrMetallicRoughness": {
        "baseColorTexture": {
          "index": 3
        },
        "baseColorFactor": [
          1,
          1,
          1,
          1
        ],
        "metallicFactor": 0,
        "roughnessFactor": 1
      },
      "emissiveFactor": [
        0,
        0,
        0
      ],
      "alphaMode": "OPAQUE",
      "doubleSided": false
    },
    {
      "name": "material_215",
      "pbrMetallicRoughness": {
        "baseColorTexture": {
          "index": 4
        },
        "baseColorFactor": [
          1,
          1,
          1,
          1
        ],
        "metallicFactor": 0,
        "roughnessFactor": 1
      },
      "emissiveFactor": [
        0,
        0,
        0
      ],
      "alphaMode": "OPAQUE",
      "doubleSided": false
    },
    {
      "name": "material_216",
      "pbrMetallicRoughness": {
        "baseColorTexture": {
          "index": 5
        },
        "baseColorFactor": [
          1,
          1,
          1,
          1
        ],
        "metallicFactor": 0,
        "roughnessFactor": 1
      },
      "emissiveFactor": [
        0,
        0,
        0
      ],
      "alphaMode": "OPAQUE",
      "doubleSided": false
    }
  ],
  "meshes": [
    {
      "name": "Group_MatrixTransform_i96048_Geometry_0-Mesh",
      "primitives": [
        {
          "attributes": {
            "POSITION": 0,
            "NORMAL": 1,
            "TEXCOORD_0": 2
          },
          "indices": 3,
          "material": 0,
          "mode": 4
        }
      ]
    },
    {
      "name": "Group_MatrixTransform_i96048_Geometry_1-Mesh",
      "primitives": [
        {
          "attributes": {
            "POSITION": 4,
            "NORMAL": 5,
            "TEXCOORD_0": 6
          },
          "indices": 7,
          "material": 1,
          "mode": 4
        }
      ]
    },
    {
      "name": "Group_MatrixTransform_i96048_Geometry_2-Mesh",
      "primitives": [
        {
          "attributes": {
            "POSITION": 8,
            "NORMAL": 9,
            "TEXCOORD_0": 10
          },
          "indices": 11,
          "material": 2,
          "mode": 4
        }
      ]
    },
    {
      "name": "Group_MatrixTransform_i96048_Geometry_3-Mesh",
      "primitives": [
        {
          "attributes": {
            "POSITION": 12,
            "NORMAL": 13,
            "TEXCOORD_0": 14
          },
          "indices": 15,
          "material": 3,
          "mode": 4
        }
      ]
    },
    {
      "name": "Group_MatrixTransform_i96048_Geometry_4-Mesh",
      "primitives": [
        {
          "attributes": {
            "POSITION": 16,
            "NORMAL": 17,
            "TEXCOORD_0": 18
          },
          "indices": 19,
          "material": 4,
          "mode": 4
        }
      ]
    },
    {
      "name": "Group_MatrixTransform_i96048_Geometry_5-Mesh",
      "primitives": [
        {
          "attributes": {
            "POSITION": 20,
            "NORMAL": 21,
            "TEXCOORD_0": 22
          },
          "indices": 23,
          "material": 5,
          "mode": 4
        }
      ]
    }
  ],
  "nodes": [
    {
      "name": "Group_MatrixTransform_i96048_Geometry_0",
      "mesh": 0
    },
    {
      "name": "Group_MatrixTransform_i96048_Geometry_1",
      "mesh": 1
    },
    {
      "name": "Group_MatrixTransform_i96048_Geometry_2",
      "mesh": 2
    },
    {
      "name": "Group_MatrixTransform_i96048_Geometry_3",
      "mesh": 3
    },
    {
      "name": "Group_MatrixTransform_i96048_Geometry_4",
      "mesh": 4
    },
    {
      "name": "Group_MatrixTransform_i96048_Geometry_5",
      "mesh": 5
    }
  ],
  "samplers": [
    {
      "magFilter": 9729,
      "minFilter": 9986,
      "wrapS": 10497,
      "wrapT": 10497
    }
  ],
  "scene": 0,
  "scenes": [
    {
      "nodes": [
        0,
        1,
        2,
        3,
        4,
        5
      ]
    }
  ],
  "textures": [
    {
      "name": "i9600394_j",
      "sampler": 0,
      "source": 0
    },
    {
      "name": "i9600393_j",
      "sampler": 0,
      "source": 1
    },
    {
      "name": "i9600392_j",
      "sampler": 0,
      "source": 2
    },
    {
      "name": "i9600311_j",
      "sampler": 0,
      "source": 3
    },
    {
      "name": "i96_h95_b",
      "sampler": 0,
      "source": 4
    },
    {
      "name": "i96_h94_b",
      "sampler": 0,
      "source": 5
    }
  ]
}
