{
  "accessors": [
    {
      "name": "Group_MatrixTransform_i96001_Geometry_0-Mesh_positions",
      "componentType": 5126,
      "count": 48,
      "min": [
        -42.53499984741211,
        -22.229999542236328,
        0
      ],
      "max": [
        43.025001525878906,
        6.259769916534424,
        3.709399938583374
      ],
      "type": "VEC3",
      "bufferView": 0,
      "byteOffset": 0
    },
    {
      "name": "Group_MatrixTransform_i96001_Geometry_0-Mesh_normals",
      "componentType": 5126,
      "count": 48,
      "min": [
        -0.999361515045166,
        -0.03574340045452118,
        0
      ],
      "max": [
        0.9993618130683899,
        0.03574340045452118,
        0
      ],
      "type": "VEC3",
      "bufferView": 0,
      "byteOffset": 6156
    },
    {
      "name": "Group_MatrixTransform_i96001_Geometry_0-Mesh_texcoords",
      "componentType": 5126,
      "count": 48,
      "min": [
        -0.2763670086860657,
        0.0005000000237487257
      ],
      "max": [
        1.3037999868392944,
        0.9995411038398743
      ],
      "type": "VEC2",
      "bufferView": 1,
      "byteOffset": 0
    },
    {
      "name": "Group_MatrixTransform_i96001_Geometry_0-Mesh_0_indices",
      "componentType": 5123,
      "count": 48,
      "min": [
        0
      ],
      "max": [
        47
      ],
      "type": "SCALAR",
      "bufferView": 2,
      "byteOffset": 0
    },
    {
      "name": "Group_MatrixTransform_i96001_Geometry_1-Mesh_positions",
      "componentType": 5126,
      "count": 12,
      "min": [
        -18.2450008392334,
        20.100099563598633,
        0.11340299993753433
      ],
      "max": [
        16.954999923706055,
        21.350099563598633,
        5.605000019073486
      ],
      "type": "VEC3",
      "bufferView": 0,
      "byteOffset": 576
    },
    {
      "name": "Group_MatrixTransform_i96001_Geometry_1-Mesh_normals",
      "componentType": 5126,
      "count": 12,
      "min": [
        -0.035749491304159164,
        0.9993607997894287,
        -0.00008911918121157214
      ],
      "max": [
        -0.03570098429918289,
        0.9993625283241272,
        0
      ],
      "type": "VEC3",
      "bufferView": 0,
      "byteOffset": 6732
    },
    {
      "name": "Group_MatrixTransform_i96001_Geometry_1-Mesh_texcoords",
      "componentType": 5126,
      "count": 12,
      "min": [
        0.0005187990027479827,
        0.0005000000237487257
      ],
      "max": [
        0.9995120167732239,
        0.9995007514953613
      ],
      "type": "VEC2",
      "bufferView": 1,
      "byteOffset": 384
    },
    {
      "name": "Group_MatrixTransform_i96001_Geometry_1-Mesh_0_indices",
      "componentType": 5123,
      "count": 12,
      "min": [
        0
      ],
      "max": [
        11
      ],
      "type": "SCALAR",
      "bufferView": 2,
      "byteOffset": 96
    },
    {
      "name": "Group_MatrixTransform_i96001_Geometry_2-Mesh_positions",
      "componentType": 5126,
      "count": 33,
      "min": [
        -43.10499954223633,
        -22.229999542236328,
        0.1000019982457161
      ],
      "max": [
        43.025001525878906,
        22.229999542236328,
        5.605000019073486
      ],
      "type": "VEC3",
      "bufferView": 0,
      "byteOffset": 720
    },
    {
      "name": "Group_MatrixTransform_i96001_Geometry_2-Mesh_normals",
      "componentType": 5126,
      "count": 33,
      "min": [
        -0.0357402041554451,
        -0.9993613362312317,
        -0.00008911928307497874
      ],
      "max": [
        0.03573441132903099,
        0.9993619322776794,
        7.991001780283113e-7
      ],
      "type": "VEC3",
      "bufferView": 0,
      "byteOffset": 6876
    },
    {
      "name": "Group_MatrixTransform_i96001_Geometry_2-Mesh_texcoords",
      "componentType": 5126,
      "count": 33,
      "min": [
        0.002498629968613386,
        0.0004990000161342323
      ],
      "max": [
        14.992500305175781,
        0.9995007514953613
      ],
      "type": "VEC2",
      "bufferView": 1,
      "byteOffset": 480
    },
    {
      "name": "Group_MatrixTransform_i96001_Geometry_2-Mesh_0_indices",
      "componentType": 5123,
      "count": 33,
      "min": [
        0
      ],
      "max": [
        32
      ],
      "type": "SCALAR",
      "bufferView": 2,
      "byteOffset": 120
    },
    {
      "name": "Group_MatrixTransform_i96001_Geometry_3-Mesh_positions",
      "componentType": 5126,
      "count": 60,
      "min": [
        -43.10499954223633,
        3.229979991912842,
        0
      ],
      "max": [
        42.1150016784668,
        22.229999542236328,
        3.7699999809265137
      ],
      "type": "VEC3",
      "bufferView": 0,
      "byteOffset": 1116
    },
    {
      "name": "Group_MatrixTransform_i96001_Geometry_3-Mesh_normals",
      "componentType": 5126,
      "count": 60,
      "min": [
        -0.9993625283241272,
        -0.0357532873749733,
        0
      ],
      "max": [
        0.9993625283241272,
        0.0357532873749733,
        0
      ],
      "type": "VEC3",
      "bufferView": 0,
      "byteOffset": 7272
    },
    {
      "name": "Group_MatrixTransform_i96001_Geometry_3-Mesh_texcoords",
      "componentType": 5126,
      "count": 60,
      "min": [
        0.0009765629656612873,
        0.37031498551368713
      ],
      "max": [
        1.999019980430603,
        0.9996851682662964
      ],
      "type": "VEC2",
      "bufferView": 1,
      "byteOffset": 744
    },
    {
      "name": "Group_MatrixTransform_i96001_Geometry_3-Mesh_0_indices",
      "componentType": 5123,
      "count": 60,
      "min": [
        0
      ],
      "max": [
        59
      ],
      "type": "SCALAR",
      "bufferView": 2,
      "byteOffset": 188
    },
    {
      "name": "Group_MatrixTransform_i96001_Geometry_4-Mesh_positions",
      "componentType": 5126,
      "count": 24,
      "min": [
        -42.89500045776367,
        9.39013957977295,
        0.01670069992542267
      ],
      "max": [
        41.89500045776367,
        16.310100555419922,
        3.2119998931884766
      ],
      "type": "VEC3",
      "bufferView": 0,
      "byteOffset": 1836
    },
    {
      "name": "Group_MatrixTransform_i96001_Geometry_4-Mesh_normals",
      "componentType": 5126,
      "count": 24,
      "min": [
        -0.9993625283241272,
        -0.03574679419398308,
        0
      ],
      "max": [
        0.9993625283241272,
        0.03574679419398308,
        0
      ],
      "type": "VEC3",
      "bufferView": 0,
      "byteOffset": 7992
    },
    {
      "name": "Group_MatrixTransform_i96001_Geometry_4-Mesh_texcoords",
      "componentType": 5126,
      "count": 24,
      "min": [
        0.21094399690628052,
        0.2803589999675751
      ],
      "max": [
        0.7518709897994995,
        0.9996402263641357
      ],
      "type": "VEC2",
      "bufferView": 1,
      "byteOffset": 1224
    },
    {
      "name": "Group_MatrixTransform_i96001_Geometry_4-Mesh_0_indices",
      "componentType": 5123,
      "count": 24,
      "min": [
        0
      ],
      "max": [
        23
      ],
      "type": "SCALAR",
      "bufferView": 2,
      "byteOffset": 308
    },
    {
      "name": "Group_MatrixTransform_i96001_Geometry_5-Mesh_positions",
      "componentType": 5126,
      "count": 264,
      "min": [
        -43.375,
        -22.229999542236328,
        3.2869999408721924
      ],
      "max": [
        43.375,
        22.229999542236328,
        6.736000061035156
      ],
      "type": "VEC3",
      "bufferView": 0,
      "byteOffset": 2124
    },
    {
      "name": "Group_MatrixTransform_i96001_Geometry_5-Mesh_normals",
      "componentType": 5126,
      "count": 264,
      "min": [
        -0.9997859001159668,
        -0.9997863173484802,
        -1
      ],
      "max": [
        0.9997863173484802,
        0.9997820854187012,
        0.0016411507967859507
      ],
      "type": "VEC3",
      "bufferView": 0,
      "byteOffset": 8280
    },
    {
      "name": "Group_MatrixTransform_i96001_Geometry_5-Mesh_texcoords",
      "componentType": 5126,
      "count": 264,
      "min": [
        -14.084400177001953,
        0
      ],
      "max": [
        15.128000259399414,
        0.9995012283325195
      ],
      "type": "VEC2",
      "bufferView": 1,
      "byteOffset": 1416
    },
    {
      "name": "Group_MatrixTransform_i96001_Geometry_5-Mesh_0_indices",
      "componentType": 5123,
      "count": 264,
      "min": [
        0
      ],
      "max": [
        263
      ],
      "type": "SCALAR",
      "bufferView": 2,
      "byteOffset": 356
    },
    {
      "name": "Group_MatrixTransform_i96001_Geometry_6-Mesh_positions",
      "componentType": 5126,
      "count": 36,
      "min": [
        -43.10499954223633,
        -22.229999542236328,
        5.460999965667725
      ],
      "max": [
        43.025001525878906,
        22.229999542236328,
        6.736000061035156
      ],
      "type": "VEC3",
      "bufferView": 0,
      "byteOffset": 5292
    },
    {
      "name": "Group_MatrixTransform_i96001_Geometry_6-Mesh_normals",
      "componentType": 5126,
      "count": 36,
      "min": [
        -0.008589486591517925,
        -0.2416900098323822,
        0.9703150391578674
      ],
      "max": [
        0.008642179891467094,
        0.24025589227676392,
        0.98997563123703
      ],
      "type": "VEC3",
      "bufferView": 0,
      "byteOffset": 11448
    },
    {
      "name": "Group_MatrixTransform_i96001_Geometry_6-Mesh_texcoords",
      "componentType": 5126,
      "count": 36,
      "min": [
        0,
        0.0007730000070296228
      ],
      "max": [
        0.9996579885482788,
        1
      ],
      "type": "VEC2",
      "bufferView": 1,
      "byteOffset": 3528
    },
    {
      "name": "Group_MatrixTransform_i96001_Geometry_6-Mesh_0_indices",
      "componentType": 5123,
      "count": 36,
      "min": [
        0
      ],
      "max": [
        35
      ],
      "type": "SCALAR",
      "bufferView": 2,
      "byteOffset": 884
    },
    {
      "name": "Group_MatrixTransform_i96001_Geometry_7-Mesh_positions",
      "componentType": 5126,
      "count": 36,
      "min": [
        -43.375,
        -16.729999542236328,
        3.5869998931884766
      ],
      "max": [
        43.375,
        21.899900436401367,
        3.76200008392334
      ],
      "type": "VEC3",
      "bufferView": 0,
      "byteOffset": 5724
    },
    {
      "name": "Group_MatrixTransform_i96001_Geometry_7-Mesh_normals",
      "componentType": 5126,
      "count": 36,
      "min": [
        -9.251940014110005e-7,
        -0.0000043196901060582604,
        0.9937048554420471
      ],
      "max": [
        0.11194198578596115,
        0.004539720714092255,
        1
      ],
      "type": "VEC3",
      "bufferView": 0,
      "byteOffset": 11880
    },
    {
      "name": "Group_MatrixTransform_i96001_Geometry_7-Mesh_texcoords",
      "componentType": 5126,
      "count": 36,
      "min": [
        0,
        0.00009500000305706635
      ],
      "max": [
        0.9994850158691406,
        1
      ],
      "type": "VEC2",
      "bufferView": 1,
      "byteOffset": 3816
    },
    {
      "name": "Group_MatrixTransform_i96001_Geometry_7-Mesh_0_indices",
      "componentType": 5123,
      "count": 36,
      "min": [
        0
      ],
      "max": [
        35
      ],
      "type": "SCALAR",
      "bufferView": 2,
      "byteOffset": 956
    }
  ],
  "asset": {
    "generator": "obj2gltf",
    "version": "2.0"
  },
  "buffers": [
    {
      "name": "i96001",
      "byteLength": 299944,
      "uri": "data:application/octet-stream;base64,"
    }
  ],
  "bufferViews": [
    {
      "name": "bufferView_0",
      "buffer": 0,
      "byteLength": 12312,
      "byteOffset": 0,
      "byteStride": 12,
      "target": 34962
    },
    {
      "name": "bufferView_1",
      "buffer": 0,
      "byteLength": 4104,
      "byteOffset": 12312,
      "byteStride": 8,
      "target": 34962
    },
    {
      "name": "bufferView_2",
      "buffer": 0,
      "byteLength": 1028,
      "byteOffset": 16416,
      "target": 34963
    },
    {
      "buffer": 0,
      "byteOffset": 17444,
      "byteLength": 19042
    },
    {
      "buffer": 0,
      "byteOffset": 36486,
      "byteLength": 40713
    },
    {
      "buffer": 0,
      "byteOffset": 77199,
      "byteLength": 40141
    },
    {
      "buffer": 0,
      "byteOffset": 117340,
      "byteLength": 16916
    },
    {
      "buffer": 0,
      "byteOffset": 134256,
      "byteLength": 19462
    },
    {
      "buffer": 0,
      "byteOffset": 153718,
      "byteLength": 17293
    },
    {
      "buffer": 0,
      "byteOffset": 171011,
      "byteLength": 104974
    },
    {
      "buffer": 0,
      "byteOffset": 275985,
      "byteLength": 23957
    }
  ],
  "images": [
    {
      "name": "i9600425_j",
      "mimeType": "image/png",
      "bufferView": 3
    },
    {
      "name": "i9600424_j",
      "mimeType": "image/png",
      "bufferView": 4
    },
    {
      "name": "i9600423_j",
      "mimeType": "image/png",
      "bufferView": 5
    },
    {
      "name": "i9600360_j",
      "mimeType": "image/png",
      "bufferView": 6
    },
    {
      "name": "i9600359_j",
      "mimeType": "image/png",
      "bufferView": 7
    },
    {
      "name": "i9600358_j",
      "mimeType": "image/png",
      "bufferView": 8
    },
    {
      "name": "i96_h198_b",
      "mimeType": "image/png",
      "bufferView": 9
    },
    {
      "name": "i9600002_b",
      "mimeType": "image/png",
      "bufferView": 10
    }
  ],
  "materials": [
    {
      "name": "material_144",
      "pbrMetallicRoughness": {
        "baseColorTexture": {
          "index": 0
        },
        "baseColorFactor": [
          1,
          1,
          1,
          1
        ],
        "metallicFactor": 0,
        "roughnessFactor": 1
      },
      "emissiveFactor": [
        0,
        0,
        0
      ],
      "alphaMode": "OPAQUE",
      "doubleSided": false
    },
    {
      "name": "material_145",
      "pbrMetallicRoughness": {
        "baseColorTexture": {
          "index": 1
        },
        "baseColorFactor": [
          1,
          1,
          1,
          1
        ],
        "metallicFactor": 0,
        "roughnessFactor": 1
      },
      "emissiveFactor": [
        0,
        0,
        0
      ],
      "alphaMode": "OPAQUE",
      "doubleSided": false
    },
    {
      "name": "material_146",
      "pbrMetallicRoughness": {
        "baseColorTexture": {
          "index": 2
        },
        "baseColorFactor": [
          1,
          1,
          1,
          1
        ],
        "metallicFactor": 0,
        "roughnessFactor": 1
      },
      "emissiveFactor": [
        0,
        0,
        0
      ],
      "alphaMode": "OPAQUE",
      "doubleSided": false
    },
    {
      "name": "material_147",
      "pbrMetallicRoughness": {
        "baseColorTexture": {
          "index": 3
        },
        "baseColorFactor": [
          1,
          1,
          1,
          1
        ],
        "metallicFactor": 0,
        "roughnessFactor": 1
      },
      "emissiveFactor": [
        0,
        0,
        0
      ],
      "alphaMode": "OPAQUE",
      "doubleSided": false
    },
    {
      "name": "material_148",
      "pbrMetallicRoughness": {
        "baseColorTexture": {
          "index": 4
        },
        "baseColorFactor": [
          1,
          1,
          1,
          1
        ],
        "metallicFactor": 0,
        "roughnessFactor": 1
      },
      "emissiveFactor": [
        0,
        0,
        0
      ],
      "alphaMode": "OPAQUE",
      "doubleSided": false
    },
    {
      "name": "material_149",
      "pbrMetallicRoughness": {
        "baseColorTexture": {
          "index": 5
        },
        "baseColorFactor": [
          1,
          1,
          1,
          1
        ],
        "metallicFactor": 0,
        "roughnessFactor": 1
      },
      "emissiveFactor": [
        0,
        0,
        0
      ],
      "alphaMode": "OPAQUE",
      "doubleSided": false
    },
    {
      "name": "material_150",
      "pbrMetallicRoughness": {
        "baseColorTexture": {
          "index": 6
        },
        "baseColorFactor": [
          1,
          1,
          1,
          1
        ],
        "metallicFactor": 0,
        "roughnessFactor": 1
      },
      "emissiveFactor": [
        0,
        0,
        0
      ],
      "alphaMode": "OPAQUE",
      "doubleSided": false
    },
    {
      "name": "material_151",
      "pbrMetallicRoughness": {
        "baseColorTexture": {
          "index": 7
        },
        "baseColorFactor": [
          1,
          1,
          1,
          1
        ],
        "metallicFactor": 0,
        "roughnessFactor": 1
      },
      "emissiveFactor": [
        0,
        0,
        0
      ],
      "alphaMode": "OPAQUE",
      "doubleSided": false
    }
  ],
  "meshes": [
    {
      "name": "Group_MatrixTransform_i96001_Geometry_0-Mesh",
      "primitives": [
        {
          "attributes": {
            "POSITION": 0,
            "NORMAL": 1,
            "TEXCOORD_0": 2
          },
          "indices": 3,
          "material": 0,
          "mode": 4
        }
      ]
    },
    {
      "name": "Group_MatrixTransform_i96001_Geometry_1-Mesh",
      "primitives": [
        {
          "attributes": {
            "POSITION": 4,
            "NORMAL": 5,
            "TEXCOORD_0": 6
          },
          "indices": 7,
          "material": 1,
          "mode": 4
        }
      ]
    },
    {
      "name": "Group_MatrixTransform_i96001_Geometry_2-Mesh",
      "primitives": [
        {
          "attributes": {
            "POSITION": 8,
            "NORMAL": 9,
            "TEXCOORD_0": 10
          },
          "indices": 11,
          "material": 2,
          "mode": 4
        }
      ]
    },
    {
      "name": "Group_MatrixTransform_i96001_Geometry_3-Mesh",
      "primitives": [
        {
          "attributes": {
            "POSITION": 12,
            "NORMAL": 13,
            "TEXCOORD_0": 14
          },
          "indices": 15,
          "material": 3,
          "mode": 4
        }
      ]
    },
    {
      "name": "Group_MatrixTransform_i96001_Geometry_4-Mesh",
      "primitives": [
        {
          "attributes": {
            "POSITION": 16,
            "NORMAL": 17,
            "TEXCOORD_0": 18
          },
          "indices": 19,
          "material": 4,
          "mode": 4
        }
      ]
    },
    {
      "name": "Group_MatrixTransform_i96001_Geometry_5-Mesh",
      "primitives": [
        {
          "attributes": {
            "POSITION": 20,
            "NORMAL": 21,
            "TEXCOORD_0": 22
          },
          "indices": 23,
          "material": 5,
          "mode": 4
        }
      ]
    },
    {
      "name": "Group_MatrixTransform_i96001_Geometry_6-Mesh",
      "primitives": [
        {
          "attributes": {
            "POSITION": 24,
            "NORMAL": 25,
            "TEXCOORD_0": 26
          },
          "indices": 27,
          "material": 6,
          "mode": 4
        }
      ]
    },
    {
      "name": "Group_MatrixTransform_i96001_Geometry_7-Mesh",
      "primitives": [
        {
          "attributes": {
            "POSITION": 28,
            "NORMAL": 29,
            "TEXCOORD_0": 30
          },
          "indices": 31,
          "material": 7,
          "mode": 4
        }
      ]
    }
  ],
  "nodes": [
    {
      "name": "Group_MatrixTransform_i96001_Geometry_0",
      "mesh": 0
    },
    {
      "name": "Group_MatrixTransform_i96001_Geometry_1",
      "mesh": 1
    },
    {
      "name": "Group_MatrixTransform_i96001_Geometry_2",
      "mesh": 2
    },
    {
      "name": "Group_MatrixTransform_i96001_Geometry_3",
      "mesh": 3
    },
    {
      "name": "Group_MatrixTransform_i96001_Geometry_4",
      "mesh": 4
    },
    {
      "name": "Group_MatrixTransform_i96001_Geometry_5",
      "mesh": 5
    },
    {
      "name": "Group_MatrixTransform_i96001_Geometry_6",
      "mesh": 6
    },
    {
      "name": "Group_MatrixTransform_i96001_Geometry_7",
      "mesh": 7
    }
  ],
  "samplers": [
    {
      "magFilter": 9729,
      "minFilter": 9986,
      "wrapS": 10497,
      "wrapT": 10497
    }
  ],
  "scene": 0,
  "scenes": [
    {
      "nodes": [
        0,
        1,
        2,
        3,
        4,
        5,
        6,
        7
      ]
    }
  ],
  "textures": [
    {
      "name": "i9600425_j",
      "sampler": 0,
      "source": 0
    },
    {
      "name": "i9600424_j",
      "sampler": 0,
      "source": 1
    },
    {
      "name": "i9600423_j",
      "sampler": 0,
      "source": 2
    },
    {
      "name": "i9600360_j",
      "sampler": 0,
      "source": 3
    },
    {
      "name": "i9600359_j",
      "sampler": 0,
      "source": 4
    },
    {
      "name": "i9600358_j",
      "sampler": 0,
      "source": 5
    },
    {
      "name": "i96_h198_b",
      "sampler": 0,
      "source": 6
    },
    {
      "name": "i9600002_b",
      "sampler": 0,
      "source": 7
    }
  ]
}
