{
  "accessors": [
    {
      "name": "Group_MatrixTransform_i96014_Geometry_0-Mesh_positions",
      "componentType": 5126,
      "count": 9,
      "min": [
        12.164899826049805,
        -5.439939975738525,
        0.8824999928474426
      ],
      "max": [
        15.534899711608887,
        -5.359859943389893,
        4.636600017547607
      ],
      "type": "VEC3",
      "bufferView": 0,
      "byteOffset": 0
    },
    {
      "name": "Group_MatrixTransform_i96014_Geometry_0-Mesh_normals",
      "componentType": 5126,
      "count": 9,
      "min": [
        0.02399020455777645,
        -0.9997121691703796,
        0
      ],
      "max": [
        0.02399020455777645,
        -0.9997121691703796,
        0
      ],
      "type": "VEC3",
      "bufferView": 0,
      "byteOffset": 5904
    },
    {
      "name": "Group_MatrixTransform_i96014_Geometry_0-Mesh_texcoords",
      "componentType": 5126,
      "count": 9,
      "min": [
        1,
        0.0005000000237487257
      ],
      "max": [
        1.9989999532699585,
        1
      ],
      "type": "VEC2",
      "bufferView": 1,
      "byteOffset": 0
    },
    {
      "name": "Group_MatrixTransform_i96014_Geometry_0-Mesh_0_indices",
      "componentType": 5123,
      "count": 9,
      "min": [
        0
      ],
      "max": [
        8
      ],
      "type": "SCALAR",
      "bufferView": 2,
      "byteOffset": 0
    },
    {
      "name": "Group_MatrixTransform_i96014_Geometry_1-Mesh_positions",
      "componentType": 5126,
      "count": 6,
      "min": [
        -15.53499984741211,
        -6.149899959564209,
        0.2752990126609802
      ],
      "max": [
        -14.835100173950195,
        -6.149899959564209,
        5.478400230407715
      ],
      "type": "VEC3",
      "bufferView": 0,
      "byteOffset": 108
    },
    {
      "name": "Group_MatrixTransform_i96014_Geometry_1-Mesh_normals",
      "componentType": 5126,
      "count": 6,
      "min": [
        0,
        -1,
        0
      ],
      "max": [
        0,
        -1,
        0
      ],
      "type": "VEC3",
      "bufferView": 0,
      "byteOffset": 6012
    },
    {
      "name": "Group_MatrixTransform_i96014_Geometry_1-Mesh_texcoords",
      "componentType": 5126,
      "count": 6,
      "min": [
        0.0004995170165784657,
        0.0004990000161342323
      ],
      "max": [
        0.9995009899139404,
        0.9995004534721375
      ],
      "type": "VEC2",
      "bufferView": 1,
      "byteOffset": 72
    },
    {
      "name": "Group_MatrixTransform_i96014_Geometry_1-Mesh_0_indices",
      "componentType": 5123,
      "count": 6,
      "min": [
        0
      ],
      "max": [
        5
      ],
      "type": "SCALAR",
      "bufferView": 2,
      "byteOffset": 20
    },
    {
      "name": "Group_MatrixTransform_i96014_Geometry_2-Mesh_positions",
      "componentType": 5126,
      "count": 36,
      "min": [
        -15.164999961853027,
        -6.089839935302734,
        0.2654989957809448
      ],
      "max": [
        15.534899711608887,
        7.339839935302734,
        7.807600021362305
      ],
      "type": "VEC3",
      "bufferView": 0,
      "byteOffset": 180
    },
    {
      "name": "Group_MatrixTransform_i96014_Geometry_2-Mesh_normals",
      "componentType": 5126,
      "count": 36,
      "min": [
        -0.9997133016586304,
        -0.023958997800946236,
        -0.000021844203729415312
      ],
      "max": [
        0.9997131824493408,
        0.023967193439602852,
        0.000028295107767917216
      ],
      "type": "VEC3",
      "bufferView": 0,
      "byteOffset": 6084
    },
    {
      "name": "Group_MatrixTransform_i96014_Geometry_2-Mesh_texcoords",
      "componentType": 5126,
      "count": 36,
      "min": [
        0.0004997249925509095,
        0.004449000116437674
      ],
      "max": [
        0.9994999766349792,
        1
      ],
      "type": "VEC2",
      "bufferView": 1,
      "byteOffset": 120
    },
    {
      "name": "Group_MatrixTransform_i96014_Geometry_2-Mesh_0_indices",
      "componentType": 5123,
      "count": 36,
      "min": [
        0
      ],
      "max": [
        35
      ],
      "type": "SCALAR",
      "bufferView": 2,
      "byteOffset": 32
    },
    {
      "name": "Group_MatrixTransform_i96014_Geometry_3-Mesh_positions",
      "componentType": 5126,
      "count": 12,
      "min": [
        -8.10509967803955,
        -5.929689884185791,
        0.4197010099887848
      ],
      "max": [
        8.784910202026367,
        -5.529789924621582,
        4.636600017547607
      ],
      "type": "VEC3",
      "bufferView": 0,
      "byteOffset": 612
    },
    {
      "name": "Group_MatrixTransform_i96014_Geometry_3-Mesh_normals",
      "componentType": 5126,
      "count": 12,
      "min": [
        0.023844892159104347,
        -0.9997156858444214,
        0
      ],
      "max": [
        0.023844892159104347,
        -0.9997156858444214,
        0
      ],
      "type": "VEC3",
      "bufferView": 0,
      "byteOffset": 6516
    },
    {
      "name": "Group_MatrixTransform_i96014_Geometry_3-Mesh_texcoords",
      "componentType": 5126,
      "count": 12,
      "min": [
        0.0004959109937772155,
        0.0005000000237487257
      ],
      "max": [
        0.999504029750824,
        1
      ],
      "type": "VEC2",
      "bufferView": 1,
      "byteOffset": 408
    },
    {
      "name": "Group_MatrixTransform_i96014_Geometry_3-Mesh_0_indices",
      "componentType": 5123,
      "count": 12,
      "min": [
        0
      ],
      "max": [
        11
      ],
      "type": "SCALAR",
      "bufferView": 2,
      "byteOffset": 104
    },
    {
      "name": "Group_MatrixTransform_i96014_Geometry_4-Mesh_positions",
      "componentType": 5126,
      "count": 6,
      "min": [
        -14.865099906921387,
        -7.339839935302734,
        4.046599864959717
      ],
      "max": [
        10.46500015258789,
        -5.489749908447266,
        4.418099880218506
      ],
      "type": "VEC3",
      "bufferView": 0,
      "byteOffset": 756
    },
    {
      "name": "Group_MatrixTransform_i96014_Geometry_4-Mesh_normals",
      "componentType": 5126,
      "count": 6,
      "min": [
        0.005672000348567963,
        -0.2750740945339203,
        0.9614042639732361
      ],
      "max": [
        0.006005181930959225,
        -0.2707710266113281,
        0.9626270532608032
      ],
      "type": "VEC3",
      "bufferView": 0,
      "byteOffset": 6660
    },
    {
      "name": "Group_MatrixTransform_i96014_Geometry_4-Mesh_texcoords",
      "componentType": 5126,
      "count": 6,
      "min": [
        0,
        0.0020540000405162573
      ],
      "max": [
        0.998760998249054,
        1
      ],
      "type": "VEC2",
      "bufferView": 1,
      "byteOffset": 504
    },
    {
      "name": "Group_MatrixTransform_i96014_Geometry_4-Mesh_0_indices",
      "componentType": 5123,
      "count": 6,
      "min": [
        0
      ],
      "max": [
        5
      ],
      "type": "SCALAR",
      "bufferView": 2,
      "byteOffset": 128
    },
    {
      "name": "Group_MatrixTransform_i96014_Geometry_5-Mesh_positions",
      "componentType": 5126,
      "count": 12,
      "min": [
        -15.164999961853027,
        -6.089839935302734,
        4.636600017547607
      ],
      "max": [
        15.534899711608887,
        7.339839935302734,
        7.807600021362305
      ],
      "type": "VEC3",
      "bufferView": 0,
      "byteOffset": 828
    },
    {
      "name": "Group_MatrixTransform_i96014_Geometry_5-Mesh_normals",
      "componentType": 5126,
      "count": 12,
      "min": [
        -0.010637200437486172,
        -0.4490119516849518,
        0.8934608697891235
      ],
      "max": [
        0.0107674989849329,
        0.4438748359680176,
        0.896026074886322
      ],
      "type": "VEC3",
      "bufferView": 0,
      "byteOffset": 6732
    },
    {
      "name": "Group_MatrixTransform_i96014_Geometry_5-Mesh_texcoords",
      "componentType": 5126,
      "count": 12,
      "min": [
        0,
        0.0029559999238699675
      ],
      "max": [
        0.9990530014038086,
        1
      ],
      "type": "VEC2",
      "bufferView": 1,
      "byteOffset": 552
    },
    {
      "name": "Group_MatrixTransform_i96014_Geometry_5-Mesh_0_indices",
      "componentType": 5123,
      "count": 12,
      "min": [
        0
      ],
      "max": [
        11
      ],
      "type": "SCALAR",
      "bufferView": 2,
      "byteOffset": 140
    },
    {
      "name": "Group_MatrixTransform_i96014_Geometry_6-Mesh_positions",
      "componentType": 5126,
      "count": 27,
      "min": [
        -15.164999961853027,
        -6.089839935302734,
        0.2654989957809448
      ],
      "max": [
        15.234999656677246,
        7.339839935302734,
        4.636600017547607
      ],
      "type": "VEC3",
      "bufferView": 0,
      "byteOffset": 972
    },
    {
      "name": "Group_MatrixTransform_i96014_Geometry_6-Mesh_normals",
      "componentType": 5126,
      "count": 27,
      "min": [
        -0.023957598954439163,
        -0.9997122287750244,
        -0.00011167401680722833
      ],
      "max": [
        0.024061987176537514,
        0.9997130036354065,
        6.835289809714595e-7
      ],
      "type": "VEC3",
      "bufferView": 0,
      "byteOffset": 6876
    },
    {
      "name": "Group_MatrixTransform_i96014_Geometry_6-Mesh_texcoords",
      "componentType": 5126,
      "count": 27,
      "min": [
        0.0005035399808548391,
        0.0004990000161342323
      ],
      "max": [
        8.99551010131836,
        1
      ],
      "type": "VEC2",
      "bufferView": 1,
      "byteOffset": 648
    },
    {
      "name": "Group_MatrixTransform_i96014_Geometry_6-Mesh_0_indices",
      "componentType": 5123,
      "count": 27,
      "min": [
        0
      ],
      "max": [
        26
      ],
      "type": "SCALAR",
      "bufferView": 2,
      "byteOffset": 164
    },
    {
      "name": "Group_MatrixTransform_i96014_Geometry_7-Mesh_positions",
      "componentType": 5126,
      "count": 360,
      "min": [
        -15.53499984741211,
        -7.069819927215576,
        0
      ],
      "max": [
        10.17490005493164,
        -6.060060024261475,
        5.478400230407715
      ],
      "type": "VEC3",
      "bufferView": 0,
      "byteOffset": 1296
    },
    {
      "name": "Group_MatrixTransform_i96014_Geometry_7-Mesh_normals",
      "componentType": 5126,
      "count": 360,
      "min": [
        -1,
        -0.9240167737007141,
        -1
      ],
      "max": [
        1,
        1,
        1
      ],
      "type": "VEC3",
      "bufferView": 0,
      "byteOffset": 7200
    },
    {
      "name": "Group_MatrixTransform_i96014_Geometry_7-Mesh_texcoords",
      "componentType": 5126,
      "count": 360,
      "min": [
        0,
        -0.1503800004720688
      ],
      "max": [
        1,
        1.1503779888153076
      ],
      "type": "VEC2",
      "bufferView": 1,
      "byteOffset": 864
    },
    {
      "name": "Group_MatrixTransform_i96014_Geometry_7-Mesh_0_indices",
      "componentType": 5123,
      "count": 360,
      "min": [
        0
      ],
      "max": [
        359
      ],
      "type": "SCALAR",
      "bufferView": 2,
      "byteOffset": 220
    },
    {
      "name": "Group_MatrixTransform_i96014_Geometry_8-Mesh_positions",
      "componentType": 5126,
      "count": 24,
      "min": [
        -14.865099906921387,
        -7.339839935302734,
        3.955699920654297
      ],
      "max": [
        10.46500015258789,
        -5.489749908447266,
        4.418099880218506
      ],
      "type": "VEC3",
      "bufferView": 0,
      "byteOffset": 5616
    },
    {
      "name": "Group_MatrixTransform_i96014_Geometry_8-Mesh_normals",
      "componentType": 5126,
      "count": 24,
      "min": [
        -0.9997109770774841,
        -0.9997618198394775,
        -0.9655161499977112
      ],
      "max": [
        0.9994300007820129,
        0.2707539200782776,
        0
      ],
      "type": "VEC3",
      "bufferView": 0,
      "byteOffset": 11520
    },
    {
      "name": "Group_MatrixTransform_i96014_Geometry_8-Mesh_texcoords",
      "componentType": 5126,
      "count": 24,
      "min": [
        -41.711299896240234,
        -2.5826399326324463
      ],
      "max": [
        42.711299896240234,
        3.58270001411438
      ],
      "type": "VEC2",
      "bufferView": 1,
      "byteOffset": 3744
    },
    {
      "name": "Group_MatrixTransform_i96014_Geometry_8-Mesh_0_indices",
      "componentType": 5123,
      "count": 24,
      "min": [
        0
      ],
      "max": [
        23
      ],
      "type": "SCALAR",
      "bufferView": 2,
      "byteOffset": 940
    }
  ],
  "asset": {
    "generator": "obj2gltf",
    "version": "2.0"
  },
  "buffers": [
    {
      "name": "i96014",
      "byteLength": 424096,
      "uri": "data:application/octet-stream;base64,"
    }
  ],
  "bufferViews": [
    {
      "name": "bufferView_0",
      "buffer": 0,
      "byteLength": 11808,
      "byteOffset": 0,
      "byteStride": 12,
      "target": 34962
    },
    {
      "name": "bufferView_1",
      "buffer": 0,
      "byteLength": 3936,
      "byteOffset": 11808,
      "byteStride": 8,
      "target": 34962
    },
    {
      "name": "bufferView_2",
      "buffer": 0,
      "byteLength": 988,
      "byteOffset": 15744,
      "target": 34963
    },
    {
      "buffer": 0,
      "byteOffset": 16732,
      "byteLength": 17177
    },
    {
      "buffer": 0,
      "byteOffset": 33909,
      "byteLength": 91899
    },
    {
      "buffer": 0,
      "byteOffset": 125808,
      "byteLength": 19582
    },
    {
      "buffer": 0,
      "byteOffset": 145390,
      "byteLength": 18329
    },
    {
      "buffer": 0,
      "byteOffset": 163719,
      "byteLength": 93189
    },
    {
      "buffer": 0,
      "byteOffset": 256908,
      "byteLength": 54782
    },
    {
      "buffer": 0,
      "byteOffset": 311690,
      "byteLength": 21290
    },
    {
      "buffer": 0,
      "byteOffset": 332980,
      "byteLength": 17082
    },
    {
      "buffer": 0,
      "byteOffset": 350062,
      "byteLength": 74033
    }
  ],
  "images": [
    {
      "name": "i9600168_j",
      "mimeType": "image/png",
      "bufferView": 3
    },
    {
      "name": "i9600170_j",
      "mimeType": "image/png",
      "bufferView": 4
    },
    {
      "name": "i9600169_j",
      "mimeType": "image/png",
      "bufferView": 5
    },
    {
      "name": "i9600164_j",
      "mimeType": "image/png",
      "bufferView": 6
    },
    {
      "name": "i96_h106_b",
      "mimeType": "image/png",
      "bufferView": 7
    },
    {
      "name": "i96_h96_b",
      "mimeType": "image/png",
      "bufferView": 8
    },
    {
      "name": "i9600163_j",
      "mimeType": "image/png",
      "bufferView": 9
    },
    {
      "name": "i9600149_j",
      "mimeType": "image/png",
      "bufferView": 10
    },
    {
      "name": "hkbm0145_j",
      "mimeType": "image/png",
      "bufferView": 11
    }
  ],
  "materials": [
    {
      "name": "material_152",
      "pbrMetallicRoughness": {
        "baseColorTexture": {
          "index": 0
        },
        "baseColorFactor": [
          1,
          1,
          1,
          1
        ],
        "metallicFactor": 0,
        "roughnessFactor": 1
      },
      "emissiveFactor": [
        0,
        0,
        0
      ],
      "alphaMode": "OPAQUE",
      "doubleSided": false
    },
    {
      "name": "material_153",
      "pbrMetallicRoughness": {
        "baseColorTexture": {
          "index": 1
        },
        "baseColorFactor": [
          1,
          1,
          1,
          1
        ],
        "metallicFactor": 0,
        "roughnessFactor": 1
      },
      "emissiveFactor": [
        0,
        0,
        0
      ],
      "alphaMode": "OPAQUE",
      "doubleSided": false
    },
    {
      "name": "material_154",
      "pbrMetallicRoughness": {
        "baseColorTexture": {
          "index": 2
        },
        "baseColorFactor": [
          1,
          1,
          1,
          1
        ],
        "metallicFactor": 0,
        "roughnessFactor": 1
      },
      "emissiveFactor": [
        0,
        0,
        0
      ],
      "alphaMode": "OPAQUE",
      "doubleSided": false
    },
    {
      "name": "material_155",
      "pbrMetallicRoughness": {
        "baseColorTexture": {
          "index": 3
        },
        "baseColorFactor": [
          1,
          1,
          1,
          1
        ],
        "metallicFactor": 0,
        "roughnessFactor": 1
      },
      "emissiveFactor": [
        0,
        0,
        0
      ],
      "alphaMode": "OPAQUE",
      "doubleSided": false
    },
    {
      "name": "material_156",
      "pbrMetallicRoughness": {
        "baseColorTexture": {
          "index": 4
        },
        "baseColorFactor": [
          1,
          1,
          1,
          1
        ],
        "metallicFactor": 0,
        "roughnessFactor": 1
      },
      "emissiveFactor": [
        0,
        0,
        0
      ],
      "alphaMode": "OPAQUE",
      "doubleSided": false
    },
    {
      "name": "material_157",
      "pbrMetallicRoughness": {
        "baseColorTexture": {
          "index": 5
        },
        "baseColorFactor": [
          1,
          1,
          1,
          1
        ],
        "metallicFactor": 0,
        "roughnessFactor": 1
      },
      "emissiveFactor": [
        0,
        0,
        0
      ],
      "alphaMode": "OPAQUE",
      "doubleSided": false
    },
    {
      "name": "material_158",
      "pbrMetallicRoughness": {
        "baseColorTexture": {
          "index": 6
        },
        "baseColorFactor": [
          1,
          1,
          1,
          1
        ],
        "metallicFactor": 0,
        "roughnessFactor": 1
      },
      "emissiveFactor": [
        0,
        0,
        0
      ],
      "alphaMode": "OPAQUE",
      "doubleSided": false
    },
    {
      "name": "material_159",
      "pbrMetallicRoughness": {
        "baseColorTexture": {
          "index": 7
        },
        "baseColorFactor": [
          1,
          1,
          1,
          1
        ],
        "metallicFactor": 0,
        "roughnessFactor": 1
      },
      "emissiveFactor": [
        0,
        0,
        0
      ],
      "alphaMode": "OPAQUE",
      "doubleSided": false
    },
    {
      "name": "material_160",
      "pbrMetallicRoughness": {
        "baseColorTexture": {
          "index": 8
        },
        "baseColorFactor": [
          1,
          1,
          1,
          1
        ],
        "metallicFactor": 0,
        "roughnessFactor": 1
      },
      "emissiveFactor": [
        0,
        0,
        0
      ],
      "alphaMode": "OPAQUE",
      "doubleSided": false
    }
  ],
  "meshes": [
    {
      "name": "Group_MatrixTransform_i96014_Geometry_0-Mesh",
      "primitives": [
        {
          "attributes": {
            "POSITION": 0,
            "NORMAL": 1,
            "TEXCOORD_0": 2
          },
          "indices": 3,
          "material": 0,
          "mode": 4
        }
      ]
    },
    {
      "name": "Group_MatrixTransform_i96014_Geometry_1-Mesh",
      "primitives": [
        {
          "attributes": {
            "POSITION": 4,
            "NORMAL": 5,
            "TEXCOORD_0": 6
          },
          "indices": 7,
          "material": 1,
          "mode": 4
        }
      ]
    },
    {
      "name": "Group_MatrixTransform_i96014_Geometry_2-Mesh",
      "primitives": [
        {
          "attributes": {
            "POSITION": 8,
            "NORMAL": 9,
            "TEXCOORD_0": 10
          },
          "indices": 11,
          "material": 2,
          "mode": 4
        }
      ]
    },
    {
      "name": "Group_MatrixTransform_i96014_Geometry_3-Mesh",
      "primitives": [
        {
          "attributes": {
            "POSITION": 12,
            "NORMAL": 13,
            "TEXCOORD_0": 14
          },
          "indices": 15,
          "material": 3,
          "mode": 4
        }
      ]
    },
    {
      "name": "Group_MatrixTransform_i96014_Geometry_4-Mesh",
      "primitives": [
        {
          "attributes": {
            "POSITION": 16,
            "NORMAL": 17,
            "TEXCOORD_0": 18
          },
          "indices": 19,
          "material": 4,
          "mode": 4
        }
      ]
    },
    {
      "name": "Group_MatrixTransform_i96014_Geometry_5-Mesh",
      "primitives": [
        {
          "attributes": {
            "POSITION": 20,
            "NORMAL": 21,
            "TEXCOORD_0": 22
          },
          "indices": 23,
          "material": 5,
          "mode": 4
        }
      ]
    },
    {
      "name": "Group_MatrixTransform_i96014_Geometry_6-Mesh",
      "primitives": [
        {
          "attributes": {
            "POSITION": 24,
            "NORMAL": 25,
            "TEXCOORD_0": 26
          },
          "indices": 27,
          "material": 6,
          "mode": 4
        }
      ]
    },
    {
      "name": "Group_MatrixTransform_i96014_Geometry_7-Mesh",
      "primitives": [
        {
          "attributes": {
            "POSITION": 28,
            "NORMAL": 29,
            "TEXCOORD_0": 30
          },
          "indices": 31,
          "material": 7,
          "mode": 4
        }
      ]
    },
    {
      "name": "Group_MatrixTransform_i96014_Geometry_8-Mesh",
      "primitives": [
        {
          "attributes": {
            "POSITION": 32,
            "NORMAL": 33,
            "TEXCOORD_0": 34
          },
          "indices": 35,
          "material": 8,
          "mode": 4
        }
      ]
    }
  ],
  "nodes": [
    {
      "name": "Group_MatrixTransform_i96014_Geometry_0",
      "mesh": 0
    },
    {
      "name": "Group_MatrixTransform_i96014_Geometry_1",
      "mesh": 1
    },
    {
      "name": "Group_MatrixTransform_i96014_Geometry_2",
      "mesh": 2
    },
    {
      "name": "Group_MatrixTransform_i96014_Geometry_3",
      "mesh": 3
    },
    {
      "name": "Group_MatrixTransform_i96014_Geometry_4",
      "mesh": 4
    },
    {
      "name": "Group_MatrixTransform_i96014_Geometry_5",
      "mesh": 5
    },
    {
      "name": "Group_MatrixTransform_i96014_Geometry_6",
      "mesh": 6
    },
    {
      "name": "Group_MatrixTransform_i96014_Geometry_7",
      "mesh": 7
    },
    {
      "name": "Group_MatrixTransform_i96014_Geometry_8",
      "mesh": 8
    }
  ],
  "samplers": [
    {
      "magFilter": 9729,
      "minFilter": 9986,
      "wrapS": 10497,
      "wrapT": 10497
    }
  ],
  "scene": 0,
  "scenes": [
    {
      "nodes": [
        0,
        1,
        2,
        3,
        4,
        5,
        6,
        7,
        8
      ]
    }
  ],
  "textures": [
    {
      "name": "i9600168_j",
      "sampler": 0,
      "source": 0
    },
    {
      "name": "i9600170_j",
      "sampler": 0,
      "source": 1
    },
    {
      "name": "i9600169_j",
      "sampler": 0,
      "source": 2
    },
    {
      "name": "i9600164_j",
      "sampler": 0,
      "source": 3
    },
    {
      "name": "i96_h106_b",
      "sampler": 0,
      "source": 4
    },
    {
      "name": "i96_h96_b",
      "sampler": 0,
      "source": 5
    },
    {
      "name": "i9600163_j",
      "sampler": 0,
      "source": 6
    },
    {
      "name": "i9600149_j",
      "sampler": 0,
      "source": 7
    },
    {
      "name": "hkbm0145_j",
      "sampler": 0,
      "source": 8
    }
  ]
}
