{
  "accessors": [
    {
      "name": "Group_MatrixTransform_i96175_Geometry_0-Mesh_positions",
      "componentType": 5126,
      "count": 18,
      "min": [
        -9.489990234375,
        -4.010250091552734,
        0.0012969999806955457
      ],
      "max": [
        9.780030250549316,
        -3.2900400161743164,
        6.257999897003174
      ],
      "type": "VEC3",
      "bufferView": 0,
      "byteOffset": 0
    },
    {
      "name": "Group_MatrixTransform_i96175_Geometry_0-Mesh_normals",
      "componentType": 5126,
      "count": 18,
      "min": [
        0.03716609999537468,
        -0.9993091225624084,
        0.00007581220415886492
      ],
      "max": [
        0.03736651688814163,
        -0.9993014931678772,
        0.000536890234798193
      ],
      "type": "VEC3",
      "bufferView": 0,
      "byteOffset": 2196
    },
    {
      "name": "Group_MatrixTransform_i96175_Geometry_0-Mesh_texcoords",
      "componentType": 5126,
      "count": 18,
      "min": [
        1.0019999742507935,
        0.10045000165700912
      ],
      "max": [
        4.998020172119141,
        0.9995507001876831
      ],
      "type": "VEC2",
      "bufferView": 1,
      "byteOffset": 0
    },
    {
      "name": "Group_MatrixTransform_i96175_Geometry_0-Mesh_0_indices",
      "componentType": 5123,
      "count": 18,
      "min": [
        0
      ],
      "max": [
        17
      ],
      "type": "SCALAR",
      "bufferView": 2,
      "byteOffset": 0
    },
    {
      "name": "Group_MatrixTransform_i96175_Geometry_1-Mesh_positions",
      "componentType": 5126,
      "count": 12,
      "min": [
        -14.600000381469727,
        -4.189939975738525,
        0
      ],
      "max": [
        14.600099563598633,
        4.580080032348633,
        6.257999897003174
      ],
      "type": "VEC3",
      "bufferView": 0,
      "byteOffset": 216
    },
    {
      "name": "Group_MatrixTransform_i96175_Geometry_1-Mesh_normals",
      "componentType": 5126,
      "count": 12,
      "min": [
        -0.9993039965629578,
        -0.03730329871177673,
        -0.00033559108851477504
      ],
      "max": [
        0.9993144869804382,
        0.03729391098022461,
        0
      ],
      "type": "VEC3",
      "bufferView": 0,
      "byteOffset": 2412
    },
    {
      "name": "Group_MatrixTransform_i96175_Geometry_1-Mesh_texcoords",
      "componentType": 5126,
      "count": 12,
      "min": [
        0.0008544920128770173,
        0.0004990000161342323
      ],
      "max": [
        1.998900055885315,
        0.9994997978210449
      ],
      "type": "VEC2",
      "bufferView": 1,
      "byteOffset": 144
    },
    {
      "name": "Group_MatrixTransform_i96175_Geometry_1-Mesh_0_indices",
      "componentType": 5123,
      "count": 12,
      "min": [
        0
      ],
      "max": [
        11
      ],
      "type": "SCALAR",
      "bufferView": 2,
      "byteOffset": 36
    },
    {
      "name": "Group_MatrixTransform_i96175_Geometry_2-Mesh_positions",
      "componentType": 5126,
      "count": 24,
      "min": [
        -14.600000381469727,
        -4.189939975738525,
        0
      ],
      "max": [
        14.600099563598633,
        4.580080032348633,
        6.257999897003174
      ],
      "type": "VEC3",
      "bufferView": 0,
      "byteOffset": 360
    },
    {
      "name": "Group_MatrixTransform_i96175_Geometry_2-Mesh_normals",
      "componentType": 5126,
      "count": 24,
      "min": [
        -0.03743380308151245,
        -0.9993053078651428,
        0
      ],
      "max": [
        0.03736651688814163,
        0.9992991089820862,
        0.0006128862733021379
      ],
      "type": "VEC3",
      "bufferView": 0,
      "byteOffset": 2556
    },
    {
      "name": "Group_MatrixTransform_i96175_Geometry_2-Mesh_texcoords",
      "componentType": 5126,
      "count": 24,
      "min": [
        0.002998349955305457,
        0.10045000165700912
      ],
      "max": [
        5.9970197677612305,
        0.9995507001876831
      ],
      "type": "VEC2",
      "bufferView": 1,
      "byteOffset": 240
    },
    {
      "name": "Group_MatrixTransform_i96175_Geometry_2-Mesh_0_indices",
      "componentType": 5123,
      "count": 24,
      "min": [
        0
      ],
      "max": [
        23
      ],
      "type": "SCALAR",
      "bufferView": 2,
      "byteOffset": 60
    },
    {
      "name": "Group_MatrixTransform_i96175_Geometry_3-Mesh_positions",
      "componentType": 5126,
      "count": 90,
      "min": [
        -9.630000114440918,
        -4.580080032348633,
        3.5385000705718994
      ],
      "max": [
        10.229999542236328,
        -2.5600600242614746,
        3.989000082015991
      ],
      "type": "VEC3",
      "bufferView": 0,
      "byteOffset": 648
    },
    {
      "name": "Group_MatrixTransform_i96175_Geometry_3-Mesh_normals",
      "componentType": 5126,
      "count": 90,
      "min": [
        -0.9991275072097778,
        -0.9991255402565002,
        -1
      ],
      "max": [
        0.9991275072097778,
        0.9991255402565002,
        0.0016261395066976547
      ],
      "type": "VEC3",
      "bufferView": 0,
      "byteOffset": 2844
    },
    {
      "name": "Group_MatrixTransform_i96175_Geometry_3-Mesh_texcoords",
      "componentType": 5126,
      "count": 90,
      "min": [
        -4.465449810028076,
        -0.00634999992325902
      ],
      "max": [
        5.465519905090332,
        1.006591796875
      ],
      "type": "VEC2",
      "bufferView": 1,
      "byteOffset": 432
    },
    {
      "name": "Group_MatrixTransform_i96175_Geometry_3-Mesh_0_indices",
      "componentType": 5123,
      "count": 90,
      "min": [
        0
      ],
      "max": [
        89
      ],
      "type": "SCALAR",
      "bufferView": 2,
      "byteOffset": 108
    },
    {
      "name": "Group_MatrixTransform_i96175_Geometry_4-Mesh_positions",
      "componentType": 5126,
      "count": 6,
      "min": [
        0.10998500138521194,
        -4.129879951477051,
        3.989000082015991
      ],
      "max": [
        5.020020008087158,
        -2.5600600242614746,
        3.989000082015991
      ],
      "type": "VEC3",
      "bufferView": 0,
      "byteOffset": 1728
    },
    {
      "name": "Group_MatrixTransform_i96175_Geometry_4-Mesh_normals",
      "componentType": 5126,
      "count": 6,
      "min": [
        0,
        0,
        1
      ],
      "max": [
        0,
        0,
        1
      ],
      "type": "VEC3",
      "bufferView": 0,
      "byteOffset": 3924
    },
    {
      "name": "Group_MatrixTransform_i96175_Geometry_4-Mesh_texcoords",
      "componentType": 5126,
      "count": 6,
      "min": [
        0,
        0.007315000053495169
      ],
      "max": [
        0.9960290193557739,
        1
      ],
      "type": "VEC2",
      "bufferView": 1,
      "byteOffset": 1152
    },
    {
      "name": "Group_MatrixTransform_i96175_Geometry_4-Mesh_0_indices",
      "componentType": 5123,
      "count": 6,
      "min": [
        0
      ],
      "max": [
        5
      ],
      "type": "SCALAR",
      "bufferView": 2,
      "byteOffset": 288
    },
    {
      "name": "Group_MatrixTransform_i96175_Geometry_5-Mesh_positions",
      "componentType": 5126,
      "count": 6,
      "min": [
        5.320069789886475,
        -3.870120048522949,
        3.989000082015991
      ],
      "max": [
        10.229999542236328,
        -2.620120048522949,
        3.989000082015991
      ],
      "type": "VEC3",
      "bufferView": 0,
      "byteOffset": 1800
    },
    {
      "name": "Group_MatrixTransform_i96175_Geometry_5-Mesh_normals",
      "componentType": 5126,
      "count": 6,
      "min": [
        0,
        0,
        1
      ],
      "max": [
        0,
        0,
        1
      ],
      "type": "VEC3",
      "bufferView": 0,
      "byteOffset": 3996
    },
    {
      "name": "Group_MatrixTransform_i96175_Geometry_5-Mesh_texcoords",
      "componentType": 5126,
      "count": 6,
      "min": [
        0,
        0.013965999707579613
      ],
      "max": [
        0.9930890202522278,
        1
      ],
      "type": "VEC2",
      "bufferView": 1,
      "byteOffset": 1200
    },
    {
      "name": "Group_MatrixTransform_i96175_Geometry_5-Mesh_0_indices",
      "componentType": 5123,
      "count": 6,
      "min": [
        0
      ],
      "max": [
        5
      ],
      "type": "SCALAR",
      "bufferView": 2,
      "byteOffset": 300
    },
    {
      "name": "Group_MatrixTransform_i96175_Geometry_6-Mesh_positions",
      "componentType": 5126,
      "count": 6,
      "min": [
        -9.630000114440918,
        -4.580080032348633,
        3.8385000228881836
      ],
      "max": [
        -4.649899959564209,
        -3.4399399757385254,
        3.8965001106262207
      ],
      "type": "VEC3",
      "bufferView": 0,
      "byteOffset": 1872
    },
    {
      "name": "Group_MatrixTransform_i96175_Geometry_6-Mesh_normals",
      "componentType": 5126,
      "count": 6,
      "min": [
        0.0035947987344115973,
        -0.06565868109464645,
        0.997835636138916
      ],
      "max": [
        0.0036042588762938976,
        -0.065581776201725,
        0.9978407025337219
      ],
      "type": "VEC3",
      "bufferView": 0,
      "byteOffset": 4068
    },
    {
      "name": "Group_MatrixTransform_i96175_Geometry_6-Mesh_texcoords",
      "componentType": 5126,
      "count": 6,
      "min": [
        0,
        0.00019200000679120421
      ],
      "max": [
        0.9913960099220276,
        1
      ],
      "type": "VEC2",
      "bufferView": 1,
      "byteOffset": 1248
    },
    {
      "name": "Group_MatrixTransform_i96175_Geometry_6-Mesh_0_indices",
      "componentType": 5123,
      "count": 6,
      "min": [
        0
      ],
      "max": [
        5
      ],
      "type": "SCALAR",
      "bufferView": 2,
      "byteOffset": 312
    },
    {
      "name": "Group_MatrixTransform_i96175_Geometry_7-Mesh_positions",
      "componentType": 5126,
      "count": 21,
      "min": [
        -14.600000381469727,
        -4.189939975738525,
        6.257999897003174
      ],
      "max": [
        14.600099563598633,
        4.580080032348633,
        6.257999897003174
      ],
      "type": "VEC3",
      "bufferView": 0,
      "byteOffset": 1944
    },
    {
      "name": "Group_MatrixTransform_i96175_Geometry_7-Mesh_normals",
      "componentType": 5126,
      "count": 21,
      "min": [
        -7.34993022888375e-7,
        -0.00000151599999753671,
        1
      ],
      "max": [
        1.1320499737621503e-7,
        5.002880243409891e-7,
        1
      ],
      "type": "VEC3",
      "bufferView": 0,
      "byteOffset": 4140
    },
    {
      "name": "Group_MatrixTransform_i96175_Geometry_7-Mesh_texcoords",
      "componentType": 5126,
      "count": 21,
      "min": [
        0,
        0.0037189999129623175
      ],
      "max": [
        0.9991580247879028,
        1
      ],
      "type": "VEC2",
      "bufferView": 1,
      "byteOffset": 1296
    },
    {
      "name": "Group_MatrixTransform_i96175_Geometry_7-Mesh_0_indices",
      "componentType": 5123,
      "count": 21,
      "min": [
        0
      ],
      "max": [
        20
      ],
      "type": "SCALAR",
      "bufferView": 2,
      "byteOffset": 324
    }
  ],
  "asset": {
    "generator": "obj2gltf",
    "version": "2.0"
  },
  "buffers": [
    {
      "name": "i96175",
      "byteLength": 236872,
      "uri": "data:application/octet-stream;base64,"
    }
  ],
  "bufferViews": [
    {
      "name": "bufferView_0",
      "buffer": 0,
      "byteLength": 4392,
      "byteOffset": 0,
      "byteStride": 12,
      "target": 34962
    },
    {
      "name": "bufferView_1",
      "buffer": 0,
      "byteLength": 1464,
      "byteOffset": 4392,
      "byteStride": 8,
      "target": 34962
    },
    {
      "name": "bufferView_2",
      "buffer": 0,
      "byteLength": 368,
      "byteOffset": 5856,
      "target": 34963
    },
    {
      "buffer": 0,
      "byteOffset": 6224,
      "byteLength": 41972
    },
    {
      "buffer": 0,
      "byteOffset": 48196,
      "byteLength": 36492
    },
    {
      "buffer": 0,
      "byteOffset": 84688,
      "byteLength": 40374
    },
    {
      "buffer": 0,
      "byteOffset": 125062,
      "byteLength": 29385
    },
    {
      "buffer": 0,
      "byteOffset": 154447,
      "byteLength": 7332
    },
    {
      "buffer": 0,
      "byteOffset": 161779,
      "byteLength": 8238
    },
    {
      "buffer": 0,
      "byteOffset": 170017,
      "byteLength": 7621
    },
    {
      "buffer": 0,
      "byteOffset": 177638,
      "byteLength": 59233
    }
  ],
  "images": [
    {
      "name": "i9600420_j",
      "mimeType": "image/png",
      "bufferView": 3
    },
    {
      "name": "i9600419_j",
      "mimeType": "image/png",
      "bufferView": 4
    },
    {
      "name": "i9600418_j",
      "mimeType": "image/png",
      "bufferView": 5
    },
    {
      "name": "i9600399_j",
      "mimeType": "image/png",
      "bufferView": 6
    },
    {
      "name": "i96_h158_b",
      "mimeType": "image/png",
      "bufferView": 7
    },
    {
      "name": "i96_h157_b",
      "mimeType": "image/png",
      "bufferView": 8
    },
    {
      "name": "i96_h156_b",
      "mimeType": "image/png",
      "bufferView": 9
    },
    {
      "name": "i96_h155_b",
      "mimeType": "image/png",
      "bufferView": 10
    }
  ],
  "materials": [
    {
      "name": "material_295",
      "pbrMetallicRoughness": {
        "baseColorTexture": {
          "index": 0
        },
        "baseColorFactor": [
          1,
          1,
          1,
          1
        ],
        "metallicFactor": 0,
        "roughnessFactor": 1
      },
      "emissiveFactor": [
        0,
        0,
        0
      ],
      "alphaMode": "OPAQUE",
      "doubleSided": false
    },
    {
      "name": "material_296",
      "pbrMetallicRoughness": {
        "baseColorTexture": {
          "index": 1
        },
        "baseColorFactor": [
          1,
          1,
          1,
          1
        ],
        "metallicFactor": 0,
        "roughnessFactor": 1
      },
      "emissiveFactor": [
        0,
        0,
        0
      ],
      "alphaMode": "OPAQUE",
      "doubleSided": false
    },
    {
      "name": "material_297",
      "pbrMetallicRoughness": {
        "baseColorTexture": {
          "index": 2
        },
        "baseColorFactor": [
          1,
          1,
          1,
          1
        ],
        "metallicFactor": 0,
        "roughnessFactor": 1
      },
      "emissiveFactor": [
        0,
        0,
        0
      ],
      "alphaMode": "OPAQUE",
      "doubleSided": false
    },
    {
      "name": "material_298",
      "pbrMetallicRoughness": {
        "baseColorTexture": {
          "index": 3
        },
        "baseColorFactor": [
          1,
          1,
          1,
          1
        ],
        "metallicFactor": 0,
        "roughnessFactor": 1
      },
      "emissiveFactor": [
        0,
        0,
        0
      ],
      "alphaMode": "OPAQUE",
      "doubleSided": false
    },
    {
      "name": "material_299",
      "pbrMetallicRoughness": {
        "baseColorTexture": {
          "index": 4
        },
        "baseColorFactor": [
          1,
          1,
          1,
          1
        ],
        "metallicFactor": 0,
        "roughnessFactor": 1
      },
      "emissiveFactor": [
        0,
        0,
        0
      ],
      "alphaMode": "OPAQUE",
      "doubleSided": false
    },
    {
      "name": "material_300",
      "pbrMetallicRoughness": {
        "baseColorTexture": {
          "index": 5
        },
        "baseColorFactor": [
          1,
          1,
          1,
          1
        ],
        "metallicFactor": 0,
        "roughnessFactor": 1
      },
      "emissiveFactor": [
        0,
        0,
        0
      ],
      "alphaMode": "OPAQUE",
      "doubleSided": false
    },
    {
      "name": "material_301",
      "pbrMetallicRoughness": {
        "baseColorTexture": {
          "index": 6
        },
        "baseColorFactor": [
          1,
          1,
          1,
          1
        ],
        "metallicFactor": 0,
        "roughnessFactor": 1
      },
      "emissiveFactor": [
        0,
        0,
        0
      ],
      "alphaMode": "OPAQUE",
      "doubleSided": false
    },
    {
      "name": "material_302",
      "pbrMetallicRoughness": {
        "baseColorTexture": {
          "index": 7
        },
        "baseColorFactor": [
          1,
          1,
          1,
          1
        ],
        "metallicFactor": 0,
        "roughnessFactor": 1
      },
      "emissiveFactor": [
        0,
        0,
        0
      ],
      "alphaMode": "OPAQUE",
      "doubleSided": false
    }
  ],
  "meshes": [
    {
      "name": "Group_MatrixTransform_i96175_Geometry_0-Mesh",
      "primitives": [
        {
          "attributes": {
            "POSITION": 0,
            "NORMAL": 1,
            "TEXCOORD_0": 2
          },
          "indices": 3,
          "material": 0,
          "mode": 4
        }
      ]
    },
    {
      "name": "Group_MatrixTransform_i96175_Geometry_1-Mesh",
      "primitives": [
        {
          "attributes": {
            "POSITION": 4,
            "NORMAL": 5,
            "TEXCOORD_0": 6
          },
          "indices": 7,
          "material": 1,
          "mode": 4
        }
      ]
    },
    {
      "name": "Group_MatrixTransform_i96175_Geometry_2-Mesh",
      "primitives": [
        {
          "attributes": {
            "POSITION": 8,
            "NORMAL": 9,
            "TEXCOORD_0": 10
          },
          "indices": 11,
          "material": 2,
          "mode": 4
        }
      ]
    },
    {
      "name": "Group_MatrixTransform_i96175_Geometry_3-Mesh",
      "primitives": [
        {
          "attributes": {
            "POSITION": 12,
            "NORMAL": 13,
            "TEXCOORD_0": 14
          },
          "indices": 15,
          "material": 3,
          "mode": 4
        }
      ]
    },
    {
      "name": "Group_MatrixTransform_i96175_Geometry_4-Mesh",
      "primitives": [
        {
          "attributes": {
            "POSITION": 16,
            "NORMAL": 17,
            "TEXCOORD_0": 18
          },
          "indices": 19,
          "material": 4,
          "mode": 4
        }
      ]
    },
    {
      "name": "Group_MatrixTransform_i96175_Geometry_5-Mesh",
      "primitives": [
        {
          "attributes": {
            "POSITION": 20,
            "NORMAL": 21,
            "TEXCOORD_0": 22
          },
          "indices": 23,
          "material": 5,
          "mode": 4
        }
      ]
    },
    {
      "name": "Group_MatrixTransform_i96175_Geometry_6-Mesh",
      "primitives": [
        {
          "attributes": {
            "POSITION": 24,
            "NORMAL": 25,
            "TEXCOORD_0": 26
          },
          "indices": 27,
          "material": 6,
          "mode": 4
        }
      ]
    },
    {
      "name": "Group_MatrixTransform_i96175_Geometry_7-Mesh",
      "primitives": [
        {
          "attributes": {
            "POSITION": 28,
            "NORMAL": 29,
            "TEXCOORD_0": 30
          },
          "indices": 31,
          "material": 7,
          "mode": 4
        }
      ]
    }
  ],
  "nodes": [
    {
      "name": "Group_MatrixTransform_i96175_Geometry_0",
      "mesh": 0
    },
    {
      "name": "Group_MatrixTransform_i96175_Geometry_1",
      "mesh": 1
    },
    {
      "name": "Group_MatrixTransform_i96175_Geometry_2",
      "mesh": 2
    },
    {
      "name": "Group_MatrixTransform_i96175_Geometry_3",
      "mesh": 3
    },
    {
      "name": "Group_MatrixTransform_i96175_Geometry_4",
      "mesh": 4
    },
    {
      "name": "Group_MatrixTransform_i96175_Geometry_5",
      "mesh": 5
    },
    {
      "name": "Group_MatrixTransform_i96175_Geometry_6",
      "mesh": 6
    },
    {
      "name": "Group_MatrixTransform_i96175_Geometry_7",
      "mesh": 7
    }
  ],
  "samplers": [
    {
      "magFilter": 9729,
      "minFilter": 9986,
      "wrapS": 10497,
      "wrapT": 10497
    }
  ],
  "scene": 0,
  "scenes": [
    {
      "nodes": [
        0,
        1,
        2,
        3,
        4,
        5,
        6,
        7
      ]
    }
  ],
  "textures": [
    {
      "name": "i9600420_j",
      "sampler": 0,
      "source": 0
    },
    {
      "name": "i9600419_j",
      "sampler": 0,
      "source": 1
    },
    {
      "name": "i9600418_j",
      "sampler": 0,
      "source": 2
    },
    {
      "name": "i9600399_j",
      "sampler": 0,
      "source": 3
    },
    {
      "name": "i96_h158_b",
      "sampler": 0,
      "source": 4
    },
    {
      "name": "i96_h157_b",
      "sampler": 0,
      "source": 5
    },
    {
      "name": "i96_h156_b",
      "sampler": 0,
      "source": 6
    },
    {
      "name": "i96_h155_b",
      "sampler": 0,
      "source": 7
    }
  ]
}
