{
  "accessors": [
    {
      "name": "Group_MatrixTransform_i96169_Geometry_0-Mesh_positions",
      "componentType": 5126,
      "count": 24,
      "min": [
        -42.654998779296875,
        -9.544919967651367,
        0
      ],
      "max": [
        42.505001068115234,
        9.544919967651367,
        3.5669000148773193
      ],
      "type": "VEC3",
      "bufferView": 0,
      "byteOffset": 0
    },
    {
      "name": "Group_MatrixTransform_i96169_Geometry_0-Mesh_normals",
      "componentType": 5126,
      "count": 24,
      "min": [
        -0.9993236660957336,
        -0.03677498549222946,
        0
      ],
      "max": [
        0.9993236660957336,
        0.03677498549222946,
        0
      ],
      "type": "VEC3",
      "bufferView": 0,
      "byteOffset": 2448
    },
    {
      "name": "Group_MatrixTransform_i96169_Geometry_0-Mesh_texcoords",
      "componentType": 5126,
      "count": 24,
      "min": [
        -0.28881800174713135,
        0.0004990000161342323
      ],
      "max": [
        1.3224799633026123,
        0.9995012283325195
      ],
      "type": "VEC2",
      "bufferView": 1,
      "byteOffset": 0
    },
    {
      "name": "Group_MatrixTransform_i96169_Geometry_0-Mesh_0_indices",
      "componentType": 5123,
      "count": 24,
      "min": [
        0
      ],
      "max": [
        23
      ],
      "type": "SCALAR",
      "bufferView": 2,
      "byteOffset": 0
    },
    {
      "name": "Group_MatrixTransform_i96169_Geometry_1-Mesh_positions",
      "componentType": 5126,
      "count": 6,
      "min": [
        -17.385000228881836,
        -8.634770393371582,
        0.08599849790334702
      ],
      "max": [
        -12.154999732971191,
        -8.435059547424316,
        5.511000156402588
      ],
      "type": "VEC3",
      "bufferView": 0,
      "byteOffset": 288
    },
    {
      "name": "Group_MatrixTransform_i96169_Geometry_1-Mesh_normals",
      "componentType": 5126,
      "count": 6,
      "min": [
        0.036841802299022675,
        -0.9993211030960083,
        -8.290001005661907e-7
      ],
      "max": [
        0.036842603236436844,
        -0.9993211030960083,
        0
      ],
      "type": "VEC3",
      "bufferView": 0,
      "byteOffset": 2736
    },
    {
      "name": "Group_MatrixTransform_i96169_Geometry_1-Mesh_texcoords",
      "componentType": 5126,
      "count": 6,
      "min": [
        0.0004882809880655259,
        0.0004990000161342323
      ],
      "max": [
        0.9995120167732239,
        0.9994997978210449
      ],
      "type": "VEC2",
      "bufferView": 1,
      "byteOffset": 192
    },
    {
      "name": "Group_MatrixTransform_i96169_Geometry_1-Mesh_0_indices",
      "componentType": 5123,
      "count": 6,
      "min": [
        0
      ],
      "max": [
        5
      ],
      "type": "SCALAR",
      "bufferView": 2,
      "byteOffset": 48
    },
    {
      "name": "Group_MatrixTransform_i96169_Geometry_2-Mesh_positions",
      "componentType": 5126,
      "count": 30,
      "min": [
        -42.654998779296875,
        -9.544919967651367,
        0
      ],
      "max": [
        42.505001068115234,
        9.544919967651367,
        5.511000156402588
      ],
      "type": "VEC3",
      "bufferView": 0,
      "byteOffset": 360
    },
    {
      "name": "Group_MatrixTransform_i96169_Geometry_2-Mesh_normals",
      "componentType": 5126,
      "count": 30,
      "min": [
        -0.03678131103515625,
        -0.999323844909668,
        -0.0000022781796360504813
      ],
      "max": [
        0.036780714988708496,
        0.9993239045143127,
        0.00025081296917051077
      ],
      "type": "VEC3",
      "bufferView": 0,
      "byteOffset": 2808
    },
    {
      "name": "Group_MatrixTransform_i96169_Geometry_2-Mesh_texcoords",
      "componentType": 5126,
      "count": 30,
      "min": [
        0.0025176999624818563,
        0.0004990000161342323
      ],
      "max": [
        15.991999626159668,
        0.9995002746582031
      ],
      "type": "VEC2",
      "bufferView": 1,
      "byteOffset": 240
    },
    {
      "name": "Group_MatrixTransform_i96169_Geometry_2-Mesh_0_indices",
      "componentType": 5123,
      "count": 30,
      "min": [
        0
      ],
      "max": [
        29
      ],
      "type": "SCALAR",
      "bufferView": 2,
      "byteOffset": 60
    },
    {
      "name": "Group_MatrixTransform_i96169_Geometry_3-Mesh_positions",
      "componentType": 5126,
      "count": 114,
      "min": [
        -43.025001525878906,
        -9.544919967651367,
        3.2929999828338623
      ],
      "max": [
        43.025001525878906,
        9.544919967651367,
        6.586999893188477
      ],
      "type": "VEC3",
      "bufferView": 0,
      "byteOffset": 720
    },
    {
      "name": "Group_MatrixTransform_i96169_Geometry_3-Mesh_normals",
      "componentType": 5126,
      "count": 114,
      "min": [
        -0.9994500279426575,
        -0.9994444847106934,
        -1
      ],
      "max": [
        0.9994500279426575,
        0.9994397759437561,
        0.001626699697226286
      ],
      "type": "VEC3",
      "bufferView": 0,
      "byteOffset": 3168
    },
    {
      "name": "Group_MatrixTransform_i96169_Geometry_3-Mesh_texcoords",
      "componentType": 5126,
      "count": 114,
      "min": [
        -14.020999908447266,
        0
      ],
      "max": [
        15.128000259399414,
        1
      ],
      "type": "VEC2",
      "bufferView": 1,
      "byteOffset": 480
    },
    {
      "name": "Group_MatrixTransform_i96169_Geometry_3-Mesh_0_indices",
      "componentType": 5123,
      "count": 114,
      "min": [
        0
      ],
      "max": [
        113
      ],
      "type": "SCALAR",
      "bufferView": 2,
      "byteOffset": 120
    },
    {
      "name": "Group_MatrixTransform_i96169_Geometry_4-Mesh_positions",
      "componentType": 5126,
      "count": 6,
      "min": [
        -17.155000686645508,
        -9.185059547424316,
        3.683000087738037
      ],
      "max": [
        -12.244999885559082,
        -8.024900436401367,
        3.683000087738037
      ],
      "type": "VEC3",
      "bufferView": 0,
      "byteOffset": 2088
    },
    {
      "name": "Group_MatrixTransform_i96169_Geometry_4-Mesh_normals",
      "componentType": 5126,
      "count": 6,
      "min": [
        0,
        0,
        1
      ],
      "max": [
        0,
        0,
        1
      ],
      "type": "VEC3",
      "bufferView": 0,
      "byteOffset": 4536
    },
    {
      "name": "Group_MatrixTransform_i96169_Geometry_4-Mesh_texcoords",
      "componentType": 5126,
      "count": 6,
      "min": [
        0,
        0.0018029999919235706
      ],
      "max": [
        0.9901919960975647,
        1
      ],
      "type": "VEC2",
      "bufferView": 1,
      "byteOffset": 1392
    },
    {
      "name": "Group_MatrixTransform_i96169_Geometry_4-Mesh_0_indices",
      "componentType": 5123,
      "count": 6,
      "min": [
        0
      ],
      "max": [
        5
      ],
      "type": "SCALAR",
      "bufferView": 2,
      "byteOffset": 348
    },
    {
      "name": "Group_MatrixTransform_i96169_Geometry_5-Mesh_positions",
      "componentType": 5126,
      "count": 12,
      "min": [
        -42.654998779296875,
        -9.544919967651367,
        5.511000156402588
      ],
      "max": [
        42.505001068115234,
        9.544919967651367,
        6.586999893188477
      ],
      "type": "VEC3",
      "bufferView": 0,
      "byteOffset": 2160
    },
    {
      "name": "Group_MatrixTransform_i96169_Geometry_5-Mesh_normals",
      "componentType": 5126,
      "count": 12,
      "min": [
        -0.004919141996651888,
        -0.13298597931861877,
        0.9910153150558472
      ],
      "max": [
        0.0048939199186861515,
        0.1336580365896225,
        0.9911059737205505
      ],
      "type": "VEC3",
      "bufferView": 0,
      "byteOffset": 4608
    },
    {
      "name": "Group_MatrixTransform_i96169_Geometry_5-Mesh_texcoords",
      "componentType": 5126,
      "count": 12,
      "min": [
        0,
        0.0012379999971017241
      ],
      "max": [
        0.999983012676239,
        1
      ],
      "type": "VEC2",
      "bufferView": 1,
      "byteOffset": 1440
    },
    {
      "name": "Group_MatrixTransform_i96169_Geometry_5-Mesh_0_indices",
      "componentType": 5123,
      "count": 12,
      "min": [
        0
      ],
      "max": [
        11
      ],
      "type": "SCALAR",
      "bufferView": 2,
      "byteOffset": 360
    },
    {
      "name": "Group_MatrixTransform_i96169_Geometry_6-Mesh_positions",
      "componentType": 5126,
      "count": 12,
      "min": [
        -43.025001525878906,
        -3.955080032348633,
        3.5929999351501465
      ],
      "max": [
        43.025001525878906,
        3.955080032348633,
        3.7090001106262207
      ],
      "type": "VEC3",
      "bufferView": 0,
      "byteOffset": 2304
    },
    {
      "name": "Group_MatrixTransform_i96169_Geometry_6-Mesh_normals",
      "componentType": 5126,
      "count": 12,
      "min": [
        0,
        0,
        1
      ],
      "max": [
        0,
        0,
        1
      ],
      "type": "VEC3",
      "bufferView": 0,
      "byteOffset": 4752
    },
    {
      "name": "Group_MatrixTransform_i96169_Geometry_6-Mesh_texcoords",
      "componentType": 5126,
      "count": 12,
      "min": [
        0,
        0.003017999930307269
      ],
      "max": [
        0.9901580214500427,
        1
      ],
      "type": "VEC2",
      "bufferView": 1,
      "byteOffset": 1536
    },
    {
      "name": "Group_MatrixTransform_i96169_Geometry_6-Mesh_0_indices",
      "componentType": 5123,
      "count": 12,
      "min": [
        0
      ],
      "max": [
        11
      ],
      "type": "SCALAR",
      "bufferView": 2,
      "byteOffset": 384
    }
  ],
  "asset": {
    "generator": "obj2gltf",
    "version": "2.0"
  },
  "buffers": [
    {
      "name": "i96169",
      "byteLength": 207032,
      "uri": "data:application/octet-stream;base64,"
    }
  ],
  "bufferViews": [
    {
      "name": "bufferView_0",
      "buffer": 0,
      "byteLength": 4896,
      "byteOffset": 0,
      "byteStride": 12,
      "target": 34962
    },
    {
      "name": "bufferView_1",
      "buffer": 0,
      "byteLength": 1632,
      "byteOffset": 4896,
      "byteStride": 8,
      "target": 34962
    },
    {
      "name": "bufferView_2",
      "buffer": 0,
      "byteLength": 408,
      "byteOffset": 6528,
      "target": 34963
    },
    {
      "buffer": 0,
      "byteOffset": 6936,
      "byteLength": 19042
    },
    {
      "buffer": 0,
      "byteOffset": 25978,
      "byteLength": 40713
    },
    {
      "buffer": 0,
      "byteOffset": 66691,
      "byteLength": 40141
    },
    {
      "buffer": 0,
      "byteOffset": 106832,
      "byteLength": 17293
    },
    {
      "buffer": 0,
      "byteOffset": 124125,
      "byteLength": 6936
    },
    {
      "buffer": 0,
      "byteOffset": 131061,
      "byteLength": 52012
    },
    {
      "buffer": 0,
      "byteOffset": 183073,
      "byteLength": 23957
    }
  ],
  "images": [
    {
      "name": "i9600425_j",
      "mimeType": "image/png",
      "bufferView": 3
    },
    {
      "name": "i9600424_j",
      "mimeType": "image/png",
      "bufferView": 4
    },
    {
      "name": "i9600423_j",
      "mimeType": "image/png",
      "bufferView": 5
    },
    {
      "name": "i9600358_j",
      "mimeType": "image/png",
      "bufferView": 6
    },
    {
      "name": "i96_h365_b",
      "mimeType": "image/png",
      "bufferView": 7
    },
    {
      "name": "i96_h199_b",
      "mimeType": "image/png",
      "bufferView": 8
    },
    {
      "name": "i9600002_b",
      "mimeType": "image/png",
      "bufferView": 9
    }
  ],
  "materials": [
    {
      "name": "material_284",
      "pbrMetallicRoughness": {
        "baseColorTexture": {
          "index": 0
        },
        "baseColorFactor": [
          1,
          1,
          1,
          1
        ],
        "metallicFactor": 0,
        "roughnessFactor": 1
      },
      "emissiveFactor": [
        0,
        0,
        0
      ],
      "alphaMode": "OPAQUE",
      "doubleSided": false
    },
    {
      "name": "material_285",
      "pbrMetallicRoughness": {
        "baseColorTexture": {
          "index": 1
        },
        "baseColorFactor": [
          1,
          1,
          1,
          1
        ],
        "metallicFactor": 0,
        "roughnessFactor": 1
      },
      "emissiveFactor": [
        0,
        0,
        0
      ],
      "alphaMode": "OPAQUE",
      "doubleSided": false
    },
    {
      "name": "material_286",
      "pbrMetallicRoughness": {
        "baseColorTexture": {
          "index": 2
        },
        "baseColorFactor": [
          1,
          1,
          1,
          1
        ],
        "metallicFactor": 0,
        "roughnessFactor": 1
      },
      "emissiveFactor": [
        0,
        0,
        0
      ],
      "alphaMode": "OPAQUE",
      "doubleSided": false
    },
    {
      "name": "material_287",
      "pbrMetallicRoughness": {
        "baseColorTexture": {
          "index": 3
        },
        "baseColorFactor": [
          1,
          1,
          1,
          1
        ],
        "metallicFactor": 0,
        "roughnessFactor": 1
      },
      "emissiveFactor": [
        0,
        0,
        0
      ],
      "alphaMode": "OPAQUE",
      "doubleSided": false
    },
    {
      "name": "material_288",
      "pbrMetallicRoughness": {
        "baseColorTexture": {
          "index": 4
        },
        "baseColorFactor": [
          1,
          1,
          1,
          1
        ],
        "metallicFactor": 0,
        "roughnessFactor": 1
      },
      "emissiveFactor": [
        0,
        0,
        0
      ],
      "alphaMode": "OPAQUE",
      "doubleSided": false
    },
    {
      "name": "material_289",
      "pbrMetallicRoughness": {
        "baseColorTexture": {
          "index": 5
        },
        "baseColorFactor": [
          1,
          1,
          1,
          1
        ],
        "metallicFactor": 0,
        "roughnessFactor": 1
      },
      "emissiveFactor": [
        0,
        0,
        0
      ],
      "alphaMode": "OPAQUE",
      "doubleSided": false
    },
    {
      "name": "material_290",
      "pbrMetallicRoughness": {
        "baseColorTexture": {
          "index": 6
        },
        "baseColorFactor": [
          1,
          1,
          1,
          1
        ],
        "metallicFactor": 0,
        "roughnessFactor": 1
      },
      "emissiveFactor": [
        0,
        0,
        0
      ],
      "alphaMode": "OPAQUE",
      "doubleSided": false
    }
  ],
  "meshes": [
    {
      "name": "Group_MatrixTransform_i96169_Geometry_0-Mesh",
      "primitives": [
        {
          "attributes": {
            "POSITION": 0,
            "NORMAL": 1,
            "TEXCOORD_0": 2
          },
          "indices": 3,
          "material": 0,
          "mode": 4
        }
      ]
    },
    {
      "name": "Group_MatrixTransform_i96169_Geometry_1-Mesh",
      "primitives": [
        {
          "attributes": {
            "POSITION": 4,
            "NORMAL": 5,
            "TEXCOORD_0": 6
          },
          "indices": 7,
          "material": 1,
          "mode": 4
        }
      ]
    },
    {
      "name": "Group_MatrixTransform_i96169_Geometry_2-Mesh",
      "primitives": [
        {
          "attributes": {
            "POSITION": 8,
            "NORMAL": 9,
            "TEXCOORD_0": 10
          },
          "indices": 11,
          "material": 2,
          "mode": 4
        }
      ]
    },
    {
      "name": "Group_MatrixTransform_i96169_Geometry_3-Mesh",
      "primitives": [
        {
          "attributes": {
            "POSITION": 12,
            "NORMAL": 13,
            "TEXCOORD_0": 14
          },
          "indices": 15,
          "material": 3,
          "mode": 4
        }
      ]
    },
    {
      "name": "Group_MatrixTransform_i96169_Geometry_4-Mesh",
      "primitives": [
        {
          "attributes": {
            "POSITION": 16,
            "NORMAL": 17,
            "TEXCOORD_0": 18
          },
          "indices": 19,
          "material": 4,
          "mode": 4
        }
      ]
    },
    {
      "name": "Group_MatrixTransform_i96169_Geometry_5-Mesh",
      "primitives": [
        {
          "attributes": {
            "POSITION": 20,
            "NORMAL": 21,
            "TEXCOORD_0": 22
          },
          "indices": 23,
          "material": 5,
          "mode": 4
        }
      ]
    },
    {
      "name": "Group_MatrixTransform_i96169_Geometry_6-Mesh",
      "primitives": [
        {
          "attributes": {
            "POSITION": 24,
            "NORMAL": 25,
            "TEXCOORD_0": 26
          },
          "indices": 27,
          "material": 6,
          "mode": 4
        }
      ]
    }
  ],
  "nodes": [
    {
      "name": "Group_MatrixTransform_i96169_Geometry_0",
      "mesh": 0
    },
    {
      "name": "Group_MatrixTransform_i96169_Geometry_1",
      "mesh": 1
    },
    {
      "name": "Group_MatrixTransform_i96169_Geometry_2",
      "mesh": 2
    },
    {
      "name": "Group_MatrixTransform_i96169_Geometry_3",
      "mesh": 3
    },
    {
      "name": "Group_MatrixTransform_i96169_Geometry_4",
      "mesh": 4
    },
    {
      "name": "Group_MatrixTransform_i96169_Geometry_5",
      "mesh": 5
    },
    {
      "name": "Group_MatrixTransform_i96169_Geometry_6",
      "mesh": 6
    }
  ],
  "samplers": [
    {
      "magFilter": 9729,
      "minFilter": 9986,
      "wrapS": 10497,
      "wrapT": 10497
    }
  ],
  "scene": 0,
  "scenes": [
    {
      "nodes": [
        0,
        1,
        2,
        3,
        4,
        5,
        6
      ]
    }
  ],
  "textures": [
    {
      "name": "i9600425_j",
      "sampler": 0,
      "source": 0
    },
    {
      "name": "i9600424_j",
      "sampler": 0,
      "source": 1
    },
    {
      "name": "i9600423_j",
      "sampler": 0,
      "source": 2
    },
    {
      "name": "i9600358_j",
      "sampler": 0,
      "source": 3
    },
    {
      "name": "i96_h365_b",
      "sampler": 0,
      "source": 4
    },
    {
      "name": "i96_h199_b",
      "sampler": 0,
      "source": 5
    },
    {
      "name": "i9600002_b",
      "sampler": 0,
      "source": 6
    }
  ]
}
