{
  "accessors": [
    {
      "name": "Group_MatrixTransform_i96142_Geometry_0-Mesh_positions",
      "componentType": 5126,
      "count": 42,
      "min": [
        -20.280000686645508,
        -8.080080032348633,
        0
      ],
      "max": [
        19.569900512695312,
        8.080080032348633,
        6.02370023727417
      ],
      "type": "VEC3",
      "bufferView": 0,
      "byteOffset": 0
    },
    {
      "name": "Group_MatrixTransform_i96142_Geometry_0-Mesh_normals",
      "componentType": 5126,
      "count": 42,
      "min": [
        -0.9994683861732483,
        -0.03262428939342499,
        -0.00003985341390944086
      ],
      "max": [
        0.9994694590568542,
        0.03263860568404198,
        0.000027804309866041876
      ],
      "type": "VEC3",
      "bufferView": 0,
      "byteOffset": 1800
    },
    {
      "name": "Group_MatrixTransform_i96142_Geometry_0-Mesh_texcoords",
      "componentType": 5126,
      "count": 42,
      "min": [
        0.0014648400247097015,
        0.0004990000161342323
      ],
      "max": [
        2.998539924621582,
        0.9995002746582031
      ],
      "type": "VEC2",
      "bufferView": 1,
      "byteOffset": 0
    },
    {
      "name": "Group_MatrixTransform_i96142_Geometry_0-Mesh_0_indices",
      "componentType": 5123,
      "count": 42,
      "min": [
        0
      ],
      "max": [
        41
      ],
      "type": "SCALAR",
      "bufferView": 2,
      "byteOffset": 0
    },
    {
      "name": "Group_MatrixTransform_i96142_Geometry_1-Mesh_positions",
      "componentType": 5126,
      "count": 24,
      "min": [
        -20.280000686645508,
        -8.080080032348633,
        0
      ],
      "max": [
        19.569900512695312,
        8.080080032348633,
        4.394700050354004
      ],
      "type": "VEC3",
      "bufferView": 0,
      "byteOffset": 504
    },
    {
      "name": "Group_MatrixTransform_i96142_Geometry_1-Mesh_normals",
      "componentType": 5126,
      "count": 24,
      "min": [
        -0.03262878581881523,
        -0.9994683265686035,
        -9.070242867892375e-7
      ],
      "max": [
        0.03260431066155434,
        0.9994683265686035,
        0
      ],
      "type": "VEC3",
      "bufferView": 0,
      "byteOffset": 2304
    },
    {
      "name": "Group_MatrixTransform_i96142_Geometry_1-Mesh_texcoords",
      "componentType": 5126,
      "count": 24,
      "min": [
        -0.07861330360174179,
        0.0004990000161342323
      ],
      "max": [
        7.995999813079834,
        0.9995012283325195
      ],
      "type": "VEC2",
      "bufferView": 1,
      "byteOffset": 336
    },
    {
      "name": "Group_MatrixTransform_i96142_Geometry_1-Mesh_0_indices",
      "componentType": 5123,
      "count": 24,
      "min": [
        0
      ],
      "max": [
        23
      ],
      "type": "SCALAR",
      "bufferView": 2,
      "byteOffset": 84
    },
    {
      "name": "Group_MatrixTransform_i96142_Geometry_2-Mesh_positions",
      "componentType": 5126,
      "count": 24,
      "min": [
        -0.5999760031700134,
        -1.0102499723434448,
        0.10339699685573578
      ],
      "max": [
        19.3799991607666,
        7.919919967651367,
        4.394700050354004
      ],
      "type": "VEC3",
      "bufferView": 0,
      "byteOffset": 792
    },
    {
      "name": "Group_MatrixTransform_i96142_Geometry_2-Mesh_normals",
      "componentType": 5126,
      "count": 24,
      "min": [
        -0.03262961655855179,
        0.03256938233971596,
        -0.00003985330477007665
      ],
      "max": [
        0.9994694590568542,
        0.9994707703590393,
        0
      ],
      "type": "VEC3",
      "bufferView": 0,
      "byteOffset": 2592
    },
    {
      "name": "Group_MatrixTransform_i96142_Geometry_2-Mesh_texcoords",
      "componentType": 5126,
      "count": 24,
      "min": [
        0.0005187990027479827,
        0.0005000000237487257
      ],
      "max": [
        0.9995120167732239,
        0.9995952248573303
      ],
      "type": "VEC2",
      "bufferView": 1,
      "byteOffset": 528
    },
    {
      "name": "Group_MatrixTransform_i96142_Geometry_2-Mesh_0_indices",
      "componentType": 5123,
      "count": 24,
      "min": [
        0
      ],
      "max": [
        23
      ],
      "type": "SCALAR",
      "bufferView": 2,
      "byteOffset": 132
    },
    {
      "name": "Group_MatrixTransform_i96142_Geometry_3-Mesh_positions",
      "componentType": 5126,
      "count": 30,
      "min": [
        18.59000015258789,
        -0.8398439884185791,
        3.1407999992370605
      ],
      "max": [
        20.280000686645508,
        2.319819927215576,
        3.3466999530792236
      ],
      "type": "VEC3",
      "bufferView": 0,
      "byteOffset": 1080
    },
    {
      "name": "Group_MatrixTransform_i96142_Geometry_3-Mesh_normals",
      "componentType": 5126,
      "count": 30,
      "min": [
        -0.9990770220756531,
        -0.999100387096405,
        -1
      ],
      "max": [
        0.9990930557250977,
        0.9990613460540771,
        0
      ],
      "type": "VEC3",
      "bufferView": 0,
      "byteOffset": 2880
    },
    {
      "name": "Group_MatrixTransform_i96142_Geometry_3-Mesh_texcoords",
      "componentType": 5126,
      "count": 30,
      "min": [
        -0.25756800174713135,
        -0.2905299961566925
      ],
      "max": [
        1.2905299663543701,
        1.2905269861221313
      ],
      "type": "VEC2",
      "bufferView": 1,
      "byteOffset": 720
    },
    {
      "name": "Group_MatrixTransform_i96142_Geometry_3-Mesh_0_indices",
      "componentType": 5123,
      "count": 30,
      "min": [
        0
      ],
      "max": [
        29
      ],
      "type": "SCALAR",
      "bufferView": 2,
      "byteOffset": 180
    },
    {
      "name": "Group_MatrixTransform_i96142_Geometry_4-Mesh_positions",
      "componentType": 5126,
      "count": 24,
      "min": [
        -20.280000686645508,
        -8.080080032348633,
        4.394700050354004
      ],
      "max": [
        19.569900512695312,
        8.080080032348633,
        6.02370023727417
      ],
      "type": "VEC3",
      "bufferView": 0,
      "byteOffset": 1440
    },
    {
      "name": "Group_MatrixTransform_i96142_Geometry_4-Mesh_normals",
      "componentType": 5126,
      "count": 24,
      "min": [
        -0.007000303361564875,
        -0.21286402642726898,
        0.9767115712165833
      ],
      "max": [
        0.006943981163203716,
        0.2144429087638855,
        0.977057158946991
      ],
      "type": "VEC3",
      "bufferView": 0,
      "byteOffset": 3240
    },
    {
      "name": "Group_MatrixTransform_i96142_Geometry_4-Mesh_texcoords",
      "componentType": 5126,
      "count": 24,
      "min": [
        0.03252499923110008,
        0.3256089985370636
      ],
      "max": [
        0.9988070130348206,
        1
      ],
      "type": "VEC2",
      "bufferView": 1,
      "byteOffset": 960
    },
    {
      "name": "Group_MatrixTransform_i96142_Geometry_4-Mesh_0_indices",
      "componentType": 5123,
      "count": 24,
      "min": [
        0
      ],
      "max": [
        23
      ],
      "type": "SCALAR",
      "bufferView": 2,
      "byteOffset": 240
    },
    {
      "name": "Group_MatrixTransform_i96142_Geometry_5-Mesh_positions",
      "componentType": 5126,
      "count": 6,
      "min": [
        18.59000015258789,
        -0.8398439884185791,
        3.3466999530792236
      ],
      "max": [
        20.280000686645508,
        2.319819927215576,
        3.3466999530792236
      ],
      "type": "VEC3",
      "bufferView": 0,
      "byteOffset": 1728
    },
    {
      "name": "Group_MatrixTransform_i96142_Geometry_5-Mesh_normals",
      "componentType": 5126,
      "count": 6,
      "min": [
        -0.000002503420091670705,
        -0.0000011253399634369998,
        1
      ],
      "max": [
        0.0000025041399567271583,
        0.0000011250100442339317,
        1
      ],
      "type": "VEC3",
      "bufferView": 0,
      "byteOffset": 3528
    },
    {
      "name": "Group_MatrixTransform_i96142_Geometry_5-Mesh_texcoords",
      "componentType": 5126,
      "count": 6,
      "min": [
        0,
        0.010143999941647053
      ],
      "max": [
        0.9885179996490479,
        1
      ],
      "type": "VEC2",
      "bufferView": 1,
      "byteOffset": 1152
    },
    {
      "name": "Group_MatrixTransform_i96142_Geometry_5-Mesh_0_indices",
      "componentType": 5123,
      "count": 6,
      "min": [
        0
      ],
      "max": [
        5
      ],
      "type": "SCALAR",
      "bufferView": 2,
      "byteOffset": 288
    }
  ],
  "asset": {
    "generator": "obj2gltf",
    "version": "2.0"
  },
  "buffers": [
    {
      "name": "i96142",
      "byteLength": 151900,
      "uri": "data:application/octet-stream;base64,"
    }
  ],
  "bufferViews": [
    {
      "name": "bufferView_0",
      "buffer": 0,
      "byteLength": 3600,
      "byteOffset": 0,
      "byteStride": 12,
      "target": 34962
    },
    {
      "name": "bufferView_1",
      "buffer": 0,
      "byteLength": 1200,
      "byteOffset": 3600,
      "byteStride": 8,
      "target": 34962
    },
    {
      "name": "bufferView_2",
      "buffer": 0,
      "byteLength": 300,
      "byteOffset": 4800,
      "target": 34963
    },
    {
      "buffer": 0,
      "byteOffset": 5100,
      "byteLength": 20419
    },
    {
      "buffer": 0,
      "byteOffset": 25519,
      "byteLength": 22243
    },
    {
      "buffer": 0,
      "byteOffset": 47762,
      "byteLength": 20734
    },
    {
      "buffer": 0,
      "byteOffset": 68496,
      "byteLength": 33160
    },
    {
      "buffer": 0,
      "byteOffset": 101656,
      "byteLength": 26287
    },
    {
      "buffer": 0,
      "byteOffset": 127943,
      "byteLength": 23957
    }
  ],
  "images": [
    {
      "name": "i9600415_j",
      "mimeType": "image/png",
      "bufferView": 3
    },
    {
      "name": "i9600414_j",
      "mimeType": "image/png",
      "bufferView": 4
    },
    {
      "name": "i9600416_j",
      "mimeType": "image/png",
      "bufferView": 5
    },
    {
      "name": "i9600313_j",
      "mimeType": "image/png",
      "bufferView": 6
    },
    {
      "name": "i96_h179_b",
      "mimeType": "image/png",
      "bufferView": 7
    },
    {
      "name": "i9600002_b",
      "mimeType": "image/png",
      "bufferView": 8
    }
  ],
  "materials": [
    {
      "name": "material_227",
      "pbrMetallicRoughness": {
        "baseColorTexture": {
          "index": 0
        },
        "baseColorFactor": [
          1,
          1,
          1,
          1
        ],
        "metallicFactor": 0,
        "roughnessFactor": 1
      },
      "emissiveFactor": [
        0,
        0,
        0
      ],
      "alphaMode": "OPAQUE",
      "doubleSided": false
    },
    {
      "name": "material_228",
      "pbrMetallicRoughness": {
        "baseColorTexture": {
          "index": 1
        },
        "baseColorFactor": [
          1,
          1,
          1,
          1
        ],
        "metallicFactor": 0,
        "roughnessFactor": 1
      },
      "emissiveFactor": [
        0,
        0,
        0
      ],
      "alphaMode": "OPAQUE",
      "doubleSided": false
    },
    {
      "name": "material_229",
      "pbrMetallicRoughness": {
        "baseColorTexture": {
          "index": 2
        },
        "baseColorFactor": [
          1,
          1,
          1,
          1
        ],
        "metallicFactor": 0,
        "roughnessFactor": 1
      },
      "emissiveFactor": [
        0,
        0,
        0
      ],
      "alphaMode": "OPAQUE",
      "doubleSided": false
    },
    {
      "name": "material_230",
      "pbrMetallicRoughness": {
        "baseColorTexture": {
          "index": 3
        },
        "baseColorFactor": [
          1,
          1,
          1,
          1
        ],
        "metallicFactor": 0,
        "roughnessFactor": 1
      },
      "emissiveFactor": [
        0,
        0,
        0
      ],
      "alphaMode": "OPAQUE",
      "doubleSided": false
    },
    {
      "name": "material_231",
      "pbrMetallicRoughness": {
        "baseColorTexture": {
          "index": 4
        },
        "baseColorFactor": [
          1,
          1,
          1,
          1
        ],
        "metallicFactor": 0,
        "roughnessFactor": 1
      },
      "emissiveFactor": [
        0,
        0,
        0
      ],
      "alphaMode": "OPAQUE",
      "doubleSided": false
    },
    {
      "name": "material_232",
      "pbrMetallicRoughness": {
        "baseColorTexture": {
          "index": 5
        },
        "baseColorFactor": [
          1,
          1,
          1,
          1
        ],
        "metallicFactor": 0,
        "roughnessFactor": 1
      },
      "emissiveFactor": [
        0,
        0,
        0
      ],
      "alphaMode": "OPAQUE",
      "doubleSided": false
    }
  ],
  "meshes": [
    {
      "name": "Group_MatrixTransform_i96142_Geometry_0-Mesh",
      "primitives": [
        {
          "attributes": {
            "POSITION": 0,
            "NORMAL": 1,
            "TEXCOORD_0": 2
          },
          "indices": 3,
          "material": 0,
          "mode": 4
        }
      ]
    },
    {
      "name": "Group_MatrixTransform_i96142_Geometry_1-Mesh",
      "primitives": [
        {
          "attributes": {
            "POSITION": 4,
            "NORMAL": 5,
            "TEXCOORD_0": 6
          },
          "indices": 7,
          "material": 1,
          "mode": 4
        }
      ]
    },
    {
      "name": "Group_MatrixTransform_i96142_Geometry_2-Mesh",
      "primitives": [
        {
          "attributes": {
            "POSITION": 8,
            "NORMAL": 9,
            "TEXCOORD_0": 10
          },
          "indices": 11,
          "material": 2,
          "mode": 4
        }
      ]
    },
    {
      "name": "Group_MatrixTransform_i96142_Geometry_3-Mesh",
      "primitives": [
        {
          "attributes": {
            "POSITION": 12,
            "NORMAL": 13,
            "TEXCOORD_0": 14
          },
          "indices": 15,
          "material": 3,
          "mode": 4
        }
      ]
    },
    {
      "name": "Group_MatrixTransform_i96142_Geometry_4-Mesh",
      "primitives": [
        {
          "attributes": {
            "POSITION": 16,
            "NORMAL": 17,
            "TEXCOORD_0": 18
          },
          "indices": 19,
          "material": 4,
          "mode": 4
        }
      ]
    },
    {
      "name": "Group_MatrixTransform_i96142_Geometry_5-Mesh",
      "primitives": [
        {
          "attributes": {
            "POSITION": 20,
            "NORMAL": 21,
            "TEXCOORD_0": 22
          },
          "indices": 23,
          "material": 5,
          "mode": 4
        }
      ]
    }
  ],
  "nodes": [
    {
      "name": "Group_MatrixTransform_i96142_Geometry_0",
      "mesh": 0
    },
    {
      "name": "Group_MatrixTransform_i96142_Geometry_1",
      "mesh": 1
    },
    {
      "name": "Group_MatrixTransform_i96142_Geometry_2",
      "mesh": 2
    },
    {
      "name": "Group_MatrixTransform_i96142_Geometry_3",
      "mesh": 3
    },
    {
      "name": "Group_MatrixTransform_i96142_Geometry_4",
      "mesh": 4
    },
    {
      "name": "Group_MatrixTransform_i96142_Geometry_5",
      "mesh": 5
    }
  ],
  "samplers": [
    {
      "magFilter": 9729,
      "minFilter": 9986,
      "wrapS": 10497,
      "wrapT": 10497
    }
  ],
  "scene": 0,
  "scenes": [
    {
      "nodes": [
        0,
        1,
        2,
        3,
        4,
        5
      ]
    }
  ],
  "textures": [
    {
      "name": "i9600415_j",
      "sampler": 0,
      "source": 0
    },
    {
      "name": "i9600414_j",
      "sampler": 0,
      "source": 1
    },
    {
      "name": "i9600416_j",
      "sampler": 0,
      "source": 2
    },
    {
      "name": "i9600313_j",
      "sampler": 0,
      "source": 3
    },
    {
      "name": "i96_h179_b",
      "sampler": 0,
      "source": 4
    },
    {
      "name": "i9600002_b",
      "sampler": 0,
      "source": 5
    }
  ]
}
