{
  "accessors": [
    {
      "name": "Group_MatrixTransform_i96159_Geometry_0-Mesh_positions",
      "componentType": 5126,
      "count": 24,
      "min": [
        -0.06506349891424179,
        -7.620120048522949,
        0.20149999856948853
      ],
      "max": [
        30.284900665283203,
        8.39013957977295,
        4.945400238037109
      ],
      "type": "VEC3",
      "bufferView": 0,
      "byteOffset": 0
    },
    {
      "name": "Group_MatrixTransform_i96159_Geometry_0-Mesh_normals",
      "componentType": 5126,
      "count": 24,
      "min": [
        -0.03370489552617073,
        -0.9994305968284607,
        -0.00002654501258803066
      ],
      "max": [
        0.9994314908981323,
        0.999431848526001,
        0
      ],
      "type": "VEC3",
      "bufferView": 0,
      "byteOffset": 3240
    },
    {
      "name": "Group_MatrixTransform_i96159_Geometry_0-Mesh_texcoords",
      "componentType": 5126,
      "count": 24,
      "min": [
        0.0004882809880655259,
        0.0005000000237487257
      ],
      "max": [
        0.9995120167732239,
        1
      ],
      "type": "VEC2",
      "bufferView": 1,
      "byteOffset": 0
    },
    {
      "name": "Group_MatrixTransform_i96159_Geometry_0-Mesh_0_indices",
      "componentType": 5123,
      "count": 24,
      "min": [
        0
      ],
      "max": [
        23
      ],
      "type": "SCALAR",
      "bufferView": 2,
      "byteOffset": 0
    },
    {
      "name": "Group_MatrixTransform_i96159_Geometry_1-Mesh_positions",
      "componentType": 5126,
      "count": 54,
      "min": [
        -30.875,
        -9.240229606628418,
        0
      ],
      "max": [
        30.475000381469727,
        9.239749908447266,
        4.945499897003174
      ],
      "type": "VEC3",
      "bufferView": 0,
      "byteOffset": 288
    },
    {
      "name": "Group_MatrixTransform_i96159_Geometry_1-Mesh_normals",
      "componentType": 5126,
      "count": 54,
      "min": [
        -0.9994310736656189,
        -0.9994311332702637,
        -0.000026544990760157816
      ],
      "max": [
        0.9994316101074219,
        0.9994309544563293,
        0
      ],
      "type": "VEC3",
      "bufferView": 0,
      "byteOffset": 3528
    },
    {
      "name": "Group_MatrixTransform_i96159_Geometry_1-Mesh_texcoords",
      "componentType": 5126,
      "count": 54,
      "min": [
        -0.06759639829397202,
        0.0004990000161342323
      ],
      "max": [
        2.3973500728607178,
        1
      ],
      "type": "VEC2",
      "bufferView": 1,
      "byteOffset": 192
    },
    {
      "name": "Group_MatrixTransform_i96159_Geometry_1-Mesh_0_indices",
      "componentType": 5123,
      "count": 54,
      "min": [
        0
      ],
      "max": [
        53
      ],
      "type": "SCALAR",
      "bufferView": 2,
      "byteOffset": 48
    },
    {
      "name": "Group_MatrixTransform_i96159_Geometry_2-Mesh_positions",
      "componentType": 5126,
      "count": 84,
      "min": [
        -30.875,
        -9.240229606628418,
        3.7353999614715576
      ],
      "max": [
        30.875,
        9.239749908447266,
        8.980400085449219
      ],
      "type": "VEC3",
      "bufferView": 0,
      "byteOffset": 936
    },
    {
      "name": "Group_MatrixTransform_i96159_Geometry_2-Mesh_normals",
      "componentType": 5126,
      "count": 84,
      "min": [
        -0.9994310736656189,
        -0.9994157552719116,
        -1
      ],
      "max": [
        0.9994314908981323,
        0.9994227886199951,
        0.0016404596390202641
      ],
      "type": "VEC3",
      "bufferView": 0,
      "byteOffset": 4176
    },
    {
      "name": "Group_MatrixTransform_i96159_Geometry_2-Mesh_texcoords",
      "componentType": 5126,
      "count": 84,
      "min": [
        0.00009765630238689482,
        -0.005779999773949385
      ],
      "max": [
        1.999019980430603,
        0.9995002746582031
      ],
      "type": "VEC2",
      "bufferView": 1,
      "byteOffset": 624
    },
    {
      "name": "Group_MatrixTransform_i96159_Geometry_2-Mesh_0_indices",
      "componentType": 5123,
      "count": 84,
      "min": [
        0
      ],
      "max": [
        83
      ],
      "type": "SCALAR",
      "bufferView": 2,
      "byteOffset": 156
    },
    {
      "name": "Group_MatrixTransform_i96159_Geometry_3-Mesh_positions",
      "componentType": 5126,
      "count": 18,
      "min": [
        -30.84510040283203,
        7.169919967651367,
        0.04940029978752136
      ],
      "max": [
        -29.09510040283203,
        8.77001953125,
        1.643399953842163
      ],
      "type": "VEC3",
      "bufferView": 0,
      "byteOffset": 1944
    },
    {
      "name": "Group_MatrixTransform_i96159_Geometry_3-Mesh_normals",
      "componentType": 5126,
      "count": 18,
      "min": [
        -0.9999949932098389,
        -0.9999826550483704,
        0
      ],
      "max": [
        0.9999554753303528,
        0.009437894448637962,
        0
      ],
      "type": "VEC3",
      "bufferView": 0,
      "byteOffset": 5184
    },
    {
      "name": "Group_MatrixTransform_i96159_Geometry_3-Mesh_texcoords",
      "componentType": 5126,
      "count": 18,
      "min": [
        0.0004882809880655259,
        0
      ],
      "max": [
        0.9995120167732239,
        1
      ],
      "type": "VEC2",
      "bufferView": 1,
      "byteOffset": 1296
    },
    {
      "name": "Group_MatrixTransform_i96159_Geometry_3-Mesh_0_indices",
      "componentType": 5123,
      "count": 18,
      "min": [
        0
      ],
      "max": [
        17
      ],
      "type": "SCALAR",
      "bufferView": 2,
      "byteOffset": 324
    },
    {
      "name": "Group_MatrixTransform_i96159_Geometry_4-Mesh_positions",
      "componentType": 5126,
      "count": 6,
      "min": [
        -30.84510040283203,
        8.75,
        0.04940029978752136
      ],
      "max": [
        -29.114999771118164,
        8.77001953125,
        1.5393999814987183
      ],
      "type": "VEC3",
      "bufferView": 0,
      "byteOffset": 2160
    },
    {
      "name": "Group_MatrixTransform_i96159_Geometry_4-Mesh_normals",
      "componentType": 5126,
      "count": 6,
      "min": [
        -0.010430796071887016,
        0.9999455809593201,
        0
      ],
      "max": [
        -0.010430796071887016,
        0.9999455809593201,
        0
      ],
      "type": "VEC3",
      "bufferView": 0,
      "byteOffset": 5400
    },
    {
      "name": "Group_MatrixTransform_i96159_Geometry_4-Mesh_texcoords",
      "componentType": 5126,
      "count": 6,
      "min": [
        0.0005493159987963736,
        0
      ],
      "max": [
        0.9995120167732239,
        1
      ],
      "type": "VEC2",
      "bufferView": 1,
      "byteOffset": 1440
    },
    {
      "name": "Group_MatrixTransform_i96159_Geometry_4-Mesh_0_indices",
      "componentType": 5123,
      "count": 6,
      "min": [
        0
      ],
      "max": [
        5
      ],
      "type": "SCALAR",
      "bufferView": 2,
      "byteOffset": 360
    },
    {
      "name": "Group_MatrixTransform_i96159_Geometry_5-Mesh_positions",
      "componentType": 5126,
      "count": 30,
      "min": [
        -0.025024399161338806,
        7.939939975738525,
        3.5653998851776123
      ],
      "max": [
        4.904910087585449,
        8.919919967651367,
        3.8654000759124756
      ],
      "type": "VEC3",
      "bufferView": 0,
      "byteOffset": 2232
    },
    {
      "name": "Group_MatrixTransform_i96159_Geometry_5-Mesh_normals",
      "componentType": 5126,
      "count": 30,
      "min": [
        -0.9997327327728271,
        -0.9997230768203735,
        -1
      ],
      "max": [
        0.999733030796051,
        0.9997206926345825,
        0
      ],
      "type": "VEC3",
      "bufferView": 0,
      "byteOffset": 5472
    },
    {
      "name": "Group_MatrixTransform_i96159_Geometry_5-Mesh_texcoords",
      "componentType": 5126,
      "count": 30,
      "min": [
        -0.7340090274810791,
        0.2543950080871582
      ],
      "max": [
        1.7340099811553955,
        0.7453609704971313
      ],
      "type": "VEC2",
      "bufferView": 1,
      "byteOffset": 1488
    },
    {
      "name": "Group_MatrixTransform_i96159_Geometry_5-Mesh_0_indices",
      "componentType": 5123,
      "count": 30,
      "min": [
        0
      ],
      "max": [
        29
      ],
      "type": "SCALAR",
      "bufferView": 2,
      "byteOffset": 372
    },
    {
      "name": "Group_MatrixTransform_i96159_Geometry_6-Mesh_positions",
      "componentType": 5126,
      "count": 6,
      "min": [
        29.314899444580078,
        -1.4902299642562866,
        4.035399913787842
      ],
      "max": [
        30.875,
        3.449709892272949,
        4.035399913787842
      ],
      "type": "VEC3",
      "bufferView": 0,
      "byteOffset": 2592
    },
    {
      "name": "Group_MatrixTransform_i96159_Geometry_6-Mesh_normals",
      "componentType": 5126,
      "count": 6,
      "min": [
        0,
        0,
        1
      ],
      "max": [
        0,
        0,
        1
      ],
      "type": "VEC3",
      "bufferView": 0,
      "byteOffset": 5832
    },
    {
      "name": "Group_MatrixTransform_i96159_Geometry_6-Mesh_texcoords",
      "componentType": 5126,
      "count": 6,
      "min": [
        0,
        0.010971000418066978
      ],
      "max": [
        0.9820119738578796,
        1
      ],
      "type": "VEC2",
      "bufferView": 1,
      "byteOffset": 1728
    },
    {
      "name": "Group_MatrixTransform_i96159_Geometry_6-Mesh_0_indices",
      "componentType": 5123,
      "count": 6,
      "min": [
        0
      ],
      "max": [
        5
      ],
      "type": "SCALAR",
      "bufferView": 2,
      "byteOffset": 432
    },
    {
      "name": "Group_MatrixTransform_i96159_Geometry_7-Mesh_positions",
      "componentType": 5126,
      "count": 12,
      "min": [
        -30.875,
        -9.240229606628418,
        4.945400238037109
      ],
      "max": [
        30.475000381469727,
        9.239749908447266,
        7.480400085449219
      ],
      "type": "VEC3",
      "bufferView": 0,
      "byteOffset": 2664
    },
    {
      "name": "Group_MatrixTransform_i96159_Geometry_7-Mesh_normals",
      "componentType": 5126,
      "count": 12,
      "min": [
        -0.00986539013683796,
        -0.29691389203071594,
        0.9548516869544983
      ],
      "max": [
        0.010020796209573746,
        0.2923090159893036,
        0.9562730193138123
      ],
      "type": "VEC3",
      "bufferView": 0,
      "byteOffset": 5904
    },
    {
      "name": "Group_MatrixTransform_i96159_Geometry_7-Mesh_texcoords",
      "componentType": 5126,
      "count": 12,
      "min": [
        0.008298159576952457,
        0.008177000097930431
      ],
      "max": [
        0.8884530067443848,
        0.49561598896980286
      ],
      "type": "VEC2",
      "bufferView": 1,
      "byteOffset": 1776
    },
    {
      "name": "Group_MatrixTransform_i96159_Geometry_7-Mesh_0_indices",
      "componentType": 5123,
      "count": 12,
      "min": [
        0
      ],
      "max": [
        11
      ],
      "type": "SCALAR",
      "bufferView": 2,
      "byteOffset": 444
    },
    {
      "name": "Group_MatrixTransform_i96159_Geometry_8-Mesh_positions",
      "componentType": 5126,
      "count": 36,
      "min": [
        -30.875,
        -9.240229606628418,
        1.5393999814987183
      ],
      "max": [
        4.904910087585449,
        8.919919967651367,
        8.980400085449219
      ],
      "type": "VEC3",
      "bufferView": 0,
      "byteOffset": 2808
    },
    {
      "name": "Group_MatrixTransform_i96159_Geometry_8-Mesh_normals",
      "componentType": 5126,
      "count": 36,
      "min": [
        -0.010153904557228088,
        -0.29230406880378723,
        -0.9562731981277466
      ],
      "max": [
        0.009996362030506134,
        0.2969101369380951,
        1
      ],
      "type": "VEC3",
      "bufferView": 0,
      "byteOffset": 6048
    },
    {
      "name": "Group_MatrixTransform_i96159_Geometry_8-Mesh_texcoords",
      "componentType": 5126,
      "count": 36,
      "min": [
        0,
        0
      ],
      "max": [
        1,
        1
      ],
      "type": "VEC2",
      "bufferView": 1,
      "byteOffset": 1872
    },
    {
      "name": "Group_MatrixTransform_i96159_Geometry_8-Mesh_0_indices",
      "componentType": 5123,
      "count": 36,
      "min": [
        0
      ],
      "max": [
        35
      ],
      "type": "SCALAR",
      "bufferView": 2,
      "byteOffset": 468
    }
  ],
  "asset": {
    "generator": "obj2gltf",
    "version": "2.0"
  },
  "buffers": [
    {
      "name": "i96159",
      "byteLength": 296416,
      "uri": "data:application/octet-stream;base64,"
    }
  ],
  "bufferViews": [
    {
      "name": "bufferView_0",
      "buffer": 0,
      "byteLength": 6480,
      "byteOffset": 0,
      "byteStride": 12,
      "target": 34962
    },
    {
      "name": "bufferView_1",
      "buffer": 0,
      "byteLength": 2160,
      "byteOffset": 6480,
      "byteStride": 8,
      "target": 34962
    },
    {
      "name": "bufferView_2",
      "buffer": 0,
      "byteLength": 540,
      "byteOffset": 8640,
      "target": 34963
    },
    {
      "buffer": 0,
      "byteOffset": 9180,
      "byteLength": 19462
    },
    {
      "buffer": 0,
      "byteOffset": 28642,
      "byteLength": 18525
    },
    {
      "buffer": 0,
      "byteOffset": 47167,
      "byteLength": 17293
    },
    {
      "buffer": 0,
      "byteOffset": 64460,
      "byteLength": 22211
    },
    {
      "buffer": 0,
      "byteOffset": 86671,
      "byteLength": 21930
    },
    {
      "buffer": 0,
      "byteOffset": 108601,
      "byteLength": 33160
    },
    {
      "buffer": 0,
      "byteOffset": 141761,
      "byteLength": 7046
    },
    {
      "buffer": 0,
      "byteOffset": 148807,
      "byteLength": 123650
    },
    {
      "buffer": 0,
      "byteOffset": 272457,
      "byteLength": 23957
    }
  ],
  "images": [
    {
      "name": "i9600359_j",
      "mimeType": "image/png",
      "bufferView": 3
    },
    {
      "name": "i9600357_j",
      "mimeType": "image/png",
      "bufferView": 4
    },
    {
      "name": "i9600358_j",
      "mimeType": "image/png",
      "bufferView": 5
    },
    {
      "name": "i9600345_j",
      "mimeType": "image/png",
      "bufferView": 6
    },
    {
      "name": "c1600002_j",
      "mimeType": "image/png",
      "bufferView": 7
    },
    {
      "name": "i9600313_j",
      "mimeType": "image/png",
      "bufferView": 8
    },
    {
      "name": "i96_h351_b",
      "mimeType": "image/png",
      "bufferView": 9
    },
    {
      "name": "i96_h172_b",
      "mimeType": "image/png",
      "bufferView": 10
    },
    {
      "name": "i9600002_b",
      "mimeType": "image/png",
      "bufferView": 11
    }
  ],
  "materials": [
    {
      "name": "material_259",
      "pbrMetallicRoughness": {
        "baseColorTexture": {
          "index": 0
        },
        "baseColorFactor": [
          1,
          1,
          1,
          1
        ],
        "metallicFactor": 0,
        "roughnessFactor": 1
      },
      "emissiveFactor": [
        0,
        0,
        0
      ],
      "alphaMode": "OPAQUE",
      "doubleSided": false
    },
    {
      "name": "material_260",
      "pbrMetallicRoughness": {
        "baseColorTexture": {
          "index": 1
        },
        "baseColorFactor": [
          1,
          1,
          1,
          1
        ],
        "metallicFactor": 0,
        "roughnessFactor": 1
      },
      "emissiveFactor": [
        0,
        0,
        0
      ],
      "alphaMode": "OPAQUE",
      "doubleSided": false
    },
    {
      "name": "material_261",
      "pbrMetallicRoughness": {
        "baseColorTexture": {
          "index": 2
        },
        "baseColorFactor": [
          1,
          1,
          1,
          1
        ],
        "metallicFactor": 0,
        "roughnessFactor": 1
      },
      "emissiveFactor": [
        0,
        0,
        0
      ],
      "alphaMode": "OPAQUE",
      "doubleSided": false
    },
    {
      "name": "material_262",
      "pbrMetallicRoughness": {
        "baseColorTexture": {
          "index": 3
        },
        "baseColorFactor": [
          1,
          1,
          1,
          1
        ],
        "metallicFactor": 0,
        "roughnessFactor": 1
      },
      "emissiveFactor": [
        0,
        0,
        0
      ],
      "alphaMode": "OPAQUE",
      "doubleSided": false
    },
    {
      "name": "material_263",
      "pbrMetallicRoughness": {
        "baseColorTexture": {
          "index": 4
        },
        "baseColorFactor": [
          1,
          1,
          1,
          1
        ],
        "metallicFactor": 0,
        "roughnessFactor": 1
      },
      "emissiveFactor": [
        0,
        0,
        0
      ],
      "alphaMode": "OPAQUE",
      "doubleSided": false
    },
    {
      "name": "material_264",
      "pbrMetallicRoughness": {
        "baseColorTexture": {
          "index": 5
        },
        "baseColorFactor": [
          1,
          1,
          1,
          1
        ],
        "metallicFactor": 0,
        "roughnessFactor": 1
      },
      "emissiveFactor": [
        0,
        0,
        0
      ],
      "alphaMode": "OPAQUE",
      "doubleSided": false
    },
    {
      "name": "material_265",
      "pbrMetallicRoughness": {
        "baseColorTexture": {
          "index": 6
        },
        "baseColorFactor": [
          1,
          1,
          1,
          1
        ],
        "metallicFactor": 0,
        "roughnessFactor": 1
      },
      "emissiveFactor": [
        0,
        0,
        0
      ],
      "alphaMode": "OPAQUE",
      "doubleSided": false
    },
    {
      "name": "material_266",
      "pbrMetallicRoughness": {
        "baseColorTexture": {
          "index": 7
        },
        "baseColorFactor": [
          1,
          1,
          1,
          1
        ],
        "metallicFactor": 0,
        "roughnessFactor": 1
      },
      "emissiveFactor": [
        0,
        0,
        0
      ],
      "alphaMode": "OPAQUE",
      "doubleSided": false
    },
    {
      "name": "material_267",
      "pbrMetallicRoughness": {
        "baseColorTexture": {
          "index": 8
        },
        "baseColorFactor": [
          1,
          1,
          1,
          1
        ],
        "metallicFactor": 0,
        "roughnessFactor": 1
      },
      "emissiveFactor": [
        0,
        0,
        0
      ],
      "alphaMode": "OPAQUE",
      "doubleSided": false
    }
  ],
  "meshes": [
    {
      "name": "Group_MatrixTransform_i96159_Geometry_0-Mesh",
      "primitives": [
        {
          "attributes": {
            "POSITION": 0,
            "NORMAL": 1,
            "TEXCOORD_0": 2
          },
          "indices": 3,
          "material": 0,
          "mode": 4
        }
      ]
    },
    {
      "name": "Group_MatrixTransform_i96159_Geometry_1-Mesh",
      "primitives": [
        {
          "attributes": {
            "POSITION": 4,
            "NORMAL": 5,
            "TEXCOORD_0": 6
          },
          "indices": 7,
          "material": 1,
          "mode": 4
        }
      ]
    },
    {
      "name": "Group_MatrixTransform_i96159_Geometry_2-Mesh",
      "primitives": [
        {
          "attributes": {
            "POSITION": 8,
            "NORMAL": 9,
            "TEXCOORD_0": 10
          },
          "indices": 11,
          "material": 2,
          "mode": 4
        }
      ]
    },
    {
      "name": "Group_MatrixTransform_i96159_Geometry_3-Mesh",
      "primitives": [
        {
          "attributes": {
            "POSITION": 12,
            "NORMAL": 13,
            "TEXCOORD_0": 14
          },
          "indices": 15,
          "material": 3,
          "mode": 4
        }
      ]
    },
    {
      "name": "Group_MatrixTransform_i96159_Geometry_4-Mesh",
      "primitives": [
        {
          "attributes": {
            "POSITION": 16,
            "NORMAL": 17,
            "TEXCOORD_0": 18
          },
          "indices": 19,
          "material": 4,
          "mode": 4
        }
      ]
    },
    {
      "name": "Group_MatrixTransform_i96159_Geometry_5-Mesh",
      "primitives": [
        {
          "attributes": {
            "POSITION": 20,
            "NORMAL": 21,
            "TEXCOORD_0": 22
          },
          "indices": 23,
          "material": 5,
          "mode": 4
        }
      ]
    },
    {
      "name": "Group_MatrixTransform_i96159_Geometry_6-Mesh",
      "primitives": [
        {
          "attributes": {
            "POSITION": 24,
            "NORMAL": 25,
            "TEXCOORD_0": 26
          },
          "indices": 27,
          "material": 6,
          "mode": 4
        }
      ]
    },
    {
      "name": "Group_MatrixTransform_i96159_Geometry_7-Mesh",
      "primitives": [
        {
          "attributes": {
            "POSITION": 28,
            "NORMAL": 29,
            "TEXCOORD_0": 30
          },
          "indices": 31,
          "material": 7,
          "mode": 4
        }
      ]
    },
    {
      "name": "Group_MatrixTransform_i96159_Geometry_8-Mesh",
      "primitives": [
        {
          "attributes": {
            "POSITION": 32,
            "NORMAL": 33,
            "TEXCOORD_0": 34
          },
          "indices": 35,
          "material": 8,
          "mode": 4
        }
      ]
    }
  ],
  "nodes": [
    {
      "name": "Group_MatrixTransform_i96159_Geometry_0",
      "mesh": 0
    },
    {
      "name": "Group_MatrixTransform_i96159_Geometry_1",
      "mesh": 1
    },
    {
      "name": "Group_MatrixTransform_i96159_Geometry_2",
      "mesh": 2
    },
    {
      "name": "Group_MatrixTransform_i96159_Geometry_3",
      "mesh": 3
    },
    {
      "name": "Group_MatrixTransform_i96159_Geometry_4",
      "mesh": 4
    },
    {
      "name": "Group_MatrixTransform_i96159_Geometry_5",
      "mesh": 5
    },
    {
      "name": "Group_MatrixTransform_i96159_Geometry_6",
      "mesh": 6
    },
    {
      "name": "Group_MatrixTransform_i96159_Geometry_7",
      "mesh": 7
    },
    {
      "name": "Group_MatrixTransform_i96159_Geometry_8",
      "mesh": 8
    }
  ],
  "samplers": [
    {
      "magFilter": 9729,
      "minFilter": 9986,
      "wrapS": 10497,
      "wrapT": 10497
    }
  ],
  "scene": 0,
  "scenes": [
    {
      "nodes": [
        0,
        1,
        2,
        3,
        4,
        5,
        6,
        7,
        8
      ]
    }
  ],
  "textures": [
    {
      "name": "i9600359_j",
      "sampler": 0,
      "source": 0
    },
    {
      "name": "i9600357_j",
      "sampler": 0,
      "source": 1
    },
    {
      "name": "i9600358_j",
      "sampler": 0,
      "source": 2
    },
    {
      "name": "i9600345_j",
      "sampler": 0,
      "source": 3
    },
    {
      "name": "c1600002_j",
      "sampler": 0,
      "source": 4
    },
    {
      "name": "i9600313_j",
      "sampler": 0,
      "source": 5
    },
    {
      "name": "i96_h351_b",
      "sampler": 0,
      "source": 6
    },
    {
      "name": "i96_h172_b",
      "sampler": 0,
      "source": 7
    },
    {
      "name": "i9600002_b",
      "sampler": 0,
      "source": 8
    }
  ]
}
