{
  "accessors": [
    {
      "name": "Group_MatrixTransform_i96173_Geometry_0-Mesh_positions",
      "componentType": 5126,
      "count": 6,
      "min": [
        -15.320099830627441,
        4.760250091552734,
        0
      ],
      "max": [
        14.939900398254395,
        5.840330123901367,
        3.6040000915527344
      ],
      "type": "VEC3",
      "bufferView": 0,
      "byteOffset": 0
    },
    {
      "name": "Group_MatrixTransform_i96173_Geometry_0-Mesh_normals",
      "componentType": 5126,
      "count": 6,
      "min": [
        -0.03560839220881462,
        0.9993658065795898,
        0
      ],
      "max": [
        -0.03560839220881462,
        0.9993658065795898,
        0
      ],
      "type": "VEC3",
      "bufferView": 0,
      "byteOffset": 576
    },
    {
      "name": "Group_MatrixTransform_i96173_Geometry_0-Mesh_texcoords",
      "componentType": 5126,
      "count": 6,
      "min": [
        0.002998349955305457,
        0.0004990000161342323
      ],
      "max": [
        5.9970197677612305,
        0.9995002746582031
      ],
      "type": "VEC2",
      "bufferView": 1,
      "byteOffset": 0
    },
    {
      "name": "Group_MatrixTransform_i96173_Geometry_0-Mesh_0_indices",
      "componentType": 5123,
      "count": 6,
      "min": [
        0
      ],
      "max": [
        5
      ],
      "type": "SCALAR",
      "bufferView": 2,
      "byteOffset": 0
    },
    {
      "name": "Group_MatrixTransform_i96173_Geometry_1-Mesh_positions",
      "componentType": 5126,
      "count": 24,
      "min": [
        -15.320099830627441,
        -5.839839935302734,
        0
      ],
      "max": [
        15.319899559020996,
        5.840330123901367,
        5
      ],
      "type": "VEC3",
      "bufferView": 0,
      "byteOffset": 72
    },
    {
      "name": "Group_MatrixTransform_i96173_Geometry_1-Mesh_normals",
      "componentType": 5126,
      "count": 24,
      "min": [
        -0.9993659257888794,
        -0.03562810271978378,
        -0.00002489649887138512
      ],
      "max": [
        0.9993667602539062,
        0.03561718389391899,
        0.000033849297324195504
      ],
      "type": "VEC3",
      "bufferView": 0,
      "byteOffset": 648
    },
    {
      "name": "Group_MatrixTransform_i96173_Geometry_1-Mesh_texcoords",
      "componentType": 5126,
      "count": 24,
      "min": [
        0,
        0
      ],
      "max": [
        1.999019980430603,
        1
      ],
      "type": "VEC2",
      "bufferView": 1,
      "byteOffset": 48
    },
    {
      "name": "Group_MatrixTransform_i96173_Geometry_1-Mesh_0_indices",
      "componentType": 5123,
      "count": 24,
      "min": [
        0
      ],
      "max": [
        23
      ],
      "type": "SCALAR",
      "bufferView": 2,
      "byteOffset": 12
    },
    {
      "name": "Group_MatrixTransform_i96173_Geometry_2-Mesh_positions",
      "componentType": 5126,
      "count": 6,
      "min": [
        -14.940099716186523,
        -5.839839935302734,
        0
      ],
      "max": [
        15.319899559020996,
        -4.759769916534424,
        3.6040000915527344
      ],
      "type": "VEC3",
      "bufferView": 0,
      "byteOffset": 360
    },
    {
      "name": "Group_MatrixTransform_i96173_Geometry_2-Mesh_normals",
      "componentType": 5126,
      "count": 6,
      "min": [
        0.03559241443872452,
        -0.9993664026260376,
        -0.000001205550461236271
      ],
      "max": [
        0.035592611879110336,
        -0.9993664026260376,
        0
      ],
      "type": "VEC3",
      "bufferView": 0,
      "byteOffset": 936
    },
    {
      "name": "Group_MatrixTransform_i96173_Geometry_2-Mesh_texcoords",
      "componentType": 5126,
      "count": 6,
      "min": [
        -0.08587650209665298,
        0.0005000000237487257
      ],
      "max": [
        2.0858700275421143,
        1
      ],
      "type": "VEC2",
      "bufferView": 1,
      "byteOffset": 240
    },
    {
      "name": "Group_MatrixTransform_i96173_Geometry_2-Mesh_0_indices",
      "componentType": 5123,
      "count": 6,
      "min": [
        0
      ],
      "max": [
        5
      ],
      "type": "SCALAR",
      "bufferView": 2,
      "byteOffset": 60
    },
    {
      "name": "Group_MatrixTransform_i96173_Geometry_3-Mesh_positions",
      "componentType": 5126,
      "count": 12,
      "min": [
        -15.320099830627441,
        -5.839839935302734,
        3.6040000915527344
      ],
      "max": [
        15.319899559020996,
        5.840330123901367,
        5
      ],
      "type": "VEC3",
      "bufferView": 0,
      "byteOffset": 432
    },
    {
      "name": "Group_MatrixTransform_i96173_Geometry_3-Mesh_normals",
      "componentType": 5126,
      "count": 12,
      "min": [
        -0.008933050557971,
        -0.2584340274333954,
        0.9659850597381592
      ],
      "max": [
        0.009204180911183357,
        0.2507309019565582,
        0.968021035194397
      ],
      "type": "VEC3",
      "bufferView": 0,
      "byteOffset": 1008
    },
    {
      "name": "Group_MatrixTransform_i96173_Geometry_3-Mesh_texcoords",
      "componentType": 5126,
      "count": 12,
      "min": [
        0,
        0.0028619999065995216
      ],
      "max": [
        0.9872390031814575,
        1
      ],
      "type": "VEC2",
      "bufferView": 1,
      "byteOffset": 288
    },
    {
      "name": "Group_MatrixTransform_i96173_Geometry_3-Mesh_0_indices",
      "componentType": 5123,
      "count": 12,
      "min": [
        0
      ],
      "max": [
        11
      ],
      "type": "SCALAR",
      "bufferView": 2,
      "byteOffset": 72
    }
  ],
  "asset": {
    "generator": "obj2gltf",
    "version": "2.0"
  },
  "buffers": [
    {
      "name": "i96173",
      "byteLength": 407064,
      "uri": "data:application/octet-stream;base64,"
    }
  ],
  "bufferViews": [
    {
      "name": "bufferView_0",
      "buffer": 0,
      "byteLength": 1152,
      "byteOffset": 0,
      "byteStride": 12,
      "target": 34962
    },
    {
      "name": "bufferView_1",
      "buffer": 0,
      "byteLength": 384,
      "byteOffset": 1152,
      "byteStride": 8,
      "target": 34962
    },
    {
      "name": "bufferView_2",
      "buffer": 0,
      "byteLength": 96,
      "byteOffset": 1536,
      "target": 34963
    },
    {
      "buffer": 0,
      "byteOffset": 1632,
      "byteLength": 90210
    },
    {
      "buffer": 0,
      "byteOffset": 91842,
      "byteLength": 76575
    },
    {
      "buffer": 0,
      "byteOffset": 168417,
      "byteLength": 187292
    },
    {
      "buffer": 0,
      "byteOffset": 355709,
      "byteLength": 51352
    }
  ],
  "images": [
    {
      "name": "i0800258_j",
      "mimeType": "image/png",
      "bufferView": 3
    },
    {
      "name": "i0800256_j",
      "mimeType": "image/png",
      "bufferView": 4
    },
    {
      "name": "i0800257_j",
      "mimeType": "image/png",
      "bufferView": 5
    },
    {
      "name": "i96_h212_b",
      "mimeType": "image/png",
      "bufferView": 6
    }
  ],
  "materials": [
    {
      "name": "material_291",
      "pbrMetallicRoughness": {
        "baseColorTexture": {
          "index": 0
        },
        "baseColorFactor": [
          1,
          1,
          1,
          1
        ],
        "metallicFactor": 0,
        "roughnessFactor": 1
      },
      "emissiveFactor": [
        0,
        0,
        0
      ],
      "alphaMode": "OPAQUE",
      "doubleSided": false
    },
    {
      "name": "material_292",
      "pbrMetallicRoughness": {
        "baseColorTexture": {
          "index": 1
        },
        "baseColorFactor": [
          1,
          1,
          1,
          1
        ],
        "metallicFactor": 0,
        "roughnessFactor": 1
      },
      "emissiveFactor": [
        0,
        0,
        0
      ],
      "alphaMode": "OPAQUE",
      "doubleSided": false
    },
    {
      "name": "material_293",
      "pbrMetallicRoughness": {
        "baseColorTexture": {
          "index": 2
        },
        "baseColorFactor": [
          1,
          1,
          1,
          1
        ],
        "metallicFactor": 0,
        "roughnessFactor": 1
      },
      "emissiveFactor": [
        0,
        0,
        0
      ],
      "alphaMode": "OPAQUE",
      "doubleSided": false
    },
    {
      "name": "material_294",
      "pbrMetallicRoughness": {
        "baseColorTexture": {
          "index": 3
        },
        "baseColorFactor": [
          1,
          1,
          1,
          1
        ],
        "metallicFactor": 0,
        "roughnessFactor": 1
      },
      "emissiveFactor": [
        0,
        0,
        0
      ],
      "alphaMode": "OPAQUE",
      "doubleSided": false
    }
  ],
  "meshes": [
    {
      "name": "Group_MatrixTransform_i96173_Geometry_0-Mesh",
      "primitives": [
        {
          "attributes": {
            "POSITION": 0,
            "NORMAL": 1,
            "TEXCOORD_0": 2
          },
          "indices": 3,
          "material": 0,
          "mode": 4
        }
      ]
    },
    {
      "name": "Group_MatrixTransform_i96173_Geometry_1-Mesh",
      "primitives": [
        {
          "attributes": {
            "POSITION": 4,
            "NORMAL": 5,
            "TEXCOORD_0": 6
          },
          "indices": 7,
          "material": 1,
          "mode": 4
        }
      ]
    },
    {
      "name": "Group_MatrixTransform_i96173_Geometry_2-Mesh",
      "primitives": [
        {
          "attributes": {
            "POSITION": 8,
            "NORMAL": 9,
            "TEXCOORD_0": 10
          },
          "indices": 11,
          "material": 2,
          "mode": 4
        }
      ]
    },
    {
      "name": "Group_MatrixTransform_i96173_Geometry_3-Mesh",
      "primitives": [
        {
          "attributes": {
            "POSITION": 12,
            "NORMAL": 13,
            "TEXCOORD_0": 14
          },
          "indices": 15,
          "material": 3,
          "mode": 4
        }
      ]
    }
  ],
  "nodes": [
    {
      "name": "Group_MatrixTransform_i96173_Geometry_0",
      "mesh": 0
    },
    {
      "name": "Group_MatrixTransform_i96173_Geometry_1",
      "mesh": 1
    },
    {
      "name": "Group_MatrixTransform_i96173_Geometry_2",
      "mesh": 2
    },
    {
      "name": "Group_MatrixTransform_i96173_Geometry_3",
      "mesh": 3
    }
  ],
  "samplers": [
    {
      "magFilter": 9729,
      "minFilter": 9986,
      "wrapS": 10497,
      "wrapT": 10497
    }
  ],
  "scene": 0,
  "scenes": [
    {
      "nodes": [
        0,
        1,
        2,
        3
      ]
    }
  ],
  "textures": [
    {
      "name": "i0800258_j",
      "sampler": 0,
      "source": 0
    },
    {
      "name": "i0800256_j",
      "sampler": 0,
      "source": 1
    },
    {
      "name": "i0800257_j",
      "sampler": 0,
      "source": 2
    },
    {
      "name": "i96_h212_b",
      "sampler": 0,
      "source": 3
    }
  ]
}
