{
  "accessors": [
    {
      "name": "Group_MatrixTransform_i96149_Geometry_0-Mesh_positions",
      "componentType": 5126,
      "count": 12,
      "min": [
        -36.83509826660156,
        -17.649900436401367,
        0
      ],
      "max": [
        36.845001220703125,
        17.649900436401367,
        5.513999938964844
      ],
      "type": "VEC3",
      "bufferView": 0,
      "byteOffset": 0
    },
    {
      "name": "Group_MatrixTransform_i96149_Geometry_0-Mesh_normals",
      "componentType": 5126,
      "count": 12,
      "min": [
        -0.0366240032017231,
        -0.9993292093276978,
        0
      ],
      "max": [
        0.036621008068323135,
        0.9993298649787903,
        0.00009095390851143748
      ],
      "type": "VEC3",
      "bufferView": 0,
      "byteOffset": 3096
    },
    {
      "name": "Group_MatrixTransform_i96149_Geometry_0-Mesh_texcoords",
      "componentType": 5126,
      "count": 12,
      "min": [
        0.00198364001698792,
        0.0004990000161342323
      ],
      "max": [
        4.997499942779541,
        0.9995002746582031
      ],
      "type": "VEC2",
      "bufferView": 1,
      "byteOffset": 0
    },
    {
      "name": "Group_MatrixTransform_i96149_Geometry_0-Mesh_0_indices",
      "componentType": 5123,
      "count": 12,
      "min": [
        0
      ],
      "max": [
        11
      ],
      "type": "SCALAR",
      "bufferView": 2,
      "byteOffset": 0
    },
    {
      "name": "Group_MatrixTransform_i96149_Geometry_1-Mesh_positions",
      "componentType": 5126,
      "count": 30,
      "min": [
        -38.025001525878906,
        -14.910200119018555,
        0
      ],
      "max": [
        38.0349006652832,
        14.910200119018555,
        6.35699987411499
      ],
      "type": "VEC3",
      "bufferView": 0,
      "byteOffset": 144
    },
    {
      "name": "Group_MatrixTransform_i96149_Geometry_1-Mesh_normals",
      "componentType": 5126,
      "count": 30,
      "min": [
        -0.9993300437927246,
        -0.03701169416308403,
        -0.00002295599006174598
      ],
      "max": [
        0.9993294477462769,
        0.036638785153627396,
        0.00001923119998537004
      ],
      "type": "VEC3",
      "bufferView": 0,
      "byteOffset": 3240
    },
    {
      "name": "Group_MatrixTransform_i96149_Geometry_1-Mesh_texcoords",
      "componentType": 5126,
      "count": 30,
      "min": [
        0.0004882809880655259,
        0.0004990000161342323
      ],
      "max": [
        0.9995120167732239,
        1
      ],
      "type": "VEC2",
      "bufferView": 1,
      "byteOffset": 96
    },
    {
      "name": "Group_MatrixTransform_i96149_Geometry_1-Mesh_0_indices",
      "componentType": 5123,
      "count": 30,
      "min": [
        0
      ],
      "max": [
        29
      ],
      "type": "SCALAR",
      "bufferView": 2,
      "byteOffset": 24
    },
    {
      "name": "Group_MatrixTransform_i96149_Geometry_2-Mesh_positions",
      "componentType": 5126,
      "count": 30,
      "min": [
        -37.724998474121094,
        -17.649900436401367,
        0
      ],
      "max": [
        37.724998474121094,
        17.649900436401367,
        6.35699987411499
      ],
      "type": "VEC3",
      "bufferView": 0,
      "byteOffset": 504
    },
    {
      "name": "Group_MatrixTransform_i96149_Geometry_2-Mesh_normals",
      "componentType": 5126,
      "count": 30,
      "min": [
        -0.999329149723053,
        -0.036631494760513306,
        -0.000022955891836318187
      ],
      "max": [
        0.9993354082107544,
        0.03677288815379143,
        0.0000033645912935753586
      ],
      "type": "VEC3",
      "bufferView": 0,
      "byteOffset": 3600
    },
    {
      "name": "Group_MatrixTransform_i96149_Geometry_2-Mesh_texcoords",
      "componentType": 5126,
      "count": 30,
      "min": [
        0.0031690499745309353,
        0.0004990000161342323
      ],
      "max": [
        0.9995120167732239,
        1
      ],
      "type": "VEC2",
      "bufferView": 1,
      "byteOffset": 336
    },
    {
      "name": "Group_MatrixTransform_i96149_Geometry_2-Mesh_0_indices",
      "componentType": 5123,
      "count": 30,
      "min": [
        0
      ],
      "max": [
        29
      ],
      "type": "SCALAR",
      "bufferView": 2,
      "byteOffset": 84
    },
    {
      "name": "Group_MatrixTransform_i96149_Geometry_3-Mesh_positions",
      "componentType": 5126,
      "count": 120,
      "min": [
        -38.654998779296875,
        -11.979999542236328,
        3.8459999561309814
      ],
      "max": [
        38.654998779296875,
        12.25,
        4.594600200653076
      ],
      "type": "VEC3",
      "bufferView": 0,
      "byteOffset": 864
    },
    {
      "name": "Group_MatrixTransform_i96149_Geometry_3-Mesh_normals",
      "componentType": 5126,
      "count": 120,
      "min": [
        -0.9999138712882996,
        -0.9997904300689697,
        -1
      ],
      "max": [
        0.9999138116836548,
        0.9997901320457458,
        0.0016269900370389223
      ],
      "type": "VEC3",
      "bufferView": 0,
      "byteOffset": 3960
    },
    {
      "name": "Group_MatrixTransform_i96149_Geometry_3-Mesh_texcoords",
      "componentType": 5126,
      "count": 120,
      "min": [
        -4.291019916534424,
        -4.310550212860107
      ],
      "max": [
        5.310550212860107,
        5.310550212860107
      ],
      "type": "VEC2",
      "bufferView": 1,
      "byteOffset": 576
    },
    {
      "name": "Group_MatrixTransform_i96149_Geometry_3-Mesh_0_indices",
      "componentType": 5123,
      "count": 120,
      "min": [
        0
      ],
      "max": [
        119
      ],
      "type": "SCALAR",
      "bufferView": 2,
      "byteOffset": 144
    },
    {
      "name": "Group_MatrixTransform_i96149_Geometry_4-Mesh_positions",
      "componentType": 5126,
      "count": 12,
      "min": [
        -38.025001525878906,
        -15.979999542236328,
        0.09999849647283554
      ],
      "max": [
        38.0349006652832,
        16.75,
        5.513999938964844
      ],
      "type": "VEC3",
      "bufferView": 0,
      "byteOffset": 2304
    },
    {
      "name": "Group_MatrixTransform_i96149_Geometry_4-Mesh_normals",
      "componentType": 5126,
      "count": 12,
      "min": [
        -0.03662959486246109,
        -0.9993298053741455,
        -0.00009266508277505636
      ],
      "max": [
        0.036621708422899246,
        0.9993292689323425,
        0.00009095398854697123
      ],
      "type": "VEC3",
      "bufferView": 0,
      "byteOffset": 5400
    },
    {
      "name": "Group_MatrixTransform_i96149_Geometry_4-Mesh_texcoords",
      "componentType": 5126,
      "count": 12,
      "min": [
        0.002073860028758645,
        0.0004990000161342323
      ],
      "max": [
        5.997000217437744,
        1
      ],
      "type": "VEC2",
      "bufferView": 1,
      "byteOffset": 1536
    },
    {
      "name": "Group_MatrixTransform_i96149_Geometry_4-Mesh_0_indices",
      "componentType": 5123,
      "count": 12,
      "min": [
        0
      ],
      "max": [
        11
      ],
      "type": "SCALAR",
      "bufferView": 2,
      "byteOffset": 384
    },
    {
      "name": "Group_MatrixTransform_i96149_Geometry_5-Mesh_positions",
      "componentType": 5126,
      "count": 6,
      "min": [
        36.91490173339844,
        -9.459959983825684,
        4.575699806213379
      ],
      "max": [
        38.654998779296875,
        -3.669919967651367,
        4.575699806213379
      ],
      "type": "VEC3",
      "bufferView": 0,
      "byteOffset": 2448
    },
    {
      "name": "Group_MatrixTransform_i96149_Geometry_5-Mesh_normals",
      "componentType": 5126,
      "count": 6,
      "min": [
        0,
        0,
        1
      ],
      "max": [
        0,
        0,
        1
      ],
      "type": "VEC3",
      "bufferView": 0,
      "byteOffset": 5544
    },
    {
      "name": "Group_MatrixTransform_i96149_Geometry_5-Mesh_texcoords",
      "componentType": 5126,
      "count": 6,
      "min": [
        0,
        0.00989999994635582
      ],
      "max": [
        0.9853820204734802,
        1
      ],
      "type": "VEC2",
      "bufferView": 1,
      "byteOffset": 1632
    },
    {
      "name": "Group_MatrixTransform_i96149_Geometry_5-Mesh_0_indices",
      "componentType": 5123,
      "count": 6,
      "min": [
        0
      ],
      "max": [
        5
      ],
      "type": "SCALAR",
      "bufferView": 2,
      "byteOffset": 408
    },
    {
      "name": "Group_MatrixTransform_i96149_Geometry_6-Mesh_positions",
      "componentType": 5126,
      "count": 6,
      "min": [
        36.505001068115234,
        6.759769916534424,
        4.528200149536133
      ],
      "max": [
        38.025001525878906,
        12.25,
        4.594600200653076
      ],
      "type": "VEC3",
      "bufferView": 0,
      "byteOffset": 2520
    },
    {
      "name": "Group_MatrixTransform_i96149_Geometry_6-Mesh_normals",
      "componentType": 5126,
      "count": 6,
      "min": [
        0.00032606697641313076,
        -0.012172197923064232,
        0.9999258518218994
      ],
      "max": [
        0.0003369029436726123,
        -0.01216959860175848,
        0.9999259114265442
      ],
      "type": "VEC3",
      "bufferView": 0,
      "byteOffset": 5616
    },
    {
      "name": "Group_MatrixTransform_i96149_Geometry_6-Mesh_texcoords",
      "componentType": 5126,
      "count": 6,
      "min": [
        0,
        0.005944000091403723
      ],
      "max": [
        0.9777119755744934,
        1
      ],
      "type": "VEC2",
      "bufferView": 1,
      "byteOffset": 1680
    },
    {
      "name": "Group_MatrixTransform_i96149_Geometry_6-Mesh_0_indices",
      "componentType": 5123,
      "count": 6,
      "min": [
        0
      ],
      "max": [
        5
      ],
      "type": "SCALAR",
      "bufferView": 2,
      "byteOffset": 420
    },
    {
      "name": "Group_MatrixTransform_i96149_Geometry_7-Mesh_positions",
      "componentType": 5126,
      "count": 30,
      "min": [
        -38.025001525878906,
        -17.649900436401367,
        5.513999938964844
      ],
      "max": [
        38.0349006652832,
        17.649900436401367,
        6.35699987411499
      ],
      "type": "VEC3",
      "bufferView": 0,
      "byteOffset": 2592
    },
    {
      "name": "Group_MatrixTransform_i96149_Geometry_7-Mesh_normals",
      "componentType": 5126,
      "count": 30,
      "min": [
        -0.004027409013360739,
        -0.10946395993232727,
        0.9939367175102234
      ],
      "max": [
        0.004012098535895348,
        0.10987997055053711,
        1
      ],
      "type": "VEC3",
      "bufferView": 0,
      "byteOffset": 5688
    },
    {
      "name": "Group_MatrixTransform_i96149_Geometry_7-Mesh_texcoords",
      "componentType": 5126,
      "count": 30,
      "min": [
        0.004863449838012457,
        0.01570500060915947
      ],
      "max": [
        0.9993569850921631,
        0.9829779267311096
      ],
      "type": "VEC2",
      "bufferView": 1,
      "byteOffset": 1728
    },
    {
      "name": "Group_MatrixTransform_i96149_Geometry_7-Mesh_0_indices",
      "componentType": 5123,
      "count": 30,
      "min": [
        0
      ],
      "max": [
        29
      ],
      "type": "SCALAR",
      "bufferView": 2,
      "byteOffset": 432
    },
    {
      "name": "Group_MatrixTransform_i96149_Geometry_8-Mesh_positions",
      "componentType": 5126,
      "count": 12,
      "min": [
        -38.654998779296875,
        -11.979999542236328,
        4.145999908447266
      ],
      "max": [
        -36.6150016784668,
        8.290040016174316,
        4.581999778747559
      ],
      "type": "VEC3",
      "bufferView": 0,
      "byteOffset": 2952
    },
    {
      "name": "Group_MatrixTransform_i96149_Geometry_8-Mesh_normals",
      "componentType": 5126,
      "count": 12,
      "min": [
        -0.000002697850050026318,
        -0.0000011575899634408415,
        1
      ],
      "max": [
        0.00000269859992840793,
        0.0000011582200158954947,
        1
      ],
      "type": "VEC3",
      "bufferView": 0,
      "byteOffset": 6048
    },
    {
      "name": "Group_MatrixTransform_i96149_Geometry_8-Mesh_texcoords",
      "componentType": 5126,
      "count": 12,
      "min": [
        0,
        0.001095999963581562
      ],
      "max": [
        0.9929500222206116,
        1
      ],
      "type": "VEC2",
      "bufferView": 1,
      "byteOffset": 1968
    },
    {
      "name": "Group_MatrixTransform_i96149_Geometry_8-Mesh_0_indices",
      "componentType": 5123,
      "count": 12,
      "min": [
        0
      ],
      "max": [
        11
      ],
      "type": "SCALAR",
      "bufferView": 2,
      "byteOffset": 492
    }
  ],
  "asset": {
    "generator": "obj2gltf",
    "version": "2.0"
  },
  "buffers": [
    {
      "name": "i96149",
      "byteLength": 255016,
      "uri": "data:application/octet-stream;base64,"
    }
  ],
  "bufferViews": [
    {
      "name": "bufferView_0",
      "buffer": 0,
      "byteLength": 6192,
      "byteOffset": 0,
      "byteStride": 12,
      "target": 34962
    },
    {
      "name": "bufferView_1",
      "buffer": 0,
      "byteLength": 2064,
      "byteOffset": 6192,
      "byteStride": 8,
      "target": 34962
    },
    {
      "name": "bufferView_2",
      "buffer": 0,
      "byteLength": 516,
      "byteOffset": 8256,
      "target": 34963
    },
    {
      "buffer": 0,
      "byteOffset": 8772,
      "byteLength": 15299
    },
    {
      "buffer": 0,
      "byteOffset": 24071,
      "byteLength": 19920
    },
    {
      "buffer": 0,
      "byteOffset": 43991,
      "byteLength": 19696
    },
    {
      "buffer": 0,
      "byteOffset": 63687,
      "byteLength": 11413
    },
    {
      "buffer": 0,
      "byteOffset": 75100,
      "byteLength": 18801
    },
    {
      "buffer": 0,
      "byteOffset": 93901,
      "byteLength": 6590
    },
    {
      "buffer": 0,
      "byteOffset": 100491,
      "byteLength": 6555
    },
    {
      "buffer": 0,
      "byteOffset": 107046,
      "byteLength": 124010
    },
    {
      "buffer": 0,
      "byteOffset": 231056,
      "byteLength": 23957
    }
  ],
  "images": [
    {
      "name": "i9600374_j",
      "mimeType": "image/png",
      "bufferView": 3
    },
    {
      "name": "i9600372_j",
      "mimeType": "image/png",
      "bufferView": 4
    },
    {
      "name": "i9600371_j",
      "mimeType": "image/png",
      "bufferView": 5
    },
    {
      "name": "i9600311_j",
      "mimeType": "image/png",
      "bufferView": 6
    },
    {
      "name": "i9600373_j",
      "mimeType": "image/png",
      "bufferView": 7
    },
    {
      "name": "i96_h233_b",
      "mimeType": "image/png",
      "bufferView": 8
    },
    {
      "name": "i96_h232_b",
      "mimeType": "image/png",
      "bufferView": 9
    },
    {
      "name": "i96_h169_b",
      "mimeType": "image/png",
      "bufferView": 10
    },
    {
      "name": "i9600002_b",
      "mimeType": "image/png",
      "bufferView": 11
    }
  ],
  "materials": [
    {
      "name": "material_240",
      "pbrMetallicRoughness": {
        "baseColorTexture": {
          "index": 0
        },
        "baseColorFactor": [
          1,
          1,
          1,
          1
        ],
        "metallicFactor": 0,
        "roughnessFactor": 1
      },
      "emissiveFactor": [
        0,
        0,
        0
      ],
      "alphaMode": "OPAQUE",
      "doubleSided": false
    },
    {
      "name": "material_241",
      "pbrMetallicRoughness": {
        "baseColorTexture": {
          "index": 1
        },
        "baseColorFactor": [
          1,
          1,
          1,
          1
        ],
        "metallicFactor": 0,
        "roughnessFactor": 1
      },
      "emissiveFactor": [
        0,
        0,
        0
      ],
      "alphaMode": "OPAQUE",
      "doubleSided": false
    },
    {
      "name": "material_242",
      "pbrMetallicRoughness": {
        "baseColorTexture": {
          "index": 2
        },
        "baseColorFactor": [
          1,
          1,
          1,
          1
        ],
        "metallicFactor": 0,
        "roughnessFactor": 1
      },
      "emissiveFactor": [
        0,
        0,
        0
      ],
      "alphaMode": "OPAQUE",
      "doubleSided": false
    },
    {
      "name": "material_243",
      "pbrMetallicRoughness": {
        "baseColorTexture": {
          "index": 3
        },
        "baseColorFactor": [
          1,
          1,
          1,
          1
        ],
        "metallicFactor": 0,
        "roughnessFactor": 1
      },
      "emissiveFactor": [
        0,
        0,
        0
      ],
      "alphaMode": "OPAQUE",
      "doubleSided": false
    },
    {
      "name": "material_244",
      "pbrMetallicRoughness": {
        "baseColorTexture": {
          "index": 4
        },
        "baseColorFactor": [
          1,
          1,
          1,
          1
        ],
        "metallicFactor": 0,
        "roughnessFactor": 1
      },
      "emissiveFactor": [
        0,
        0,
        0
      ],
      "alphaMode": "OPAQUE",
      "doubleSided": false
    },
    {
      "name": "material_245",
      "pbrMetallicRoughness": {
        "baseColorTexture": {
          "index": 5
        },
        "baseColorFactor": [
          1,
          1,
          1,
          1
        ],
        "metallicFactor": 0,
        "roughnessFactor": 1
      },
      "emissiveFactor": [
        0,
        0,
        0
      ],
      "alphaMode": "OPAQUE",
      "doubleSided": false
    },
    {
      "name": "material_246",
      "pbrMetallicRoughness": {
        "baseColorTexture": {
          "index": 6
        },
        "baseColorFactor": [
          1,
          1,
          1,
          1
        ],
        "metallicFactor": 0,
        "roughnessFactor": 1
      },
      "emissiveFactor": [
        0,
        0,
        0
      ],
      "alphaMode": "OPAQUE",
      "doubleSided": false
    },
    {
      "name": "material_247",
      "pbrMetallicRoughness": {
        "baseColorTexture": {
          "index": 7
        },
        "baseColorFactor": [
          1,
          1,
          1,
          1
        ],
        "metallicFactor": 0,
        "roughnessFactor": 1
      },
      "emissiveFactor": [
        0,
        0,
        0
      ],
      "alphaMode": "OPAQUE",
      "doubleSided": false
    },
    {
      "name": "material_248",
      "pbrMetallicRoughness": {
        "baseColorTexture": {
          "index": 8
        },
        "baseColorFactor": [
          1,
          1,
          1,
          1
        ],
        "metallicFactor": 0,
        "roughnessFactor": 1
      },
      "emissiveFactor": [
        0,
        0,
        0
      ],
      "alphaMode": "OPAQUE",
      "doubleSided": false
    }
  ],
  "meshes": [
    {
      "name": "Group_MatrixTransform_i96149_Geometry_0-Mesh",
      "primitives": [
        {
          "attributes": {
            "POSITION": 0,
            "NORMAL": 1,
            "TEXCOORD_0": 2
          },
          "indices": 3,
          "material": 0,
          "mode": 4
        }
      ]
    },
    {
      "name": "Group_MatrixTransform_i96149_Geometry_1-Mesh",
      "primitives": [
        {
          "attributes": {
            "POSITION": 4,
            "NORMAL": 5,
            "TEXCOORD_0": 6
          },
          "indices": 7,
          "material": 1,
          "mode": 4
        }
      ]
    },
    {
      "name": "Group_MatrixTransform_i96149_Geometry_2-Mesh",
      "primitives": [
        {
          "attributes": {
            "POSITION": 8,
            "NORMAL": 9,
            "TEXCOORD_0": 10
          },
          "indices": 11,
          "material": 2,
          "mode": 4
        }
      ]
    },
    {
      "name": "Group_MatrixTransform_i96149_Geometry_3-Mesh",
      "primitives": [
        {
          "attributes": {
            "POSITION": 12,
            "NORMAL": 13,
            "TEXCOORD_0": 14
          },
          "indices": 15,
          "material": 3,
          "mode": 4
        }
      ]
    },
    {
      "name": "Group_MatrixTransform_i96149_Geometry_4-Mesh",
      "primitives": [
        {
          "attributes": {
            "POSITION": 16,
            "NORMAL": 17,
            "TEXCOORD_0": 18
          },
          "indices": 19,
          "material": 4,
          "mode": 4
        }
      ]
    },
    {
      "name": "Group_MatrixTransform_i96149_Geometry_5-Mesh",
      "primitives": [
        {
          "attributes": {
            "POSITION": 20,
            "NORMAL": 21,
            "TEXCOORD_0": 22
          },
          "indices": 23,
          "material": 5,
          "mode": 4
        }
      ]
    },
    {
      "name": "Group_MatrixTransform_i96149_Geometry_6-Mesh",
      "primitives": [
        {
          "attributes": {
            "POSITION": 24,
            "NORMAL": 25,
            "TEXCOORD_0": 26
          },
          "indices": 27,
          "material": 6,
          "mode": 4
        }
      ]
    },
    {
      "name": "Group_MatrixTransform_i96149_Geometry_7-Mesh",
      "primitives": [
        {
          "attributes": {
            "POSITION": 28,
            "NORMAL": 29,
            "TEXCOORD_0": 30
          },
          "indices": 31,
          "material": 7,
          "mode": 4
        }
      ]
    },
    {
      "name": "Group_MatrixTransform_i96149_Geometry_8-Mesh",
      "primitives": [
        {
          "attributes": {
            "POSITION": 32,
            "NORMAL": 33,
            "TEXCOORD_0": 34
          },
          "indices": 35,
          "material": 8,
          "mode": 4
        }
      ]
    }
  ],
  "nodes": [
    {
      "name": "Group_MatrixTransform_i96149_Geometry_0",
      "mesh": 0
    },
    {
      "name": "Group_MatrixTransform_i96149_Geometry_1",
      "mesh": 1
    },
    {
      "name": "Group_MatrixTransform_i96149_Geometry_2",
      "mesh": 2
    },
    {
      "name": "Group_MatrixTransform_i96149_Geometry_3",
      "mesh": 3
    },
    {
      "name": "Group_MatrixTransform_i96149_Geometry_4",
      "mesh": 4
    },
    {
      "name": "Group_MatrixTransform_i96149_Geometry_5",
      "mesh": 5
    },
    {
      "name": "Group_MatrixTransform_i96149_Geometry_6",
      "mesh": 6
    },
    {
      "name": "Group_MatrixTransform_i96149_Geometry_7",
      "mesh": 7
    },
    {
      "name": "Group_MatrixTransform_i96149_Geometry_8",
      "mesh": 8
    }
  ],
  "samplers": [
    {
      "magFilter": 9729,
      "minFilter": 9986,
      "wrapS": 10497,
      "wrapT": 10497
    }
  ],
  "scene": 0,
  "scenes": [
    {
      "nodes": [
        0,
        1,
        2,
        3,
        4,
        5,
        6,
        7,
        8
      ]
    }
  ],
  "textures": [
    {
      "name": "i9600374_j",
      "sampler": 0,
      "source": 0
    },
    {
      "name": "i9600372_j",
      "sampler": 0,
      "source": 1
    },
    {
      "name": "i9600371_j",
      "sampler": 0,
      "source": 2
    },
    {
      "name": "i9600311_j",
      "sampler": 0,
      "source": 3
    },
    {
      "name": "i9600373_j",
      "sampler": 0,
      "source": 4
    },
    {
      "name": "i96_h233_b",
      "sampler": 0,
      "source": 5
    },
    {
      "name": "i96_h232_b",
      "sampler": 0,
      "source": 6
    },
    {
      "name": "i96_h169_b",
      "sampler": 0,
      "source": 7
    },
    {
      "name": "i9600002_b",
      "sampler": 0,
      "source": 8
    }
  ]
}
