{
  "accessors": [
    {
      "name": "Group_MatrixTransform_i96143_Geometry_0-Mesh_positions",
      "componentType": 5126,
      "count": 24,
      "min": [
        -37.71500015258789,
        -8.085450172424316,
        0
      ],
      "max": [
        37.71500015258789,
        8.084959983825684,
        6.379000186920166
      ],
      "type": "VEC3",
      "bufferView": 0,
      "byteOffset": 0
    },
    {
      "name": "Group_MatrixTransform_i96143_Geometry_0-Mesh_normals",
      "componentType": 5126,
      "count": 24,
      "min": [
        -0.9993605613708496,
        -0.03579740226268768,
        0
      ],
      "max": [
        0.9993603825569153,
        0.03577689453959465,
        0.00001936080116138328
      ],
      "type": "VEC3",
      "bufferView": 0,
      "byteOffset": 1872
    },
    {
      "name": "Group_MatrixTransform_i96143_Geometry_0-Mesh_texcoords",
      "componentType": 5126,
      "count": 24,
      "min": [
        0.0010375999845564365,
        0.024284999817609787
      ],
      "max": [
        1.999019980430603,
        0.9757146835327148
      ],
      "type": "VEC2",
      "bufferView": 1,
      "byteOffset": 0
    },
    {
      "name": "Group_MatrixTransform_i96143_Geometry_0-Mesh_0_indices",
      "componentType": 5123,
      "count": 24,
      "min": [
        0
      ],
      "max": [
        23
      ],
      "type": "SCALAR",
      "bufferView": 2,
      "byteOffset": 0
    },
    {
      "name": "Group_MatrixTransform_i96143_Geometry_1-Mesh_positions",
      "componentType": 5126,
      "count": 12,
      "min": [
        -37.71500015258789,
        5.404789924621582,
        0
      ],
      "max": [
        37.224998474121094,
        8.084959983825684,
        5.564000129699707
      ],
      "type": "VEC3",
      "bufferView": 0,
      "byteOffset": 288
    },
    {
      "name": "Group_MatrixTransform_i96143_Geometry_1-Mesh_normals",
      "componentType": 5126,
      "count": 12,
      "min": [
        -0.0357632115483284,
        0.9993602633476257,
        0
      ],
      "max": [
        -0.03575768321752548,
        0.9993605017662048,
        0
      ],
      "type": "VEC3",
      "bufferView": 0,
      "byteOffset": 2160
    },
    {
      "name": "Group_MatrixTransform_i96143_Geometry_1-Mesh_texcoords",
      "componentType": 5126,
      "count": 12,
      "min": [
        0.004997250158339739,
        0.0004990000161342323
      ],
      "max": [
        9.994999885559082,
        0.9994997978210449
      ],
      "type": "VEC2",
      "bufferView": 1,
      "byteOffset": 192
    },
    {
      "name": "Group_MatrixTransform_i96143_Geometry_1-Mesh_0_indices",
      "componentType": 5123,
      "count": 12,
      "min": [
        0
      ],
      "max": [
        11
      ],
      "type": "SCALAR",
      "bufferView": 2,
      "byteOffset": 48
    },
    {
      "name": "Group_MatrixTransform_i96143_Geometry_2-Mesh_positions",
      "componentType": 5126,
      "count": 60,
      "min": [
        1.4350600242614746,
        -7.425290107727051,
        4.435299873352051
      ],
      "max": [
        29.114999771118164,
        -5.29541015625,
        4.780200004577637
      ],
      "type": "VEC3",
      "bufferView": 0,
      "byteOffset": 432
    },
    {
      "name": "Group_MatrixTransform_i96143_Geometry_2-Mesh_normals",
      "componentType": 5126,
      "count": 60,
      "min": [
        -0.9999945759773254,
        -0.9999970197677612,
        -1
      ],
      "max": [
        0.9999944567680359,
        0.9999979734420776,
        0.0016302905278280377
      ],
      "type": "VEC3",
      "bufferView": 0,
      "byteOffset": 2304
    },
    {
      "name": "Group_MatrixTransform_i96143_Geometry_2-Mesh_texcoords",
      "componentType": 5126,
      "count": 60,
      "min": [
        -0.36047399044036865,
        0.1931149959564209
      ],
      "max": [
        1.3604700565338135,
        0.8071290254592896
      ],
      "type": "VEC2",
      "bufferView": 1,
      "byteOffset": 288
    },
    {
      "name": "Group_MatrixTransform_i96143_Geometry_2-Mesh_0_indices",
      "componentType": 5123,
      "count": 60,
      "min": [
        0
      ],
      "max": [
        59
      ],
      "type": "SCALAR",
      "bufferView": 2,
      "byteOffset": 72
    },
    {
      "name": "Group_MatrixTransform_i96143_Geometry_3-Mesh_positions",
      "componentType": 5126,
      "count": 12,
      "min": [
        0.7049559950828552,
        -6.725100040435791,
        0.3531000018119812
      ],
      "max": [
        29.815099716186523,
        -5.685060024261475,
        5.564000129699707
      ],
      "type": "VEC3",
      "bufferView": 0,
      "byteOffset": 1152
    },
    {
      "name": "Group_MatrixTransform_i96143_Geometry_3-Mesh_normals",
      "componentType": 5126,
      "count": 12,
      "min": [
        0.035742200911045074,
        -0.9993610382080078,
        0
      ],
      "max": [
        0.03577239811420441,
        -0.9993599653244019,
        0
      ],
      "type": "VEC3",
      "bufferView": 0,
      "byteOffset": 3024
    },
    {
      "name": "Group_MatrixTransform_i96143_Geometry_3-Mesh_texcoords",
      "componentType": 5126,
      "count": 12,
      "min": [
        0.0004882809880655259,
        0
      ],
      "max": [
        0.9994810223579407,
        1
      ],
      "type": "VEC2",
      "bufferView": 1,
      "byteOffset": 768
    },
    {
      "name": "Group_MatrixTransform_i96143_Geometry_3-Mesh_0_indices",
      "componentType": 5123,
      "count": 12,
      "min": [
        0
      ],
      "max": [
        11
      ],
      "type": "SCALAR",
      "bufferView": 2,
      "byteOffset": 192
    },
    {
      "name": "Group_MatrixTransform_i96143_Geometry_4-Mesh_positions",
      "componentType": 5126,
      "count": 24,
      "min": [
        -37.224998474121094,
        -8.085450172424316,
        0.09999849647283554
      ],
      "max": [
        37.71500015258789,
        6.504879951477051,
        5.564000129699707
      ],
      "type": "VEC3",
      "bufferView": 0,
      "byteOffset": 1296
    },
    {
      "name": "Group_MatrixTransform_i96143_Geometry_4-Mesh_normals",
      "componentType": 5126,
      "count": 24,
      "min": [
        -0.03587900474667549,
        -0.9993615746498108,
        -0.00009010530629893765
      ],
      "max": [
        0.03578268364071846,
        0.9993561506271362,
        0
      ],
      "type": "VEC3",
      "bufferView": 0,
      "byteOffset": 3168
    },
    {
      "name": "Group_MatrixTransform_i96143_Geometry_4-Mesh_texcoords",
      "componentType": 5126,
      "count": 24,
      "min": [
        -0.14038099348545074,
        0
      ],
      "max": [
        4.997499942779541,
        1
      ],
      "type": "VEC2",
      "bufferView": 1,
      "byteOffset": 864
    },
    {
      "name": "Group_MatrixTransform_i96143_Geometry_4-Mesh_0_indices",
      "componentType": 5123,
      "count": 24,
      "min": [
        0
      ],
      "max": [
        23
      ],
      "type": "SCALAR",
      "bufferView": 2,
      "byteOffset": 216
    },
    {
      "name": "Group_MatrixTransform_i96143_Geometry_5-Mesh_positions",
      "componentType": 5126,
      "count": 12,
      "min": [
        -37.71500015258789,
        -8.085450172424316,
        5.564000129699707
      ],
      "max": [
        37.71500015258789,
        8.084959983825684,
        6.379000186920166
      ],
      "type": "VEC3",
      "bufferView": 0,
      "byteOffset": 1584
    },
    {
      "name": "Group_MatrixTransform_i96143_Geometry_5-Mesh_normals",
      "componentType": 5126,
      "count": 12,
      "min": [
        -0.004279801156371832,
        -0.12005104869604111,
        0.9927583932876587
      ],
      "max": [
        0.004297412000596523,
        0.11959001421928406,
        0.9928151965141296
      ],
      "type": "VEC3",
      "bufferView": 0,
      "byteOffset": 3456
    },
    {
      "name": "Group_MatrixTransform_i96143_Geometry_5-Mesh_texcoords",
      "componentType": 5126,
      "count": 12,
      "min": [
        0.007295169867575169,
        0.04297199845314026
      ],
      "max": [
        0.9994180202484131,
        1
      ],
      "type": "VEC2",
      "bufferView": 1,
      "byteOffset": 1056
    },
    {
      "name": "Group_MatrixTransform_i96143_Geometry_5-Mesh_0_indices",
      "componentType": 5123,
      "count": 12,
      "min": [
        0
      ],
      "max": [
        11
      ],
      "type": "SCALAR",
      "bufferView": 2,
      "byteOffset": 264
    },
    {
      "name": "Group_MatrixTransform_i96143_Geometry_6-Mesh_positions",
      "componentType": 5126,
      "count": 12,
      "min": [
        1.4350600242614746,
        -7.425290107727051,
        4.735300064086914
      ],
      "max": [
        29.114999771118164,
        -5.29541015625,
        4.780200004577637
      ],
      "type": "VEC3",
      "bufferView": 0,
      "byteOffset": 1728
    },
    {
      "name": "Group_MatrixTransform_i96143_Geometry_6-Mesh_normals",
      "componentType": 5126,
      "count": 12,
      "min": [
        0,
        0,
        1
      ],
      "max": [
        0,
        0,
        1
      ],
      "type": "VEC3",
      "bufferView": 0,
      "byteOffset": 3600
    },
    {
      "name": "Group_MatrixTransform_i96143_Geometry_6-Mesh_texcoords",
      "componentType": 5126,
      "count": 12,
      "min": [
        0,
        0.004294999875128269
      ],
      "max": [
        0.9899970293045044,
        1
      ],
      "type": "VEC2",
      "bufferView": 1,
      "byteOffset": 1152
    },
    {
      "name": "Group_MatrixTransform_i96143_Geometry_6-Mesh_0_indices",
      "componentType": 5123,
      "count": 12,
      "min": [
        0
      ],
      "max": [
        11
      ],
      "type": "SCALAR",
      "bufferView": 2,
      "byteOffset": 288
    }
  ],
  "asset": {
    "generator": "obj2gltf",
    "version": "2.0"
  },
  "buffers": [
    {
      "name": "i96143",
      "byteLength": 167336,
      "uri": "data:application/octet-stream;base64,"
    }
  ],
  "bufferViews": [
    {
      "name": "bufferView_0",
      "buffer": 0,
      "byteLength": 3744,
      "byteOffset": 0,
      "byteStride": 12,
      "target": 34962
    },
    {
      "name": "bufferView_1",
      "buffer": 0,
      "byteLength": 1248,
      "byteOffset": 3744,
      "byteStride": 8,
      "target": 34962
    },
    {
      "name": "bufferView_2",
      "buffer": 0,
      "byteLength": 312,
      "byteOffset": 4992,
      "target": 34963
    },
    {
      "buffer": 0,
      "byteOffset": 5304,
      "byteLength": 15526
    },
    {
      "buffer": 0,
      "byteOffset": 20830,
      "byteLength": 15299
    },
    {
      "buffer": 0,
      "byteOffset": 36129,
      "byteLength": 11413
    },
    {
      "buffer": 0,
      "byteOffset": 47542,
      "byteLength": 18945
    },
    {
      "buffer": 0,
      "byteOffset": 66487,
      "byteLength": 18801
    },
    {
      "buffer": 0,
      "byteOffset": 85288,
      "byteLength": 58090
    },
    {
      "buffer": 0,
      "byteOffset": 143378,
      "byteLength": 23957
    }
  ],
  "images": [
    {
      "name": "i9600427_j",
      "mimeType": "image/png",
      "bufferView": 3
    },
    {
      "name": "i9600374_j",
      "mimeType": "image/png",
      "bufferView": 4
    },
    {
      "name": "i9600311_j",
      "mimeType": "image/png",
      "bufferView": 5
    },
    {
      "name": "i9600376_j",
      "mimeType": "image/png",
      "bufferView": 6
    },
    {
      "name": "i9600373_j",
      "mimeType": "image/png",
      "bufferView": 7
    },
    {
      "name": "i96_h182_b",
      "mimeType": "image/png",
      "bufferView": 8
    },
    {
      "name": "i9600002_b",
      "mimeType": "image/png",
      "bufferView": 9
    }
  ],
  "materials": [
    {
      "name": "material_233",
      "pbrMetallicRoughness": {
        "baseColorTexture": {
          "index": 0
        },
        "baseColorFactor": [
          1,
          1,
          1,
          1
        ],
        "metallicFactor": 0,
        "roughnessFactor": 1
      },
      "emissiveFactor": [
        0,
        0,
        0
      ],
      "alphaMode": "OPAQUE",
      "doubleSided": false
    },
    {
      "name": "material_234",
      "pbrMetallicRoughness": {
        "baseColorTexture": {
          "index": 1
        },
        "baseColorFactor": [
          1,
          1,
          1,
          1
        ],
        "metallicFactor": 0,
        "roughnessFactor": 1
      },
      "emissiveFactor": [
        0,
        0,
        0
      ],
      "alphaMode": "OPAQUE",
      "doubleSided": false
    },
    {
      "name": "material_235",
      "pbrMetallicRoughness": {
        "baseColorTexture": {
          "index": 2
        },
        "baseColorFactor": [
          1,
          1,
          1,
          1
        ],
        "metallicFactor": 0,
        "roughnessFactor": 1
      },
      "emissiveFactor": [
        0,
        0,
        0
      ],
      "alphaMode": "OPAQUE",
      "doubleSided": false
    },
    {
      "name": "material_236",
      "pbrMetallicRoughness": {
        "baseColorTexture": {
          "index": 3
        },
        "baseColorFactor": [
          1,
          1,
          1,
          1
        ],
        "metallicFactor": 0,
        "roughnessFactor": 1
      },
      "emissiveFactor": [
        0,
        0,
        0
      ],
      "alphaMode": "OPAQUE",
      "doubleSided": false
    },
    {
      "name": "material_237",
      "pbrMetallicRoughness": {
        "baseColorTexture": {
          "index": 4
        },
        "baseColorFactor": [
          1,
          1,
          1,
          1
        ],
        "metallicFactor": 0,
        "roughnessFactor": 1
      },
      "emissiveFactor": [
        0,
        0,
        0
      ],
      "alphaMode": "OPAQUE",
      "doubleSided": false
    },
    {
      "name": "material_238",
      "pbrMetallicRoughness": {
        "baseColorTexture": {
          "index": 5
        },
        "baseColorFactor": [
          1,
          1,
          1,
          1
        ],
        "metallicFactor": 0,
        "roughnessFactor": 1
      },
      "emissiveFactor": [
        0,
        0,
        0
      ],
      "alphaMode": "OPAQUE",
      "doubleSided": false
    },
    {
      "name": "material_239",
      "pbrMetallicRoughness": {
        "baseColorTexture": {
          "index": 6
        },
        "baseColorFactor": [
          1,
          1,
          1,
          1
        ],
        "metallicFactor": 0,
        "roughnessFactor": 1
      },
      "emissiveFactor": [
        0,
        0,
        0
      ],
      "alphaMode": "OPAQUE",
      "doubleSided": false
    }
  ],
  "meshes": [
    {
      "name": "Group_MatrixTransform_i96143_Geometry_0-Mesh",
      "primitives": [
        {
          "attributes": {
            "POSITION": 0,
            "NORMAL": 1,
            "TEXCOORD_0": 2
          },
          "indices": 3,
          "material": 0,
          "mode": 4
        }
      ]
    },
    {
      "name": "Group_MatrixTransform_i96143_Geometry_1-Mesh",
      "primitives": [
        {
          "attributes": {
            "POSITION": 4,
            "NORMAL": 5,
            "TEXCOORD_0": 6
          },
          "indices": 7,
          "material": 1,
          "mode": 4
        }
      ]
    },
    {
      "name": "Group_MatrixTransform_i96143_Geometry_2-Mesh",
      "primitives": [
        {
          "attributes": {
            "POSITION": 8,
            "NORMAL": 9,
            "TEXCOORD_0": 10
          },
          "indices": 11,
          "material": 2,
          "mode": 4
        }
      ]
    },
    {
      "name": "Group_MatrixTransform_i96143_Geometry_3-Mesh",
      "primitives": [
        {
          "attributes": {
            "POSITION": 12,
            "NORMAL": 13,
            "TEXCOORD_0": 14
          },
          "indices": 15,
          "material": 3,
          "mode": 4
        }
      ]
    },
    {
      "name": "Group_MatrixTransform_i96143_Geometry_4-Mesh",
      "primitives": [
        {
          "attributes": {
            "POSITION": 16,
            "NORMAL": 17,
            "TEXCOORD_0": 18
          },
          "indices": 19,
          "material": 4,
          "mode": 4
        }
      ]
    },
    {
      "name": "Group_MatrixTransform_i96143_Geometry_5-Mesh",
      "primitives": [
        {
          "attributes": {
            "POSITION": 20,
            "NORMAL": 21,
            "TEXCOORD_0": 22
          },
          "indices": 23,
          "material": 5,
          "mode": 4
        }
      ]
    },
    {
      "name": "Group_MatrixTransform_i96143_Geometry_6-Mesh",
      "primitives": [
        {
          "attributes": {
            "POSITION": 24,
            "NORMAL": 25,
            "TEXCOORD_0": 26
          },
          "indices": 27,
          "material": 6,
          "mode": 4
        }
      ]
    }
  ],
  "nodes": [
    {
      "name": "Group_MatrixTransform_i96143_Geometry_0",
      "mesh": 0
    },
    {
      "name": "Group_MatrixTransform_i96143_Geometry_1",
      "mesh": 1
    },
    {
      "name": "Group_MatrixTransform_i96143_Geometry_2",
      "mesh": 2
    },
    {
      "name": "Group_MatrixTransform_i96143_Geometry_3",
      "mesh": 3
    },
    {
      "name": "Group_MatrixTransform_i96143_Geometry_4",
      "mesh": 4
    },
    {
      "name": "Group_MatrixTransform_i96143_Geometry_5",
      "mesh": 5
    },
    {
      "name": "Group_MatrixTransform_i96143_Geometry_6",
      "mesh": 6
    }
  ],
  "samplers": [
    {
      "magFilter": 9729,
      "minFilter": 9986,
      "wrapS": 10497,
      "wrapT": 10497
    }
  ],
  "scene": 0,
  "scenes": [
    {
      "nodes": [
        0,
        1,
        2,
        3,
        4,
        5,
        6
      ]
    }
  ],
  "textures": [
    {
      "name": "i9600427_j",
      "sampler": 0,
      "source": 0
    },
    {
      "name": "i9600374_j",
      "sampler": 0,
      "source": 1
    },
    {
      "name": "i9600311_j",
      "sampler": 0,
      "source": 2
    },
    {
      "name": "i9600376_j",
      "sampler": 0,
      "source": 3
    },
    {
      "name": "i9600373_j",
      "sampler": 0,
      "source": 4
    },
    {
      "name": "i96_h182_b",
      "sampler": 0,
      "source": 5
    },
    {
      "name": "i9600002_b",
      "sampler": 0,
      "source": 6
    }
  ]
}
