{
  "accessors": [
    {
      "name": "Group__Geometry_0-Mesh_positions",
      "componentType": 5126,
      "count": 108,
      "min": [
        -187.1999969482422,
        -230.03700256347656,
        0
      ],
      "max": [
        -153.91099548339844,
        214.52200317382812,
        5
      ],
      "type": "VEC3",
      "bufferView": 0,
      "byteOffset": 0
    },
    {
      "name": "Group__Geometry_0-Mesh_texcoords",
      "componentType": 5126,
      "count": 108,
      "min": [
        0,
        0
      ],
      "max": [
        1,
        1
      ],
      "type": "VEC2",
      "bufferView": 1,
      "byteOffset": 0
    },
    {
      "name": "Group__Geometry_0-Mesh_0_indices",
      "componentType": 5123,
      "count": 108,
      "min": [
        0
      ],
      "max": [
        107
      ],
      "type": "SCALAR",
      "bufferView": 2,
      "byteOffset": 0
    },
    {
      "name": "Group__Geometry_1-Mesh_positions",
      "componentType": 5126,
      "count": 36,
      "min": [
        -187.1999969482422,
        -230.03700256347656,
        0
      ],
      "max": [
        -153.91099548339844,
        214.52200317382812,
        0
      ],
      "type": "VEC3",
      "bufferView": 0,
      "byteOffset": 1296
    },
    {
      "name": "Group__Geometry_1-Mesh_texcoords",
      "componentType": 5126,
      "count": 36,
      "min": [
        0,
        0
      ],
      "max": [
        1,
        1
      ],
      "type": "VEC2",
      "bufferView": 1,
      "byteOffset": 864
    },
    {
      "name": "Group__Geometry_1-Mesh_0_indices",
      "componentType": 5123,
      "count": 36,
      "min": [
        0
      ],
      "max": [
        35
      ],
      "type": "SCALAR",
      "bufferView": 2,
      "byteOffset": 216
    },
    {
      "name": "Group__Geometry_2-Mesh_positions",
      "componentType": 5126,
      "count": 72,
      "min": [
        -119.06600189208984,
        -236.0240020751953,
        0
      ],
      "max": [
        -69.56700134277344,
        206.42599487304688,
        5
      ],
      "type": "VEC3",
      "bufferView": 0,
      "byteOffset": 1728
    },
    {
      "name": "Group__Geometry_2-Mesh_texcoords",
      "componentType": 5126,
      "count": 72,
      "min": [
        0,
        0
      ],
      "max": [
        1,
        1
      ],
      "type": "VEC2",
      "bufferView": 1,
      "byteOffset": 1152
    },
    {
      "name": "Group__Geometry_2-Mesh_0_indices",
      "componentType": 5123,
      "count": 72,
      "min": [
        0
      ],
      "max": [
        71
      ],
      "type": "SCALAR",
      "bufferView": 2,
      "byteOffset": 288
    },
    {
      "name": "Group__Geometry_3-Mesh_positions",
      "componentType": 5126,
      "count": 24,
      "min": [
        -119.06600189208984,
        -236.0240020751953,
        0
      ],
      "max": [
        -69.56700134277344,
        206.42599487304688,
        0
      ],
      "type": "VEC3",
      "bufferView": 0,
      "byteOffset": 2592
    },
    {
      "name": "Group__Geometry_3-Mesh_texcoords",
      "componentType": 5126,
      "count": 24,
      "min": [
        0,
        0
      ],
      "max": [
        1,
        1
      ],
      "type": "VEC2",
      "bufferView": 1,
      "byteOffset": 1728
    },
    {
      "name": "Group__Geometry_3-Mesh_0_indices",
      "componentType": 5123,
      "count": 24,
      "min": [
        0
      ],
      "max": [
        23
      ],
      "type": "SCALAR",
      "bufferView": 2,
      "byteOffset": 432
    },
    {
      "name": "Group__Geometry_4-Mesh_positions",
      "componentType": 5126,
      "count": 72,
      "min": [
        -21.249799728393555,
        -264.4419860839844,
        0
      ],
      "max": [
        14.105299949645996,
        201.02999877929688,
        5
      ],
      "type": "VEC3",
      "bufferView": 0,
      "byteOffset": 2880
    },
    {
      "name": "Group__Geometry_4-Mesh_texcoords",
      "componentType": 5126,
      "count": 72,
      "min": [
        0,
        0
      ],
      "max": [
        1,
        1
      ],
      "type": "VEC2",
      "bufferView": 1,
      "byteOffset": 1920
    },
    {
      "name": "Group__Geometry_4-Mesh_0_indices",
      "componentType": 5123,
      "count": 72,
      "min": [
        0
      ],
      "max": [
        71
      ],
      "type": "SCALAR",
      "bufferView": 2,
      "byteOffset": 480
    },
    {
      "name": "Group__Geometry_5-Mesh_positions",
      "componentType": 5126,
      "count": 24,
      "min": [
        -21.249799728393555,
        -264.4419860839844,
        0
      ],
      "max": [
        14.105299949645996,
        201.02999877929688,
        0
      ],
      "type": "VEC3",
      "bufferView": 0,
      "byteOffset": 3744
    },
    {
      "name": "Group__Geometry_5-Mesh_texcoords",
      "componentType": 5126,
      "count": 24,
      "min": [
        0,
        0
      ],
      "max": [
        1,
        1
      ],
      "type": "VEC2",
      "bufferView": 1,
      "byteOffset": 2496
    },
    {
      "name": "Group__Geometry_5-Mesh_0_indices",
      "componentType": 5123,
      "count": 24,
      "min": [
        0
      ],
      "max": [
        23
      ],
      "type": "SCALAR",
      "bufferView": 2,
      "byteOffset": 624
    },
    {
      "name": "Group__Geometry_6-Mesh_positions",
      "componentType": 5126,
      "count": 54,
      "min": [
        86.68560028076172,
        -249.875,
        0
      ],
      "max": [
        121.35900115966797,
        188.21200561523438,
        5
      ],
      "type": "VEC3",
      "bufferView": 0,
      "byteOffset": 4032
    },
    {
      "name": "Group__Geometry_6-Mesh_texcoords",
      "componentType": 5126,
      "count": 54,
      "min": [
        0,
        0
      ],
      "max": [
        1,
        1
      ],
      "type": "VEC2",
      "bufferView": 1,
      "byteOffset": 2688
    },
    {
      "name": "Group__Geometry_6-Mesh_0_indices",
      "componentType": 5123,
      "count": 54,
      "min": [
        0
      ],
      "max": [
        53
      ],
      "type": "SCALAR",
      "bufferView": 2,
      "byteOffset": 672
    },
    {
      "name": "Group__Geometry_7-Mesh_positions",
      "componentType": 5126,
      "count": 18,
      "min": [
        86.68560028076172,
        -249.875,
        0
      ],
      "max": [
        121.35900115966797,
        188.21200561523438,
        0
      ],
      "type": "VEC3",
      "bufferView": 0,
      "byteOffset": 4680
    },
    {
      "name": "Group__Geometry_7-Mesh_texcoords",
      "componentType": 5126,
      "count": 18,
      "min": [
        0,
        0
      ],
      "max": [
        1,
        1
      ],
      "type": "VEC2",
      "bufferView": 1,
      "byteOffset": 3120
    },
    {
      "name": "Group__Geometry_7-Mesh_0_indices",
      "componentType": 5123,
      "count": 18,
      "min": [
        0
      ],
      "max": [
        17
      ],
      "type": "SCALAR",
      "bufferView": 2,
      "byteOffset": 780
    },
    {
      "name": "Group__Geometry_8-Mesh_positions",
      "componentType": 5126,
      "count": 54,
      "min": [
        175.73199462890625,
        -267.6520080566406,
        0
      ],
      "max": [
        206.29800415039062,
        196.3070068359375,
        5
      ],
      "type": "VEC3",
      "bufferView": 0,
      "byteOffset": 4896
    },
    {
      "name": "Group__Geometry_8-Mesh_texcoords",
      "componentType": 5126,
      "count": 54,
      "min": [
        0,
        0
      ],
      "max": [
        1,
        1
      ],
      "type": "VEC2",
      "bufferView": 1,
      "byteOffset": 3264
    },
    {
      "name": "Group__Geometry_8-Mesh_0_indices",
      "componentType": 5123,
      "count": 54,
      "min": [
        0
      ],
      "max": [
        53
      ],
      "type": "SCALAR",
      "bufferView": 2,
      "byteOffset": 816
    },
    {
      "name": "Group__Geometry_9-Mesh_positions",
      "componentType": 5126,
      "count": 18,
      "min": [
        175.73199462890625,
        -267.6520080566406,
        0
      ],
      "max": [
        206.29800415039062,
        196.3070068359375,
        0
      ],
      "type": "VEC3",
      "bufferView": 0,
      "byteOffset": 5544
    },
    {
      "name": "Group__Geometry_9-Mesh_texcoords",
      "componentType": 5126,
      "count": 18,
      "min": [
        0,
        0
      ],
      "max": [
        1,
        1
      ],
      "type": "VEC2",
      "bufferView": 1,
      "byteOffset": 3696
    },
    {
      "name": "Group__Geometry_9-Mesh_0_indices",
      "componentType": 5123,
      "count": 18,
      "min": [
        0
      ],
      "max": [
        17
      ],
      "type": "SCALAR",
      "bufferView": 2,
      "byteOffset": 924
    },
    {
      "name": "Group__Geometry_10-Mesh_positions",
      "componentType": 5126,
      "count": 72,
      "min": [
        -270.8500061035156,
        122.7770004272461,
        0
      ],
      "max": [
        227.0019989013672,
        151.38699340820312,
        5
      ],
      "type": "VEC3",
      "bufferView": 0,
      "byteOffset": 5760
    },
    {
      "name": "Group__Geometry_10-Mesh_texcoords",
      "componentType": 5126,
      "count": 72,
      "min": [
        0,
        0
      ],
      "max": [
        1,
        1
      ],
      "type": "VEC2",
      "bufferView": 1,
      "byteOffset": 3840
    },
    {
      "name": "Group__Geometry_10-Mesh_0_indices",
      "componentType": 5123,
      "count": 72,
      "min": [
        0
      ],
      "max": [
        71
      ],
      "type": "SCALAR",
      "bufferView": 2,
      "byteOffset": 960
    },
    {
      "name": "Group__Geometry_11-Mesh_positions",
      "componentType": 5126,
      "count": 24,
      "min": [
        -270.8500061035156,
        122.7770004272461,
        0
      ],
      "max": [
        227.0019989013672,
        151.38699340820312,
        0
      ],
      "type": "VEC3",
      "bufferView": 0,
      "byteOffset": 6624
    },
    {
      "name": "Group__Geometry_11-Mesh_texcoords",
      "componentType": 5126,
      "count": 24,
      "min": [
        0,
        0
      ],
      "max": [
        1,
        1
      ],
      "type": "VEC2",
      "bufferView": 1,
      "byteOffset": 4416
    },
    {
      "name": "Group__Geometry_11-Mesh_0_indices",
      "componentType": 5123,
      "count": 24,
      "min": [
        0
      ],
      "max": [
        23
      ],
      "type": "SCALAR",
      "bufferView": 2,
      "byteOffset": 1104
    },
    {
      "name": "Group__Geometry_12-Mesh_positions",
      "componentType": 5126,
      "count": 90,
      "min": [
        -266.3840026855469,
        -5.6631598472595215,
        0
      ],
      "max": [
        267.47698974609375,
        39.80120086669922,
        5
      ],
      "type": "VEC3",
      "bufferView": 0,
      "byteOffset": 6912
    },
    {
      "name": "Group__Geometry_12-Mesh_texcoords",
      "componentType": 5126,
      "count": 90,
      "min": [
        0,
        0
      ],
      "max": [
        1,
        1
      ],
      "type": "VEC2",
      "bufferView": 1,
      "byteOffset": 4608
    },
    {
      "name": "Group__Geometry_12-Mesh_0_indices",
      "componentType": 5123,
      "count": 90,
      "min": [
        0
      ],
      "max": [
        89
      ],
      "type": "SCALAR",
      "bufferView": 2,
      "byteOffset": 1152
    },
    {
      "name": "Group__Geometry_13-Mesh_positions",
      "componentType": 5126,
      "count": 30,
      "min": [
        -266.3840026855469,
        -5.6631598472595215,
        0
      ],
      "max": [
        267.47698974609375,
        39.80120086669922,
        0
      ],
      "type": "VEC3",
      "bufferView": 0,
      "byteOffset": 7992
    },
    {
      "name": "Group__Geometry_13-Mesh_texcoords",
      "componentType": 5126,
      "count": 30,
      "min": [
        0,
        0
      ],
      "max": [
        1,
        1
      ],
      "type": "VEC2",
      "bufferView": 1,
      "byteOffset": 5328
    },
    {
      "name": "Group__Geometry_13-Mesh_0_indices",
      "componentType": 5123,
      "count": 30,
      "min": [
        0
      ],
      "max": [
        29
      ],
      "type": "SCALAR",
      "bufferView": 2,
      "byteOffset": 1332
    },
    {
      "name": "Group__Geometry_14-Mesh_positions",
      "componentType": 5126,
      "count": 162,
      "min": [
        -305.50201416015625,
        -163.927001953125,
        0
      ],
      "max": [
        278.27099609375,
        -114.25399780273438,
        5
      ],
      "type": "VEC3",
      "bufferView": 0,
      "byteOffset": 8352
    },
    {
      "name": "Group__Geometry_14-Mesh_texcoords",
      "componentType": 5126,
      "count": 162,
      "min": [
        0,
        0
      ],
      "max": [
        1,
        1
      ],
      "type": "VEC2",
      "bufferView": 1,
      "byteOffset": 5568
    },
    {
      "name": "Group__Geometry_14-Mesh_0_indices",
      "componentType": 5123,
      "count": 162,
      "min": [
        0
      ],
      "max": [
        161
      ],
      "type": "SCALAR",
      "bufferView": 2,
      "byteOffset": 1392
    },
    {
      "name": "Group__Geometry_15-Mesh_positions",
      "componentType": 5126,
      "count": 54,
      "min": [
        -305.50201416015625,
        -163.927001953125,
        0
      ],
      "max": [
        278.27099609375,
        -114.25399780273438,
        0
      ],
      "type": "VEC3",
      "bufferView": 0,
      "byteOffset": 10296
    },
    {
      "name": "Group__Geometry_15-Mesh_texcoords",
      "componentType": 5126,
      "count": 54,
      "min": [
        0,
        0
      ],
      "max": [
        1,
        1
      ],
      "type": "VEC2",
      "bufferView": 1,
      "byteOffset": 6864
    },
    {
      "name": "Group__Geometry_15-Mesh_0_indices",
      "componentType": 5123,
      "count": 54,
      "min": [
        0
      ],
      "max": [
        53
      ],
      "type": "SCALAR",
      "bufferView": 2,
      "byteOffset": 1716
    },
    {
      "name": "Group__Geometry_16-Mesh_positions",
      "componentType": 5126,
      "count": 126,
      "min": [
        -304.33599853515625,
        -254.9969940185547,
        0
      ],
      "max": [
        309.302001953125,
        -205.38299560546875,
        5
      ],
      "type": "VEC3",
      "bufferView": 0,
      "byteOffset": 10944
    },
    {
      "name": "Group__Geometry_16-Mesh_texcoords",
      "componentType": 5126,
      "count": 126,
      "min": [
        0,
        0
      ],
      "max": [
        1,
        1
      ],
      "type": "VEC2",
      "bufferView": 1,
      "byteOffset": 7296
    },
    {
      "name": "Group__Geometry_16-Mesh_0_indices",
      "componentType": 5123,
      "count": 126,
      "min": [
        0
      ],
      "max": [
        125
      ],
      "type": "SCALAR",
      "bufferView": 2,
      "byteOffset": 1824
    },
    {
      "name": "Group__Geometry_17-Mesh_positions",
      "componentType": 5126,
      "count": 42,
      "min": [
        -304.33599853515625,
        -254.9969940185547,
        0
      ],
      "max": [
        309.302001953125,
        -205.38299560546875,
        0
      ],
      "type": "VEC3",
      "bufferView": 0,
      "byteOffset": 12456
    },
    {
      "name": "Group__Geometry_17-Mesh_texcoords",
      "componentType": 5126,
      "count": 42,
      "min": [
        0,
        0
      ],
      "max": [
        1,
        1
      ],
      "type": "VEC2",
      "bufferView": 1,
      "byteOffset": 8304
    },
    {
      "name": "Group__Geometry_17-Mesh_0_indices",
      "componentType": 5123,
      "count": 42,
      "min": [
        0
      ],
      "max": [
        41
      ],
      "type": "SCALAR",
      "bufferView": 2,
      "byteOffset": 2076
    }
  ],
  "asset": {
    "generator": "obj2gltf",
    "version": "2.0"
  },
  "buffers": [
    {
      "name": "2222",
      "byteLength": 975788,
      "uri": "data:application/octet-stream;base64,"
    }
  ],
  "bufferViews": [
    {
      "name": "bufferView_0",
      "buffer": 0,
      "byteLength": 12960,
      "byteOffset": 0,
      "byteStride": 12,
      "target": 34962
    },
    {
      "name": "bufferView_1",
      "buffer": 0,
      "byteLength": 8640,
      "byteOffset": 12960,
      "byteStride": 8,
      "target": 34962
    },
    {
      "name": "bufferView_2",
      "buffer": 0,
      "byteLength": 2160,
      "byteOffset": 21600,
      "target": 34963
    },
    {
      "buffer": 0,
      "byteOffset": 23760,
      "byteLength": 310448
    },
    {
      "buffer": 0,
      "byteOffset": 334208,
      "byteLength": 641577
    }
  ],
  "images": [
    {
      "name": "side",
      "mimeType": "image/jpeg",
      "bufferView": 3
    },
    {
      "name": "groud",
      "mimeType": "image/jpeg",
      "bufferView": 4
    }
  ],
  "materials": [
    {
      "name": "material_1",
      "pbrMetallicRoughness": {
        "baseColorTexture": {
          "index": 0
        },
        "baseColorFactor": [
          1,
          1,
          1,
          1
        ],
        "metallicFactor": 0,
        "roughnessFactor": 1
      },
      "emissiveFactor": [
        0,
        0,
        0
      ],
      "alphaMode": "OPAQUE",
      "doubleSided": false
    },
    {
      "name": "material_2",
      "pbrMetallicRoughness": {
        "baseColorTexture": {
          "index": 1
        },
        "baseColorFactor": [
          1,
          1,
          1,
          1
        ],
        "metallicFactor": 0,
        "roughnessFactor": 1
      },
      "emissiveFactor": [
        0,
        0,
        0
      ],
      "alphaMode": "OPAQUE",
      "doubleSided": false
    }
  ],
  "meshes": [
    {
      "name": "Group__Geometry_0-Mesh",
      "primitives": [
        {
          "attributes": {
            "POSITION": 0,
            "TEXCOORD_0": 1
          },
          "indices": 2,
          "material": 0,
          "mode": 4
        }
      ]
    },
    {
      "name": "Group__Geometry_1-Mesh",
      "primitives": [
        {
          "attributes": {
            "POSITION": 3,
            "TEXCOORD_0": 4
          },
          "indices": 5,
          "material": 1,
          "mode": 4
        }
      ]
    },
    {
      "name": "Group__Geometry_2-Mesh",
      "primitives": [
        {
          "attributes": {
            "POSITION": 6,
            "TEXCOORD_0": 7
          },
          "indices": 8,
          "material": 0,
          "mode": 4
        }
      ]
    },
    {
      "name": "Group__Geometry_3-Mesh",
      "primitives": [
        {
          "attributes": {
            "POSITION": 9,
            "TEXCOORD_0": 10
          },
          "indices": 11,
          "material": 1,
          "mode": 4
        }
      ]
    },
    {
      "name": "Group__Geometry_4-Mesh",
      "primitives": [
        {
          "attributes": {
            "POSITION": 12,
            "TEXCOORD_0": 13
          },
          "indices": 14,
          "material": 0,
          "mode": 4
        }
      ]
    },
    {
      "name": "Group__Geometry_5-Mesh",
      "primitives": [
        {
          "attributes": {
            "POSITION": 15,
            "TEXCOORD_0": 16
          },
          "indices": 17,
          "material": 1,
          "mode": 4
        }
      ]
    },
    {
      "name": "Group__Geometry_6-Mesh",
      "primitives": [
        {
          "attributes": {
            "POSITION": 18,
            "TEXCOORD_0": 19
          },
          "indices": 20,
          "material": 0,
          "mode": 4
        }
      ]
    },
    {
      "name": "Group__Geometry_7-Mesh",
      "primitives": [
        {
          "attributes": {
            "POSITION": 21,
            "TEXCOORD_0": 22
          },
          "indices": 23,
          "material": 1,
          "mode": 4
        }
      ]
    },
    {
      "name": "Group__Geometry_8-Mesh",
      "primitives": [
        {
          "attributes": {
            "POSITION": 24,
            "TEXCOORD_0": 25
          },
          "indices": 26,
          "material": 0,
          "mode": 4
        }
      ]
    },
    {
      "name": "Group__Geometry_9-Mesh",
      "primitives": [
        {
          "attributes": {
            "POSITION": 27,
            "TEXCOORD_0": 28
          },
          "indices": 29,
          "material": 1,
          "mode": 4
        }
      ]
    },
    {
      "name": "Group__Geometry_10-Mesh",
      "primitives": [
        {
          "attributes": {
            "POSITION": 30,
            "TEXCOORD_0": 31
          },
          "indices": 32,
          "material": 0,
          "mode": 4
        }
      ]
    },
    {
      "name": "Group__Geometry_11-Mesh",
      "primitives": [
        {
          "attributes": {
            "POSITION": 33,
            "TEXCOORD_0": 34
          },
          "indices": 35,
          "material": 1,
          "mode": 4
        }
      ]
    },
    {
      "name": "Group__Geometry_12-Mesh",
      "primitives": [
        {
          "attributes": {
            "POSITION": 36,
            "TEXCOORD_0": 37
          },
          "indices": 38,
          "material": 0,
          "mode": 4
        }
      ]
    },
    {
      "name": "Group__Geometry_13-Mesh",
      "primitives": [
        {
          "attributes": {
            "POSITION": 39,
            "TEXCOORD_0": 40
          },
          "indices": 41,
          "material": 1,
          "mode": 4
        }
      ]
    },
    {
      "name": "Group__Geometry_14-Mesh",
      "primitives": [
        {
          "attributes": {
            "POSITION": 42,
            "TEXCOORD_0": 43
          },
          "indices": 44,
          "material": 0,
          "mode": 4
        }
      ]
    },
    {
      "name": "Group__Geometry_15-Mesh",
      "primitives": [
        {
          "attributes": {
            "POSITION": 45,
            "TEXCOORD_0": 46
          },
          "indices": 47,
          "material": 1,
          "mode": 4
        }
      ]
    },
    {
      "name": "Group__Geometry_16-Mesh",
      "primitives": [
        {
          "attributes": {
            "POSITION": 48,
            "TEXCOORD_0": 49
          },
          "indices": 50,
          "material": 0,
          "mode": 4
        }
      ]
    },
    {
      "name": "Group__Geometry_17-Mesh",
      "primitives": [
        {
          "attributes": {
            "POSITION": 51,
            "TEXCOORD_0": 52
          },
          "indices": 53,
          "material": 1,
          "mode": 4
        }
      ]
    }
  ],
  "nodes": [
    {
      "name": "Group__Geometry_0",
      "mesh": 0
    },
    {
      "name": "Group__Geometry_1",
      "mesh": 1
    },
    {
      "name": "Group__Geometry_2",
      "mesh": 2
    },
    {
      "name": "Group__Geometry_3",
      "mesh": 3
    },
    {
      "name": "Group__Geometry_4",
      "mesh": 4
    },
    {
      "name": "Group__Geometry_5",
      "mesh": 5
    },
    {
      "name": "Group__Geometry_6",
      "mesh": 6
    },
    {
      "name": "Group__Geometry_7",
      "mesh": 7
    },
    {
      "name": "Group__Geometry_8",
      "mesh": 8
    },
    {
      "name": "Group__Geometry_9",
      "mesh": 9
    },
    {
      "name": "Group__Geometry_10",
      "mesh": 10
    },
    {
      "name": "Group__Geometry_11",
      "mesh": 11
    },
    {
      "name": "Group__Geometry_12",
      "mesh": 12
    },
    {
      "name": "Group__Geometry_13",
      "mesh": 13
    },
    {
      "name": "Group__Geometry_14",
      "mesh": 14
    },
    {
      "name": "Group__Geometry_15",
      "mesh": 15
    },
    {
      "name": "Group__Geometry_16",
      "mesh": 16
    },
    {
      "name": "Group__Geometry_17",
      "mesh": 17
    }
  ],
  "samplers": [
    {
      "magFilter": 9729,
      "minFilter": 9986,
      "wrapS": 10497,
      "wrapT": 10497
    }
  ],
  "scene": 0,
  "scenes": [
    {
      "nodes": [
        0,
        1,
        2,
        3,
        4,
        5,
        6,
        7,
        8,
        9,
        10,
        11,
        12,
        13,
        14,
        15,
        16,
        17
      ]
    }
  ],
  "textures": [
    {
      "name": "side",
      "sampler": 0,
      "source": 0
    },
    {
      "name": "groud",
      "sampler": 0,
      "source": 1
    }
  ]
}
