{
  "accessors": [
    {
      "name": "Group_MatrixTransform_dashu01_Geometry_0-Mesh_positions",
      "componentType": 5126,
      "count": 675,
      "min": [
        -2.017620086669922,
        -0.7583580017089844,
        -0.028476400300860405
      ],
      "max": [
        3.760319948196411,
        2.5065300464630127,
        9.683059692382812
      ],
      "type": "VEC3",
      "bufferView": 0,
      "byteOffset": 0
    },
    {
      "name": "Group_MatrixTransform_dashu01_Geometry_0-Mesh_normals",
      "componentType": 5126,
      "count": 675,
      "min": [
        -0.9355036616325378,
        -0.9961786270141602,
        -0.9980490207672119
      ],
      "max": [
        0.9970681071281433,
        0.9924713969230652,
        0.9835317730903625
      ],
      "type": "VEC3",
      "bufferView": 0,
      "byteOffset": 18612
    },
    {
      "name": "Group_MatrixTransform_dashu01_Geometry_0-Mesh_texcoords",
      "componentType": 5126,
      "count": 675,
      "min": [
        -5.03918981552124,
        -5.092169761657715
      ],
      "max": [
        6.054580211639404,
        6.092169761657715
      ],
      "type": "VEC2",
      "bufferView": 1,
      "byteOffset": 0
    },
    {
      "name": "Group_MatrixTransform_dashu01_Geometry_0-Mesh_0_indices",
      "componentType": 5123,
      "count": 675,
      "min": [
        0
      ],
      "max": [
        674
      ],
      "type": "SCALAR",
      "bufferView": 2,
      "byteOffset": 0
    },
    {
      "name": "Group_MatrixTransform_dashu01_Geometry_1-Mesh_positions",
      "componentType": 5126,
      "count": 642,
      "min": [
        -6.253870010375977,
        -5.570839881896973,
        1.8828099966049194
      ],
      "max": [
        7.449069976806641,
        7.163529872894287,
        12.40880012512207
      ],
      "type": "VEC3",
      "bufferView": 0,
      "byteOffset": 8100
    },
    {
      "name": "Group_MatrixTransform_dashu01_Geometry_1-Mesh_normals",
      "componentType": 5126,
      "count": 642,
      "min": [
        -0.8174669146537781,
        -0.9360110759735107,
        0.23562224209308624
      ],
      "max": [
        0.8392245769500732,
        0.9582322239875793,
        0.9996955394744873
      ],
      "type": "VEC3",
      "bufferView": 0,
      "byteOffset": 26712
    },
    {
      "name": "Group_MatrixTransform_dashu01_Geometry_1-Mesh_texcoords",
      "componentType": 5126,
      "count": 642,
      "min": [
        0.0004995469935238361,
        0.0004990000161342323
      ],
      "max": [
        0.9994999766349792,
        0.9995005130767822
      ],
      "type": "VEC2",
      "bufferView": 1,
      "byteOffset": 5400
    },
    {
      "name": "Group_MatrixTransform_dashu01_Geometry_1-Mesh_0_indices",
      "componentType": 5123,
      "count": 642,
      "min": [
        0
      ],
      "max": [
        641
      ],
      "type": "SCALAR",
      "bufferView": 2,
      "byteOffset": 1352
    },
    {
      "name": "Group_MatrixTransform_dashu01_Geometry_2-Mesh_positions",
      "componentType": 5126,
      "count": 234,
      "min": [
        -7.1726298332214355,
        -5.58443021774292,
        3.944930076599121
      ],
      "max": [
        6.289010047912598,
        6.03495979309082,
        12.372400283813477
      ],
      "type": "VEC3",
      "bufferView": 0,
      "byteOffset": 15804
    },
    {
      "name": "Group_MatrixTransform_dashu01_Geometry_2-Mesh_normals",
      "componentType": 5126,
      "count": 234,
      "min": [
        -0.7637171745300293,
        -0.9464568495750427,
        0.26400226354599
      ],
      "max": [
        0.5497984290122986,
        0.878101110458374,
        0.9975906014442444
      ],
      "type": "VEC3",
      "bufferView": 0,
      "byteOffset": 34416
    },
    {
      "name": "Group_MatrixTransform_dashu01_Geometry_2-Mesh_texcoords",
      "componentType": 5126,
      "count": 234,
      "min": [
        0,
        0
      ],
      "max": [
        1,
        1
      ],
      "type": "VEC2",
      "bufferView": 1,
      "byteOffset": 10536
    },
    {
      "name": "Group_MatrixTransform_dashu01_Geometry_2-Mesh_0_indices",
      "componentType": 5123,
      "count": 234,
      "min": [
        0
      ],
      "max": [
        233
      ],
      "type": "SCALAR",
      "bufferView": 2,
      "byteOffset": 2636
    }
  ],
  "asset": {
    "generator": "obj2gltf",
    "version": "2.0"
  },
  "buffers": [
    {
      "name": "dashu01",
      "byteLength": 630076,
      "uri": "data:application/octet-stream;base64,"
    }
  ],
  "bufferViews": [
    {
      "name": "bufferView_0",
      "buffer": 0,
      "byteLength": 37224,
      "byteOffset": 0,
      "byteStride": 12,
      "target": 34962
    },
    {
      "name": "bufferView_1",
      "buffer": 0,
      "byteLength": 12408,
      "byteOffset": 37224,
      "byteStride": 8,
      "target": 34962
    },
    {
      "name": "bufferView_2",
      "buffer": 0,
      "byteLength": 3104,
      "byteOffset": 49632,
      "target": 34963
    },
    {
      "buffer": 0,
      "byteOffset": 52736,
      "byteLength": 104438
    },
    {
      "buffer": 0,
      "byteOffset": 157174,
      "byteLength": 344090
    },
    {
      "buffer": 0,
      "byteOffset": 501264,
      "byteLength": 128811
    }
  ],
  "images": [
    {
      "name": "shu_01",
      "mimeType": "image/png",
      "bufferView": 3
    },
    {
      "name": "dashu_01",
      "mimeType": "image/png",
      "bufferView": 4
    },
    {
      "name": "dashu_05",
      "mimeType": "image/png",
      "bufferView": 5
    }
  ],
  "materials": [
    {
      "name": "material_1",
      "pbrMetallicRoughness": {
        "baseColorTexture": {
          "index": 0
        },
        "baseColorFactor": [
          1,
          1,
          1,
          1
        ],
        "metallicFactor": 0,
        "roughnessFactor": 1
      },
      "emissiveFactor": [
        0,
        0,
        0
      ],
      "alphaMode": "OPAQUE",
      "doubleSided": false
    },
    {
      "name": "material_2",
      "pbrMetallicRoughness": {
        "baseColorTexture": {
          "index": 1
        },
        "baseColorFactor": [
          1,
          1,
          1,
          1
        ],
        "metallicFactor": 0,
        "roughnessFactor": 1
      },
      "emissiveFactor": [
        0,
        0,
        0
      ],
      "alphaMode": "BLEND",
      "doubleSided": true
    },
    {
      "name": "material_3",
      "pbrMetallicRoughness": {
        "baseColorTexture": {
          "index": 2
        },
        "baseColorFactor": [
          1,
          1,
          1,
          1
        ],
        "metallicFactor": 0,
        "roughnessFactor": 1
      },
      "emissiveFactor": [
        0,
        0,
        0
      ],
      "alphaMode": "BLEND",
      "doubleSided": true
    }
  ],
  "meshes": [
    {
      "name": "Group_MatrixTransform_dashu01_Geometry_0-Mesh",
      "primitives": [
        {
          "attributes": {
            "POSITION": 0,
            "NORMAL": 1,
            "TEXCOORD_0": 2
          },
          "indices": 3,
          "material": 0,
          "mode": 4
        }
      ]
    },
    {
      "name": "Group_MatrixTransform_dashu01_Geometry_1-Mesh",
      "primitives": [
        {
          "attributes": {
            "POSITION": 4,
            "NORMAL": 5,
            "TEXCOORD_0": 6
          },
          "indices": 7,
          "material": 1,
          "mode": 4
        }
      ]
    },
    {
      "name": "Group_MatrixTransform_dashu01_Geometry_2-Mesh",
      "primitives": [
        {
          "attributes": {
            "POSITION": 8,
            "NORMAL": 9,
            "TEXCOORD_0": 10
          },
          "indices": 11,
          "material": 2,
          "mode": 4
        }
      ]
    }
  ],
  "nodes": [
    {
      "name": "Group_MatrixTransform_dashu01_Geometry_0",
      "mesh": 0
    },
    {
      "name": "Group_MatrixTransform_dashu01_Geometry_1",
      "mesh": 1
    },
    {
      "name": "Group_MatrixTransform_dashu01_Geometry_2",
      "mesh": 2
    }
  ],
  "samplers": [
    {
      "magFilter": 9729,
      "minFilter": 9986,
      "wrapS": 10497,
      "wrapT": 10497
    }
  ],
  "scene": 0,
  "scenes": [
    {
      "nodes": [
        0,
        1,
        2
      ]
    }
  ],
  "textures": [
    {
      "name": "shu_01",
      "sampler": 0,
      "source": 0
    },
    {
      "name": "dashu_01",
      "sampler": 0,
      "source": 1
    },
    {
      "name": "dashu_05",
      "sampler": 0,
      "source": 2
    }
  ]
}
