{
  "accessors": [
    {
      "name": "Group_MatrixTransform_dashu03_Geometry_0-Mesh_positions",
      "componentType": 5126,
      "count": 795,
      "min": [
        -1.8633300065994263,
        -0.7138339877128601,
        -0.02969229966402054
      ],
      "max": [
        3.490410089492798,
        2.462510108947754,
        9.883259773254395
      ],
      "type": "VEC3",
      "bufferView": 0,
      "byteOffset": 0
    },
    {
      "name": "Group_MatrixTransform_dashu03_Geometry_0-Mesh_normals",
      "componentType": 5126,
      "count": 795,
      "min": [
        -0.995038628578186,
        -0.9973049163818359,
        -0.9656745195388794
      ],
      "max": [
        0.9915744066238403,
        0.9932081699371338,
        0.979591429233551
      ],
      "type": "VEC3",
      "bufferView": 0,
      "byteOffset": 19836
    },
    {
      "name": "Group_MatrixTransform_dashu03_Geometry_0-Mesh_texcoords",
      "componentType": 5126,
      "count": 795,
      "min": [
        -7.256120204925537,
        -6.430160045623779
      ],
      "max": [
        8.256119728088379,
        7.430160045623779
      ],
      "type": "VEC2",
      "bufferView": 1,
      "byteOffset": 0
    },
    {
      "name": "Group_MatrixTransform_dashu03_Geometry_0-Mesh_0_indices",
      "componentType": 5123,
      "count": 795,
      "min": [
        0
      ],
      "max": [
        794
      ],
      "type": "SCALAR",
      "bufferView": 2,
      "byteOffset": 0
    },
    {
      "name": "Group_MatrixTransform_dashu03_Geometry_1-Mesh_positions",
      "componentType": 5126,
      "count": 414,
      "min": [
        -5.788569927215576,
        -5.429900169372559,
        2.2133700847625732
      ],
      "max": [
        6.785379886627197,
        5.805960178375244,
        12.620599746704102
      ],
      "type": "VEC3",
      "bufferView": 0,
      "byteOffset": 9540
    },
    {
      "name": "Group_MatrixTransform_dashu03_Geometry_1-Mesh_normals",
      "componentType": 5126,
      "count": 414,
      "min": [
        -0.7757673859596252,
        -0.8687050342559814,
        -0.9966716766357422
      ],
      "max": [
        0.76247239112854,
        0.9728151559829712,
        0.9983863830566406
      ],
      "type": "VEC3",
      "bufferView": 0,
      "byteOffset": 29376
    },
    {
      "name": "Group_MatrixTransform_dashu03_Geometry_1-Mesh_texcoords",
      "componentType": 5126,
      "count": 414,
      "min": [
        0.0004995469935238361,
        0.0004990000161342323
      ],
      "max": [
        0.9994999766349792,
        0.9995005130767822
      ],
      "type": "VEC2",
      "bufferView": 1,
      "byteOffset": 6360
    },
    {
      "name": "Group_MatrixTransform_dashu03_Geometry_1-Mesh_0_indices",
      "componentType": 5123,
      "count": 414,
      "min": [
        0
      ],
      "max": [
        413
      ],
      "type": "SCALAR",
      "bufferView": 2,
      "byteOffset": 1592
    },
    {
      "name": "Group_MatrixTransform_dashu03_Geometry_2-Mesh_positions",
      "componentType": 5126,
      "count": 180,
      "min": [
        -5.86161994934082,
        -5.116710186004639,
        3.8617899417877197
      ],
      "max": [
        5.088029861450195,
        6.268489837646484,
        12.014800071716309
      ],
      "type": "VEC3",
      "bufferView": 0,
      "byteOffset": 14508
    },
    {
      "name": "Group_MatrixTransform_dashu03_Geometry_2-Mesh_normals",
      "componentType": 5126,
      "count": 180,
      "min": [
        -0.8119348287582397,
        -0.9625293612480164,
        0.20501787960529327
      ],
      "max": [
        0.671282172203064,
        0.9037193059921265,
        0.9976547360420227
      ],
      "type": "VEC3",
      "bufferView": 0,
      "byteOffset": 34344
    },
    {
      "name": "Group_MatrixTransform_dashu03_Geometry_2-Mesh_texcoords",
      "componentType": 5126,
      "count": 180,
      "min": [
        0,
        0
      ],
      "max": [
        1,
        1
      ],
      "type": "VEC2",
      "bufferView": 1,
      "byteOffset": 9672
    },
    {
      "name": "Group_MatrixTransform_dashu03_Geometry_2-Mesh_0_indices",
      "componentType": 5123,
      "count": 180,
      "min": [
        0
      ],
      "max": [
        179
      ],
      "type": "SCALAR",
      "bufferView": 2,
      "byteOffset": 2420
    },
    {
      "name": "Group_MatrixTransform_dashu03_Geometry_3-Mesh_positions",
      "componentType": 5126,
      "count": 264,
      "min": [
        -5.470479965209961,
        -5.633769989013672,
        3.5327301025390625
      ],
      "max": [
        6.9083099365234375,
        7.066030025482178,
        11.937899589538574
      ],
      "type": "VEC3",
      "bufferView": 0,
      "byteOffset": 16668
    },
    {
      "name": "Group_MatrixTransform_dashu03_Geometry_3-Mesh_normals",
      "componentType": 5126,
      "count": 264,
      "min": [
        -0.8407461047172546,
        -0.9142661094665527,
        0.351897269487381
      ],
      "max": [
        0.6238090991973877,
        0.8255070447921753,
        0.9972281455993652
      ],
      "type": "VEC3",
      "bufferView": 0,
      "byteOffset": 36504
    },
    {
      "name": "Group_MatrixTransform_dashu03_Geometry_3-Mesh_texcoords",
      "componentType": 5126,
      "count": 264,
      "min": [
        0,
        0
      ],
      "max": [
        1,
        1
      ],
      "type": "VEC2",
      "bufferView": 1,
      "byteOffset": 11112
    },
    {
      "name": "Group_MatrixTransform_dashu03_Geometry_3-Mesh_0_indices",
      "componentType": 5123,
      "count": 264,
      "min": [
        0
      ],
      "max": [
        263
      ],
      "type": "SCALAR",
      "bufferView": 2,
      "byteOffset": 2780
    }
  ],
  "asset": {
    "generator": "obj2gltf",
    "version": "2.0"
  },
  "buffers": [
    {
      "name": "dashu03",
      "byteLength": 900044,
      "uri": "data:application/octet-stream;base64,"
    }
  ],
  "bufferViews": [
    {
      "name": "bufferView_0",
      "buffer": 0,
      "byteLength": 39672,
      "byteOffset": 0,
      "byteStride": 12,
      "target": 34962
    },
    {
      "name": "bufferView_1",
      "buffer": 0,
      "byteLength": 13224,
      "byteOffset": 39672,
      "byteStride": 8,
      "target": 34962
    },
    {
      "name": "bufferView_2",
      "buffer": 0,
      "byteLength": 3308,
      "byteOffset": 52896,
      "target": 34963
    },
    {
      "buffer": 0,
      "byteOffset": 56204,
      "byteLength": 104438
    },
    {
      "buffer": 0,
      "byteOffset": 160642,
      "byteLength": 344090
    },
    {
      "buffer": 0,
      "byteOffset": 504732,
      "byteLength": 125809
    },
    {
      "buffer": 0,
      "byteOffset": 630541,
      "byteLength": 269503
    }
  ],
  "images": [
    {
      "name": "shu_01",
      "mimeType": "image/png",
      "bufferView": 3
    },
    {
      "name": "dashu_01",
      "mimeType": "image/png",
      "bufferView": 4
    },
    {
      "name": "dashu_04",
      "mimeType": "image/png",
      "bufferView": 5
    },
    {
      "name": "dashu_03",
      "mimeType": "image/png",
      "bufferView": 6
    }
  ],
  "materials": [
    {
      "name": "material_4",
      "pbrMetallicRoughness": {
        "baseColorTexture": {
          "index": 0
        },
        "baseColorFactor": [
          1,
          1,
          1,
          1
        ],
        "metallicFactor": 0,
        "roughnessFactor": 1
      },
      "emissiveFactor": [
        0,
        0,
        0
      ],
      "alphaMode": "OPAQUE",
      "doubleSided": false
    },
    {
      "name": "material_5",
      "pbrMetallicRoughness": {
        "baseColorTexture": {
          "index": 1
        },
        "baseColorFactor": [
          1,
          1,
          1,
          1
        ],
        "metallicFactor": 0,
        "roughnessFactor": 1
      },
      "emissiveFactor": [
        0,
        0,
        0
      ],
      "alphaMode": "BLEND",
      "doubleSided": true
    },
    {
      "name": "material_6",
      "pbrMetallicRoughness": {
        "baseColorTexture": {
          "index": 2
        },
        "baseColorFactor": [
          1,
          1,
          1,
          1
        ],
        "metallicFactor": 0,
        "roughnessFactor": 1
      },
      "emissiveFactor": [
        0,
        0,
        0
      ],
      "alphaMode": "BLEND",
      "doubleSided": true
    },
    {
      "name": "material_7",
      "pbrMetallicRoughness": {
        "baseColorTexture": {
          "index": 3
        },
        "baseColorFactor": [
          1,
          1,
          1,
          1
        ],
        "metallicFactor": 0,
        "roughnessFactor": 1
      },
      "emissiveFactor": [
        0,
        0,
        0
      ],
      "alphaMode": "BLEND",
      "doubleSided": true
    }
  ],
  "meshes": [
    {
      "name": "Group_MatrixTransform_dashu03_Geometry_0-Mesh",
      "primitives": [
        {
          "attributes": {
            "POSITION": 0,
            "NORMAL": 1,
            "TEXCOORD_0": 2
          },
          "indices": 3,
          "material": 0,
          "mode": 4
        }
      ]
    },
    {
      "name": "Group_MatrixTransform_dashu03_Geometry_1-Mesh",
      "primitives": [
        {
          "attributes": {
            "POSITION": 4,
            "NORMAL": 5,
            "TEXCOORD_0": 6
          },
          "indices": 7,
          "material": 1,
          "mode": 4
        }
      ]
    },
    {
      "name": "Group_MatrixTransform_dashu03_Geometry_2-Mesh",
      "primitives": [
        {
          "attributes": {
            "POSITION": 8,
            "NORMAL": 9,
            "TEXCOORD_0": 10
          },
          "indices": 11,
          "material": 2,
          "mode": 4
        }
      ]
    },
    {
      "name": "Group_MatrixTransform_dashu03_Geometry_3-Mesh",
      "primitives": [
        {
          "attributes": {
            "POSITION": 12,
            "NORMAL": 13,
            "TEXCOORD_0": 14
          },
          "indices": 15,
          "material": 3,
          "mode": 4
        }
      ]
    }
  ],
  "nodes": [
    {
      "name": "Group_MatrixTransform_dashu03_Geometry_0",
      "mesh": 0
    },
    {
      "name": "Group_MatrixTransform_dashu03_Geometry_1",
      "mesh": 1
    },
    {
      "name": "Group_MatrixTransform_dashu03_Geometry_2",
      "mesh": 2
    },
    {
      "name": "Group_MatrixTransform_dashu03_Geometry_3",
      "mesh": 3
    }
  ],
  "samplers": [
    {
      "magFilter": 9729,
      "minFilter": 9986,
      "wrapS": 10497,
      "wrapT": 10497
    }
  ],
  "scene": 0,
  "scenes": [
    {
      "nodes": [
        0,
        1,
        2,
        3
      ]
    }
  ],
  "textures": [
    {
      "name": "shu_01",
      "sampler": 0,
      "source": 0
    },
    {
      "name": "dashu_01",
      "sampler": 0,
      "source": 1
    },
    {
      "name": "dashu_04",
      "sampler": 0,
      "source": 2
    },
    {
      "name": "dashu_03",
      "sampler": 0,
      "source": 3
    }
  ]
}
