{
  "accessors": [
    {
      "name": "Group_MatrixTransform_DingXiangHua_Geometry_0-Mesh_positions",
      "componentType": 5126,
      "count": 588,
      "min": [
        -0.9088129997253418,
        -0.36299899220466614,
        -0.00021687999833375216
      ],
      "max": [
        1.256309986114502,
        1.164489984512329,
        2.658090114593506
      ],
      "type": "VEC3",
      "bufferView": 0,
      "byteOffset": 0
    },
    {
      "name": "Group_MatrixTransform_DingXiangHua_Geometry_0-Mesh_normals",
      "componentType": 5126,
      "count": 588,
      "min": [
        -0.9841294884681702,
        -0.9984917640686035,
        -0.94576495885849
      ],
      "max": [
        0.9944173693656921,
        0.9980306029319763,
        0.9475232362747192
      ],
      "type": "VEC3",
      "bufferView": 0,
      "byteOffset": 12744
    },
    {
      "name": "Group_MatrixTransform_DingXiangHua_Geometry_0-Mesh_texcoords",
      "componentType": 5126,
      "count": 588,
      "min": [
        -2.125969886779785,
        -2.7241299152374268
      ],
      "max": [
        3.125969886779785,
        3.7241299152374268
      ],
      "type": "VEC2",
      "bufferView": 1,
      "byteOffset": 0
    },
    {
      "name": "Group_MatrixTransform_DingXiangHua_Geometry_0-Mesh_0_indices",
      "componentType": 5123,
      "count": 588,
      "min": [
        0
      ],
      "max": [
        587
      ],
      "type": "SCALAR",
      "bufferView": 2,
      "byteOffset": 0
    },
    {
      "name": "Group_MatrixTransform_DingXiangHua_Geometry_1-Mesh_positions",
      "componentType": 5126,
      "count": 270,
      "min": [
        -2.1812100410461426,
        -2.008929967880249,
        0.8606820106506348
      ],
      "max": [
        2.7204298973083496,
        2.355609893798828,
        4.231969833374023
      ],
      "type": "VEC3",
      "bufferView": 0,
      "byteOffset": 7056
    },
    {
      "name": "Group_MatrixTransform_DingXiangHua_Geometry_1-Mesh_normals",
      "componentType": 5126,
      "count": 270,
      "min": [
        -0.9024360775947571,
        -0.9505864977836609,
        -0.12551192939281464
      ],
      "max": [
        0.9832851886749268,
        0.925172746181488,
        0.9817432165145874
      ],
      "type": "VEC3",
      "bufferView": 0,
      "byteOffset": 19800
    },
    {
      "name": "Group_MatrixTransform_DingXiangHua_Geometry_1-Mesh_texcoords",
      "componentType": 5126,
      "count": 270,
      "min": [
        0,
        0
      ],
      "max": [
        1,
        1
      ],
      "type": "VEC2",
      "bufferView": 1,
      "byteOffset": 4704
    },
    {
      "name": "Group_MatrixTransform_DingXiangHua_Geometry_1-Mesh_0_indices",
      "componentType": 5123,
      "count": 270,
      "min": [
        0
      ],
      "max": [
        269
      ],
      "type": "SCALAR",
      "bufferView": 2,
      "byteOffset": 1176
    },
    {
      "name": "Group_MatrixTransform_DingXiangHua_Geometry_2-Mesh_positions",
      "componentType": 5126,
      "count": 204,
      "min": [
        -2.266940116882324,
        -2.158869981765747,
        0.3071509897708893
      ],
      "max": [
        2.8253300189971924,
        2.2869200706481934,
        4.536739826202393
      ],
      "type": "VEC3",
      "bufferView": 0,
      "byteOffset": 10296
    },
    {
      "name": "Group_MatrixTransform_DingXiangHua_Geometry_2-Mesh_normals",
      "componentType": 5126,
      "count": 204,
      "min": [
        -0.9833100438117981,
        -0.9629413485527039,
        -0.8487265110015869
      ],
      "max": [
        0.22903600335121155,
        0.8464847207069397,
        0.7905056476593018
      ],
      "type": "VEC3",
      "bufferView": 0,
      "byteOffset": 23040
    },
    {
      "name": "Group_MatrixTransform_DingXiangHua_Geometry_2-Mesh_texcoords",
      "componentType": 5126,
      "count": 204,
      "min": [
        0.0004995469935238361,
        0.0005000000237487257
      ],
      "max": [
        0.9994999766349792,
        0.9995004534721375
      ],
      "type": "VEC2",
      "bufferView": 1,
      "byteOffset": 6864
    },
    {
      "name": "Group_MatrixTransform_DingXiangHua_Geometry_2-Mesh_0_indices",
      "componentType": 5123,
      "count": 204,
      "min": [
        0
      ],
      "max": [
        203
      ],
      "type": "SCALAR",
      "bufferView": 2,
      "byteOffset": 1716
    }
  ],
  "asset": {
    "generator": "obj2gltf",
    "version": "2.0"
  },
  "buffers": [
    {
      "name": "DingXiangHua",
      "byteLength": 563684,
      "uri": "data:application/octet-stream;base64,"
    }
  ],
  "bufferViews": [
    {
      "name": "bufferView_0",
      "buffer": 0,
      "byteLength": 25488,
      "byteOffset": 0,
      "byteStride": 12,
      "target": 34962
    },
    {
      "name": "bufferView_1",
      "buffer": 0,
      "byteLength": 8496,
      "byteOffset": 25488,
      "byteStride": 8,
      "target": 34962
    },
    {
      "name": "bufferView_2",
      "buffer": 0,
      "byteLength": 2124,
      "byteOffset": 33984,
      "target": 34963
    },
    {
      "buffer": 0,
      "byteOffset": 36108,
      "byteLength": 23584
    },
    {
      "buffer": 0,
      "byteOffset": 59692,
      "byteLength": 218626
    },
    {
      "buffer": 0,
      "byteOffset": 278318,
      "byteLength": 285366
    }
  ],
  "images": [
    {
      "name": "DingXiangHua_shugan",
      "mimeType": "image/png",
      "bufferView": 3
    },
    {
      "name": "DingXiangHua_shuye",
      "mimeType": "image/png",
      "bufferView": 4
    },
    {
      "name": "DingXiangHua_shuye02",
      "mimeType": "image/png",
      "bufferView": 5
    }
  ],
  "materials": [
    {
      "name": "material_8",
      "pbrMetallicRoughness": {
        "baseColorTexture": {
          "index": 0
        },
        "baseColorFactor": [
          1,
          1,
          1,
          1
        ],
        "metallicFactor": 0,
        "roughnessFactor": 1
      },
      "emissiveFactor": [
        0,
        0,
        0
      ],
      "alphaMode": "OPAQUE",
      "doubleSided": false
    },
    {
      "name": "material_9",
      "pbrMetallicRoughness": {
        "baseColorTexture": {
          "index": 1
        },
        "baseColorFactor": [
          1,
          1,
          1,
          1
        ],
        "metallicFactor": 0,
        "roughnessFactor": 1
      },
      "emissiveFactor": [
        0,
        0,
        0
      ],
      "alphaMode": "BLEND",
      "doubleSided": true
    },
    {
      "name": "material_10",
      "pbrMetallicRoughness": {
        "baseColorTexture": {
          "index": 2
        },
        "baseColorFactor": [
          1,
          1,
          1,
          1
        ],
        "metallicFactor": 0,
        "roughnessFactor": 1
      },
      "emissiveFactor": [
        0,
        0,
        0
      ],
      "alphaMode": "BLEND",
      "doubleSided": true
    }
  ],
  "meshes": [
    {
      "name": "Group_MatrixTransform_DingXiangHua_Geometry_0-Mesh",
      "primitives": [
        {
          "attributes": {
            "POSITION": 0,
            "NORMAL": 1,
            "TEXCOORD_0": 2
          },
          "indices": 3,
          "material": 0,
          "mode": 4
        }
      ]
    },
    {
      "name": "Group_MatrixTransform_DingXiangHua_Geometry_1-Mesh",
      "primitives": [
        {
          "attributes": {
            "POSITION": 4,
            "NORMAL": 5,
            "TEXCOORD_0": 6
          },
          "indices": 7,
          "material": 1,
          "mode": 4
        }
      ]
    },
    {
      "name": "Group_MatrixTransform_DingXiangHua_Geometry_2-Mesh",
      "primitives": [
        {
          "attributes": {
            "POSITION": 8,
            "NORMAL": 9,
            "TEXCOORD_0": 10
          },
          "indices": 11,
          "material": 2,
          "mode": 4
        }
      ]
    }
  ],
  "nodes": [
    {
      "name": "Group_MatrixTransform_DingXiangHua_Geometry_0",
      "mesh": 0
    },
    {
      "name": "Group_MatrixTransform_DingXiangHua_Geometry_1",
      "mesh": 1
    },
    {
      "name": "Group_MatrixTransform_DingXiangHua_Geometry_2",
      "mesh": 2
    }
  ],
  "samplers": [
    {
      "magFilter": 9729,
      "minFilter": 9986,
      "wrapS": 10497,
      "wrapT": 10497
    }
  ],
  "scene": 0,
  "scenes": [
    {
      "nodes": [
        0,
        1,
        2
      ]
    }
  ],
  "textures": [
    {
      "name": "DingXiangHua_shugan",
      "sampler": 0,
      "source": 0
    },
    {
      "name": "DingXiangHua_shuye",
      "sampler": 0,
      "source": 1
    },
    {
      "name": "DingXiangHua_shuye02",
      "sampler": 0,
      "source": 2
    }
  ]
}
