{
  "accessors": [
    {
      "name": "Group_MatrixTransform_GuiHuaShu_Geometry_0-Mesh_positions",
      "componentType": 5126,
      "count": 564,
      "min": [
        -1.791849970817566,
        -0.5806210041046143,
        0.024581700563430786
      ],
      "max": [
        0.6593719720840454,
        0.8704149723052979,
        4.918260097503662
      ],
      "type": "VEC3",
      "bufferView": 0,
      "byteOffset": 0
    },
    {
      "name": "Group_MatrixTransform_GuiHuaShu_Geometry_0-Mesh_normals",
      "componentType": 5126,
      "count": 564,
      "min": [
        -0.9956216216087341,
        -0.9881848692893982,
        -0.628449022769928
      ],
      "max": [
        0.9952577948570251,
        0.9877919554710388,
        0.8646810054779053
      ],
      "type": "VEC3",
      "bufferView": 0,
      "byteOffset": 25704
    },
    {
      "name": "Group_MatrixTransform_GuiHuaShu_Geometry_0-Mesh_texcoords",
      "componentType": 5126,
      "count": 564,
      "min": [
        -4.425809860229492,
        -8.530550003051758
      ],
      "max": [
        5.425809860229492,
        9.530550003051758
      ],
      "type": "VEC2",
      "bufferView": 1,
      "byteOffset": 0
    },
    {
      "name": "Group_MatrixTransform_GuiHuaShu_Geometry_0-Mesh_0_indices",
      "componentType": 5123,
      "count": 564,
      "min": [
        0
      ],
      "max": [
        563
      ],
      "type": "SCALAR",
      "bufferView": 2,
      "byteOffset": 0
    },
    {
      "name": "Group_MatrixTransform_GuiHuaShu_Geometry_1-Mesh_positions",
      "componentType": 5126,
      "count": 321,
      "min": [
        -3.2845399379730225,
        -3.2122199535369873,
        1.6175999641418457
      ],
      "max": [
        2.7987101078033447,
        3.0455400943756104,
        6.591070175170898
      ],
      "type": "VEC3",
      "bufferView": 0,
      "byteOffset": 6768
    },
    {
      "name": "Group_MatrixTransform_GuiHuaShu_Geometry_1-Mesh_normals",
      "componentType": 5126,
      "count": 321,
      "min": [
        -0.9016278982162476,
        -0.9704912900924683,
        -0.026979507878422737
      ],
      "max": [
        0.733954906463623,
        0.9010169506072998,
        0.9975095391273499
      ],
      "type": "VEC3",
      "bufferView": 0,
      "byteOffset": 32472
    },
    {
      "name": "Group_MatrixTransform_GuiHuaShu_Geometry_1-Mesh_texcoords",
      "componentType": 5126,
      "count": 321,
      "min": [
        0.0004995469935238361,
        0.0005000000237487257
      ],
      "max": [
        0.9994999766349792,
        0.9995004534721375
      ],
      "type": "VEC2",
      "bufferView": 1,
      "byteOffset": 4512
    },
    {
      "name": "Group_MatrixTransform_GuiHuaShu_Geometry_1-Mesh_0_indices",
      "componentType": 5123,
      "count": 321,
      "min": [
        0
      ],
      "max": [
        320
      ],
      "type": "SCALAR",
      "bufferView": 2,
      "byteOffset": 1128
    },
    {
      "name": "Group_MatrixTransform_GuiHuaShu_Geometry_2-Mesh_positions",
      "componentType": 5126,
      "count": 1149,
      "min": [
        -3.081170082092285,
        -3.212209939956665,
        1.794950008392334
      ],
      "max": [
        3.2507500648498535,
        3.231019973754883,
        6.718629837036133
      ],
      "type": "VEC3",
      "bufferView": 0,
      "byteOffset": 10620
    },
    {
      "name": "Group_MatrixTransform_GuiHuaShu_Geometry_2-Mesh_normals",
      "componentType": 5126,
      "count": 1149,
      "min": [
        -0.993412971496582,
        -0.9669301509857178,
        0.06783872842788696
      ],
      "max": [
        0.8032101392745972,
        0.935548722743988,
        0.9989138245582581
      ],
      "type": "VEC3",
      "bufferView": 0,
      "byteOffset": 36324
    },
    {
      "name": "Group_MatrixTransform_GuiHuaShu_Geometry_2-Mesh_texcoords",
      "componentType": 5126,
      "count": 1149,
      "min": [
        0.0004995469935238361,
        0.0005000000237487257
      ],
      "max": [
        0.9994999766349792,
        0.9995004534721375
      ],
      "type": "VEC2",
      "bufferView": 1,
      "byteOffset": 7080
    },
    {
      "name": "Group_MatrixTransform_GuiHuaShu_Geometry_2-Mesh_0_indices",
      "componentType": 5123,
      "count": 1149,
      "min": [
        0
      ],
      "max": [
        1148
      ],
      "type": "SCALAR",
      "bufferView": 2,
      "byteOffset": 1772
    },
    {
      "name": "Group_MatrixTransform_GuiHuaShu_Geometry_3-Mesh_positions",
      "componentType": 5126,
      "count": 108,
      "min": [
        -2.7369000911712646,
        -2.978800058364868,
        1.86558997631073
      ],
      "max": [
        2.338479995727539,
        2.93572998046875,
        5.956019878387451
      ],
      "type": "VEC3",
      "bufferView": 0,
      "byteOffset": 24408
    },
    {
      "name": "Group_MatrixTransform_GuiHuaShu_Geometry_3-Mesh_normals",
      "componentType": 5126,
      "count": 108,
      "min": [
        -0.69841068983078,
        -0.9411236643791199,
        0.1737789362668991
      ],
      "max": [
        0.4661791920661926,
        0.24503688514232635,
        0.9842419028282166
      ],
      "type": "VEC3",
      "bufferView": 0,
      "byteOffset": 50112
    },
    {
      "name": "Group_MatrixTransform_GuiHuaShu_Geometry_3-Mesh_texcoords",
      "componentType": 5126,
      "count": 108,
      "min": [
        0.0004995469935238361,
        0.0005000000237487257
      ],
      "max": [
        0.9994999766349792,
        0.9995004534721375
      ],
      "type": "VEC2",
      "bufferView": 1,
      "byteOffset": 16272
    },
    {
      "name": "Group_MatrixTransform_GuiHuaShu_Geometry_3-Mesh_0_indices",
      "componentType": 5123,
      "count": 108,
      "min": [
        0
      ],
      "max": [
        107
      ],
      "type": "SCALAR",
      "bufferView": 2,
      "byteOffset": 4072
    }
  ],
  "asset": {
    "generator": "obj2gltf",
    "version": "2.0"
  },
  "buffers": [
    {
      "name": "GuiHuaShu",
      "byteLength": 1535076,
      "uri": "data:application/octet-stream;base64,"
    }
  ],
  "bufferViews": [
    {
      "name": "bufferView_0",
      "buffer": 0,
      "byteLength": 51408,
      "byteOffset": 0,
      "byteStride": 12,
      "target": 34962
    },
    {
      "name": "bufferView_1",
      "buffer": 0,
      "byteLength": 17136,
      "byteOffset": 51408,
      "byteStride": 8,
      "target": 34962
    },
    {
      "name": "bufferView_2",
      "buffer": 0,
      "byteLength": 4288,
      "byteOffset": 68544,
      "target": 34963
    },
    {
      "buffer": 0,
      "byteOffset": 72832,
      "byteLength": 72079
    },
    {
      "buffer": 0,
      "byteOffset": 144911,
      "byteLength": 471010
    },
    {
      "buffer": 0,
      "byteOffset": 615921,
      "byteLength": 446982
    },
    {
      "buffer": 0,
      "byteOffset": 1062903,
      "byteLength": 472172
    }
  ],
  "images": [
    {
      "name": "archmodels58_048_pinus_sylvestris_bump_j",
      "mimeType": "image/png",
      "bufferView": 3
    },
    {
      "name": "guihuashu_shuye05_tif_p",
      "mimeType": "image/png",
      "bufferView": 4
    },
    {
      "name": "guihuashu_shuye05-1_tif_p",
      "mimeType": "image/png",
      "bufferView": 5
    },
    {
      "name": "guihuashu_shuye05-2_tif_p",
      "mimeType": "image/png",
      "bufferView": 6
    }
  ],
  "materials": [
    {
      "name": "material_11",
      "pbrMetallicRoughness": {
        "baseColorTexture": {
          "index": 0
        },
        "baseColorFactor": [
          1,
          1,
          1,
          1
        ],
        "metallicFactor": 0,
        "roughnessFactor": 1
      },
      "emissiveFactor": [
        0,
        0,
        0
      ],
      "alphaMode": "OPAQUE",
      "doubleSided": false
    },
    {
      "name": "material_12",
      "pbrMetallicRoughness": {
        "baseColorTexture": {
          "index": 1
        },
        "baseColorFactor": [
          1,
          1,
          1,
          1
        ],
        "metallicFactor": 0,
        "roughnessFactor": 1
      },
      "emissiveFactor": [
        0,
        0,
        0
      ],
      "alphaMode": "BLEND",
      "doubleSided": true
    },
    {
      "name": "material_13",
      "pbrMetallicRoughness": {
        "baseColorTexture": {
          "index": 2
        },
        "baseColorFactor": [
          1,
          1,
          1,
          1
        ],
        "metallicFactor": 0,
        "roughnessFactor": 1
      },
      "emissiveFactor": [
        0,
        0,
        0
      ],
      "alphaMode": "BLEND",
      "doubleSided": true
    },
    {
      "name": "material_14",
      "pbrMetallicRoughness": {
        "baseColorTexture": {
          "index": 3
        },
        "baseColorFactor": [
          1,
          1,
          1,
          1
        ],
        "metallicFactor": 0,
        "roughnessFactor": 1
      },
      "emissiveFactor": [
        0,
        0,
        0
      ],
      "alphaMode": "BLEND",
      "doubleSided": true
    }
  ],
  "meshes": [
    {
      "name": "Group_MatrixTransform_GuiHuaShu_Geometry_0-Mesh",
      "primitives": [
        {
          "attributes": {
            "POSITION": 0,
            "NORMAL": 1,
            "TEXCOORD_0": 2
          },
          "indices": 3,
          "material": 0,
          "mode": 4
        }
      ]
    },
    {
      "name": "Group_MatrixTransform_GuiHuaShu_Geometry_1-Mesh",
      "primitives": [
        {
          "attributes": {
            "POSITION": 4,
            "NORMAL": 5,
            "TEXCOORD_0": 6
          },
          "indices": 7,
          "material": 1,
          "mode": 4
        }
      ]
    },
    {
      "name": "Group_MatrixTransform_GuiHuaShu_Geometry_2-Mesh",
      "primitives": [
        {
          "attributes": {
            "POSITION": 8,
            "NORMAL": 9,
            "TEXCOORD_0": 10
          },
          "indices": 11,
          "material": 2,
          "mode": 4
        }
      ]
    },
    {
      "name": "Group_MatrixTransform_GuiHuaShu_Geometry_3-Mesh",
      "primitives": [
        {
          "attributes": {
            "POSITION": 12,
            "NORMAL": 13,
            "TEXCOORD_0": 14
          },
          "indices": 15,
          "material": 3,
          "mode": 4
        }
      ]
    }
  ],
  "nodes": [
    {
      "name": "Group_MatrixTransform_GuiHuaShu_Geometry_0",
      "mesh": 0
    },
    {
      "name": "Group_MatrixTransform_GuiHuaShu_Geometry_1",
      "mesh": 1
    },
    {
      "name": "Group_MatrixTransform_GuiHuaShu_Geometry_2",
      "mesh": 2
    },
    {
      "name": "Group_MatrixTransform_GuiHuaShu_Geometry_3",
      "mesh": 3
    }
  ],
  "samplers": [
    {
      "magFilter": 9729,
      "minFilter": 9986,
      "wrapS": 10497,
      "wrapT": 10497
    }
  ],
  "scene": 0,
  "scenes": [
    {
      "nodes": [
        0,
        1,
        2,
        3
      ]
    }
  ],
  "textures": [
    {
      "name": "archmodels58_048_pinus_sylvestris_bump_j",
      "sampler": 0,
      "source": 0
    },
    {
      "name": "guihuashu_shuye05_tif_p",
      "sampler": 0,
      "source": 1
    },
    {
      "name": "guihuashu_shuye05-1_tif_p",
      "sampler": 0,
      "source": 2
    },
    {
      "name": "guihuashu_shuye05-2_tif_p",
      "sampler": 0,
      "source": 3
    }
  ]
}
