{
  "accessors": [
    {
      "name": "Group_MatrixTransform__Geometry_0-Mesh_positions",
      "componentType": 5126,
      "count": 6,
      "min": [
        -0.699999988079071,
        -3.059799880134051e-8,
        -0.699999988079071
      ],
      "max": [
        0.699999988079071,
        3.059799880134051e-8,
        0.699999988079071
      ],
      "type": "VEC3",
      "bufferView": 0,
      "byteOffset": 0
    },
    {
      "name": "Group_MatrixTransform__Geometry_0-Mesh_normals",
      "componentType": 5126,
      "count": 6,
      "min": [
        4.3706300800749887e-8,
        1,
        -2.2737400917421328e-15
      ],
      "max": [
        4.3706300800749887e-8,
        1,
        -1.06096001192932e-15
      ],
      "type": "VEC3",
      "bufferView": 0,
      "byteOffset": 144
    },
    {
      "name": "Group_MatrixTransform__Geometry_0-Mesh_texcoords",
      "componentType": 5126,
      "count": 6,
      "min": [
        0,
        0.029999999329447746
      ],
      "max": [
        0.9800000190734863,
        1
      ],
      "type": "VEC2",
      "bufferView": 1,
      "byteOffset": 0
    },
    {
      "name": "Group_MatrixTransform__Geometry_0-Mesh_0_indices",
      "componentType": 5123,
      "count": 6,
      "min": [
        0
      ],
      "max": [
        5
      ],
      "type": "SCALAR",
      "bufferView": 2,
      "byteOffset": 0
    },
    {
      "name": "Group_MatrixTransform_JJGM0013_Geometry_0-Mesh_positions",
      "componentType": 5126,
      "count": 6,
      "min": [
        -0.5855849981307983,
        -0.5855849981307983,
        0
      ],
      "max": [
        0.5855849981307983,
        0.5855849981307983,
        0
      ],
      "type": "VEC3",
      "bufferView": 0,
      "byteOffset": 72
    },
    {
      "name": "Group_MatrixTransform_JJGM0013_Geometry_0-Mesh_normals",
      "componentType": 5126,
      "count": 6,
      "min": [
        0,
        0,
        1
      ],
      "max": [
        0,
        0,
        1
      ],
      "type": "VEC3",
      "bufferView": 0,
      "byteOffset": 216
    },
    {
      "name": "Group_MatrixTransform_JJGM0013_Geometry_0-Mesh_texcoords",
      "componentType": 5126,
      "count": 6,
      "min": [
        0.0004995469935238361,
        0.0005000000237487257
      ],
      "max": [
        0.9994999766349792,
        0.9995004534721375
      ],
      "type": "VEC2",
      "bufferView": 1,
      "byteOffset": 48
    },
    {
      "name": "Group_MatrixTransform_JJGM0013_Geometry_0-Mesh_0_indices",
      "componentType": 5123,
      "count": 6,
      "min": [
        0
      ],
      "max": [
        5
      ],
      "type": "SCALAR",
      "bufferView": 2,
      "byteOffset": 12
    }
  ],
  "asset": {
    "generator": "obj2gltf",
    "version": "2.0"
  },
  "buffers": [
    {
      "name": "JJGM0013",
      "byteLength": 155772,
      "uri": "data:application/octet-stream;base64,"
    }
  ],
  "bufferViews": [
    {
      "name": "bufferView_0",
      "buffer": 0,
      "byteLength": 288,
      "byteOffset": 0,
      "byteStride": 12,
      "target": 34962
    },
    {
      "name": "bufferView_1",
      "buffer": 0,
      "byteLength": 96,
      "byteOffset": 288,
      "byteStride": 8,
      "target": 34962
    },
    {
      "name": "bufferView_2",
      "buffer": 0,
      "byteLength": 24,
      "byteOffset": 384,
      "target": 34963
    },
    {
      "buffer": 0,
      "byteOffset": 408,
      "byteLength": 145275
    },
    {
      "buffer": 0,
      "byteOffset": 145683,
      "byteLength": 10086
    }
  ],
  "images": [
    {
      "name": "TJLZ00013",
      "mimeType": "image/png",
      "bufferView": 3
    },
    {
      "name": "tr-shade",
      "mimeType": "image/png",
      "bufferView": 4
    }
  ],
  "materials": [
    {
      "name": "material_15",
      "pbrMetallicRoughness": {
        "baseColorTexture": {
          "index": 0
        },
        "baseColorFactor": [
          1,
          1,
          1,
          1
        ],
        "metallicFactor": 0,
        "roughnessFactor": 1
      },
      "emissiveFactor": [
        0,
        0,
        0
      ],
      "alphaMode": "BLEND",
      "doubleSided": true
    },
    {
      "name": "material_16",
      "pbrMetallicRoughness": {
        "baseColorTexture": {
          "index": 1
        },
        "baseColorFactor": [
          1,
          1,
          1,
          1
        ],
        "metallicFactor": 0,
        "roughnessFactor": 1
      },
      "emissiveFactor": [
        0,
        0,
        0
      ],
      "alphaMode": "BLEND",
      "doubleSided": true
    }
  ],
  "meshes": [
    {
      "name": "Group_MatrixTransform__Geometry_0-Mesh",
      "primitives": [
        {
          "attributes": {
            "POSITION": 0,
            "NORMAL": 1,
            "TEXCOORD_0": 2
          },
          "indices": 3,
          "material": 0,
          "mode": 4
        }
      ]
    },
    {
      "name": "Group_MatrixTransform_JJGM0013_Geometry_0-Mesh",
      "primitives": [
        {
          "attributes": {
            "POSITION": 4,
            "NORMAL": 5,
            "TEXCOORD_0": 6
          },
          "indices": 7,
          "material": 1,
          "mode": 4
        }
      ]
    }
  ],
  "nodes": [
    {
      "name": "Group_MatrixTransform__Geometry_0",
      "mesh": 0
    },
    {
      "name": "Group_MatrixTransform_JJGM0013_Geometry_0",
      "mesh": 1
    }
  ],
  "samplers": [
    {
      "magFilter": 9729,
      "minFilter": 9986,
      "wrapS": 10497,
      "wrapT": 10497
    }
  ],
  "scene": 0,
  "scenes": [
    {
      "nodes": [
        0,
        1
      ]
    }
  ],
  "textures": [
    {
      "name": "TJLZ00013",
      "sampler": 0,
      "source": 0
    },
    {
      "name": "tr-shade",
      "sampler": 0,
      "source": 1
    }
  ]
}
