{
  "accessors": [
    {
      "name": "Group_MatrixTransform_liushu01_Geometry_0-Mesh_positions",
      "componentType": 5126,
      "count": 7344,
      "min": [
        -3.346440076828003,
        -2.904510021209717,
        1.1654900312423706
      ],
      "max": [
        3.3771400451660156,
        3.7814700603485107,
        6.842050075531006
      ],
      "type": "VEC3",
      "bufferView": 0,
      "byteOffset": 0
    },
    {
      "name": "Group_MatrixTransform_liushu01_Geometry_0-Mesh_normals",
      "componentType": 5126,
      "count": 7344,
      "min": [
        -0.998741626739502,
        -0.9997440576553345,
        -0.07559937238693237
      ],
      "max": [
        0.9937118887901306,
        0.9966565370559692,
        0.999743640422821
      ],
      "type": "VEC3",
      "bufferView": 0,
      "byteOffset": 103824
    },
    {
      "name": "Group_MatrixTransform_liushu01_Geometry_0-Mesh_texcoords",
      "componentType": 5126,
      "count": 7344,
      "min": [
        0.13477499783039093,
        0.05309300124645233
      ],
      "max": [
        0.8652250170707703,
        0.7835440039634705
      ],
      "type": "VEC2",
      "bufferView": 1,
      "byteOffset": 0
    },
    {
      "name": "Group_MatrixTransform_liushu01_Geometry_0-Mesh_0_indices",
      "componentType": 5123,
      "count": 7344,
      "min": [
        0
      ],
      "max": [
        7343
      ],
      "type": "SCALAR",
      "bufferView": 2,
      "byteOffset": 0
    },
    {
      "name": "Group_MatrixTransform_liushu01_Geometry_1-Mesh_positions",
      "componentType": 5126,
      "count": 1308,
      "min": [
        -2.048419952392578,
        -1.6359699964523315,
        -0.010730000212788582
      ],
      "max": [
        2.1069600582122803,
        1.777209997177124,
        5.632909774780273
      ],
      "type": "VEC3",
      "bufferView": 0,
      "byteOffset": 88128
    },
    {
      "name": "Group_MatrixTransform_liushu01_Geometry_1-Mesh_normals",
      "componentType": 5126,
      "count": 1308,
      "min": [
        -0.9978814125061035,
        -1,
        -0.9790765047073364
      ],
      "max": [
        0.9966628551483154,
        1,
        0.9897579550743103
      ],
      "type": "VEC3",
      "bufferView": 0,
      "byteOffset": 191952
    },
    {
      "name": "Group_MatrixTransform_liushu01_Geometry_1-Mesh_texcoords",
      "componentType": 5126,
      "count": 1308,
      "min": [
        -13.606599807739258,
        -13.613800048828125
      ],
      "max": [
        14.631199836730957,
        14.623000144958496
      ],
      "type": "VEC2",
      "bufferView": 1,
      "byteOffset": 58752
    },
    {
      "name": "Group_MatrixTransform_liushu01_Geometry_1-Mesh_0_indices",
      "componentType": 5123,
      "count": 1308,
      "min": [
        0
      ],
      "max": [
        1307
      ],
      "type": "SCALAR",
      "bufferView": 2,
      "byteOffset": 14688
    }
  ],
  "asset": {
    "generator": "obj2gltf",
    "version": "2.0"
  },
  "buffers": [
    {
      "name": "liushu01",
      "byteLength": 559360,
      "uri": "data:application/octet-stream;base64,"
    }
  ],
  "bufferViews": [
    {
      "name": "bufferView_0",
      "buffer": 0,
      "byteLength": 207648,
      "byteOffset": 0,
      "byteStride": 12,
      "target": 34962
    },
    {
      "name": "bufferView_1",
      "buffer": 0,
      "byteLength": 69216,
      "byteOffset": 207648,
      "byteStride": 8,
      "target": 34962
    },
    {
      "name": "bufferView_2",
      "buffer": 0,
      "byteLength": 17304,
      "byteOffset": 276864,
      "target": 34963
    },
    {
      "buffer": 0,
      "byteOffset": 294168,
      "byteLength": 193091
    },
    {
      "buffer": 0,
      "byteOffset": 487259,
      "byteLength": 72098
    }
  ],
  "images": [
    {
      "name": "liushu_shuye01",
      "mimeType": "image/png",
      "bufferView": 3
    },
    {
      "name": "archmodels58_048_pinus_sylvestris_bump",
      "mimeType": "image/png",
      "bufferView": 4
    }
  ],
  "materials": [
    {
      "name": "material_17",
      "pbrMetallicRoughness": {
        "baseColorTexture": {
          "index": 0
        },
        "baseColorFactor": [
          1,
          1,
          1,
          1
        ],
        "metallicFactor": 0,
        "roughnessFactor": 1
      },
      "emissiveFactor": [
        0,
        0,
        0
      ],
      "alphaMode": "BLEND",
      "doubleSided": true
    },
    {
      "name": "material_18",
      "pbrMetallicRoughness": {
        "baseColorTexture": {
          "index": 1
        },
        "baseColorFactor": [
          1,
          1,
          1,
          1
        ],
        "metallicFactor": 0,
        "roughnessFactor": 1
      },
      "emissiveFactor": [
        0,
        0,
        0
      ],
      "alphaMode": "OPAQUE",
      "doubleSided": false
    }
  ],
  "meshes": [
    {
      "name": "Group_MatrixTransform_liushu01_Geometry_0-Mesh",
      "primitives": [
        {
          "attributes": {
            "POSITION": 0,
            "NORMAL": 1,
            "TEXCOORD_0": 2
          },
          "indices": 3,
          "material": 0,
          "mode": 4
        }
      ]
    },
    {
      "name": "Group_MatrixTransform_liushu01_Geometry_1-Mesh",
      "primitives": [
        {
          "attributes": {
            "POSITION": 4,
            "NORMAL": 5,
            "TEXCOORD_0": 6
          },
          "indices": 7,
          "material": 1,
          "mode": 4
        }
      ]
    }
  ],
  "nodes": [
    {
      "name": "Group_MatrixTransform_liushu01_Geometry_0",
      "mesh": 0
    },
    {
      "name": "Group_MatrixTransform_liushu01_Geometry_1",
      "mesh": 1
    }
  ],
  "samplers": [
    {
      "magFilter": 9729,
      "minFilter": 9986,
      "wrapS": 10497,
      "wrapT": 10497
    }
  ],
  "scene": 0,
  "scenes": [
    {
      "nodes": [
        0,
        1
      ]
    }
  ],
  "textures": [
    {
      "name": "liushu_shuye01",
      "sampler": 0,
      "source": 0
    },
    {
      "name": "archmodels58_048_pinus_sylvestris_bump",
      "sampler": 0,
      "source": 1
    }
  ]
}
