{
  "accessors": [
    {
      "name": "Group_MatrixTransform_ludeng01.osg_Geometry_0-Mesh_positions",
      "componentType": 5126,
      "count": 852,
      "min": [
        -0.5,
        -2.134119987487793,
        0
      ],
      "max": [
        0.5,
        2.134119987487793,
        13.916000366210938
      ],
      "type": "VEC3",
      "bufferView": 0,
      "byteOffset": 0
    },
    {
      "name": "Group_MatrixTransform_ludeng01.osg_Geometry_0-Mesh_normals",
      "componentType": 5126,
      "count": 852,
      "min": [
        -1,
        -1,
        -1
      ],
      "max": [
        1,
        1,
        1
      ],
      "type": "VEC3",
      "bufferView": 0,
      "byteOffset": 14688
    },
    {
      "name": "Group_MatrixTransform_ludeng01.osg_Geometry_0-Mesh_texcoords",
      "componentType": 5126,
      "count": 852,
      "min": [
        0.0004994570044800639,
        0.0004990000161342323
      ],
      "max": [
        0.9995009899139404,
        0.9995004534721375
      ],
      "type": "VEC2",
      "bufferView": 1,
      "byteOffset": 0
    },
    {
      "name": "Group_MatrixTransform_ludeng01.osg_Geometry_0-Mesh_0_indices",
      "componentType": 5123,
      "count": 852,
      "min": [
        0
      ],
      "max": [
        851
      ],
      "type": "SCALAR",
      "bufferView": 2,
      "byteOffset": 0
    },
    {
      "name": "Group_MatrixTransform_ludeng01.osg_Geometry_1-Mesh_positions",
      "componentType": 5126,
      "count": 240,
      "min": [
        -0.24051199853420258,
        -1.4435900449752808,
        6.250470161437988
      ],
      "max": [
        0.24675799906253815,
        1.6753100156784058,
        12.505999565124512
      ],
      "type": "VEC3",
      "bufferView": 0,
      "byteOffset": 10224
    },
    {
      "name": "Group_MatrixTransform_ludeng01.osg_Geometry_1-Mesh_normals",
      "componentType": 5126,
      "count": 240,
      "min": [
        -0.9884191155433655,
        -0.9353790879249573,
        -0.4250941574573517
      ],
      "max": [
        0.9726240634918213,
        0.8489390015602112,
        0.9938465356826782
      ],
      "type": "VEC3",
      "bufferView": 0,
      "byteOffset": 24912
    },
    {
      "name": "Group_MatrixTransform_ludeng01.osg_Geometry_1-Mesh_texcoords",
      "componentType": 5126,
      "count": 240,
      "min": [
        0.0004993680049665272,
        -0.7293099761009216
      ],
      "max": [
        0.9995009899139404,
        0.9992304444313049
      ],
      "type": "VEC2",
      "bufferView": 1,
      "byteOffset": 6816
    },
    {
      "name": "Group_MatrixTransform_ludeng01.osg_Geometry_1-Mesh_0_indices",
      "componentType": 5123,
      "count": 240,
      "min": [
        0
      ],
      "max": [
        239
      ],
      "type": "SCALAR",
      "bufferView": 2,
      "byteOffset": 1704
    },
    {
      "name": "Group_MatrixTransform_ludeng01.osg_Geometry_2-Mesh_positions",
      "componentType": 5126,
      "count": 132,
      "min": [
        -0.24051199853420258,
        -1.4435900449752808,
        6.150579929351807
      ],
      "max": [
        0.24675799906253815,
        1.6753100156784058,
        12.483400344848633
      ],
      "type": "VEC3",
      "bufferView": 0,
      "byteOffset": 13104
    },
    {
      "name": "Group_MatrixTransform_ludeng01.osg_Geometry_2-Mesh_normals",
      "componentType": 5126,
      "count": 132,
      "min": [
        -0.9074628949165344,
        -0.593049943447113,
        -0.9983243942260742
      ],
      "max": [
        0.9087901711463928,
        0.861924946308136,
        -0.2791649401187897
      ],
      "type": "VEC3",
      "bufferView": 0,
      "byteOffset": 27792
    },
    {
      "name": "Group_MatrixTransform_ludeng01.osg_Geometry_2-Mesh_texcoords",
      "componentType": 5126,
      "count": 132,
      "min": [
        -0.04806949943304062,
        0.0004980000085197389
      ],
      "max": [
        1.048069953918457,
        0.8756899833679199
      ],
      "type": "VEC2",
      "bufferView": 1,
      "byteOffset": 8736
    },
    {
      "name": "Group_MatrixTransform_ludeng01.osg_Geometry_2-Mesh_0_indices",
      "componentType": 5123,
      "count": 132,
      "min": [
        0
      ],
      "max": [
        131
      ],
      "type": "SCALAR",
      "bufferView": 2,
      "byteOffset": 2184
    }
  ],
  "asset": {
    "generator": "obj2gltf",
    "version": "2.0"
  },
  "buffers": [
    {
      "name": "ludeng01.osg",
      "byteLength": 155272,
      "uri": "data:application/octet-stream;base64,"
    }
  ],
  "bufferViews": [
    {
      "name": "bufferView_0",
      "buffer": 0,
      "byteLength": 29376,
      "byteOffset": 0,
      "byteStride": 12,
      "target": 34962
    },
    {
      "name": "bufferView_1",
      "buffer": 0,
      "byteLength": 9792,
      "byteOffset": 29376,
      "byteStride": 8,
      "target": 34962
    },
    {
      "name": "bufferView_2",
      "buffer": 0,
      "byteLength": 2448,
      "byteOffset": 39168,
      "target": 34963
    },
    {
      "buffer": 0,
      "byteOffset": 41616,
      "byteLength": 17574
    },
    {
      "buffer": 0,
      "byteOffset": 59190,
      "byteLength": 96082
    }
  ],
  "images": [
    {
      "name": "TJJS0002_tif_p",
      "mimeType": "image/png",
      "bufferView": 3
    },
    {
      "name": "TJJS0031_tif_p",
      "mimeType": "image/png",
      "bufferView": 4
    }
  ],
  "materials": [
    {
      "name": "material_19",
      "pbrMetallicRoughness": {
        "baseColorTexture": {
          "index": 0
        },
        "baseColorFactor": [
          1,
          1,
          1,
          1
        ],
        "metallicFactor": 0,
        "roughnessFactor": 1
      },
      "emissiveFactor": [
        0,
        0,
        0
      ],
      "alphaMode": "OPAQUE",
      "doubleSided": false
    },
    {
      "name": "material_20",
      "pbrMetallicRoughness": {
        "baseColorTexture": {
          "index": 1
        },
        "baseColorFactor": [
          1,
          1,
          1,
          1
        ],
        "metallicFactor": 0,
        "roughnessFactor": 1
      },
      "emissiveFactor": [
        0,
        0,
        0
      ],
      "alphaMode": "OPAQUE",
      "doubleSided": false
    },
    {
      "name": "material_21",
      "pbrMetallicRoughness": {
        "baseColorFactor": [
          1,
          1,
          1,
          1
        ],
        "metallicFactor": 0,
        "roughnessFactor": 1
      },
      "emissiveFactor": [
        0,
        0,
        0
      ],
      "alphaMode": "OPAQUE",
      "doubleSided": false
    }
  ],
  "meshes": [
    {
      "name": "Group_MatrixTransform_ludeng01.osg_Geometry_0-Mesh",
      "primitives": [
        {
          "attributes": {
            "POSITION": 0,
            "NORMAL": 1,
            "TEXCOORD_0": 2
          },
          "indices": 3,
          "material": 0,
          "mode": 4
        }
      ]
    },
    {
      "name": "Group_MatrixTransform_ludeng01.osg_Geometry_1-Mesh",
      "primitives": [
        {
          "attributes": {
            "POSITION": 4,
            "NORMAL": 5,
            "TEXCOORD_0": 6
          },
          "indices": 7,
          "material": 1,
          "mode": 4
        }
      ]
    },
    {
      "name": "Group_MatrixTransform_ludeng01.osg_Geometry_2-Mesh",
      "primitives": [
        {
          "attributes": {
            "POSITION": 8,
            "NORMAL": 9,
            "TEXCOORD_0": 10
          },
          "indices": 11,
          "material": 2,
          "mode": 4
        }
      ]
    }
  ],
  "nodes": [
    {
      "name": "Group_MatrixTransform_ludeng01.osg_Geometry_0",
      "mesh": 0
    },
    {
      "name": "Group_MatrixTransform_ludeng01.osg_Geometry_1",
      "mesh": 1
    },
    {
      "name": "Group_MatrixTransform_ludeng01.osg_Geometry_2",
      "mesh": 2
    }
  ],
  "samplers": [
    {
      "magFilter": 9729,
      "minFilter": 9986,
      "wrapS": 10497,
      "wrapT": 10497
    }
  ],
  "scene": 0,
  "scenes": [
    {
      "nodes": [
        0,
        1,
        2
      ]
    }
  ],
  "textures": [
    {
      "name": "TJJS0002_tif_p",
      "sampler": 0,
      "source": 0
    },
    {
      "name": "TJJS0031_tif_p",
      "sampler": 0,
      "source": 1
    }
  ]
}
