{
  "accessors": [
    {
      "name": "Group_MatrixTransform_MuMianShu_Geometry_0-Mesh_positions",
      "componentType": 5126,
      "count": 312,
      "min": [
        -4.6770501136779785,
        -4.3329901695251465,
        1.6998100280761719
      ],
      "max": [
        4.19120979309082,
        4.333000183105469,
        8.567580223083496
      ],
      "type": "VEC3",
      "bufferView": 0,
      "byteOffset": 0
    },
    {
      "name": "Group_MatrixTransform_MuMianShu_Geometry_0-Mesh_normals",
      "componentType": 5126,
      "count": 312,
      "min": [
        -0.9814268946647644,
        -0.9960256218910217,
        -0.987978458404541
      ],
      "max": [
        0.9994798898696899,
        0.9999144673347473,
        0.21033503115177155
      ],
      "type": "VEC3",
      "bufferView": 0,
      "byteOffset": 19440
    },
    {
      "name": "Group_MatrixTransform_MuMianShu_Geometry_0-Mesh_texcoords",
      "componentType": 5126,
      "count": 312,
      "min": [
        0,
        0
      ],
      "max": [
        1,
        1
      ],
      "type": "VEC2",
      "bufferView": 1,
      "byteOffset": 0
    },
    {
      "name": "Group_MatrixTransform_MuMianShu_Geometry_0-Mesh_0_indices",
      "componentType": 5123,
      "count": 312,
      "min": [
        0
      ],
      "max": [
        311
      ],
      "type": "SCALAR",
      "bufferView": 2,
      "byteOffset": 0
    },
    {
      "name": "Group_MatrixTransform_MuMianShu_Geometry_1-Mesh_positions",
      "componentType": 5126,
      "count": 744,
      "min": [
        -2.2973499298095703,
        -1.3640199899673462,
        1.8151299953460693
      ],
      "max": [
        1.8588199615478516,
        1.6534600257873535,
        7.609039783477783
      ],
      "type": "VEC3",
      "bufferView": 0,
      "byteOffset": 3744
    },
    {
      "name": "Group_MatrixTransform_MuMianShu_Geometry_1-Mesh_normals",
      "componentType": 5126,
      "count": 744,
      "min": [
        -0.9757069945335388,
        -0.9260396957397461,
        -0.2772139608860016
      ],
      "max": [
        0.9511891603469849,
        0.960250198841095,
        0.9825080633163452
      ],
      "type": "VEC3",
      "bufferView": 0,
      "byteOffset": 23184
    },
    {
      "name": "Group_MatrixTransform_MuMianShu_Geometry_1-Mesh_texcoords",
      "componentType": 5126,
      "count": 744,
      "min": [
        0,
        0
      ],
      "max": [
        1,
        1
      ],
      "type": "VEC2",
      "bufferView": 1,
      "byteOffset": 2496
    },
    {
      "name": "Group_MatrixTransform_MuMianShu_Geometry_1-Mesh_0_indices",
      "componentType": 5123,
      "count": 744,
      "min": [
        0
      ],
      "max": [
        743
      ],
      "type": "SCALAR",
      "bufferView": 2,
      "byteOffset": 624
    },
    {
      "name": "Group_MatrixTransform_MuMianShu_Geometry_2-Mesh_positions",
      "componentType": 5126,
      "count": 252,
      "min": [
        -1.5176199674606323,
        -1.3977099657058716,
        5.7375898361206055
      ],
      "max": [
        1.2396299839019775,
        1.4393500089645386,
        7.460140228271484
      ],
      "type": "VEC3",
      "bufferView": 0,
      "byteOffset": 12672
    },
    {
      "name": "Group_MatrixTransform_MuMianShu_Geometry_2-Mesh_normals",
      "componentType": 5126,
      "count": 252,
      "min": [
        -0.9192364811897278,
        -0.9733741283416748,
        0.04938402771949768
      ],
      "max": [
        0.9910433888435364,
        0.9747050404548645,
        0.9123671054840088
      ],
      "type": "VEC3",
      "bufferView": 0,
      "byteOffset": 32112
    },
    {
      "name": "Group_MatrixTransform_MuMianShu_Geometry_2-Mesh_texcoords",
      "componentType": 5126,
      "count": 252,
      "min": [
        0,
        0
      ],
      "max": [
        1,
        1
      ],
      "type": "VEC2",
      "bufferView": 1,
      "byteOffset": 8448
    },
    {
      "name": "Group_MatrixTransform_MuMianShu_Geometry_2-Mesh_0_indices",
      "componentType": 5123,
      "count": 252,
      "min": [
        0
      ],
      "max": [
        251
      ],
      "type": "SCALAR",
      "bufferView": 2,
      "byteOffset": 2112
    },
    {
      "name": "Group_MatrixTransform_MuMianShu_Geometry_3-Mesh_positions",
      "componentType": 5126,
      "count": 312,
      "min": [
        -1.6287599802017212,
        -0.1260949969291687,
        -0.0015134799759835005
      ],
      "max": [
        1.0181299448013306,
        0.4798800051212311,
        5.784379959106445
      ],
      "type": "VEC3",
      "bufferView": 0,
      "byteOffset": 15696
    },
    {
      "name": "Group_MatrixTransform_MuMianShu_Geometry_3-Mesh_normals",
      "componentType": 5126,
      "count": 312,
      "min": [
        -0.9819826483726501,
        -0.9489165544509888,
        -0.9113605618476868
      ],
      "max": [
        0.9818907976150513,
        0.948914647102356,
        0.9998910427093506
      ],
      "type": "VEC3",
      "bufferView": 0,
      "byteOffset": 35136
    },
    {
      "name": "Group_MatrixTransform_MuMianShu_Geometry_3-Mesh_texcoords",
      "componentType": 5126,
      "count": 312,
      "min": [
        -2.1468799114227295,
        -5.285890102386475
      ],
      "max": [
        3.1468799114227295,
        6.285890102386475
      ],
      "type": "VEC2",
      "bufferView": 1,
      "byteOffset": 10464
    },
    {
      "name": "Group_MatrixTransform_MuMianShu_Geometry_3-Mesh_0_indices",
      "componentType": 5123,
      "count": 312,
      "min": [
        0
      ],
      "max": [
        311
      ],
      "type": "SCALAR",
      "bufferView": 2,
      "byteOffset": 2616
    }
  ],
  "asset": {
    "generator": "obj2gltf",
    "version": "2.0"
  },
  "buffers": [
    {
      "name": "MuMianShu",
      "byteLength": 1023772,
      "uri": "data:application/octet-stream;base64,"
    }
  ],
  "bufferViews": [
    {
      "name": "bufferView_0",
      "buffer": 0,
      "byteLength": 38880,
      "byteOffset": 0,
      "byteStride": 12,
      "target": 34962
    },
    {
      "name": "bufferView_1",
      "buffer": 0,
      "byteLength": 12960,
      "byteOffset": 38880,
      "byteStride": 8,
      "target": 34962
    },
    {
      "name": "bufferView_2",
      "buffer": 0,
      "byteLength": 3240,
      "byteOffset": 51840,
      "target": 34963
    },
    {
      "buffer": 0,
      "byteOffset": 55080,
      "byteLength": 214624
    },
    {
      "buffer": 0,
      "byteOffset": 269704,
      "byteLength": 329471
    },
    {
      "buffer": 0,
      "byteOffset": 599175,
      "byteLength": 356219
    },
    {
      "buffer": 0,
      "byteOffset": 955394,
      "byteLength": 68377
    }
  ],
  "images": [
    {
      "name": "MuMianShu_shuye003",
      "mimeType": "image/png",
      "bufferView": 3
    },
    {
      "name": "MuMianShu_shuye002",
      "mimeType": "image/png",
      "bufferView": 4
    },
    {
      "name": "MuMianShu_shuye001",
      "mimeType": "image/png",
      "bufferView": 5
    },
    {
      "name": "archmodels58_050_picea_1",
      "mimeType": "image/png",
      "bufferView": 6
    }
  ],
  "materials": [
    {
      "name": "material_22",
      "pbrMetallicRoughness": {
        "baseColorTexture": {
          "index": 0
        },
        "baseColorFactor": [
          1,
          1,
          1,
          1
        ],
        "metallicFactor": 0,
        "roughnessFactor": 1
      },
      "emissiveFactor": [
        0,
        0,
        0
      ],
      "alphaMode": "BLEND",
      "doubleSided": true
    },
    {
      "name": "material_23",
      "pbrMetallicRoughness": {
        "baseColorTexture": {
          "index": 1
        },
        "baseColorFactor": [
          1,
          1,
          1,
          1
        ],
        "metallicFactor": 0,
        "roughnessFactor": 1
      },
      "emissiveFactor": [
        0,
        0,
        0
      ],
      "alphaMode": "BLEND",
      "doubleSided": true
    },
    {
      "name": "material_24",
      "pbrMetallicRoughness": {
        "baseColorTexture": {
          "index": 2
        },
        "baseColorFactor": [
          1,
          1,
          1,
          1
        ],
        "metallicFactor": 0,
        "roughnessFactor": 1
      },
      "emissiveFactor": [
        0,
        0,
        0
      ],
      "alphaMode": "BLEND",
      "doubleSided": true
    },
    {
      "name": "material_25",
      "pbrMetallicRoughness": {
        "baseColorTexture": {
          "index": 3
        },
        "baseColorFactor": [
          1,
          1,
          1,
          1
        ],
        "metallicFactor": 0,
        "roughnessFactor": 1
      },
      "emissiveFactor": [
        0,
        0,
        0
      ],
      "alphaMode": "OPAQUE",
      "doubleSided": false
    }
  ],
  "meshes": [
    {
      "name": "Group_MatrixTransform_MuMianShu_Geometry_0-Mesh",
      "primitives": [
        {
          "attributes": {
            "POSITION": 0,
            "NORMAL": 1,
            "TEXCOORD_0": 2
          },
          "indices": 3,
          "material": 0,
          "mode": 4
        }
      ]
    },
    {
      "name": "Group_MatrixTransform_MuMianShu_Geometry_1-Mesh",
      "primitives": [
        {
          "attributes": {
            "POSITION": 4,
            "NORMAL": 5,
            "TEXCOORD_0": 6
          },
          "indices": 7,
          "material": 1,
          "mode": 4
        }
      ]
    },
    {
      "name": "Group_MatrixTransform_MuMianShu_Geometry_2-Mesh",
      "primitives": [
        {
          "attributes": {
            "POSITION": 8,
            "NORMAL": 9,
            "TEXCOORD_0": 10
          },
          "indices": 11,
          "material": 2,
          "mode": 4
        }
      ]
    },
    {
      "name": "Group_MatrixTransform_MuMianShu_Geometry_3-Mesh",
      "primitives": [
        {
          "attributes": {
            "POSITION": 12,
            "NORMAL": 13,
            "TEXCOORD_0": 14
          },
          "indices": 15,
          "material": 3,
          "mode": 4
        }
      ]
    }
  ],
  "nodes": [
    {
      "name": "Group_MatrixTransform_MuMianShu_Geometry_0",
      "mesh": 0
    },
    {
      "name": "Group_MatrixTransform_MuMianShu_Geometry_1",
      "mesh": 1
    },
    {
      "name": "Group_MatrixTransform_MuMianShu_Geometry_2",
      "mesh": 2
    },
    {
      "name": "Group_MatrixTransform_MuMianShu_Geometry_3",
      "mesh": 3
    }
  ],
  "samplers": [
    {
      "magFilter": 9729,
      "minFilter": 9986,
      "wrapS": 10497,
      "wrapT": 10497
    }
  ],
  "scene": 0,
  "scenes": [
    {
      "nodes": [
        0,
        1,
        2,
        3
      ]
    }
  ],
  "textures": [
    {
      "name": "MuMianShu_shuye003",
      "sampler": 0,
      "source": 0
    },
    {
      "name": "MuMianShu_shuye002",
      "sampler": 0,
      "source": 1
    },
    {
      "name": "MuMianShu_shuye001",
      "sampler": 0,
      "source": 2
    },
    {
      "name": "archmodels58_050_picea_1",
      "sampler": 0,
      "source": 3
    }
  ]
}
