{
  "accessors": [
    {
      "name": "Group_MatrixTransform_RenXinGuoShu_Geometry_0-Mesh_positions",
      "componentType": 5126,
      "count": 984,
      "min": [
        -3.428570032119751,
        -3.4049301147460938,
        1.8470699787139893
      ],
      "max": [
        4.535490036010742,
        4.101230144500732,
        7.5284600257873535
      ],
      "type": "VEC3",
      "bufferView": 0,
      "byteOffset": 0
    },
    {
      "name": "Group_MatrixTransform_RenXinGuoShu_Geometry_0-Mesh_normals",
      "componentType": 5126,
      "count": 984,
      "min": [
        -0.8672470450401306,
        -0.9300301671028137,
        -0.9990091919898987
      ],
      "max": [
        0.8298842906951904,
        0.9844489097595215,
        -0.15115933120250702
      ],
      "type": "VEC3",
      "bufferView": 0,
      "byteOffset": 25848
    },
    {
      "name": "Group_MatrixTransform_RenXinGuoShu_Geometry_0-Mesh_texcoords",
      "componentType": 5126,
      "count": 984,
      "min": [
        0.0004995170165784657,
        0.06046999990940094
      ],
      "max": [
        0.9964190125465393,
        0.7650229930877686
      ],
      "type": "VEC2",
      "bufferView": 1,
      "byteOffset": 0
    },
    {
      "name": "Group_MatrixTransform_RenXinGuoShu_Geometry_0-Mesh_0_indices",
      "componentType": 5123,
      "count": 984,
      "min": [
        0
      ],
      "max": [
        983
      ],
      "type": "SCALAR",
      "bufferView": 2,
      "byteOffset": 0
    },
    {
      "name": "Group_MatrixTransform_RenXinGuoShu_Geometry_1-Mesh_positions",
      "componentType": 5126,
      "count": 408,
      "min": [
        -1.5965399742126465,
        -2.5166499614715576,
        6.65015983581543
      ],
      "max": [
        2.8314099311828613,
        1.3646399974822998,
        8.398320198059082
      ],
      "type": "VEC3",
      "bufferView": 0,
      "byteOffset": 11808
    },
    {
      "name": "Group_MatrixTransform_RenXinGuoShu_Geometry_1-Mesh_normals",
      "componentType": 5126,
      "count": 408,
      "min": [
        -0.6163743138313293,
        -0.8542535305023193,
        -0.9335805177688599
      ],
      "max": [
        0.8298837542533875,
        0.7049391865730286,
        -0.5135401487350464
      ],
      "type": "VEC3",
      "bufferView": 0,
      "byteOffset": 37656
    },
    {
      "name": "Group_MatrixTransform_RenXinGuoShu_Geometry_1-Mesh_texcoords",
      "componentType": 5126,
      "count": 408,
      "min": [
        0.0004995170165784657,
        0.06046999990940094
      ],
      "max": [
        0.9964190125465393,
        0.7650229930877686
      ],
      "type": "VEC2",
      "bufferView": 1,
      "byteOffset": 7872
    },
    {
      "name": "Group_MatrixTransform_RenXinGuoShu_Geometry_1-Mesh_0_indices",
      "componentType": 5123,
      "count": 408,
      "min": [
        0
      ],
      "max": [
        407
      ],
      "type": "SCALAR",
      "bufferView": 2,
      "byteOffset": 1968
    },
    {
      "name": "Group_MatrixTransform_RenXinGuoShu_Geometry_2-Mesh_positions",
      "componentType": 5126,
      "count": 762,
      "min": [
        -1.9563599824905396,
        -2.114109992980957,
        -0.00692825997248292
      ],
      "max": [
        2.4570798873901367,
        2.4653000831604004,
        8.208330154418945
      ],
      "type": "VEC3",
      "bufferView": 0,
      "byteOffset": 16704
    },
    {
      "name": "Group_MatrixTransform_RenXinGuoShu_Geometry_2-Mesh_normals",
      "componentType": 5126,
      "count": 762,
      "min": [
        -0.9917423725128174,
        -0.9967251420021057,
        -0.9826822876930237
      ],
      "max": [
        0.993820071220398,
        0.9932546615600586,
        0.9935550689697266
      ],
      "type": "VEC3",
      "bufferView": 0,
      "byteOffset": 42552
    },
    {
      "name": "Group_MatrixTransform_RenXinGuoShu_Geometry_2-Mesh_texcoords",
      "componentType": 5126,
      "count": 762,
      "min": [
        -9.003999710083008,
        -9.003999710083008
      ],
      "max": [
        10.003999710083008,
        10.003259658813477
      ],
      "type": "VEC2",
      "bufferView": 1,
      "byteOffset": 11136
    },
    {
      "name": "Group_MatrixTransform_RenXinGuoShu_Geometry_2-Mesh_0_indices",
      "componentType": 5123,
      "count": 762,
      "min": [
        0
      ],
      "max": [
        761
      ],
      "type": "SCALAR",
      "bufferView": 2,
      "byteOffset": 2784
    }
  ],
  "asset": {
    "generator": "obj2gltf",
    "version": "2.0"
  },
  "buffers": [
    {
      "name": "RenXinGuoShu",
      "byteLength": 689008,
      "uri": "data:application/octet-stream;base64,"
    }
  ],
  "bufferViews": [
    {
      "name": "bufferView_0",
      "buffer": 0,
      "byteLength": 51696,
      "byteOffset": 0,
      "byteStride": 12,
      "target": 34962
    },
    {
      "name": "bufferView_1",
      "buffer": 0,
      "byteLength": 17232,
      "byteOffset": 51696,
      "byteStride": 8,
      "target": 34962
    },
    {
      "name": "bufferView_2",
      "buffer": 0,
      "byteLength": 4308,
      "byteOffset": 68928,
      "target": 34963
    },
    {
      "buffer": 0,
      "byteOffset": 73236,
      "byteLength": 283377
    },
    {
      "buffer": 0,
      "byteOffset": 356613,
      "byteLength": 264513
    },
    {
      "buffer": 0,
      "byteOffset": 621126,
      "byteLength": 67880
    }
  ],
  "images": [
    {
      "name": "RenXinGuoShu_shuye15",
      "mimeType": "image/png",
      "bufferView": 3
    },
    {
      "name": "RenXinGuoShu_shuye18",
      "mimeType": "image/png",
      "bufferView": 4
    },
    {
      "name": "archmodels58_048_pinus_sylvestris_bark",
      "mimeType": "image/png",
      "bufferView": 5
    }
  ],
  "materials": [
    {
      "name": "material_26",
      "pbrMetallicRoughness": {
        "baseColorTexture": {
          "index": 0
        },
        "baseColorFactor": [
          1,
          1,
          1,
          1
        ],
        "metallicFactor": 0,
        "roughnessFactor": 1
      },
      "emissiveFactor": [
        0,
        0,
        0
      ],
      "alphaMode": "BLEND",
      "doubleSided": true
    },
    {
      "name": "material_27",
      "pbrMetallicRoughness": {
        "baseColorTexture": {
          "index": 1
        },
        "baseColorFactor": [
          1,
          1,
          1,
          1
        ],
        "metallicFactor": 0,
        "roughnessFactor": 1
      },
      "emissiveFactor": [
        0,
        0,
        0
      ],
      "alphaMode": "BLEND",
      "doubleSided": true
    },
    {
      "name": "material_28",
      "pbrMetallicRoughness": {
        "baseColorTexture": {
          "index": 2
        },
        "baseColorFactor": [
          1,
          1,
          1,
          1
        ],
        "metallicFactor": 0,
        "roughnessFactor": 1
      },
      "emissiveFactor": [
        0,
        0,
        0
      ],
      "alphaMode": "OPAQUE",
      "doubleSided": false
    }
  ],
  "meshes": [
    {
      "name": "Group_MatrixTransform_RenXinGuoShu_Geometry_0-Mesh",
      "primitives": [
        {
          "attributes": {
            "POSITION": 0,
            "NORMAL": 1,
            "TEXCOORD_0": 2
          },
          "indices": 3,
          "material": 0,
          "mode": 4
        }
      ]
    },
    {
      "name": "Group_MatrixTransform_RenXinGuoShu_Geometry_1-Mesh",
      "primitives": [
        {
          "attributes": {
            "POSITION": 4,
            "NORMAL": 5,
            "TEXCOORD_0": 6
          },
          "indices": 7,
          "material": 1,
          "mode": 4
        }
      ]
    },
    {
      "name": "Group_MatrixTransform_RenXinGuoShu_Geometry_2-Mesh",
      "primitives": [
        {
          "attributes": {
            "POSITION": 8,
            "NORMAL": 9,
            "TEXCOORD_0": 10
          },
          "indices": 11,
          "material": 2,
          "mode": 4
        }
      ]
    }
  ],
  "nodes": [
    {
      "name": "Group_MatrixTransform_RenXinGuoShu_Geometry_0",
      "mesh": 0
    },
    {
      "name": "Group_MatrixTransform_RenXinGuoShu_Geometry_1",
      "mesh": 1
    },
    {
      "name": "Group_MatrixTransform_RenXinGuoShu_Geometry_2",
      "mesh": 2
    }
  ],
  "samplers": [
    {
      "magFilter": 9729,
      "minFilter": 9986,
      "wrapS": 10497,
      "wrapT": 10497
    }
  ],
  "scene": 0,
  "scenes": [
    {
      "nodes": [
        0,
        1,
        2
      ]
    }
  ],
  "textures": [
    {
      "name": "RenXinGuoShu_shuye15",
      "sampler": 0,
      "source": 0
    },
    {
      "name": "RenXinGuoShu_shuye18",
      "sampler": 0,
      "source": 1
    },
    {
      "name": "archmodels58_048_pinus_sylvestris_bark",
      "sampler": 0,
      "source": 2
    }
  ]
}
