{
  "accessors": [
    {
      "name": "Group_MatrixTransform__Geometry_0-Mesh_positions",
      "componentType": 5126,
      "count": 6,
      "min": [
        -2.549999952316284,
        -7.275959653838763e-15,
        -2.9000000953674316
      ],
      "max": [
        2.549999952316284,
        7.275959653838763e-15,
        2.9000000953674316
      ],
      "type": "VEC3",
      "bufferView": 0,
      "byteOffset": 0
    },
    {
      "name": "Group_MatrixTransform__Geometry_0-Mesh_normals",
      "componentType": 5126,
      "count": 6,
      "min": [
        -2.853320056560283e-15,
        1,
        -1.5975000092359926e-15
      ],
      "max": [
        1.3584400310531354e-37,
        1,
        9.114549909697918e-16
      ],
      "type": "VEC3",
      "bufferView": 0,
      "byteOffset": 144
    },
    {
      "name": "Group_MatrixTransform__Geometry_0-Mesh_texcoords",
      "componentType": 5126,
      "count": 6,
      "min": [
        0.0004995469935238361,
        0.0004990000161342323
      ],
      "max": [
        0.9995009899139404,
        0.9995004534721375
      ],
      "type": "VEC2",
      "bufferView": 1,
      "byteOffset": 0
    },
    {
      "name": "Group_MatrixTransform__Geometry_0-Mesh_0_indices",
      "componentType": 5123,
      "count": 6,
      "min": [
        0
      ],
      "max": [
        5
      ],
      "type": "SCALAR",
      "bufferView": 2,
      "byteOffset": 0
    },
    {
      "name": "Group_MatrixTransform_tjjg00089_Geometry_0-Mesh_positions",
      "componentType": 5126,
      "count": 6,
      "min": [
        -2.022209882736206,
        -2.2155799865722656,
        0
      ],
      "max": [
        2.022209882736206,
        2.2155799865722656,
        0
      ],
      "type": "VEC3",
      "bufferView": 0,
      "byteOffset": 72
    },
    {
      "name": "Group_MatrixTransform_tjjg00089_Geometry_0-Mesh_normals",
      "componentType": 5126,
      "count": 6,
      "min": [
        0,
        0,
        1
      ],
      "max": [
        0,
        0,
        1
      ],
      "type": "VEC3",
      "bufferView": 0,
      "byteOffset": 216
    },
    {
      "name": "Group_MatrixTransform_tjjg00089_Geometry_0-Mesh_texcoords",
      "componentType": 5126,
      "count": 6,
      "min": [
        0.0004995170165784657,
        0.0004990000161342323
      ],
      "max": [
        0.9995009899139404,
        0.999500572681427
      ],
      "type": "VEC2",
      "bufferView": 1,
      "byteOffset": 48
    },
    {
      "name": "Group_MatrixTransform_tjjg00089_Geometry_0-Mesh_0_indices",
      "componentType": 5123,
      "count": 6,
      "min": [
        0
      ],
      "max": [
        5
      ],
      "type": "SCALAR",
      "bufferView": 2,
      "byteOffset": 12
    }
  ],
  "asset": {
    "generator": "obj2gltf",
    "version": "2.0"
  },
  "buffers": [
    {
      "name": "tjjg00089",
      "byteLength": 386120,
      "uri": "data:application/octet-stream;base64,"
    }
  ],
  "bufferViews": [
    {
      "name": "bufferView_0",
      "buffer": 0,
      "byteLength": 288,
      "byteOffset": 0,
      "byteStride": 12,
      "target": 34962
    },
    {
      "name": "bufferView_1",
      "buffer": 0,
      "byteLength": 96,
      "byteOffset": 288,
      "byteStride": 8,
      "target": 34962
    },
    {
      "name": "bufferView_2",
      "buffer": 0,
      "byteLength": 24,
      "byteOffset": 384,
      "target": 34963
    },
    {
      "buffer": 0,
      "byteOffset": 408,
      "byteLength": 372428
    },
    {
      "buffer": 0,
      "byteOffset": 372836,
      "byteLength": 13282
    }
  ],
  "images": [
    {
      "name": "tjjg00089",
      "mimeType": "image/png",
      "bufferView": 3
    },
    {
      "name": "tjgs0049",
      "mimeType": "image/png",
      "bufferView": 4
    }
  ],
  "materials": [
    {
      "name": "material_29",
      "pbrMetallicRoughness": {
        "baseColorTexture": {
          "index": 0
        },
        "baseColorFactor": [
          1,
          1,
          1,
          1
        ],
        "metallicFactor": 0,
        "roughnessFactor": 1
      },
      "emissiveFactor": [
        0,
        0,
        0
      ],
      "alphaMode": "BLEND",
      "doubleSided": true
    },
    {
      "name": "material_30",
      "pbrMetallicRoughness": {
        "baseColorTexture": {
          "index": 1
        },
        "baseColorFactor": [
          1,
          1,
          1,
          1
        ],
        "metallicFactor": 0,
        "roughnessFactor": 1
      },
      "emissiveFactor": [
        0,
        0,
        0
      ],
      "alphaMode": "BLEND",
      "doubleSided": true
    }
  ],
  "meshes": [
    {
      "name": "Group_MatrixTransform__Geometry_0-Mesh",
      "primitives": [
        {
          "attributes": {
            "POSITION": 0,
            "NORMAL": 1,
            "TEXCOORD_0": 2
          },
          "indices": 3,
          "material": 0,
          "mode": 4
        }
      ]
    },
    {
      "name": "Group_MatrixTransform_tjjg00089_Geometry_0-Mesh",
      "primitives": [
        {
          "attributes": {
            "POSITION": 4,
            "NORMAL": 5,
            "TEXCOORD_0": 6
          },
          "indices": 7,
          "material": 1,
          "mode": 4
        }
      ]
    }
  ],
  "nodes": [
    {
      "name": "Group_MatrixTransform__Geometry_0",
      "mesh": 0
    },
    {
      "name": "Group_MatrixTransform_tjjg00089_Geometry_0",
      "mesh": 1
    }
  ],
  "samplers": [
    {
      "magFilter": 9729,
      "minFilter": 9986,
      "wrapS": 10497,
      "wrapT": 10497
    }
  ],
  "scene": 0,
  "scenes": [
    {
      "nodes": [
        0,
        1
      ]
    }
  ],
  "textures": [
    {
      "name": "tjjg00089",
      "sampler": 0,
      "source": 0
    },
    {
      "name": "tjgs0049",
      "sampler": 0,
      "source": 1
    }
  ]
}
