<?xml version="1.0" standalone="no"?><!DOCTYPE svg PUBLIC "-//W3C//DTD SVG 1.1//EN" "http://www.w3.org/Graphics/SVG/1.1/DTD/svg11.dtd"><svg t="1555918281133" class="icon" style="" viewBox="0 0 1024 1024" version="1.1" xmlns="http://www.w3.org/2000/svg" p-id="16018" xmlns:xlink="http://www.w3.org/1999/xlink" width="32" height="32"><defs><style type="text/css"></style></defs><path d="M772.60232 120.624265l-526.798031 0c-48.295959 0-86.147032 38.568411-86.147032 87.799672l1.792832 604.822059c0 49.231261 37.851073 87.799672 86.147032 87.799672l155.50468 0L403.101801 359.180476l458.95283 0 0-2.493797L862.054631 208.423937C862.054631 160.009274 821.926702 120.624265 772.60232 120.624265zM814.163901 311.289746l-59.863413 0 0-79.817883-31.927153 0 0 79.817883-63.854307 0 0-47.89073-31.927153 0 0 47.89073-63.854307 0 0-47.89073-31.927153 0 0 47.89073-63.854307 0 0-79.817883-31.927153 0 0 79.817883-31.927153 0-35.918048 0-11.972683 0 0 63.854307-47.89073 0 0 31.927153 47.89073 0 0 63.854307-79.817883 0 0 31.927153 79.817883 0 0 63.854307-47.89073 0 0 31.927153 47.89073 0 0 63.854307-47.89073 0 0 31.927153 47.89073 0 0 63.854307-79.817883 0 0 31.927153 79.817883 0 0 62.956867L247.597121 853.153914c-21.451568 0-38.256302-17.529235-38.256302-39.908942l-1.792832-604.822059c0-22.379707 16.804734-39.908942 38.256302-39.908942l526.798031 0c22.542412 0 41.561581 18.278295 41.561581 39.908942L814.163901 311.289746z" p-id="16019" fill="#58a5e2"></path></svg>