<?xml version="1.0" standalone="no"?><!DOCTYPE svg PUBLIC "-//W3C//DTD SVG 1.1//EN" "http://www.w3.org/Graphics/SVG/1.1/DTD/svg11.dtd"><svg t="1610710811854" class="icon" viewBox="0 0 1024 1024" version="1.1" xmlns="http://www.w3.org/2000/svg" p-id="4663" xmlns:xlink="http://www.w3.org/1999/xlink" width="32" height="32"><defs><style type="text/css"></style></defs><path d="M872.448 139.264L0 593.92l151.552 290.816L1024 430.08 872.448 139.264zM790.528 405.504l28.672 57.344-57.344 28.672-28.672-57.344-57.344 28.672 28.672 57.344-57.344 28.672-61.44-114.688-57.344 28.672 61.44 114.688L528.384 614.4l-28.672-57.344-57.344 28.672 28.672 57.344-57.344 28.672-61.44-114.688-57.344 28.672 28.672 57.344 28.672 57.344-57.344 28.672-28.672-57.344-57.344 28.672 28.672 57.344-57.344 28.672-90.112-176.128 57.344-28.672 114.688-61.44 57.344-28.672 57.344-28.672 466.944-241.664L876.544 286.72l61.44 114.688-57.344 28.672-61.44-114.688-57.344 28.672L790.528 405.504z" fill="#1296db" p-id="4664"></path></svg>