<?xml version="1.0" standalone="no"?><!DOCTYPE svg PUBLIC "-//W3C//DTD SVG 1.1//EN" "http://www.w3.org/Graphics/SVG/1.1/DTD/svg11.dtd"><svg t="1610710898650" class="icon" viewBox="0 0 1024 1024" version="1.1" xmlns="http://www.w3.org/2000/svg" p-id="6191" xmlns:xlink="http://www.w3.org/1999/xlink" width="32" height="32"><defs><style type="text/css"></style></defs><path d="M402.272 420.576l0 329.152q0 8-5.152 13.152t-13.152 5.152l-36.576 0q-8 0-13.152-5.152t-5.152-13.152l0-329.152q0-8 5.152-13.152t13.152-5.152l36.576 0q8 0 13.152 5.152t5.152 13.152zM548.544 420.576l0 329.152q0 8-5.152 13.152t-13.152 5.152l-36.576 0q-8 0-13.152-5.152t-5.152-13.152l0-329.152q0-8 5.152-13.152t13.152-5.152l36.576 0q8 0 13.152 5.152t5.152 13.152zM694.848 420.576l0 329.152q0 8-5.152 13.152t-13.152 5.152l-36.576 0q-8 0-13.152-5.152t-5.152-13.152l0-329.152q0-8 5.152-13.152t13.152-5.152l36.576 0q8 0 13.152 5.152t5.152 13.152zM767.968 834.272l0-541.728-512 0 0 541.728q0 12.576 4 23.136t8.288 15.424 6.016 4.864l475.424 0q1.728 0 6.016-4.864t8.288-15.424 4-23.136zM383.968 219.424l256 0-27.424-66.848q-4-5.152-9.728-6.272l-181.152 0q-5.728 1.152-9.728 6.272zM914.272 237.728l0 36.576q0 8-5.152 13.152t-13.152 5.152l-54.848 0 0 541.728q0 47.424-26.848 82.016t-64.576 34.56l-475.424 0q-37.728 0-64.576-33.44t-26.848-80.864l0-544-54.848 0q-8 0-13.152-5.152t-5.152-13.152l0-36.576q0-8 5.152-13.152t13.152-5.152l176.576 0 40-95.424q8.576-21.152 30.848-36t45.152-14.848l182.848 0q22.848 0 45.152 14.848t30.848 36l40 95.424 176.576 0q8 0 13.152 5.152t5.152 13.152z" p-id="6192" fill="#1296db"></path></svg>